<svg width="808" height="570" viewBox="0 0 808 570" fill="none" xmlns="http://www.w3.org/2000/svg">
<path fill-rule="evenodd" clip-rule="evenodd" d="M422.604 169.629C420.556 171.215 418.683 172.978 417.042 174.91C416.31 175.771 414.986 177.635 414.623 179.357C414.229 181.19 414.788 182.877 416.576 184.003C418.952 185.496 420.958 185.698 422.568 185.277C424.119 184.874 425.414 183.804 426.329 182.24C428.077 179.249 428.406 174.308 427.982 171.391C430.139 169.945 432.469 168.692 434.931 167.641C453.267 159.81 478.04 167.695 495.701 186.547C501.881 193.148 503.874 205.267 504.201 218.055C504.712 237.966 500.817 259.497 499.909 265.842C499.688 267.409 499.757 268.371 499.831 268.573C500.177 269.562 500.938 269.926 501.479 270.103C502.263 270.353 502.913 270.322 503.451 270.173C504.178 269.967 504.809 269.501 505.169 268.685C505.363 268.233 505.473 267.579 505.531 266.873C505.566 266.382 505.51 265.831 505.663 265.499C506.648 263.376 507.78 261.331 508.895 259.266C512.621 252.323 517.15 245.981 522.095 239.713C537.807 219.797 553.219 198.565 576.86 185.241C577.92 184.643 578.158 183.356 577.378 182.369C576.607 181.383 575.116 181.068 574.046 181.665C549.932 195.251 534.125 216.828 518.1 237.138C513.894 242.47 509.982 247.857 506.59 253.602C508.063 242.722 509.616 227.583 508.777 213.838C508.031 201.613 505.283 190.479 499.276 184.062C479.929 163.41 452.635 155.269 432.555 163.85C430.408 164.768 428.341 165.825 426.395 167.019C418.242 150.051 397.848 140.536 378.418 144.954C377.17 145.236 376.514 146.375 376.942 147.493C377.379 148.613 378.734 149.292 379.982 149.01C397.49 145.028 415.871 153.971 422.604 169.629ZM423.414 175.005C422.542 175.825 421.724 176.688 420.949 177.592C420.538 178.077 419.816 179.022 419.448 180C419.365 180.23 419.315 180.602 419.296 180.775C419.92 181.158 420.418 181.374 420.855 181.259C421.402 181.118 421.726 180.633 422.046 180.085C422.854 178.711 423.277 176.788 423.414 175.005Z" fill="#9781E6"/>
<path d="M667.742 19.6742C800.337 23.1268 814.173 82.5058 768.526 135.325C633.737 291.291 722.719 350.456 763.825 328.59C829.424 293.694 668.24 184.159 604.521 272.064C549.27 348.287 546.825 470.464 364.568 399.465C189.801 331.384 18.0777 568.457 18.0777 568.457" stroke="#2E096F" stroke-width="2.04427" stroke-dasharray="4.09 4.09"/>
<path d="M645.949 20.9384L662.207 4.88336L663.242 35.8726L645.949 20.9384Z" fill="#2E096F"/>
</svg>
