<svg width="239" height="103" viewBox="0 0 239 103" fill="none" xmlns="http://www.w3.org/2000/svg">
<g clip-path="url(#clip0_193_36769)">
<path d="M80.6913 16.8605C71.6029 9.30643 60.1278 5.22435 48.3104 5.34161C21.3298 5.34161 0.240723 25.6863 0.240723 54.2047C0.240723 82.3204 22.258 102.516 49.0982 102.516C60.0738 102.53 70.7339 98.846 79.3591 92.0584C79.6862 92.361 80.0972 92.7636 80.3698 92.9845C86.8002 98.2624 96.1719 101.441 105.117 101.441C110.062 101.441 114.956 100.456 119.516 98.5434C122.994 100.213 126.808 101.068 130.667 101.042L225.324 101.012C233.252 100.646 238.941 94.6187 238.866 86.6449V64.3536C238.866 64.1883 238.832 64.0247 238.767 63.8729C238.702 63.7211 238.606 63.5842 238.486 63.4708C238.366 63.3574 238.223 63.2698 238.068 63.2134C237.913 63.157 237.747 63.1331 237.582 63.143H235.924C233.778 63.143 232.973 62.075 232.973 59.9278V56.0199C232.646 39.2853 219.988 27.3352 201.689 27.3352H136.958L137.069 26.5971C137.835 21.2734 136.674 15.8514 133.797 11.3072C130.92 6.76309 126.515 3.39538 121.376 1.81045C118.681 1.00395 115.879 0.610856 113.066 0.644577C98.7378 0.644577 87.611 9.36064 80.6913 16.8605Z" fill="#395EAB"/>
<path d="M224.779 88.0336C225.688 87.9944 225.929 87.5918 225.914 86.6356C225.914 86.426 225.878 74.3737 225.878 74.3737C225.885 74.2602 225.869 74.1464 225.83 74.0396C225.79 73.9327 225.729 73.8352 225.651 73.7533C225.572 73.6713 225.477 73.6066 225.371 73.5634C225.266 73.5202 225.153 73.4993 225.039 73.5021C223.222 73.5203 222.013 73.3176 221.195 72.5236C220.227 71.6149 219.984 70.6364 219.984 67.6819V56.2832C219.914 52.5744 218.696 48.9784 216.5 45.9891C214.303 42.9998 211.235 40.7639 207.717 39.5883C204.199 38.4127 200.403 38.3552 196.85 39.4237C193.298 40.4921 190.164 42.6342 187.878 45.5555C186.411 43.448 184.461 41.7221 182.191 40.5219C179.921 39.3216 177.396 38.6819 174.829 38.6561C172.261 38.6303 169.725 39.2192 167.431 40.3736C165.137 41.528 163.153 43.2144 161.644 45.292L161.466 45.5192V41.122C161.467 41.0186 161.447 40.916 161.408 40.8202C161.369 40.7244 161.311 40.6373 161.239 40.5639C161.166 40.4905 161.079 40.4322 160.984 40.3924C160.888 40.3526 160.786 40.3322 160.682 40.3322H145.891C145.683 40.3322 145.484 40.4147 145.337 40.5617C145.19 40.7086 145.107 40.9079 145.107 41.1157V87.264C145.107 87.3668 145.128 87.4685 145.167 87.5634C145.206 87.6583 145.264 87.7445 145.337 87.8171C145.41 87.8896 145.496 87.9471 145.591 87.9861C145.686 88.0252 145.788 88.0451 145.891 88.0448H161.324C161.531 88.0448 161.73 87.9625 161.876 87.8161C162.022 87.6697 162.105 87.4711 162.105 87.264L162.132 59.8353C162.132 58.1499 162.801 56.5335 163.993 55.3417C165.185 54.1499 166.801 53.4804 168.487 53.4804H168.526C170.211 53.4804 171.828 54.1499 173.02 55.3417C174.211 56.5335 174.881 58.1499 174.881 59.8353V87.264C174.881 87.4713 174.963 87.6702 175.11 87.8171C175.256 87.9639 175.454 88.0468 175.662 88.0475H190.608C190.735 88.0455 190.859 88.0121 190.97 87.9503C191.081 87.8884 191.175 87.8001 191.243 87.6932C191.334 87.5692 191.385 87.4204 191.388 87.2668V59.6452C191.388 58.0128 192.037 56.4472 193.191 55.2929C194.345 54.1386 195.911 53.4901 197.543 53.4901C199.176 53.4901 200.741 54.1386 201.896 55.2929C203.05 56.4472 203.699 58.0128 203.699 59.6452C203.699 59.6452 203.729 76.198 203.732 76.3343C203.859 80.9034 206.029 88.0427 216.493 88.0364L224.779 88.0336Z" fill="white"/>
<path d="M138.32 73.5321H137.854C136.299 73.5076 135.148 73.2749 134.395 72.5577C133.429 71.6316 133.233 70.01 133.227 67.6916V41.2372C133.227 41.0304 133.145 40.8319 132.999 40.6852C132.853 40.5384 132.656 40.4552 132.449 40.4537H117.905C117.698 40.4544 117.499 40.5373 117.353 40.6842C117.207 40.831 117.125 41.0299 117.125 41.2372V43.5054C113.303 41.1739 108.91 39.9467 104.433 39.9601C99.9558 39.9734 95.5701 41.2267 91.762 43.5809C87.954 45.9351 84.8726 49.2982 82.8596 53.2972C80.8467 57.2961 79.9808 61.7744 80.3582 66.2355C80.7355 70.6965 82.3413 74.9659 84.9974 78.5698C87.6534 82.1738 91.256 84.9715 95.4053 86.6527C99.5547 88.3338 104.088 88.8326 108.504 88.0938C112.92 87.3549 117.044 85.4073 120.42 82.4669L120.684 82.8814C122.86 86.3762 125.405 87.9559 130.249 88.0258C131.46 88.044 134.976 88.0621 136.873 88.0468H138.319C138.527 88.046 138.725 87.9631 138.872 87.8163C139.018 87.6694 139.1 87.4705 139.1 87.2632V74.3114C139.1 74.1047 139.017 73.9066 138.871 73.7605C138.725 73.6144 138.527 73.5323 138.32 73.5321ZM106.361 74.4408C104.319 74.4413 102.322 73.8362 100.624 72.7019C98.9259 71.5676 97.6021 69.9551 96.8202 68.0684C96.0384 66.1816 95.8336 64.1054 96.2319 62.1023C96.6301 60.0992 97.6135 58.2592 99.0576 56.815C100.501 55.3708 102.341 54.3873 104.344 53.9889C106.348 53.5906 108.424 53.7952 110.311 54.5769C112.197 55.3586 113.81 56.6823 114.944 58.3806C116.079 60.0789 116.684 62.0755 116.684 64.1178C116.683 66.8553 115.595 69.4806 113.66 71.4164C111.724 73.3522 109.099 74.44 106.361 74.4408Z" fill="white"/>
<path d="M76.9464 33.2867C76.8436 33.1112 76.7227 32.9176 76.5969 32.7359C76.3424 32.3633 76.2306 32.2124 75.886 31.7734C75.208 30.9081 75.0473 30.69 74.4063 29.9393L74.1463 29.6367L73.8437 29.2949C70.8407 26.0809 67.223 23.5027 63.205 21.713C59.1871 19.9233 54.8506 18.9586 50.4529 18.8761C41.1762 18.5977 32.1678 22.01 25.4037 28.3645C18.6395 34.7191 14.6719 43.497 14.371 52.773C14.0701 62.0489 17.4607 71.0655 23.7988 77.845C30.137 84.6245 38.9053 88.6134 48.1806 88.9367C56.2787 89.1967 63.3837 87.0495 69.6142 82.3818L69.8079 82.2364C72.0803 80.5089 74.1601 78.5416 76.0111 76.3686C76.831 75.4215 76.7346 74.9763 75.6694 74.1054L65.5197 65.1628C64.681 64.3395 64.3636 64.4212 63.3802 65.3774L63.0775 65.6982C63.0202 65.7618 62.9566 65.8255 62.8958 65.8856C62.835 65.9457 62.7749 66.0037 62.7232 66.061C62.1749 66.6459 61.581 67.1862 60.9471 67.677L60.5627 67.9797C57.4278 70.2862 53.088 72.1734 48.8606 72.0378C38.8746 71.7142 31.2398 63.1407 31.309 53.3119C31.3789 43.3049 39.0465 35.7603 50.0349 35.7603C53.6972 35.8002 57.2483 37.0242 60.1573 39.2495C61.7651 40.452 63.2392 41.8235 64.5544 43.3405C65.1597 43.985 65.5896 44.0395 66.2187 43.6614C66.4744 43.5096 66.7181 43.3386 66.9477 43.1497L76.4983 34.7734C77.3035 34.1366 77.1945 33.7158 76.9464 33.2867Z" fill="white"/>
<path d="M117.476 13.9844C117.476 13.9844 102.648 8.84006 86.8727 29.4511C86.8205 29.5118 86.7916 29.5891 86.7909 29.6691C86.7862 29.7116 86.7905 29.7546 86.8036 29.7953C86.8166 29.836 86.8382 29.8734 86.8668 29.9052C86.8954 29.9369 86.9304 29.9623 86.9694 29.9795C87.0085 29.9968 87.0508 30.0056 87.0936 30.0053C87.1328 30.0014 87.1715 29.9932 87.2089 29.9809C90.9534 28.5497 94.9208 27.7897 98.9291 27.7358H99.4373C107.789 28.2474 108.818 32.2448 114.108 32.6866H114.141C114.351 32.6866 114.561 32.7138 114.77 32.7166C115.706 32.7271 116.637 32.5854 117.527 32.2972L117.597 32.2763C117.802 32.2127 118 32.1365 118.202 32.0554C118.405 31.9743 118.548 31.9191 118.72 31.8345C118.753 31.8345 118.783 31.8045 118.817 31.7891C120.568 30.9635 122.028 29.6257 123.002 27.9526C123.977 26.2795 124.421 24.3499 124.275 22.4191C124.129 20.4884 123.4 18.6473 122.186 17.1396C120.971 15.6319 119.327 14.5285 117.471 13.9753L117.476 13.9844Z" fill="white"/>
</g>
<defs>
<clipPath id="clip0_193_36769">
<rect width="239" height="103" fill="white"/>
</clipPath>
</defs>
</svg>
