<svg width="501" height="312" viewBox="0 0 501 312" fill="none" xmlns="http://www.w3.org/2000/svg">
<path d="M184.102 228.655C181.759 228.403 179.581 227.331 177.951 225.628C176.322 223.925 175.346 221.7 175.195 219.346C174.928 214.817 177.431 210.43 183.282 208.816C185.954 208.059 188.804 207.862 191.556 207.31C192.701 207.128 193.805 206.745 194.816 206.177C195.133 206.009 195.398 205.757 195.582 205.449C195.767 205.141 195.865 204.789 195.865 204.43C195.865 204.071 195.767 203.718 195.582 203.41C195.398 203.103 195.133 202.851 194.816 202.682C193.207 201.775 191.399 201.279 189.552 201.238C187.241 201.545 184.982 202.166 182.837 203.083C181.341 203.618 179.978 204.332 178.695 202.771C178.179 202.124 177.86 201.342 177.776 200.518C177.692 199.694 177.848 198.864 178.223 198.126C179.114 195.924 181.127 195.068 183.193 194.604C187.679 193.588 192.334 193.588 196.82 194.604C201.273 195.63 204.159 198.456 204.595 203.092C205.184 208.136 205.07 213.237 204.257 218.25C203.277 223.599 200.062 226.675 195.27 228.557C194.9 228.756 194.555 229.002 194.246 229.288H186.435C185.919 228.013 184.903 228.744 184.102 228.655ZM182.971 219.498C183.14 219.846 183.273 220.167 183.434 220.488C183.847 221.347 184.455 222.098 185.209 222.68C185.964 223.263 186.844 223.66 187.78 223.841C188.715 224.023 189.68 223.982 190.597 223.723C191.514 223.464 192.358 222.995 193.061 222.351C194.145 221.365 195 220.153 195.566 218.8C196.133 217.448 196.396 215.988 196.339 214.523C196.339 212.588 195.52 212.017 193.667 212.552C191.815 213.087 189.9 213.783 188.012 214.335C185.527 215.12 183.558 216.44 182.971 219.498Z" fill="#0DAFD2"/>
<path d="M405.692 195.246C404.982 195.784 404.317 196.381 403.706 197.029C401.88 199.321 400.206 201.737 398.362 203.984C397.368 205.003 396.289 205.937 395.138 206.774L389.794 202.316C393.74 196.271 398.897 193.213 405.754 193.097L405.692 195.246Z" fill="#324AA0"/>
<path d="M243.169 229.288C243.223 229.063 243.195 228.825 243.089 228.619H248.895C248.842 228.841 248.824 229.069 248.842 229.297L243.169 229.288Z" fill="#29B8D7"/>
<path d="M356.716 229.288C356.716 229.056 356.716 228.824 356.716 228.602H362.407C362.407 228.816 362.407 229.038 362.407 229.261L356.716 229.288Z" fill="#D4D9EB"/>
<path d="M313.431 229.288C313.431 229.056 313.431 228.833 313.431 228.602H316.994C316.994 228.833 316.994 229.056 316.994 229.288H313.431Z" fill="#D4D9EB"/>
<path d="M184.102 228.655C184.903 228.744 185.883 228.013 186.39 229.288H184.262C184.248 229.069 184.193 228.854 184.102 228.655Z" fill="#29B8D7"/>
<path d="M248.842 229.288C248.824 229.061 248.842 228.832 248.895 228.61H250.988C250.988 228.842 250.988 229.065 250.988 229.297L248.842 229.288Z" fill="#A5E0ED"/>
<path d="M275.837 136.872L283.853 137.149C282.072 140.26 280.041 142.124 276.496 142.115C258.871 142.044 241.254 142.115 223.637 142.026C216.147 141.972 214.437 140.135 214.107 132.913C213.795 126.084 213.662 119.254 213.591 112.406C213.546 109.232 213.956 106.058 213.92 102.884C213.92 98.2922 213.582 93.7094 213.493 89.1176C213.497 87.71 213.64 86.3064 213.92 84.927C214.668 80.7543 216.744 78.8551 220.983 78.4182C221.808 78.3736 222.634 78.3736 223.459 78.4182C241.557 78.4182 259.651 78.4361 277.743 78.4717C281.626 78.4717 285.51 78.7927 289.393 78.8551C291.032 78.8551 292.67 78.4985 294.3 78.5074C295.936 78.4581 297.572 78.6078 299.172 78.9532C300.575 79.2169 301.841 79.9625 302.753 81.0612C303.665 82.1599 304.166 83.5429 304.168 84.9716C304.293 90.6333 304.605 96.3574 303.999 101.957C303.563 105.951 301.773 109.803 300.499 113.69C300.321 114.243 299.662 114.644 298.718 115.688C298.62 113.904 298.522 112.932 298.522 111.934C298.522 104.016 298.611 96.0989 298.629 88.1903C298.629 84.6239 298.433 84.4455 294.79 84.4455C272.316 84.4455 249.846 84.4455 227.378 84.4455C224.937 84.4455 222.506 84.1513 219.843 83.9819V135.276C220.636 136.409 222.034 136.444 223.477 136.444C228.206 136.444 232.935 136.444 237.665 136.444L245.386 136.382H249.163C249.392 134.982 249.481 133.564 249.43 132.147C248.824 127.903 248.023 123.676 247.292 119.45L246.749 117.961C246.843 117.404 246.776 116.831 246.557 116.31C246.338 115.789 245.975 115.341 245.511 115.019C244.888 113.655 244.291 112.273 243.632 110.917C243.124 109.856 242.483 108.858 242.038 107.77C241.592 106.682 241.396 105.461 242.973 104.658C244.994 105.345 245.645 107.333 246.669 108.992C248.121 111.256 249.341 113.699 250.971 115.848C253.812 119.611 256.76 119.762 260.162 116.472C262.371 114.332 264.499 112.112 266.61 109.883C267.501 108.992 268.392 108.314 269.861 108.92C270.698 111.078 268.677 112.148 267.848 113.673L266.486 115.839C262.032 122.009 259.619 128.634 261.881 136.435H267.225C267.59 136.649 267.946 137.042 268.311 137.042C270.841 137.006 273.326 136.926 275.837 136.872Z" fill="#2F479E"/>
<path d="M209.903 117.908C210.963 119.343 210.545 120.69 210.358 121.884C209.317 128.266 208.887 134.733 209.075 141.197C209.351 149.711 213.528 155.712 220.742 160.01C225.872 163.086 231.501 164.04 237.273 163.933C240.903 163.793 244.506 163.246 248.014 162.301C258.505 159.68 267.848 154.597 276.514 148.196C278.687 146.591 280.86 144.959 282.864 143.149C288.789 137.583 293.888 131.197 298.005 124.185C301.87 117.788 305.007 110.978 307.357 103.883C307.802 102.563 308.141 101.208 308.577 99.8789C308.63 99.7095 308.933 99.6114 309.334 99.335C311.16 100.227 311.73 102.189 312.718 103.793C309.504 114.862 304.373 125.28 297.56 134.572C289.914 144.755 280.254 153.254 269.184 159.537C261.644 164.082 253.327 167.186 244.656 168.694C237.486 169.826 230.032 169.799 223.129 167.249C213.395 163.683 206.742 156.63 204.301 146.448C202.03 136.97 203.785 127.831 208.461 119.281C208.87 118.754 209.357 118.291 209.903 117.908Z" fill="#10B0D2"/>
<path d="M250.988 228.601H243.089C237.95 228.12 234.681 224.928 232.686 220.621C230.354 215.584 230.016 209.849 231.742 204.572C233.407 199.098 237.843 194.399 244.745 193.936C251.505 193.481 256.911 195.656 260.367 201.898C261.673 204.385 262.518 207.088 262.861 209.877C263.315 212.847 261.97 214.246 258.906 214.273C253.821 214.273 248.735 214.22 243.65 214.273C242.296 214.273 240.648 213.774 239.882 215.432C239.188 216.939 240.292 218.107 240.978 219.32C242.759 222.315 248.103 223.189 250.775 221.593C251.879 220.925 252.903 220.095 254.061 219.543C255.302 218.914 256.619 218.449 257.98 218.161C259.619 217.848 259.761 218.062 261.543 220.015C260.463 222.093 258.97 223.927 257.155 225.404C255.339 226.881 253.241 227.969 250.988 228.601ZM255.771 208.656C256.047 203.369 250.81 199.74 244.87 200.935C243.932 201.052 243.033 201.378 242.238 201.889C241.443 202.4 240.772 203.082 240.274 203.886C239.437 205.393 238.35 206.837 239.241 208.656H255.771Z" fill="#0FAFD2"/>
<path d="M158.71 228.601H154.452C151.334 227.934 148.426 226.514 145.98 224.466C143.534 222.419 141.624 219.804 140.416 216.85C138.359 212.258 138.555 207.434 139.196 202.646C139.539 200.213 140.136 197.822 140.977 195.513C143.257 189.112 147.657 184.814 154.265 182.968C159.609 181.515 164.294 182.968 168.186 186.749C170.404 188.898 170.475 191.278 169.005 193.409C167.043 192.693 165.038 192.097 163.003 191.626C155.405 190.289 150.338 195.192 148.752 200.64C147.39 205.056 147.708 209.819 149.643 214.014C151.326 217.723 154.693 219.489 158.549 220.068C161.01 220.566 163.567 220.079 165.674 218.713C166.562 218.265 167.51 217.946 168.489 217.768C169.513 219.061 170.27 220.024 169.664 221.513C169.059 223.002 168.818 225.008 166.921 225.793C165.202 226.515 163.475 227.219 161.711 227.834C160.725 228.142 159.723 228.398 158.71 228.601Z" fill="#0CAFD2"/>
<path d="M288.591 228.61H285.029C280.344 227.852 276.247 226.042 273.272 222.164C270.914 219.208 269.4 215.668 268.89 211.919C267.919 203.645 268.988 195.719 274.394 188.889C279.079 182.951 287.665 179.973 295.52 184.868C298.557 186.749 299.573 189.468 299.243 193.356C297.667 192.955 296.242 192.857 295.084 192.25C293.742 191.505 292.249 191.075 290.716 190.993C289.184 190.911 287.653 191.179 286.24 191.778C283.222 192.912 280.765 195.18 279.391 198.099C277.325 202.477 276.585 207.015 278.028 211.785C279.409 216.342 284.102 219.712 289.259 220.086C292.661 220.336 295.716 219.195 298.629 218.009C300.134 218.847 300.027 219.997 299.635 221.174C298.86 223.483 297.685 225.507 295.244 226.39C293.053 227.201 290.818 227.879 288.591 228.61Z" fill="#2C449D"/>
<path d="M362.407 228.628H356.716C350.179 227.175 345.868 223.073 343.57 216.975C339.812 207.033 345.093 197.903 354.258 194.586C357.5 193.418 360.768 192.803 364.251 193.882C369.247 195.407 370.877 198.028 369.755 203.788C368.348 203.119 367.021 202.45 365.658 201.862C359.611 199.241 351.479 202.165 351.194 211.518C351.043 216.565 353.866 219.543 358.364 220.746C360.875 221.415 363.396 221.558 365.854 220.229C367.111 219.658 368.413 219.19 369.746 218.829C371.278 224.455 368.989 226.631 365.079 227.924C364.242 228.191 363.316 228.387 362.407 228.628Z" fill="#2D459D"/>
<path d="M332.642 97.4364C330.362 99.2196 328.1 101.101 325.784 102.866C325.077 103.285 324.339 103.649 323.575 103.954C322.19 104.577 320.953 105.489 319.947 106.628C318.941 107.767 318.189 109.108 317.742 110.561C314.037 122.901 307.357 133.68 299.243 143.488C296.605 146.523 293.763 149.374 290.738 152.021C285.364 156.975 279.421 161.27 273.032 164.815C265.613 168.908 257.891 172.314 249.492 173.91C244.977 174.801 240.452 175.586 235.839 175.31C228.876 174.994 222.127 172.801 216.307 168.961C215.354 168.328 214.259 167.829 214.027 166.287C215.39 166.153 216.236 166.973 217.207 167.526C223.321 170.873 230.208 172.549 237.175 172.385C243.061 172.338 248.9 171.329 254.462 169.398C260.777 167.232 267.002 164.94 272.854 161.481C280.78 156.834 288.042 151.135 294.443 144.54C300.24 138.662 305.087 131.914 308.809 124.541C311.222 119.727 313.324 114.734 315.604 109.874C316.212 108.731 316.46 107.429 316.315 106.142C316.17 104.855 315.64 103.641 314.794 102.661C312.897 100.138 311.374 97.3116 309.681 94.6367L310.661 93.7451C311.792 95.2074 312.941 96.6607 314.063 98.1318C315.542 100.049 317.011 101.984 318.57 104.016C322.382 101.966 326.221 100.816 329.071 97.8644C329.688 97.3392 330.36 96.8819 331.075 96.5002L332.642 97.4364Z" fill="#3A51A3"/>
<path d="M316.985 228.601H313.422C309.726 227.612 306.725 225.677 305.202 222.048C304.601 220.637 304.278 219.123 304.249 217.59C304.168 206.971 304.195 196.343 304.249 185.715C304.249 182.728 304.863 182.202 307.811 182.389C311.374 182.621 313.413 184.886 313.422 188.737C313.422 197.234 313.422 205.731 313.422 214.237C313.422 215.298 313.422 216.359 313.422 217.42C313.422 218.49 313.844 219.517 314.596 220.277C315.349 221.036 316.37 221.468 317.439 221.477H317.786C319.185 221.477 320.743 221.254 321.278 223.091C321.45 223.963 321.354 224.867 321.003 225.684C320.651 226.501 320.061 227.191 319.309 227.665C318.568 228.054 317.789 228.368 316.985 228.601Z" fill="#2E469E"/>
<path d="M375.936 182.576C377.299 182.496 378.002 182.398 378.706 182.416C382.072 182.496 384.228 184.493 384.254 187.899C384.344 200.034 384.335 212.178 384.344 224.312C384.35 225.008 384.232 225.7 383.996 226.354C383.15 228.557 381.654 229.145 379.543 228.182C376.577 226.854 375.633 224.241 375.473 221.308C375.321 218.526 375.473 215.726 375.473 212.927C375.473 204.207 375.375 195.487 375.393 186.776C375.47 185.364 375.652 183.961 375.936 182.576Z" fill="#2F479E"/>
<path d="M214.784 228.619L209.823 228.539C209.317 228.058 208.925 227.469 208.675 226.817C208.426 226.164 208.325 225.464 208.38 224.767C208.505 220.407 208.327 216.038 208.478 211.679C208.453 208.036 209.423 204.457 211.284 201.327C212.786 198.928 215.042 197.096 217.696 196.12C219.683 195.439 221.733 194.958 223.815 194.684C224.687 194.47 225.604 194.54 226.434 194.883C227.263 195.226 227.962 195.825 228.429 196.592C228.906 197.472 229.165 198.454 229.183 199.455C229.202 200.456 228.98 201.446 228.535 202.343C228.259 202.967 227.324 203.395 226.603 203.699C226.027 203.89 225.409 203.912 224.822 203.761C220.244 202.869 217.207 205.937 216.93 211.786C216.726 216.377 216.868 220.987 216.93 225.588C216.975 227.219 216.601 228.396 214.784 228.619Z" fill="#0BAED1"/>
<path d="M337.558 228.557H331.885C326.229 226.087 324.617 221.361 324.644 215.691C324.644 209.093 324.644 202.495 324.644 195.941C326.212 194.078 328.046 194.408 329.854 195.05C330.817 195.34 331.662 195.927 332.27 196.728C332.878 197.529 333.217 198.502 333.239 199.508C333.355 202.691 333.31 205.874 333.31 209.057C333.31 211.536 333.194 214.014 333.31 216.484C333.444 219.623 334.521 220.746 337.665 221.495C338.556 221.709 339.375 222.075 340.204 222.387C340.561 223.562 340.491 224.826 340.007 225.955C339.523 227.085 338.656 228.006 337.558 228.557Z" fill="#2C449D"/>
<path d="M275.837 136.873C273.326 136.926 270.814 137.006 268.302 136.998C267.937 136.998 267.581 136.605 267.216 136.391C267.212 135.795 267.251 135.199 267.332 134.608C268.688 128.355 268.381 121.856 266.441 115.759L267.804 113.593C268.81 116.063 269.683 118.604 270.885 120.975C271.659 122.289 272.554 123.528 273.557 124.675C276.541 125.612 278.322 124.453 280.05 123.204C281.279 122.313 282.419 121.287 283.675 120.423C284.295 120.172 284.95 120.015 285.616 119.959C285.606 120.562 285.458 121.154 285.183 121.69C284.908 122.227 284.514 122.693 284.031 123.053C280.139 125.942 278.091 130.186 276.069 134.43C275.859 135.226 275.781 136.051 275.837 136.873Z" fill="#98C752"/>
<path d="M397.872 213.034C400.25 213.292 401.684 214.817 403.216 217.099C402.18 216.849 401.12 216.706 400.054 216.672C399.315 216.743 398.229 217.073 398.015 217.563C397.852 217.984 397.785 218.436 397.817 218.886C397.849 219.336 397.981 219.773 398.202 220.167C399.133 221.218 400.172 222.168 401.301 223.002L404.864 226.185C402.753 229.038 400.25 229.484 397.881 227.335C396.124 225.608 394.479 223.771 392.956 221.834C390.747 219.248 390.783 219.239 388.325 221.772C387.963 222.027 387.559 222.217 387.131 222.333C386.045 219.346 386.285 214.166 387.586 211.001C388.734 210.475 389.554 211.135 390.453 211.732C392.119 212.82 393.811 213.863 395.557 214.817C396.29 215.071 397.054 215.224 397.828 215.272V213.016L397.872 213.034Z" fill="#324AA0"/>
<path d="M245.377 136.355L237.656 136.418C237.724 135.716 237.647 135.008 237.43 134.337C237.212 133.667 236.858 133.048 236.391 132.521C234.12 129.998 232.053 127.287 229.791 124.746C228.948 124 228.022 123.354 227.03 122.821L228.687 120.805C230.691 122.161 232.686 123.373 234.503 124.8C237.317 127.002 240.452 125.897 241.922 122.607C243.071 120.048 244.309 117.533 245.484 114.992C245.948 115.314 246.311 115.762 246.53 116.283C246.75 116.804 246.816 117.377 246.722 117.935L246.09 119.406C245.441 122.474 244.963 125.575 244.656 128.696C244.54 131.211 245.119 133.778 245.377 136.355Z" fill="#D33398"/>
<path d="M256.029 151.325C253.358 151.325 250.614 151.415 247.907 151.325C245.404 151.21 244.611 149.792 245.778 147.536C247.016 145.138 248.673 143.363 251.79 143.551C254.907 143.738 257.9 143.551 260.955 143.595C262.178 143.681 263.353 144.108 264.346 144.828C265.34 145.549 266.112 146.533 266.575 147.67C267.251 149.712 266.334 151.236 264.143 151.299C261.471 151.415 258.728 151.299 256.029 151.299V151.325Z" fill="#2F479E"/>
<path d="M253.117 99.7094C249.261 98.9605 249.136 98.7465 249.866 94.0923L252.841 93.5752C253.26 92.2912 253.678 90.9984 254.115 89.6699H258.488L259.752 93.6197L262.424 93.9229C264.366 97.4893 263.68 98.8981 259.841 99.6381C259.353 100.803 258.756 101.92 258.06 102.973C257.515 103.419 256.82 103.636 256.119 103.58C254.515 103.58 253.83 102.652 253.117 99.7094Z" fill="#F47D23"/>
<path d="M334.076 186.285C334.072 187.647 333.533 188.953 332.577 189.921C331.621 190.89 330.324 191.444 328.964 191.466C327.661 191.426 326.426 190.876 325.525 189.933C324.624 188.991 324.128 187.732 324.145 186.428C324.199 183.486 326.31 181.765 329.489 181.649C331.956 181.533 334.45 184.047 334.076 186.285Z" fill="#30489F"/>
<path d="M332.642 97.4361L331.075 96.5445C332.143 95.4567 333.221 94.3868 334.272 93.2812C334.955 92.6374 335.575 91.9298 336.124 91.1681C338.209 87.9494 338.022 85.2211 335.644 82.894C333.782 81.1107 330.3 81.1107 327.548 82.9653C327.165 83.2239 326.817 83.5537 326.283 83.9906L324.867 82.7513C325.063 82.3857 325.116 82.0915 325.285 82.0023C327.414 80.7987 329.454 79.4791 332.108 79.6039C338.075 79.8892 341.593 85.8452 338.413 90.8828C336.89 93.3258 334.593 95.2695 332.642 97.4361Z" fill="#29B8D7"/>
<path d="M310.661 93.8075L309.681 94.6991C306.769 91.4001 305.157 87.6465 305.585 83.1082C305.812 81.0577 306.832 79.1777 308.427 77.8711C310.022 76.5645 312.064 75.9352 314.117 76.1179C314.468 76.107 314.817 76.1708 315.141 76.3052C316.664 77.393 318.196 78.4896 319.594 79.6933C320.202 80.3047 320.745 80.9769 321.215 81.6994C320.485 82.912 319.719 82.7961 319.051 82.1274C318.518 81.5096 318.029 80.8541 317.59 80.1659C314.5 76.002 311.436 77.2235 308.684 79.934C307.854 80.7151 307.278 81.7278 307.03 82.8407C306.783 83.9536 306.875 85.1154 307.295 86.1753C308.399 88.7342 309.557 91.2575 310.661 93.8075Z" fill="#25B6D6"/>
<path d="M256.145 114.315C255.167 114.158 254.277 113.659 253.632 112.906C252.988 112.153 252.632 111.196 252.627 110.204C252.832 108.421 254.783 106.638 256.457 106.754C257.439 106.902 258.335 107.398 258.981 108.153C259.627 108.908 259.98 109.87 259.975 110.864C259.761 112.656 257.802 114.422 256.145 114.315Z" fill="#344CA1"/>
<path d="M272.292 103.607C270.511 103.009 269.291 102.243 269.46 100.308C269.629 98.3734 271.117 97.9811 272.64 97.4551C274.127 98.097 275.178 98.9619 275.107 100.825C275.036 102.688 273.682 103.045 272.292 103.607Z" fill="#FAAC0D"/>
<path d="M283.764 113.343L286.142 112.184L287.968 113.842C287.585 115.911 287.317 117.364 285.358 117.194C283.96 117.07 283.63 116.24 283.764 113.343Z" fill="#D33398"/>
<path d="M238.929 119.415C238.925 119.695 238.866 119.971 238.755 120.228C238.645 120.485 238.484 120.718 238.284 120.912C238.083 121.107 237.846 121.261 237.587 121.364C237.327 121.468 237.049 121.519 236.77 121.515C236.49 121.51 236.214 121.451 235.957 121.34C235.701 121.23 235.468 121.069 235.274 120.868C235.079 120.668 234.925 120.43 234.822 120.17C234.719 119.91 234.668 119.632 234.672 119.352C234.676 119.073 234.735 118.796 234.846 118.539C234.957 118.282 235.117 118.05 235.318 117.855C235.518 117.66 235.755 117.506 236.015 117.403C236.275 117.3 236.552 117.249 236.832 117.253C237.111 117.257 237.387 117.316 237.644 117.427C237.901 117.538 238.133 117.698 238.328 117.899C238.523 118.1 238.676 118.337 238.779 118.597C238.882 118.857 238.933 119.135 238.929 119.415Z" fill="#D744A0"/>
<path d="M279.346 117.845C279.38 118.131 279.352 118.421 279.262 118.695C279.173 118.969 279.026 119.22 278.83 119.431C278.634 119.642 278.395 119.809 278.129 119.918C277.863 120.028 277.576 120.078 277.289 120.066C277.003 120.099 276.714 120.069 276.441 119.978C276.168 119.887 275.918 119.737 275.709 119.539C275.5 119.341 275.337 119.099 275.232 118.831C275.126 118.563 275.08 118.276 275.098 117.988C275.058 117.702 275.082 117.411 275.168 117.135C275.254 116.859 275.401 116.607 275.597 116.395C275.793 116.183 276.034 116.018 276.302 115.911C276.57 115.804 276.859 115.758 277.146 115.777C277.432 115.746 277.72 115.777 277.992 115.868C278.264 115.959 278.513 116.108 278.722 116.304C278.931 116.501 279.095 116.74 279.203 117.006C279.311 117.272 279.36 117.559 279.346 117.845Z" fill="#A2CE5D"/>
<path d="M236.676 98.9072C239.66 101.03 239.677 101.333 237.094 103.535C233.942 101.948 233.861 101.342 236.676 98.9072Z" fill="#87C32C"/>
<path d="M227.485 112.389C229.221 113.102 229.31 114.172 228.714 115.447C228.526 115.595 228.306 115.696 228.072 115.741C227.837 115.787 227.595 115.774 227.366 115.706C227.138 115.638 226.928 115.516 226.757 115.349C226.585 115.183 226.456 114.978 226.38 114.751C225.81 113.69 226.541 113.057 227.485 112.389Z" fill="#FBB529"/>
<path d="M397.133 212.312L397.872 212.989L397.186 212.267L397.133 212.312Z" fill="#324AA0"/>
<path d="M397.204 212.249L396.706 211.964L397.133 212.312L397.204 212.249Z" fill="#324AA0"/>
<path d="M247.283 119.415H246.108L246.74 117.943L247.283 119.415Z" fill="#D4D9EB"/>
</svg>
