<svg width="35" height="34" viewBox="0 0 35 34" fill="none" xmlns="http://www.w3.org/2000/svg">
<path fill-rule="evenodd" clip-rule="evenodd" d="M17.582 2.479H17.42H17.42C14.3165 2.47899 11.8789 2.47897 9.97569 2.73485C8.02543 2.99705 6.47807 3.54535 5.26229 4.76113C4.04651 5.97691 3.49821 7.52427 3.236 9.47454C3.18017 9.88984 3.13651 10.3306 3.10239 10.7982C3.07232 11.2101 3.05729 11.4161 3.18338 11.5517C3.30946 11.6873 3.51983 11.6873 3.94055 11.6873L31.0614 11.6873C31.4822 11.6873 31.6925 11.6873 31.8186 11.5517C31.9447 11.4161 31.9297 11.2101 31.8996 10.7982C31.8655 10.3306 31.8218 9.88984 31.766 9.47454C31.5038 7.52427 30.9555 5.97691 29.7397 4.76113C28.5239 3.54535 26.9766 2.99705 25.0263 2.73485C23.1231 2.47897 20.6855 2.47899 17.582 2.479H17.582ZM9 7.08317C9 6.30077 9.63143 5.6665 10.4103 5.6665H10.423C11.2019 5.6665 11.8333 6.30077 11.8333 7.08317C11.8333 7.86557 11.2019 8.49984 10.423 8.49984H10.4103C9.63143 8.49984 9 7.86557 9 7.08317ZM16.077 5.6665C15.2981 5.6665 14.6667 6.30077 14.6667 7.08317C14.6667 7.86557 15.2981 8.49984 16.077 8.49984H16.0897C16.8686 8.49984 17.5 7.86557 17.5 7.08317C17.5 6.30077 16.8686 5.6665 16.0897 5.6665H16.077Z" fill="#95D5E9"/>
<path opacity="0.4" d="M32.0163 14.6518C32.0139 14.257 32.0127 14.0596 31.8884 13.9361C31.7641 13.8125 31.5658 13.8125 31.1693 13.8125L3.83036 13.8125C3.43387 13.8125 3.23562 13.8125 3.1113 13.9361C2.98698 14.0596 2.98578 14.257 2.98336 14.6518C2.97899 15.3649 2.979 16.1198 2.979 16.919V17.081C2.97899 20.1845 2.97897 22.6221 3.23485 24.5253C3.49705 26.4756 4.04535 28.0229 5.26113 29.2387C6.47691 30.4545 8.02427 31.0028 9.97454 31.265C11.8777 31.5209 14.3153 31.5209 17.4188 31.5208H17.5808C20.6843 31.5209 23.122 31.5209 25.0251 31.265C26.9754 31.0028 28.5228 30.4545 29.7385 29.2387C30.9543 28.0229 31.5026 26.4756 31.7648 24.5253C32.0207 22.6221 32.0207 20.1845 32.0207 17.081V16.919C32.0207 16.1199 32.0207 15.3649 32.0163 14.6518Z" fill="#95D5E9"/>
<path fill-rule="evenodd" clip-rule="evenodd" d="M22.3619 19.1398C21.9788 19.5843 22.0285 20.2552 22.473 20.6383L24.2106 22.136C24.4935 22.3799 24.6803 22.5425 24.8088 22.6668C24.6803 22.7912 24.4935 22.9538 24.2106 23.1977L22.473 24.6954C22.0285 25.0785 21.9788 25.7494 22.3619 26.1939C22.745 26.6383 23.4159 26.6881 23.8604 26.305L25.598 24.8073C25.6128 24.7945 25.6276 24.7818 25.6424 24.769C25.9689 24.4877 26.2905 24.2106 26.5216 23.9495C26.7773 23.6607 27.0625 23.24 27.0625 22.6668C27.0625 22.0937 26.7773 21.673 26.5216 21.3842C26.2905 21.123 25.9689 20.846 25.6424 20.5647C25.6276 20.5519 25.6128 20.5392 25.5979 20.5264L23.8604 19.0287C23.4159 18.6456 22.745 18.6953 22.3619 19.1398Z" fill="#95D5E9"/>
<path fill-rule="evenodd" clip-rule="evenodd" d="M12.6381 19.1398C13.0212 19.5843 12.9715 20.2552 12.527 20.6383L10.7894 22.136C10.5065 22.3799 10.3197 22.5425 10.1912 22.6668C10.3197 22.7912 10.5065 22.9538 10.7894 23.1977L12.527 24.6954C12.9715 25.0785 13.0212 25.7494 12.6381 26.1939C12.255 26.6383 11.5841 26.6881 11.1396 26.305L9.40205 24.8073C9.38723 24.7945 9.37242 24.7818 9.35761 24.769C9.03112 24.4877 8.70952 24.2106 8.47835 23.9495C8.22267 23.6607 7.9375 23.24 7.9375 22.6668C7.9375 22.0937 8.22267 21.673 8.47835 21.3842C8.70952 21.123 9.03113 20.846 9.35762 20.5647C9.37242 20.5519 9.38723 20.5392 9.40205 20.5264L11.1396 19.0287C11.5841 18.6456 12.255 18.6953 12.6381 19.1398Z" fill="#95D5E9"/>
<path fill-rule="evenodd" clip-rule="evenodd" d="M19.2526 17.4088C19.8093 17.5944 20.1102 18.1961 19.9246 18.7528L17.0913 27.2528C16.9057 27.8095 16.304 28.1103 15.7473 27.9248C15.1906 27.7392 14.8898 27.1375 15.0753 26.5808L17.9087 18.0808C18.0942 17.5241 18.6959 17.2233 19.2526 17.4088Z" fill="#95D5E9"/>
</svg>
