<svg width="184" height="84" viewBox="0 0 184 84" fill="none" xmlns="http://www.w3.org/2000/svg">
<g filter="url(#filter0_d_25_7304)">
<path d="M30.0286 20.675L9 7.875L13.5714 32.5607L19.0571 23.4179L30.0286 20.675Z" fill="#9781E6"/>
<path d="M30.2503 21.562L32.3726 21.0314L30.504 19.894L9.47538 7.09402L7.72865 6.03079L8.101 8.04148L12.6724 32.7272L13.1124 35.1029L14.3554 33.0311L19.6463 24.213L30.2503 21.562Z" stroke="white" stroke-width="1.82857"/>
</g>
<g filter="url(#filter1_d_25_7304)">
<rect width="110.629" height="31.3143" transform="translate(32.7715 40.7891)" fill="#9781E6"/>
<path d="M46.3359 63.4463H41.8473V48.9008H46.5348C47.9458 48.9008 49.1532 49.192 50.157 49.7744C51.1607 50.3521 51.9302 51.183 52.4652 52.2673C53.0002 53.3469 53.2678 54.6395 53.2678 56.1452C53.2678 57.6603 52.9979 58.9648 52.4581 60.0585C51.9183 61.1475 51.1323 61.9856 50.1001 62.5727C49.0679 63.1551 47.8132 63.4463 46.3359 63.4463ZM43.6087 61.8838H46.2223C47.425 61.8838 48.4216 61.6518 49.2124 61.1878C50.0031 60.7238 50.5926 60.0632 50.9808 59.2062C51.3691 58.3492 51.5632 57.3289 51.5632 56.1452C51.5632 54.9709 51.3714 53.96 50.9879 53.1125C50.6044 52.2602 50.0315 51.6068 49.2692 51.1523C48.5069 50.693 47.5575 50.4633 46.4212 50.4633H43.6087V61.8838ZM60.6689 63.6736C59.6178 63.6736 58.711 63.4416 57.9487 62.9775C57.1911 62.5088 56.6064 61.8554 56.1945 61.0173C55.7873 60.1745 55.5837 59.1944 55.5837 58.077C55.5837 56.9595 55.7873 55.9747 56.1945 55.1224C56.6064 54.2654 57.1793 53.5978 57.9132 53.1196C58.6518 52.6366 59.5136 52.3952 60.4984 52.3952C61.0666 52.3952 61.6277 52.4898 62.1817 52.6792C62.7357 52.8686 63.2399 53.1764 63.6945 53.6025C64.149 54.0239 64.5112 54.5827 64.7811 55.2787C65.051 55.9747 65.1859 56.8317 65.1859 57.8497V58.5599H56.7768V57.1111H63.4814C63.4814 56.4955 63.3583 55.9463 63.1121 55.4633C62.8706 54.9804 62.525 54.5992 62.0751 54.3199C61.6301 54.0405 61.1045 53.9008 60.4984 53.9008C59.8308 53.9008 59.2532 54.0666 58.7655 54.398C58.2825 54.7247 57.9108 55.1508 57.6504 55.6764C57.39 56.202 57.2598 56.7654 57.2598 57.3667V58.3327C57.2598 59.1565 57.4018 59.8549 57.6859 60.4278C57.9748 60.996 58.3749 61.4292 58.8862 61.7275C59.3976 62.0211 59.9918 62.1679 60.6689 62.1679C61.1092 62.1679 61.507 62.1063 61.8621 61.9832C62.2219 61.8554 62.5321 61.666 62.7925 61.415C63.0529 61.1594 63.2541 60.8421 63.3962 60.4633L65.0155 60.9179C64.845 61.4671 64.5586 61.9501 64.1561 62.3667C63.7536 62.7787 63.2565 63.1006 62.6646 63.3327C62.0728 63.5599 61.4075 63.6736 60.6689 63.6736ZM75.5629 54.9804L74.0572 55.4065C73.9625 55.1556 73.8229 54.9117 73.6382 54.675C73.4583 54.4335 73.2121 54.2346 72.8996 54.0784C72.5871 53.9221 72.187 53.844 71.6993 53.844C71.0317 53.844 70.4753 53.9979 70.0303 54.3057C69.5899 54.6087 69.3697 54.9946 69.3697 55.4633C69.3697 55.88 69.5213 56.2091 69.8243 56.4506C70.1273 56.692 70.6008 56.8933 71.2447 57.0542L72.8641 57.452C73.8394 57.6887 74.5662 58.0509 75.0445 58.5386C75.5227 59.0216 75.7618 59.6442 75.7618 60.4065C75.7618 61.0315 75.5819 61.5902 75.222 62.0827C74.8669 62.5751 74.3697 62.9633 73.7305 63.2474C73.0913 63.5315 72.348 63.6736 71.5004 63.6736C70.3877 63.6736 69.4668 63.4321 68.7376 62.9491C68.0085 62.4662 67.5468 61.7607 67.3527 60.8327L68.9436 60.4349C69.0951 61.022 69.3816 61.4624 69.803 61.7559C70.2291 62.0495 70.7855 62.1963 71.472 62.1963C72.2533 62.1963 72.8735 62.0306 73.3328 61.6991C73.7968 61.363 74.0288 60.9605 74.0288 60.4917C74.0288 60.113 73.8963 59.7957 73.6311 59.54C73.366 59.2796 72.9588 59.0855 72.4095 58.9577L70.5913 58.5315C69.5923 58.2948 68.8584 57.9278 68.3896 57.4307C67.9256 56.9288 67.6936 56.3014 67.6936 55.5486C67.6936 54.933 67.8664 54.3885 68.2121 53.915C68.5625 53.4416 69.0383 53.0699 69.6396 52.8C70.2457 52.5301 70.9322 52.3952 71.6993 52.3952C72.7788 52.3952 73.6264 52.6319 74.2419 53.1054C74.8622 53.5789 75.3025 54.2039 75.5629 54.9804ZM78.3849 63.4463V52.5372H80.061V63.4463H78.3849ZM79.2371 50.719C78.9104 50.719 78.6287 50.6077 78.392 50.3852C78.16 50.1627 78.044 49.8952 78.044 49.5827C78.044 49.2702 78.16 49.0026 78.392 48.7801C78.6287 48.5576 78.9104 48.4463 79.2371 48.4463C79.5638 48.4463 79.8432 48.5576 80.0752 48.7801C80.312 49.0026 80.4303 49.2702 80.4303 49.5827C80.4303 49.8952 80.312 50.1627 80.0752 50.3852C79.8432 50.6077 79.5638 50.719 79.2371 50.719ZM87.6344 67.7645C86.8247 67.7645 86.1287 67.6603 85.5463 67.452C84.9639 67.2484 84.4786 66.9785 84.0903 66.6423C83.7068 66.3109 83.4014 65.9558 83.1741 65.577L84.5094 64.6395C84.6609 64.8383 84.8527 65.0656 85.0847 65.3213C85.3167 65.5817 85.6339 65.8066 86.0364 65.996C86.4436 66.1901 86.9762 66.2872 87.6344 66.2872C88.5151 66.2872 89.2419 66.0741 89.8148 65.648C90.3877 65.2219 90.6741 64.5542 90.6741 63.6452V61.4292H90.5321C90.409 61.6281 90.2338 61.8743 90.0065 62.1679C89.784 62.4567 89.462 62.7148 89.0406 62.942C88.624 63.1646 88.0605 63.2758 87.3503 63.2758C86.4696 63.2758 85.6789 63.0675 84.9781 62.6508C84.2821 62.2342 83.7305 61.6281 83.3233 60.8327C82.9208 60.0372 82.7196 59.0713 82.7196 57.9349C82.7196 56.8175 82.9161 55.8445 83.3091 55.0159C83.7021 54.1826 84.249 53.5386 84.9497 53.0841C85.6505 52.6248 86.4601 52.3952 87.3787 52.3952C88.0889 52.3952 88.6524 52.5135 89.069 52.7503C89.4904 52.9823 89.8124 53.2474 90.0349 53.5457C90.2622 53.8393 90.4374 54.0808 90.5605 54.2702H90.731V52.5372H92.3503V63.7588C92.3503 64.6963 92.1372 65.4586 91.7111 66.0457C91.2897 66.6376 90.7215 67.0708 90.0065 67.3454C89.2963 67.6248 88.5056 67.7645 87.6344 67.7645ZM87.5776 61.7702C88.2499 61.7702 88.8181 61.6163 89.2821 61.3085C89.7461 61.0007 90.0989 60.558 90.3403 59.9804C90.5818 59.4027 90.7026 58.7114 90.7026 57.9065C90.7026 57.1205 90.5842 56.4269 90.3474 55.8256C90.1107 55.2242 89.7603 54.7531 89.2963 54.4122C88.8323 54.0713 88.2594 53.9008 87.5776 53.9008C86.8673 53.9008 86.2755 54.0808 85.802 54.4406C85.3332 54.8005 84.9805 55.2834 84.7438 55.8895C84.5117 56.4955 84.3957 57.1679 84.3957 57.9065C84.3957 58.6641 84.5141 59.3341 84.7509 59.9165C84.9923 60.4941 85.3474 60.9487 85.8162 61.2801C86.2897 61.6068 86.8768 61.7702 87.5776 61.7702ZM97.1946 56.8838V63.4463H95.5185V52.5372H97.1378V54.2417H97.2798C97.5355 53.6878 97.9238 53.2427 98.4446 52.9065C98.9654 52.5656 99.6378 52.3952 100.462 52.3952C101.2 52.3952 101.847 52.5467 102.401 52.8497C102.955 53.148 103.385 53.6025 103.693 54.2133C104.001 54.8194 104.155 55.5864 104.155 56.5145V63.4463H102.479V56.6281C102.479 55.7711 102.256 55.1035 101.811 54.6253C101.366 54.1423 100.755 53.9008 99.9787 53.9008C99.4437 53.9008 98.9654 54.0168 98.544 54.2488C98.1274 54.4809 97.7983 54.8194 97.5568 55.2645C97.3153 55.7095 97.1946 56.2493 97.1946 56.8838ZM111.892 63.6736C110.84 63.6736 109.934 63.4416 109.171 62.9775C108.414 62.5088 107.829 61.8554 107.417 61.0173C107.01 60.1745 106.806 59.1944 106.806 58.077C106.806 56.9595 107.01 55.9747 107.417 55.1224C107.829 54.2654 108.402 53.5978 109.136 53.1196C109.875 52.6366 110.736 52.3952 111.721 52.3952C112.289 52.3952 112.85 52.4898 113.404 52.6792C113.958 52.8686 114.463 53.1764 114.917 53.6025C115.372 54.0239 115.734 54.5827 116.004 55.2787C116.274 55.9747 116.409 56.8317 116.409 57.8497V58.5599H108V57.1111H114.704C114.704 56.4955 114.581 55.9463 114.335 55.4633C114.093 54.9804 113.748 54.5992 113.298 54.3199C112.853 54.0405 112.327 53.9008 111.721 53.9008C111.053 53.9008 110.476 54.0666 109.988 54.398C109.505 54.7247 109.133 55.1508 108.873 55.6764C108.613 56.202 108.482 56.7654 108.482 57.3667V58.3327C108.482 59.1565 108.625 59.8549 108.909 60.4278C109.197 60.996 109.598 61.4292 110.109 61.7275C110.62 62.0211 111.214 62.1679 111.892 62.1679C112.332 62.1679 112.73 62.1063 113.085 61.9832C113.445 61.8554 113.755 61.666 114.015 61.415C114.276 61.1594 114.477 60.8421 114.619 60.4633L116.238 60.9179C116.068 61.4671 115.781 61.9501 115.379 62.3667C114.976 62.7787 114.479 63.1006 113.887 63.3327C113.295 63.5599 112.63 63.6736 111.892 63.6736ZM119.058 63.4463V52.5372H120.678V54.1849H120.791C120.99 53.6452 121.35 53.2072 121.871 52.871C122.392 52.5348 122.979 52.3667 123.632 52.3667C123.755 52.3667 123.909 52.3691 124.094 52.3738C124.278 52.3786 124.418 52.3857 124.513 52.3952V54.0997C124.456 54.0855 124.326 54.0642 124.122 54.0358C123.923 54.0026 123.713 53.9861 123.49 53.9861C122.96 53.9861 122.486 54.0973 122.07 54.3199C121.658 54.5377 121.331 54.8407 121.09 55.229C120.853 55.6125 120.734 56.0505 120.734 56.5429V63.4463H119.058ZM134.327 54.9804L132.821 55.4065C132.727 55.1556 132.587 54.9117 132.402 54.675C132.222 54.4335 131.976 54.2346 131.664 54.0784C131.351 53.9221 130.951 53.844 130.463 53.844C129.796 53.844 129.239 53.9979 128.794 54.3057C128.354 54.6087 128.134 54.9946 128.134 55.4633C128.134 55.88 128.285 56.2091 128.588 56.4506C128.891 56.692 129.365 56.8933 130.009 57.0542L131.628 57.452C132.604 57.6887 133.33 58.0509 133.809 58.5386C134.287 59.0216 134.526 59.6442 134.526 60.4065C134.526 61.0315 134.346 61.5902 133.986 62.0827C133.631 62.5751 133.134 62.9633 132.495 63.2474C131.855 63.5315 131.112 63.6736 130.264 63.6736C129.152 63.6736 128.231 63.4321 127.502 62.9491C126.773 62.4662 126.311 61.7607 126.117 60.8327L127.708 60.4349C127.859 61.022 128.146 61.4624 128.567 61.7559C128.993 62.0495 129.55 62.1963 130.236 62.1963C131.017 62.1963 131.638 62.0306 132.097 61.6991C132.561 61.363 132.793 60.9605 132.793 60.4917C132.793 60.113 132.66 59.7957 132.395 59.54C132.13 59.2796 131.723 59.0855 131.174 58.9577L129.355 58.5315C128.356 58.2948 127.622 57.9278 127.154 57.4307C126.69 56.9288 126.458 56.3014 126.458 55.5486C126.458 54.933 126.63 54.3885 126.976 53.915C127.327 53.4416 127.802 53.0699 128.404 52.8C129.01 52.5301 129.696 52.3952 130.463 52.3952C131.543 52.3952 132.39 52.6319 133.006 53.1054C133.626 53.5789 134.067 54.2039 134.327 54.9804Z" fill="white"/>
</g>
<defs>
<filter id="filter0_d_25_7304" x="0.971317" y="0.529381" width="39.2312" height="44.4299" filterUnits="userSpaceOnUse" color-interpolation-filters="sRGB">
<feFlood flood-opacity="0" result="BackgroundImageFix"/>
<feColorMatrix in="SourceAlpha" type="matrix" values="0 0 0 0 0 0 0 0 0 0 0 0 0 0 0 0 0 0 127 0" result="hardAlpha"/>
<feOffset dy="1.82857"/>
<feGaussianBlur stdDeviation="2.74286"/>
<feColorMatrix type="matrix" values="0 0 0 0 0 0 0 0 0 0 0 0 0 0 0 0 0 0 0.4 0"/>
<feBlend mode="normal" in2="BackgroundImageFix" result="effect1_dropShadow_25_7304"/>
<feBlend mode="normal" in="SourceGraphic" in2="effect1_dropShadow_25_7304" result="shape"/>
</filter>
<filter id="filter1_d_25_7304" x="25.4572" y="37.1319" width="125.257" height="45.943" filterUnits="userSpaceOnUse" color-interpolation-filters="sRGB">
<feFlood flood-opacity="0" result="BackgroundImageFix"/>
<feColorMatrix in="SourceAlpha" type="matrix" values="0 0 0 0 0 0 0 0 0 0 0 0 0 0 0 0 0 0 127 0" result="hardAlpha"/>
<feOffset dy="3.65714"/>
<feGaussianBlur stdDeviation="3.65714"/>
<feColorMatrix type="matrix" values="0 0 0 0 0 0 0 0 0 0 0 0 0 0 0 0 0 0 0.12 0"/>
<feBlend mode="normal" in2="BackgroundImageFix" result="effect1_dropShadow_25_7304"/>
<feBlend mode="normal" in="SourceGraphic" in2="effect1_dropShadow_25_7304" result="shape"/>
</filter>
</defs>
</svg>
