<svg width="174" height="75" viewBox="0 0 174 75" fill="none" xmlns="http://www.w3.org/2000/svg">
<g filter="url(#filter0_d_10_8)">
<path d="M6.87109 6.02441V45.3458" stroke="white" stroke-width="0.998638"/>
</g>
<g filter="url(#filter1_d_10_8)">
<rect x="4.89453" y="3.83984" width="3.95294" height="3.95294" fill="#65637A"/>
<rect x="4.39521" y="3.34052" width="4.95158" height="4.95158" stroke="white" stroke-width="0.998638"/>
</g>
<g filter="url(#filter2_d_10_8)">
<rect x="4.89453" y="40.9766" width="3.95294" height="3.95294" fill="#65637A"/>
<rect x="4.39521" y="40.4772" width="4.95158" height="4.95158" stroke="white" stroke-width="0.998638"/>
</g>
<g filter="url(#filter3_d_10_8)">
<rect width="149.456" height="31.2282" transform="translate(16.5273 32.4141)" fill="#65637A"/>
<path d="M25.7487 49.9748V48.8518L34.7888 44.2476V46.0444L27.8543 49.3853L27.9105 49.273V49.5537L27.8543 49.4414L34.7888 52.7823V54.5791L25.7487 49.9748ZM43.4803 39.9802L38.8479 57.1901H37.3319L41.9642 39.9802H43.4803ZM55.06 48.6273L46.0199 53.2315V51.4347L52.9544 48.0938L52.8982 48.2061V47.9254L52.9544 48.0377L46.0199 44.6968V42.9L55.06 47.5043V48.6273ZM68.988 55.0283H64.5522V40.654H69.1845C70.5789 40.654 71.7721 40.9418 72.7641 41.5173C73.756 42.0881 74.5164 42.9093 75.0451 43.9809C75.5739 45.0477 75.8383 46.3251 75.8383 47.8131C75.8383 49.3104 75.5715 50.5995 75.0381 51.6804C74.5047 52.7566 73.728 53.5848 72.7079 54.165C71.6878 54.7406 70.4479 55.0283 68.988 55.0283ZM66.2928 53.4842H68.8757C70.0642 53.4842 71.0491 53.2549 71.8306 52.7964C72.612 52.3378 73.1945 51.6851 73.5782 50.8381C73.9619 49.9912 74.1538 48.9829 74.1538 47.8131C74.1538 46.6527 73.9643 45.6537 73.5852 44.8161C73.2062 43.9738 72.6401 43.3281 71.8867 42.8789C71.1334 42.425 70.1952 42.1981 69.0722 42.1981H66.2928V53.4842ZM83.1523 55.2529C82.1135 55.2529 81.2175 55.0236 80.4641 54.5651C79.7155 54.1018 79.1376 53.4561 78.7305 52.6279C78.3281 51.795 78.1269 50.8264 78.1269 49.7222C78.1269 48.6179 78.3281 47.6446 78.7305 46.8024C79.1376 45.9555 79.7038 45.2957 80.4291 44.8231C81.159 44.3458 82.0106 44.1072 82.9839 44.1072C83.5454 44.1072 84.0998 44.2008 84.6473 44.3879C85.1948 44.5751 85.6931 44.8793 86.1423 45.3004C86.5915 45.7168 86.9494 46.269 87.2162 46.9568C87.4829 47.6446 87.6162 48.4916 87.6162 49.4976V50.1994H79.3061V48.7676H85.9317C85.9317 48.1593 85.8101 47.6166 85.5668 47.1393C85.3281 46.662 84.9865 46.2853 84.542 46.0093C84.1022 45.7332 83.5828 45.5952 82.9839 45.5952C82.3241 45.5952 81.7533 45.7589 81.2713 46.0865C80.794 46.4093 80.4267 46.8305 80.1694 47.3498C79.912 47.8692 79.7833 48.426 79.7833 49.0203V49.9748C79.7833 50.789 79.9237 51.4792 80.2045 52.0454C80.4899 52.6069 80.8853 53.035 81.3906 53.3298C81.896 53.6199 82.4832 53.765 83.1523 53.765C83.5875 53.765 83.9805 53.7041 84.3315 53.5825C84.6871 53.4561 84.9936 53.269 85.2509 53.021C85.5083 52.7683 85.7071 52.4548 85.8475 52.0805L87.4478 52.5297C87.2793 53.0724 86.9962 53.5497 86.5985 53.9615C86.2008 54.3686 85.7095 54.6867 85.1246 54.916C84.5397 55.1406 83.8823 55.2529 83.1523 55.2529ZM98.7221 44.2476L94.7355 55.0283H93.051L89.0644 44.2476H90.8612L93.8371 52.8385H93.9494L96.9254 44.2476H98.7221ZM105.141 55.2529C104.103 55.2529 103.206 55.0236 102.453 54.5651C101.704 54.1018 101.127 53.4561 100.72 52.6279C100.317 51.795 100.116 50.8264 100.116 49.7222C100.116 48.6179 100.317 47.6446 100.72 46.8024C101.127 45.9555 101.693 45.2957 102.418 44.8231C103.148 44.3458 104 44.1072 104.973 44.1072C105.534 44.1072 106.089 44.2008 106.636 44.3879C107.184 44.5751 107.682 44.8793 108.131 45.3004C108.58 45.7168 108.938 46.269 109.205 46.9568C109.472 47.6446 109.605 48.4916 109.605 49.4976V50.1994H101.295V48.7676H107.921C107.921 48.1593 107.799 47.6166 107.556 47.1393C107.317 46.662 106.976 46.2853 106.531 46.0093C106.091 45.7332 105.572 45.5952 104.973 45.5952C104.313 45.5952 103.742 45.7589 103.26 46.0865C102.783 46.4093 102.416 46.8305 102.158 47.3498C101.901 47.8692 101.772 48.426 101.772 49.0203V49.9748C101.772 50.789 101.913 51.4792 102.193 52.0454C102.479 52.6069 102.874 53.035 103.38 53.3298C103.885 53.6199 104.472 53.765 105.141 53.765C105.576 53.765 105.97 53.7041 106.32 53.5825C106.676 53.4561 106.983 53.269 107.24 53.021C107.497 52.7683 107.696 52.4548 107.837 52.0805L109.437 52.5297C109.268 53.0724 108.985 53.5497 108.588 53.9615C108.19 54.3686 107.698 54.6867 107.114 54.916C106.529 55.1406 105.871 55.2529 105.141 55.2529ZM113.88 40.654V55.0283H112.224V40.654H113.88ZM121.393 55.2529C120.419 55.2529 119.565 55.0213 118.831 54.5581C118.101 54.0948 117.53 53.4468 117.118 52.6139C116.711 51.781 116.507 50.8077 116.507 49.6941C116.507 48.5711 116.711 47.5908 117.118 46.7533C117.53 45.9157 118.101 45.2653 118.831 44.8021C119.565 44.3388 120.419 44.1072 121.393 44.1072C122.366 44.1072 123.217 44.3388 123.947 44.8021C124.682 45.2653 125.253 45.9157 125.66 46.7533C126.072 47.5908 126.278 48.5711 126.278 49.6941C126.278 50.8077 126.072 51.781 125.66 52.6139C125.253 53.4468 124.682 54.0948 123.947 54.5581C123.217 55.0213 122.366 55.2529 121.393 55.2529ZM121.393 53.765C122.132 53.765 122.74 53.5754 123.217 53.1964C123.695 52.8174 124.048 52.3191 124.277 51.7014C124.506 51.0838 124.621 50.4147 124.621 49.6941C124.621 48.9735 124.506 48.3021 124.277 47.6797C124.048 47.0574 123.695 46.5544 123.217 46.1707C122.74 45.787 122.132 45.5952 121.393 45.5952C120.653 45.5952 120.045 45.787 119.568 46.1707C119.09 46.5544 118.737 47.0574 118.508 47.6797C118.279 48.3021 118.164 48.9735 118.164 49.6941C118.164 50.4147 118.279 51.0838 118.508 51.7014C118.737 52.3191 119.09 52.8174 119.568 53.1964C120.045 53.5754 120.653 53.765 121.393 53.765ZM128.905 59.0711V44.2476H130.505V45.9601H130.702C130.823 45.773 130.992 45.5343 131.207 45.2442C131.427 44.9494 131.74 44.6874 132.148 44.4581C132.559 44.2242 133.116 44.1072 133.818 44.1072C134.726 44.1072 135.526 44.3341 136.218 44.788C136.911 45.2419 137.451 45.8853 137.84 46.7182C138.228 47.551 138.422 48.5337 138.422 49.666C138.422 50.8077 138.228 51.7974 137.84 52.6349C137.451 53.4678 136.913 54.1135 136.225 54.5721C135.538 55.026 134.744 55.2529 133.846 55.2529C133.154 55.2529 132.599 55.1383 132.183 54.909C131.766 54.675 131.446 54.4107 131.221 54.1159C130.996 53.8164 130.823 53.5684 130.702 53.3719H130.561V59.0711H128.905ZM130.533 49.6379C130.533 50.4521 130.653 51.1704 130.891 51.7927C131.13 52.4103 131.478 52.8946 131.937 53.2456C132.396 53.5918 132.957 53.765 133.621 53.765C134.314 53.765 134.892 53.5825 135.355 53.2175C135.823 52.8478 136.174 52.3518 136.408 51.7295C136.647 51.1025 136.766 50.4053 136.766 49.6379C136.766 48.8799 136.649 48.1968 136.415 47.5885C136.186 46.9755 135.837 46.4912 135.369 46.1356C134.906 45.7753 134.323 45.5952 133.621 45.5952C132.948 45.5952 132.381 45.766 131.923 46.1075C131.464 46.4444 131.118 46.917 130.884 47.5253C130.65 48.1289 130.533 48.8331 130.533 49.6379ZM145.568 55.2529C144.529 55.2529 143.633 55.0236 142.88 54.5651C142.131 54.1018 141.553 53.4561 141.146 52.6279C140.744 51.795 140.542 50.8264 140.542 49.7222C140.542 48.6179 140.744 47.6446 141.146 46.8024C141.553 45.9555 142.119 45.2957 142.845 44.8231C143.575 44.3458 144.426 44.1072 145.399 44.1072C145.961 44.1072 146.515 44.2008 147.063 44.3879C147.61 44.5751 148.109 44.8793 148.558 45.3004C149.007 45.7168 149.365 46.269 149.632 46.9568C149.898 47.6446 150.032 48.4916 150.032 49.4976V50.1994H141.722V48.7676H148.347C148.347 48.1593 148.226 47.6166 147.982 47.1393C147.744 46.662 147.402 46.2853 146.958 46.0093C146.518 45.7332 145.998 45.5952 145.399 45.5952C144.74 45.5952 144.169 45.7589 143.687 46.0865C143.21 46.4093 142.842 46.8305 142.585 47.3498C142.328 47.8692 142.199 48.426 142.199 49.0203V49.9748C142.199 50.789 142.339 51.4792 142.62 52.0454C142.905 52.6069 143.301 53.035 143.806 53.3298C144.312 53.6199 144.899 53.765 145.568 53.765C146.003 53.765 146.396 53.7041 146.747 53.5825C147.103 53.4561 147.409 53.269 147.666 53.021C147.924 52.7683 148.123 52.4548 148.263 52.0805L149.863 52.5297C149.695 53.0724 149.412 53.5497 149.014 53.9615C148.616 54.3686 148.125 54.6867 147.54 54.916C146.955 55.1406 146.298 55.2529 145.568 55.2529ZM152.65 55.0283V44.2476H154.251V45.8759H154.363C154.559 45.3425 154.915 44.9097 155.43 44.5775C155.944 44.2452 156.525 44.0791 157.17 44.0791C157.292 44.0791 157.444 44.0815 157.627 44.0861C157.809 44.0908 157.947 44.0978 158.041 44.1072V45.7917C157.985 45.7777 157.856 45.7566 157.655 45.7285C157.458 45.6958 157.25 45.6794 157.03 45.6794C156.506 45.6794 156.038 45.7893 155.626 46.0093C155.219 46.2245 154.896 46.524 154.658 46.9077C154.424 47.2867 154.307 47.7195 154.307 48.2061V55.0283H152.65Z" fill="white"/>
</g>
<defs>
<filter id="filter0_d_10_8" x="3.37567" y="4.02714" width="6.99085" height="45.3131" filterUnits="userSpaceOnUse" color-interpolation-filters="sRGB">
<feFlood flood-opacity="0" result="BackgroundImageFix"/>
<feColorMatrix in="SourceAlpha" type="matrix" values="0 0 0 0 0 0 0 0 0 0 0 0 0 0 0 0 0 0 127 0" result="hardAlpha"/>
<feOffset dy="0.998638"/>
<feGaussianBlur stdDeviation="1.49796"/>
<feColorMatrix type="matrix" values="0 0 0 0 0 0 0 0 0 0 0 0 0 0 0 0 0 0 0.4 0"/>
<feBlend mode="normal" in2="BackgroundImageFix" result="effect1_dropShadow_10_8"/>
<feBlend mode="normal" in="SourceGraphic" in2="effect1_dropShadow_10_8" result="shape"/>
</filter>
<filter id="filter1_d_10_8" x="0.900083" y="0.844033" width="11.942" height="11.942" filterUnits="userSpaceOnUse" color-interpolation-filters="sRGB">
<feFlood flood-opacity="0" result="BackgroundImageFix"/>
<feColorMatrix in="SourceAlpha" type="matrix" values="0 0 0 0 0 0 0 0 0 0 0 0 0 0 0 0 0 0 127 0" result="hardAlpha"/>
<feOffset dy="0.998638"/>
<feGaussianBlur stdDeviation="1.49796"/>
<feColorMatrix type="matrix" values="0 0 0 0 0 0 0 0 0 0 0 0 0 0 0 0 0 0 0.4 0"/>
<feBlend mode="normal" in2="BackgroundImageFix" result="effect1_dropShadow_10_8"/>
<feBlend mode="normal" in="SourceGraphic" in2="effect1_dropShadow_10_8" result="shape"/>
</filter>
<filter id="filter2_d_10_8" x="0.900083" y="37.9808" width="11.942" height="11.942" filterUnits="userSpaceOnUse" color-interpolation-filters="sRGB">
<feFlood flood-opacity="0" result="BackgroundImageFix"/>
<feColorMatrix in="SourceAlpha" type="matrix" values="0 0 0 0 0 0 0 0 0 0 0 0 0 0 0 0 0 0 127 0" result="hardAlpha"/>
<feOffset dy="0.998638"/>
<feGaussianBlur stdDeviation="1.49796"/>
<feColorMatrix type="matrix" values="0 0 0 0 0 0 0 0 0 0 0 0 0 0 0 0 0 0 0.4 0"/>
<feBlend mode="normal" in2="BackgroundImageFix" result="effect1_dropShadow_10_8"/>
<feBlend mode="normal" in="SourceGraphic" in2="effect1_dropShadow_10_8" result="shape"/>
</filter>
<filter id="filter3_d_10_8" x="9.29911" y="28.7999" width="163.913" height="45.6845" filterUnits="userSpaceOnUse" color-interpolation-filters="sRGB">
<feFlood flood-opacity="0" result="BackgroundImageFix"/>
<feColorMatrix in="SourceAlpha" type="matrix" values="0 0 0 0 0 0 0 0 0 0 0 0 0 0 0 0 0 0 127 0" result="hardAlpha"/>
<feOffset dy="3.61412"/>
<feGaussianBlur stdDeviation="3.61412"/>
<feColorMatrix type="matrix" values="0 0 0 0 0 0 0 0 0 0 0 0 0 0 0 0 0 0 0.12 0"/>
<feBlend mode="normal" in2="BackgroundImageFix" result="effect1_dropShadow_10_8"/>
<feBlend mode="normal" in="SourceGraphic" in2="effect1_dropShadow_10_8" result="shape"/>
</filter>
</defs>
</svg>
