<svg width="34" height="34" viewBox="0 0 34 34" fill="none" xmlns="http://www.w3.org/2000/svg">
<mask id="mask0_49_700" style="mask-type:alpha" maskUnits="userSpaceOnUse" x="0" y="0" width="34" height="34">
<rect y="0.474121" width="33.0517" height="33.0517" fill="#D9D9D9"/>
</mask>
<g mask="url(#mask0_49_700)">
<path d="M12.2568 30.7716C10.9561 30.7716 9.72815 30.5306 8.57288 30.0486C7.4176 29.5666 6.39621 28.8819 5.50871 27.9944C4.63651 27.1222 3.95941 26.1122 3.4774 24.9646C2.9954 23.817 2.75439 22.5852 2.75439 21.2693C2.75439 19.4254 3.23258 17.7422 4.18894 16.2197C5.14529 14.6972 6.4115 13.5572 7.98759 12.7997C8.44664 11.8587 9.04149 11.0228 9.77214 10.2922C10.5028 9.56151 11.354 8.95135 12.3256 8.46171C13.0678 6.85503 14.2001 5.58116 15.7226 4.6401C17.2451 3.69904 18.9436 3.22852 20.8181 3.22852C22.1187 3.22852 23.3429 3.46952 24.4905 3.95152C25.6381 4.43353 26.648 5.11828 27.5202 6.00579C28.3924 6.89328 29.0734 7.90701 29.563 9.047C30.0527 10.187 30.2975 11.4073 30.2975 12.7079C30.2975 14.6436 29.8423 16.3383 28.9318 17.7919C28.0214 19.2456 26.7322 20.3817 25.0643 21.2004C24.6053 22.172 24.0142 23.0194 23.2912 23.7424C22.5682 24.4654 21.7132 25.0641 20.7263 25.5384C19.9688 27.1451 18.8327 28.419 17.3178 29.36C15.8029 30.3011 14.1159 30.7716 12.2568 30.7716ZM12.2568 28.4764C13.1978 28.4764 14.1025 28.2889 14.9709 27.914C15.8393 27.5391 16.5719 27.0304 17.1686 26.3877C15.7609 26.4948 14.422 26.315 13.1519 25.8483C11.8819 25.3816 10.7649 24.6739 9.80085 23.7252C8.83684 22.7765 8.12531 21.6633 7.66626 20.3856C7.20721 19.1079 7.03124 17.7651 7.13836 16.3574C6.48038 16.9542 5.96776 17.6867 5.60049 18.5551C5.23325 19.4235 5.04963 20.3282 5.04963 21.2693C5.04963 22.2792 5.23325 23.2202 5.60049 24.0924C5.96773 24.9646 6.48417 25.7259 7.14979 26.3762C7.81542 27.0265 8.58051 27.5391 9.44506 27.914C10.3096 28.2889 11.2469 28.4764 12.2568 28.4764ZM16.5259 24.1842C17.467 24.1842 18.3717 24.0006 19.2401 23.6334C20.1085 23.2661 20.8564 22.7535 21.4837 22.0955C20.0683 22.2026 18.7294 22.0133 17.467 21.5275C16.2046 21.0416 15.0991 20.3167 14.1504 19.3527C13.1863 18.3734 12.4653 17.2487 11.9871 15.9787C11.5089 14.7086 11.331 13.3659 11.4534 11.9505C10.6883 12.7309 10.1451 13.5132 9.82378 14.2974C9.50245 15.0816 9.34178 15.9825 9.34178 17.0001C9.34178 17.9947 9.52348 18.9281 9.88689 19.8003C10.2503 20.6725 10.7687 21.4414 11.4419 22.107C12.0923 22.765 12.8535 23.2757 13.7257 23.6391C14.5979 24.0025 15.5313 24.1842 16.5259 24.1842ZM20.9099 19.8462C21.3078 19.8462 21.7037 19.8079 22.0977 19.7314C22.4917 19.6549 22.9068 19.5325 23.3429 19.3642C23.8325 18.0023 23.911 16.6692 23.5782 15.3647C23.2453 14.0602 22.5893 12.9183 21.61 11.939C20.6765 11.0056 19.5117 10.3648 18.1154 10.0167C16.7191 9.66862 15.3783 9.7241 14.093 10.1832C13.9706 10.5733 13.8787 10.9693 13.8175 11.3709C13.7563 11.7726 13.7257 12.2183 13.7257 12.7079C13.7257 13.6719 13.9074 14.59 14.2709 15.4622C14.6343 16.3344 15.1526 17.111 15.8259 17.7919C16.4915 18.4958 17.2604 19.0142 18.1326 19.347C19.0048 19.6798 19.9306 19.8462 20.9099 19.8462ZM26.0283 17.7116C26.7016 17.0689 27.1989 16.3364 27.5203 15.5139C27.8416 14.6914 28.0023 13.7561 28.0023 12.7079C28.0023 11.7286 27.8206 10.8067 27.4571 9.94215C27.0937 9.07759 26.5754 8.3125 25.9021 7.64688C25.2212 6.9583 24.4484 6.43231 23.5839 6.0689C22.7193 5.70547 21.7974 5.52375 20.8181 5.52375C19.8005 5.52375 18.869 5.68825 18.0236 6.01726C17.1782 6.34624 16.4112 6.85501 15.7226 7.54359C17.138 7.4365 18.4922 7.62585 19.7852 8.11167C21.0782 8.59751 22.222 9.33008 23.2166 10.3094C24.2112 11.2887 24.9553 12.4134 25.4488 13.6834C25.9423 14.9535 26.1354 16.2962 26.0283 17.7116Z" fill="#1C1C1C"/>
</g>
</svg>
