<svg width="336" height="129" viewBox="0 0 336 129" fill="none" xmlns="http://www.w3.org/2000/svg">
<path d="M222.741 9.11523L224.974 9.28085C229.983 9.51345 234.918 10.6133 239.57 12.5339C242.607 13.7874 245.305 15.7752 247.433 18.3283C249.383 20.7375 250.627 23.6652 251.021 26.7714C251.356 29.8111 251.207 32.8865 250.577 35.8768C249.811 40.1895 249.086 44.5103 248.336 48.8312C247.836 51.7284 247.339 54.6283 246.844 57.531C246.8 57.7159 246.8 57.9091 246.844 58.0939L247.126 57.829C252.255 52.2499 257.391 46.6735 262.537 41.1C262.684 40.954 262.88 40.8711 263.084 40.8682C265.028 40.8682 266.972 40.8682 268.915 40.8682V40.8599C268.818 40.9243 268.726 40.9963 268.641 41.0751C263.265 46.6708 257.889 52.272 252.513 57.8787C252.424 57.9697 252.351 58.0608 252.263 58.1684L264.028 77.9434H263.649C261.657 77.9434 259.657 77.9434 257.658 77.9434C257.547 77.955 257.436 77.9297 257.34 77.8712C257.245 77.8134 257.169 77.7259 257.125 77.6212C253.739 71.4898 250.354 65.3534 246.973 59.2114C246.9 59.0706 246.82 58.9383 246.739 58.7975H246.61C245.535 65.1603 244.438 71.5367 243.32 77.9268H237.538C237.723 76.8429 237.909 75.7829 238.086 74.7236C238.839 70.3917 239.583 66.0597 240.32 61.7278C241.03 57.589 241.742 53.4502 242.457 49.3114C243.094 45.603 243.699 41.8615 244.376 38.1946C244.901 35.6487 245.188 33.0569 245.231 30.455C245.277 27.6758 244.727 24.9202 243.618 22.3843C242.125 19.2093 239.606 16.664 236.49 15.1827C233.761 13.8433 230.849 12.9443 227.853 12.5174C223.074 11.8128 218.238 11.6021 213.419 11.8883C210.475 12.0207 207.532 12.178 204.612 12.5257C201.427 12.8982 198.258 13.4279 195.105 14.0322C187.867 15.4595 180.724 17.3561 173.719 19.7106C173.586 19.7528 173.443 19.7528 173.308 19.7106L174.026 19.4043C181.483 16.2767 189.177 13.7849 197.033 11.9545C201.077 10.9878 205.176 10.2801 209.306 9.83543C211.725 9.58708 214.144 9.43808 216.563 9.23945C216.649 9.2234 216.733 9.19848 216.813 9.16495L222.741 9.11523Z" fill="#01577A"/>
<path d="M161.365 23.916C160.326 29.9835 159.301 35.9516 158.261 42.0026C158.705 41.8122 159.068 41.6383 159.463 41.4893C162.276 40.3313 165.348 40.0045 168.333 40.5457C172.244 41.2493 174.824 43.6581 176.235 47.4161C177.092 49.8472 177.43 52.4384 177.228 55.0149C177.029 59.0449 176.087 62.9997 174.454 66.6699C172.883 70.3923 170.28 73.559 166.971 75.7751C163.946 77.7203 160.434 78.7153 156.866 78.6394C154.145 78.7102 151.436 78.2492 148.883 77.2817C148.167 76.9638 147.472 76.5989 146.802 76.1892C146.743 76.1357 146.695 76.0692 146.662 75.9948C146.631 75.9204 146.615 75.8402 146.617 75.7585C147.595 70.0526 148.577 64.3466 149.56 58.6406L152.995 38.5674C153.592 35.1073 154.186 31.6473 154.778 28.1873C154.794 28.0547 154.841 27.9284 154.916 27.8188C154.99 27.7093 155.089 27.6198 155.205 27.5581C157.124 26.4324 159.035 25.2901 160.946 24.1561L161.365 23.916ZM171.341 54.4604C171.426 52.4138 171.133 50.3692 170.478 48.4343C170.12 47.3065 169.467 46.3019 168.589 45.5309C167.711 44.7597 166.643 44.2521 165.502 44.0637C163.011 43.6196 160.447 43.9812 158.164 45.0984C158.001 45.1656 157.86 45.2791 157.757 45.4257C157.654 45.5723 157.594 45.7458 157.584 45.9262C156.866 50.2305 156.116 54.5349 155.374 58.8392L152.955 72.8118C152.753 74.0207 152.762 74.0207 153.923 74.335C155.485 74.7324 157.101 74.8639 158.705 74.7238C160.352 74.6204 161.952 74.1096 163.366 73.2338C165.558 71.8062 167.289 69.7439 168.341 67.3072C170.177 63.2774 171.198 58.9069 171.341 54.4604Z" fill="#01577A"/>
<path d="M75.7177 51.3388H89.4265L88.717 55.5273H75.4193C75.1209 55.5273 74.9836 55.577 74.9272 55.9246C74.1374 60.6042 73.331 65.2783 72.508 69.9469L71.9034 73.4485C71.9034 73.5142 71.9034 73.5807 71.9034 73.6884H88.7487L88.0312 77.9516H68.5084C67.8474 78.0137 67.1873 77.8237 66.6545 77.4176C66.1217 77.0115 65.7538 76.4168 65.6215 75.7492C65.529 75.1227 65.5454 74.4832 65.6699 73.8625C67.0515 65.7667 68.4412 57.6767 69.839 49.5922C70.7206 44.4877 71.5942 39.3694 72.4596 34.2373C72.6186 33.1912 73.1381 32.2385 73.9243 31.5532C74.7104 30.8678 75.7105 30.4955 76.7416 30.5041C82.5721 30.5041 88.4026 30.5041 94.2404 30.5041H94.5467L93.8133 34.7588H78.564L75.7177 51.3388Z" fill="#01577A"/>
<path d="M212.62 77.9353H206.733C206.895 76.9837 207.048 76.04 207.21 75.1043L209.532 61.6285C210.306 57.131 211.078 52.6362 211.846 48.1443C212.129 46.4887 212.419 44.8332 212.653 43.1777C212.661 43.0443 212.707 42.9163 212.786 42.8101C212.865 42.7039 212.973 42.6243 213.096 42.5817C215.618 41.5257 218.264 40.816 220.967 40.4709C223.044 40.1979 225.139 40.09 227.232 40.1481C229.547 40.1124 231.836 40.664 233.893 41.7539C234.966 42.3518 235.877 43.2156 236.541 44.2666C237.206 45.3175 237.604 46.5225 237.7 47.7718C237.796 49.5288 237.644 51.291 237.248 53.0032L234.966 66.5206C234.313 70.32 233.66 74.1194 232.998 77.944H227.087L227.474 75.6758L229.958 61.2808C230.544 57.887 231.125 54.4932 231.7 51.0994C231.947 49.901 231.903 48.6586 231.571 47.482C231.312 46.6421 230.824 45.8965 230.162 45.3342C229.502 44.772 228.698 44.417 227.845 44.3117C224.7 43.6946 221.447 44.0282 218.483 45.272C218.422 45.3029 218.368 45.347 218.324 45.4013C218.282 45.4556 218.251 45.5187 218.233 45.5865C217.491 49.8136 216.76 54.0489 216.04 58.2926C215.325 62.448 214.612 66.5868 213.903 70.709L212.717 77.5712L212.62 77.9353Z" fill="#01577A"/>
<path d="M116.199 64.5336C116.34 59.2518 117.641 54.0709 120.005 49.3773C121.507 46.31 123.846 43.7585 126.738 42.035C129.074 40.7038 131.713 40.0379 134.383 40.1064C136.305 40.0733 138.209 40.4953 139.947 41.3397C141.173 41.9911 142.25 42.9042 143.104 44.0178C143.958 45.1314 144.57 46.4198 144.899 47.7963C145.558 50.2884 145.771 52.8827 145.527 55.453C145.296 58.841 144.624 62.1818 143.527 65.3862C142.553 68.4046 140.989 71.1874 138.931 73.5642C137.315 75.4213 135.282 76.8447 133.008 77.7104C130.734 78.576 128.288 78.8579 125.883 78.5312C123.531 78.3708 121.309 77.3621 119.61 75.6836C118.133 74.1083 117.126 72.1321 116.707 69.9885C116.332 68.1965 116.162 66.366 116.199 64.5336ZM139.81 52.7546C139.849 51.1157 139.62 49.4818 139.133 47.9204C138.872 46.9519 138.349 46.0795 137.624 45.4052C136.898 44.7309 136.001 44.2825 135.036 44.1127C133.71 43.8422 132.337 43.9287 131.053 44.3639C129.768 44.7991 128.615 45.568 127.706 46.596C126.156 48.3444 125 50.4215 124.319 52.6801C123.041 56.5203 122.284 60.5228 122.07 64.575C121.911 66.4579 122.091 68.3548 122.601 70.1706C122.779 70.9504 123.122 71.68 123.608 72.3069C124.094 72.9341 124.708 73.4428 125.408 73.7962C126.623 74.3526 127.959 74.5693 129.282 74.4234C130.605 74.2781 131.867 73.7759 132.939 72.9688C134.688 71.6844 136.024 69.8949 136.778 67.8281C138.834 63.0436 139.528 57.9446 139.81 52.7546Z" fill="#01577A"/>
<path d="M200.404 53.74C200.783 52.0972 200.959 50.4118 200.927 48.7237C200.871 47.6808 200.469 46.689 199.789 45.9122C199.109 45.1355 198.19 44.6206 197.186 44.4525C195.017 43.9559 192.767 43.9559 190.597 44.4525C188.779 44.8491 187.008 45.4486 185.315 46.2404L184.921 46.4143C184.662 45.2803 184.404 44.1628 184.179 43.0453C184.179 42.9377 184.316 42.739 184.437 42.6811C185.956 41.9349 187.545 41.3471 189.178 40.9262C191.65 40.2624 194.205 39.9833 196.758 40.0985C198.98 40.1098 201.158 40.733 203.065 41.903C203.959 42.4932 204.718 43.2767 205.288 44.1988C205.858 45.121 206.224 46.1594 206.363 47.2421C206.6 49.1751 206.508 51.1361 206.089 53.0364C205.282 57.6829 204.476 62.3266 203.67 66.9676C203.17 69.8537 202.675 72.7425 202.185 75.6343C202.173 75.7622 202.126 75.8836 202.048 75.9848C201.972 76.0859 201.868 76.1625 201.75 76.2051C199.537 77.2334 197.19 77.9249 194.783 78.258C192.592 78.5918 190.374 78.7031 188.162 78.5897C185.957 78.5608 183.782 78.0622 181.775 77.1243C180.429 76.5137 179.3 75.4891 178.544 74.1913C177.789 72.8943 177.444 71.3882 177.558 69.8813C177.703 64.3933 180.211 60.3621 184.88 57.7381C187.729 56.2127 190.802 55.1754 193.976 54.6671C196.025 54.2946 198.089 54.0545 200.146 53.7565L200.404 53.74ZM199.855 56.8523C198.879 56.9931 198 57.1172 197.122 57.258C194.821 57.5691 192.562 58.1466 190.388 58.9797C188.456 59.6841 186.754 60.9249 185.469 62.5639C184.075 64.4772 183.312 66.7971 183.291 69.186C183.203 72.2405 184.574 74.0945 187.469 74.7737C190.36 75.4284 193.371 75.2513 196.17 74.26C196.75 74.0612 197.089 73.7556 197.073 73.1017C197.08 72.9918 197.099 72.8834 197.13 72.7787L199.452 59.2529C199.589 58.4748 199.71 57.6967 199.855 56.8523Z" fill="#01577A"/>
<path d="M110.417 72.3979C110.675 73.6148 110.941 74.7817 111.175 75.9574C111.172 76.039 111.15 76.1185 111.112 76.1901C111.075 76.2616 111.021 76.3237 110.957 76.3714C109.656 77.2927 108.18 77.9242 106.627 78.2256C104.415 78.7783 102.109 78.8065 99.885 78.3079C98.33 77.925 96.8899 77.1554 95.6919 76.0672C94.4938 74.979 93.5747 73.6054 93.0147 72.067C92.0992 69.7855 91.6628 67.3317 91.7329 64.8655C91.7112 59.2468 93.1412 53.7227 95.8776 48.8566C97.6168 45.6648 100.264 43.0946 103.466 41.4895C105.84 40.3511 108.474 39.9044 111.079 40.1982C112.397 40.2948 113.691 40.6136 114.909 41.1418C115.69 41.4892 116.401 41.9833 117.005 42.5986L114.997 46.1001L114.545 45.7524C113.141 44.7203 111.431 44.2201 109.707 44.337C105.95 44.428 103.337 46.4395 101.434 49.6015C100.029 52.0466 99.0418 54.7202 98.5143 57.5066C97.9557 59.9477 97.6848 62.449 97.7079 64.9565C97.705 66.763 98.0504 68.5522 98.7238 70.2211C99.1928 71.4504 100.033 72.4933 101.122 73.1964C102.21 73.8995 103.489 74.2261 104.772 74.1278C106.601 74.0837 108.388 73.5534 109.957 72.5887L110.417 72.3979Z" fill="#01577A"/>
<path d="M263.278 85.2776L263.125 86.4865H63.5171C63.5655 86.1303 63.6058 85.7827 63.6703 85.4352C63.6911 85.3976 63.7189 85.3658 63.7521 85.3398C63.7855 85.3145 63.8235 85.2957 63.8639 85.2856C63.9845 85.2733 64.1061 85.2733 64.2267 85.2856H263.278V85.2776Z" fill="#BECF06"/>
<path d="M213.999 112.776C214.636 109.059 215.266 105.409 215.886 101.758C216.096 100.558 216.29 99.3577 216.507 98.1655C216.507 98.0253 216.629 97.8266 216.741 97.7846C217.816 97.2752 218.978 96.9876 220.161 96.94C221.344 96.8915 222.525 97.083 223.636 97.5036C225.37 98.2074 225.951 99.9452 225.249 101.874C224.987 102.561 224.57 103.174 224.033 103.665C223.497 104.156 222.855 104.509 222.16 104.697L221.894 104.779C221.894 104.779 221.894 104.779 221.846 104.829C222.103 104.937 222.37 105.02 222.652 105.135C223.436 105.465 224.074 106.079 224.445 106.861C224.815 107.643 224.892 108.537 224.66 109.373C224.465 110.308 224.018 111.168 223.369 111.853C222.719 112.538 221.895 113.021 220.991 113.247C219.047 113.824 216.98 113.804 215.047 113.189C214.691 113.072 214.341 112.934 213.999 112.776ZM216.152 111.89C216.307 111.964 216.47 112.019 216.636 112.056C217.461 112.153 218.29 112.197 219.12 112.188C219.967 112.171 220.78 111.841 221.409 111.259C222.038 110.676 222.442 109.881 222.547 109.018C222.894 107.138 222.2 105.988 220.37 105.641C219.423 105.509 218.47 105.44 217.515 105.433C217.427 105.422 217.337 105.422 217.249 105.433C216.886 107.619 216.524 109.746 216.152 111.89ZM217.435 104.39C218.459 104.316 219.41 104.333 220.33 104.167C222.346 103.811 223.208 102.809 223.434 100.723C223.529 100.206 223.421 99.6706 223.135 99.2334C222.848 98.797 222.406 98.4935 221.902 98.3895C220.887 98.1351 219.827 98.1553 218.822 98.4473C218.697 98.461 218.582 98.521 218.498 98.6149C218.413 98.7096 218.365 98.8324 218.362 98.9603C218.281 99.5398 218.168 100.103 218.072 100.682C217.862 101.874 217.66 103.075 217.435 104.39Z" fill="#03597B"/>
<path d="M78.6776 113.404H76.6616C76.7823 112.668 76.903 111.948 77.0243 111.236C77.4196 108.86 77.8307 106.493 78.2173 104.117C78.299 103.862 78.3185 103.59 78.2751 103.326C78.2318 103.061 78.1256 102.811 77.9673 102.597C77.8083 102.384 77.601 102.213 77.364 102.1C77.127 101.988 76.8661 101.935 76.6052 101.949C75.689 101.825 74.7583 101.98 73.9274 102.395C73.8399 102.444 73.7626 102.51 73.7005 102.59C73.6376 102.669 73.5921 102.761 73.5646 102.859C72.9678 106.17 72.4034 109.564 71.8229 112.917C71.8229 113.073 71.7665 113.239 71.7343 113.404H69.7183L72.8955 94.9287H74.9115L73.8226 101.328C74.2988 101.154 74.7258 100.988 75.1536 100.856C76.0727 100.564 77.0504 100.519 77.9919 100.723C78.3662 100.769 78.7275 100.895 79.0512 101.094C79.3749 101.293 79.6538 101.56 79.8706 101.877C80.0866 102.194 80.2348 102.555 80.3063 102.936C80.3771 103.316 80.3684 103.707 80.2817 104.084C79.9031 106.46 79.4753 108.827 79.0808 111.203C78.9356 111.923 78.8062 112.643 78.6776 113.404Z" fill="#03597B"/>
<path d="M150.463 97.206C151.31 102.62 152.148 107.967 152.995 113.397H150.81C150.591 111.741 150.374 110.177 150.148 108.546H147.011C146.366 108.546 145.721 108.546 145.068 108.546C144.965 108.532 144.861 108.556 144.773 108.611C144.685 108.667 144.619 108.752 144.584 108.853C143.907 110.268 143.213 111.675 142.536 113.09C142.503 113.2 142.433 113.295 142.338 113.357C142.243 113.419 142.131 113.445 142.019 113.43C141.528 113.43 141.028 113.43 140.472 113.43C140.536 113.273 140.576 113.165 140.625 113.057C143.221 107.886 145.812 102.713 148.398 97.5369C148.435 97.4278 148.507 97.3353 148.602 97.2746C148.698 97.2139 148.811 97.1901 148.922 97.206C149.422 97.2219 149.922 97.206 150.463 97.206ZM145.358 107.23H150.019C149.688 104.548 149.374 101.907 149.067 99.3824L145.358 107.23Z" fill="#03597B"/>
<path d="M260.125 100.715L254.44 106.65L258.472 113.421C257.666 113.421 256.997 113.421 256.303 113.421C256.198 113.421 256.061 113.23 255.989 113.098C254.914 111.177 253.854 109.246 252.812 107.304L252.529 106.799C252.134 109.075 251.771 111.227 251.392 113.421H249.425L252.593 94.9619H254.57C253.908 98.819 253.247 102.652 252.593 106.493L252.674 106.542L252.94 106.269C254.553 104.506 256.166 102.743 257.819 100.996C257.969 100.852 258.162 100.764 258.367 100.748C258.916 100.698 259.472 100.715 260.125 100.715Z" fill="#03597B"/>
<path d="M103.579 106.791C103.2 108.943 102.821 111.162 102.434 113.413H100.377C100.474 112.825 100.563 112.246 100.66 111.675C101.434 107.177 102.214 102.682 102.998 98.1906C103.014 98.1039 103.047 98.0215 103.096 97.9485C103.144 97.8755 103.208 97.8141 103.281 97.7686C105.17 96.895 107.297 96.7223 109.296 97.2801C110.094 97.4824 110.79 97.9817 111.25 98.6798C111.71 99.3785 111.902 100.228 111.788 101.063C111.741 102.629 111.093 104.113 109.984 105.189C108.874 106.265 107.395 106.848 105.869 106.807C105.119 106.816 104.369 106.791 103.579 106.791ZM103.805 105.45C104.539 105.45 105.2 105.45 105.853 105.45C106.587 105.454 107.305 105.234 107.916 104.819C108.528 104.403 109.006 103.81 109.288 103.116C109.661 102.25 109.811 101.301 109.724 100.359C109.71 99.9255 109.559 99.5078 109.294 99.1697C109.03 98.8308 108.665 98.5887 108.256 98.4803C107.269 98.1783 106.219 98.1783 105.232 98.4803C105.161 98.515 105.097 98.5663 105.047 98.6292C104.998 98.6921 104.961 98.7658 104.942 98.8445C104.805 99.5483 104.692 100.26 104.571 100.964C104.321 102.421 104.079 103.861 103.805 105.425V105.45Z" fill="#03597B"/>
<path d="M122.553 113.421C122.731 112.412 122.892 111.476 123.053 110.541C123.553 107.633 124.048 104.73 124.537 101.832C124.546 101.685 124.6 101.544 124.691 101.43C124.782 101.315 124.906 101.233 125.045 101.195C126.845 100.496 128.791 100.296 130.69 100.616C132.641 100.972 133.48 102.272 133.109 104.291C132.625 107.255 132.114 110.196 131.577 113.115C131.577 113.223 131.424 113.405 131.343 113.405C130.747 113.405 130.158 113.405 129.512 113.405L129.908 111.037C130.295 108.778 130.714 106.518 131.069 104.25C131.133 103.883 131.133 103.507 131.069 103.14C131.002 102.804 130.829 102.499 130.577 102.271C130.325 102.044 130.008 101.908 129.674 101.882C128.713 101.717 127.726 101.799 126.803 102.122C126.701 102.149 126.609 102.207 126.54 102.288C126.471 102.369 126.428 102.471 126.416 102.577C125.954 105.337 125.488 108.063 125.021 110.756C124.892 111.543 124.763 112.337 124.61 113.124C124.61 113.231 124.449 113.388 124.352 113.388C123.787 113.43 123.206 113.421 122.553 113.421Z" fill="#03597B"/>
<path d="M196.694 113.404H194.718C194.71 113.311 194.71 113.216 194.718 113.123C195.364 109.338 196.011 105.552 196.662 101.766C196.673 101.638 196.721 101.518 196.8 101.419C196.88 101.32 196.986 101.248 197.105 101.211C198.871 100.537 200.771 100.321 202.637 100.582C204.621 100.855 205.564 102.238 205.209 104.316C204.717 107.221 204.202 110.11 203.718 113.015C203.661 113.363 203.532 113.437 203.226 113.429C202.718 113.429 202.202 113.429 201.613 113.429C201.742 112.643 201.863 111.898 201.992 111.153C202.379 108.877 202.798 106.6 203.162 104.332C203.201 104.1 203.218 103.864 203.21 103.628C203.229 103.208 203.091 102.796 202.824 102.476C202.558 102.156 202.182 101.953 201.774 101.906C200.813 101.742 199.826 101.824 198.904 102.147C198.795 102.173 198.698 102.235 198.627 102.323C198.556 102.412 198.514 102.521 198.508 102.635C198.073 105.207 197.633 107.781 197.186 110.358C197.049 111.351 196.895 112.362 196.694 113.404Z" fill="#03597B"/>
<path d="M246.545 113.405H244.529C244.731 112.222 244.925 111.07 245.126 109.912C245.441 108.033 245.771 106.154 246.086 104.275C246.336 102.777 245.755 101.982 244.296 101.792C243.447 101.708 242.591 101.819 241.788 102.115C241.693 102.138 241.607 102.192 241.544 102.27C241.482 102.347 241.445 102.444 241.441 102.545C240.852 106.046 240.247 109.548 239.65 113.049C239.65 113.14 239.65 113.24 239.578 113.355H237.578C237.772 112.196 237.965 111.055 238.159 109.92C238.635 107.163 239.102 104.415 239.594 101.643C239.611 101.556 239.646 101.472 239.696 101.4C239.746 101.327 239.81 101.266 239.885 101.22C241.77 100.425 243.839 100.204 245.844 100.583C246.216 100.625 246.575 100.747 246.898 100.941C247.221 101.135 247.5 101.397 247.718 101.709C247.936 102.022 248.087 102.378 248.161 102.754C248.235 103.131 248.232 103.519 248.15 103.894C247.699 107.081 247.086 110.243 246.545 113.405Z" fill="#03597B"/>
<path d="M186.154 102.627L185.88 101.418C186.687 101.006 187.552 100.726 188.444 100.591C189.376 100.417 190.333 100.433 191.258 100.64C191.611 100.696 191.95 100.822 192.254 101.013C192.558 101.204 192.824 101.454 193.032 101.751C193.242 102.048 193.391 102.384 193.473 102.74C193.555 103.097 193.567 103.466 193.509 103.827C193.339 105.325 193.049 106.807 192.807 108.289C192.581 109.638 192.331 110.987 192.113 112.337C192.106 112.472 192.059 112.601 191.978 112.707C191.898 112.813 191.787 112.892 191.662 112.933C189.869 113.665 187.906 113.841 186.017 113.438C184.162 113.032 183.388 111.716 183.759 109.804C183.927 108.951 184.314 108.16 184.882 107.513C185.45 106.867 186.176 106.388 186.984 106.129C188.223 105.653 189.516 105.344 190.831 105.21L191.485 105.119C191.549 104.697 191.638 104.291 191.662 103.877C191.704 103.629 191.691 103.373 191.626 103.13C191.559 102.887 191.441 102.662 191.28 102.472C191.118 102.282 190.917 102.131 190.692 102.03C190.466 101.929 190.222 101.882 189.977 101.89C188.859 101.788 187.734 101.97 186.703 102.42L186.154 102.627ZM191.25 106.252L191.162 106.112C190.081 106.402 188.984 106.617 187.936 106.989C187.331 107.198 186.796 107.579 186.393 108.087C185.991 108.596 185.737 109.211 185.662 109.862C185.429 111.227 185.92 112.08 187.114 112.345C188.041 112.537 189.002 112.483 189.904 112.188C190.027 112.162 190.138 112.093 190.219 111.994C190.299 111.895 190.344 111.771 190.347 111.641C190.485 110.739 190.654 109.845 190.799 108.943C190.944 108.041 191.089 107.147 191.25 106.252Z" fill="#03597B"/>
<path d="M234.094 105.119C234.151 104.68 234.231 104.292 234.247 103.836C234.289 103.596 234.278 103.349 234.216 103.113C234.154 102.878 234.042 102.659 233.888 102.474C233.734 102.287 233.541 102.139 233.325 102.038C233.109 101.937 232.872 101.887 232.635 101.891C231.487 101.776 230.33 101.964 229.272 102.437L228.821 102.628C228.821 102.512 228.764 102.437 228.748 102.363C228.53 101.361 228.522 101.345 229.49 101.013C230.886 100.467 232.403 100.336 233.869 100.632C234.245 100.691 234.606 100.829 234.929 101.037C235.252 101.245 235.529 101.52 235.744 101.843C235.959 102.166 236.107 102.531 236.178 102.915C236.25 103.3 236.243 103.695 236.159 104.076C235.86 106.014 235.514 107.942 235.191 109.871C235.046 110.698 234.901 111.584 234.739 112.445C234.727 112.521 234.7 112.594 234.659 112.659C234.619 112.725 234.567 112.781 234.506 112.826C232.543 113.722 230.338 113.898 228.264 113.322C226.716 112.875 226.071 111.625 226.345 109.962C226.495 109.07 226.881 108.238 227.462 107.558C228.042 106.877 228.794 106.374 229.635 106.105C230.994 105.607 232.408 105.287 233.844 105.152L234.094 105.119ZM233.893 106.204C232.794 106.32 231.712 106.564 230.667 106.932C230.031 107.147 229.467 107.541 229.039 108.069C228.611 108.597 228.337 109.239 228.248 109.921C228.167 110.173 228.139 110.44 228.168 110.704C228.196 110.968 228.28 111.223 228.413 111.451C228.546 111.679 228.725 111.874 228.939 112.025C229.153 112.175 229.396 112.276 229.651 112.321C230.641 112.555 231.676 112.484 232.627 112.114C232.691 112.09 232.749 112.051 232.796 112.002C232.843 111.951 232.88 111.89 232.901 111.824C233.256 109.97 233.57 108.124 233.893 106.204Z" fill="#03597B"/>
<path d="M119.328 105.128C119.384 104.755 119.441 104.449 119.489 104.134C119.563 103.868 119.574 103.587 119.522 103.315C119.47 103.043 119.358 102.787 119.192 102.568C119.027 102.349 118.814 102.173 118.569 102.054C118.326 101.935 118.058 101.876 117.788 101.883C116.686 101.797 115.581 101.981 114.563 102.421L114.055 102.628L113.78 101.419C114.647 100.97 115.588 100.689 116.554 100.592C117.238 100.509 117.928 100.509 118.61 100.592C120.731 100.848 121.715 102.181 121.377 104.333C120.949 107.048 120.457 109.755 119.989 112.461C119.977 112.545 119.947 112.625 119.902 112.696C119.858 112.768 119.8 112.829 119.731 112.875C117.814 113.747 115.667 113.93 113.635 113.397C111.942 112.95 111.264 111.634 111.635 109.812C111.81 108.966 112.2 108.182 112.768 107.54C113.334 106.899 114.057 106.424 114.861 106.163C116.098 105.686 117.391 105.38 118.707 105.252L119.328 105.128ZM119.151 106.104C118.022 106.386 116.974 106.576 115.974 106.932C115.263 107.151 114.639 107.596 114.191 108.204C113.743 108.811 113.495 109.548 113.482 110.31C113.41 110.753 113.507 111.208 113.753 111.579C114 111.951 114.376 112.21 114.805 112.305C115.621 112.499 116.471 112.499 117.288 112.305C117.552 112.3 117.804 112.19 117.991 111.999C118.177 111.808 118.284 111.549 118.288 111.278C118.514 109.606 118.837 107.909 119.151 106.104Z" fill="#03597B"/>
<path d="M91.5313 106.7L83.4673 107.867C83.4868 108.577 83.5482 109.285 83.6523 109.986C83.7585 110.587 84.067 111.13 84.5244 111.52C84.9811 111.911 85.5577 112.124 86.1524 112.122C87.3844 112.204 88.6171 111.962 89.7328 111.418L90.0312 112.767C89.2552 113.211 88.3931 113.471 87.5072 113.529C86.5968 113.616 85.6798 113.599 84.7737 113.479C83.9608 113.356 83.2137 112.953 82.6544 112.336C82.0944 111.72 81.7555 110.926 81.6926 110.086C81.3248 107.534 81.9477 104.936 83.4268 102.851C84.0006 101.975 84.812 101.29 85.7608 100.881C86.7095 100.472 87.7537 100.357 88.7653 100.55C89.5037 100.63 90.1931 100.97 90.7155 101.511C91.2387 102.052 91.5638 102.763 91.6361 103.521C91.7698 104.58 91.7343 105.654 91.5313 106.7ZM83.6769 106.7H83.8785C85.7651 106.41 87.6438 106.137 89.5232 105.873C89.5847 105.849 89.6396 105.81 89.6829 105.759C89.7263 105.709 89.7574 105.648 89.7733 105.583C89.8405 105.05 89.8672 104.513 89.8535 103.977C89.8788 103.521 89.7509 103.07 89.4907 102.7C89.2313 102.329 88.8556 102.061 88.4264 101.94C87.9632 101.803 87.4747 101.782 87.0022 101.878C86.5289 101.975 86.0859 102.187 85.7087 102.495C84.3944 103.547 83.9991 105.078 83.6769 106.717V106.7Z" fill="#03597B"/>
<path d="M64.2346 113.405H62.1219L64.6459 98.654H61.5171L61.767 97.2305H70.1536L69.9198 98.646H66.7748L64.2346 113.405Z" fill="#02587B"/>
<path d="M157.382 101.998H155.954L156.18 100.732H157.591C157.72 100.004 157.841 99.2913 157.986 98.5962C158.187 97.4805 158.792 96.484 159.679 95.807C160.566 95.1299 161.669 94.8221 162.768 94.9457L162.567 96.1712C162.543 96.195 162.516 96.2145 162.486 96.229C161.856 96.2391 161.252 96.4898 160.791 96.9313C160.33 97.3735 160.046 97.9762 159.994 98.6214C159.865 99.2913 159.752 99.9705 159.632 100.707H161.784L161.559 101.998C160.946 101.998 160.357 101.998 159.76 101.998C159.502 101.998 159.39 102.048 159.341 102.346C158.744 105.93 158.116 109.506 157.511 113.107C157.47 113.364 157.397 113.463 157.139 113.447C156.583 113.447 156.035 113.447 155.422 113.447C156.1 109.564 156.753 105.823 157.382 101.998Z" fill="#03597B"/>
<path d="M183.663 101.287L182.953 102.512C182.586 102.263 182.173 102.093 181.741 102.013C181.308 101.933 180.863 101.946 180.435 102.049C180.007 102.151 179.604 102.344 179.251 102.612C178.897 102.882 178.601 103.222 178.381 103.613C177.293 105.571 176.875 107.847 177.195 110.077C177.518 111.824 178.719 112.503 180.42 111.981C180.761 111.864 181.094 111.728 181.42 111.576C181.501 111.94 181.598 112.288 181.647 112.652C181.646 112.713 181.631 112.774 181.603 112.829C181.574 112.884 181.535 112.931 181.485 112.966C178.969 114.721 175.735 113.496 175.203 110.483C174.916 109.046 174.959 107.559 175.33 106.142C175.701 104.725 176.389 103.417 177.34 102.321C177.969 101.539 178.816 100.972 179.767 100.699C180.719 100.425 181.729 100.457 182.663 100.79C183.011 100.922 183.346 101.088 183.663 101.287Z" fill="#03597B"/>
<path d="M163.881 113.397H161.89C161.978 112.851 162.059 112.312 162.148 111.741C162.723 108.431 163.29 105.119 163.849 101.808C163.861 101.662 163.915 101.523 164.004 101.408C164.093 101.293 164.213 101.208 164.349 101.162C165.962 100.556 167.685 100.318 169.397 100.467L168.719 101.924H166.8C166.722 101.929 166.643 101.943 166.567 101.966C165.841 102.148 165.825 102.189 165.695 102.934C165.109 106.349 164.518 109.769 163.922 113.189C163.914 113.281 163.898 113.33 163.881 113.397Z" fill="#03597B"/>
<path d="M171.582 100.715H173.364H173.606C172.881 104.945 172.155 109.15 171.429 113.371H169.405C170.131 109.166 170.857 104.969 171.582 100.715Z" fill="#03597B"/>
<path d="M173.009 98.2484C172.881 98.26 172.753 98.2441 172.631 98.2015C172.509 98.1581 172.398 98.0902 172.303 98.0006C172.209 97.911 172.134 97.8019 172.084 97.6805C172.033 97.5591 172.008 97.4283 172.009 97.2968C172.038 96.9355 172.199 96.5995 172.459 96.3553C172.72 96.111 173.06 95.9774 173.413 95.9802C173.541 95.9723 173.669 95.9918 173.79 96.0373C173.91 96.0836 174.02 96.1544 174.111 96.2469C174.204 96.3386 174.276 96.4492 174.324 96.572C174.371 96.6942 174.393 96.8257 174.389 96.9572C174.36 97.3112 174.202 97.6415 173.946 97.8806C173.69 98.1205 173.356 98.252 173.009 98.2484Z" fill="#03597B"/>
</svg>
