<svg width="134" height="213" viewBox="0 0 134 213" fill="none" xmlns="http://www.w3.org/2000/svg">
<path d="M94.8905 25.2523L95.757 25.7944L94.8905 25.2523ZM92.0238 90.0127L91.6734 90.9729L92.0238 90.0127ZM123.045 63.4936L123.846 62.8583L123.045 63.4936ZM81.2738 46.5829L81.1019 45.5753L81.2738 46.5829ZM5 213L12.3529 203.768L0.680957 202.016L5 213ZM6.87184 206.965C7.04123 205.601 7.20143 204.215 7.35393 202.809L5.32158 202.588C5.17009 203.985 5.01111 205.36 4.84316 206.713L6.87184 206.965ZM7.77616 198.675C7.90791 197.308 8.03408 195.924 8.15595 194.525L6.11939 194.348C5.99799 195.741 5.87238 197.119 5.74131 198.479L7.77616 198.675ZM8.50376 190.361C8.61374 188.992 8.72093 187.61 8.82645 186.216L6.78801 186.062C6.68268 187.453 6.57574 188.832 6.46605 190.197L8.50376 190.361ZM9.1342 182.071C9.23475 180.694 9.33478 179.308 9.43529 177.913L7.39631 177.766C7.29579 179.161 7.19583 180.546 7.09536 181.922L9.1342 182.071ZM9.73475 173.769C9.83464 172.394 9.93597 171.013 10.0397 169.626L8.00112 169.474C7.89726 170.863 7.79582 172.245 7.69586 173.621L9.73475 173.769ZM10.3569 165.477C10.4645 164.102 10.5754 162.723 10.6904 161.34L8.6532 161.17C8.53786 162.557 8.42671 163.94 8.31883 165.317L10.3569 165.477ZM11.047 157.203C11.1701 155.826 11.2982 154.447 11.4321 153.066L9.39739 152.869C9.26294 154.255 9.13438 155.639 9.01084 157.021L11.047 157.203ZM11.8502 148.94C11.9958 147.565 12.1481 146.19 12.3078 144.816L10.2772 144.58C10.1166 145.962 9.96361 147.344 9.81732 148.725L11.8502 148.94ZM12.81 140.7C12.9856 139.328 13.1696 137.958 13.3629 136.59L11.3387 136.304C11.1441 137.681 10.959 139.06 10.7823 140.441L12.81 140.7ZM13.972 132.492C14.1854 131.126 14.409 129.763 14.6436 128.406L12.6292 128.057C12.3926 129.427 12.1672 130.8 11.9522 132.176L13.972 132.492ZM15.3852 124.329C15.6449 122.972 15.9168 121.62 16.2016 120.276L14.2017 119.852C13.914 121.21 13.6395 122.575 13.3773 123.945L15.3852 124.329ZM17.1024 116.237C17.4186 114.889 17.7489 113.55 18.0945 112.221L16.116 111.706C15.7661 113.052 15.4319 114.407 15.1122 115.77L17.1024 116.237ZM19.1833 108.241C19.5661 106.911 19.9656 105.592 20.3825 104.286L18.4349 103.664C18.0118 104.99 17.6068 106.328 17.2188 107.676L19.1833 108.241ZM21.6974 100.372C22.1571 99.0722 22.6358 97.7859 23.1346 96.5144L21.2314 95.7679C20.724 97.0618 20.2372 98.3697 19.7701 99.6904L21.6974 100.372ZM24.7103 92.7025C25.2611 91.4378 25.8336 90.1896 26.429 88.9593L24.5889 88.0688C23.9812 89.3245 23.3973 90.5975 22.8361 91.8863L24.7103 92.7025ZM28.2972 85.2999C28.9495 84.0885 29.6264 82.8966 30.3291 81.7257L28.5762 80.6738C27.8567 81.8729 27.1641 83.0923 26.4973 84.3308L28.2972 85.2999ZM32.529 78.2564C33.2916 77.1182 34.0816 76.0025 34.9001 74.9107L33.2644 73.6845C32.4237 74.806 31.6129 75.9511 30.8307 77.1185L32.529 78.2564ZM37.4495 71.6992C38.3278 70.6546 39.2359 69.6351 40.175 68.6422L38.6897 67.2375C37.7228 68.26 36.7882 69.3091 35.8848 70.3836L37.4495 71.6992ZM43.0752 65.7541C44.069 64.8228 45.0944 63.9187 46.1526 63.043L44.8494 61.468C43.7583 62.3708 42.7014 63.3028 41.6773 64.2626L43.0752 65.7541ZM49.3785 60.5381C50.4718 59.7422 51.5974 58.9744 52.7563 58.2359L51.6577 56.5119C50.4631 57.2732 49.3027 58.0648 48.1754 58.8853L49.3785 60.5381ZM56.2886 56.1343C57.465 55.4822 58.6732 54.8579 59.9142 54.2627L59.0301 52.4195C57.7531 53.032 56.5091 53.6747 55.2974 54.3465L56.2886 56.1343ZM63.6533 52.5994C64.9089 52.0829 66.1958 51.5941 67.5149 51.1341L66.8417 49.2038C65.4878 49.676 64.1661 50.178 62.8756 50.7089L63.6533 52.5994ZM71.3891 49.8938C72.6887 49.5136 74.0176 49.1597 75.3765 48.8329L74.8985 46.8453C73.5079 47.1797 72.1471 47.5421 70.8152 47.9318L71.3891 49.8938ZM79.3802 47.9661C80.0616 47.8344 80.7501 47.7092 81.4457 47.5905L81.1019 45.5753C80.3916 45.6965 79.6884 45.8244 78.9922 45.959L79.3802 47.9661ZM81.4457 47.5905C82.046 47.488 82.662 47.4088 83.292 47.352L83.1086 45.316C82.4279 45.3773 81.7583 45.4633 81.1019 45.5753L81.4457 47.5905ZM87.0499 47.2681C88.2791 47.3165 89.5408 47.4342 90.8239 47.6161L91.1108 45.5921C89.7652 45.4013 88.4344 45.2767 87.1303 45.2254L87.0499 47.2681ZM94.5646 48.3115C95.7898 48.5911 97.0227 48.9216 98.254 49.2983L98.8519 47.3434C97.5757 46.953 96.2951 46.6096 95.0194 46.3185L94.5646 48.3115ZM101.873 50.5381C103.065 50.9905 104.246 51.4821 105.408 52.0081L106.251 50.146C105.051 49.6025 103.83 49.0945 102.598 48.6268L101.873 50.5381ZM108.845 53.696C109.984 54.3009 111.093 54.9367 112.163 55.5981L113.238 53.8596C112.13 53.1739 110.982 52.5158 109.803 51.8903L108.845 53.696ZM115.335 57.722C116.392 58.4888 117.39 59.2784 118.316 60.0838L119.657 58.5407C118.682 57.6931 117.637 56.8666 116.535 56.0673L115.335 57.722ZM121.03 62.7096C121.463 63.1812 121.868 63.6548 122.245 64.129L123.846 62.8583C123.437 62.3432 123 61.8325 122.536 61.3274L121.03 62.7096ZM122.245 64.129C122.673 64.6686 123.068 65.2008 123.433 65.7254L125.112 64.5596C124.722 63.9975 124.3 63.4303 123.846 62.8583L122.245 64.129ZM125.41 69.1054C126.007 70.3679 126.414 71.575 126.657 72.7243L128.657 72.3029C128.379 70.9829 127.917 69.6244 127.258 68.2316L125.41 69.1054ZM126.872 76.4732C126.74 77.7379 126.392 78.9307 125.86 80.0493L127.706 80.9278C128.334 79.608 128.747 78.1909 128.905 76.6867L126.872 76.4732ZM123.741 83.1733C122.912 84.09 121.939 84.9388 120.845 85.7121L122.026 87.3812C123.227 86.5314 124.316 85.5849 125.257 84.5444L123.741 83.1733ZM117.466 87.6833C116.31 88.2387 115.081 88.7259 113.798 89.1402L114.427 91.0855C115.791 90.6447 117.107 90.1239 118.351 89.526L117.466 87.6833ZM109.962 90.1304C108.673 90.3846 107.356 90.5696 106.028 90.6823L106.201 92.7192C107.603 92.6003 108.994 92.4049 110.357 92.136L109.962 90.1304ZM102.057 90.8007C100.727 90.7666 99.4047 90.6573 98.107 90.4702L97.8154 92.4936C99.1955 92.6925 100.598 92.8082 102.005 92.8443L102.057 90.8007ZM94.2447 89.6562C93.6088 89.4764 92.9846 89.2753 92.3743 89.0526L91.6734 90.9729C92.333 91.2137 93.0056 91.4303 93.6885 91.6234L94.2447 89.6562ZM92.3743 89.0526C91.749 88.8244 91.1553 88.5744 90.5918 88.304L89.7074 90.1471C90.3328 90.4471 90.9879 90.7227 91.6734 90.9729L92.3743 89.0526ZM87.3613 86.2899C86.3497 85.481 85.476 84.5749 84.7269 83.5837L83.0959 84.8162C83.946 85.941 84.9383 86.9698 86.0846 87.8865L87.3613 86.2899ZM82.8131 80.3041C82.3079 79.1597 81.9109 77.9383 81.6132 76.6505L79.6214 77.1111C79.9451 78.5106 80.3806 79.8556 80.9428 81.1296L82.8131 80.3041ZM81.0248 72.7997C80.9191 71.5276 80.8883 70.2127 80.9248 68.8643L78.8813 68.809C78.843 70.2239 78.875 71.6142 78.9876 72.969L81.0248 72.7997ZM81.2069 64.9188C81.3528 63.6238 81.5495 62.3102 81.7906 60.9857L79.7794 60.6196C79.5308 61.9853 79.327 63.3449 79.1755 64.69L81.2069 64.9188ZM82.618 57.0804C82.9275 55.792 83.2718 54.5019 83.6449 53.217L81.6817 52.6469C81.3004 53.9602 80.9477 55.2813 80.6303 56.6029L82.618 57.0804ZM84.8412 49.3949C85.2684 48.1192 85.7185 46.8567 86.185 45.6146L84.2713 44.8958C83.7966 46.1596 83.3383 47.4453 82.9027 48.7457L84.8412 49.3949ZM87.6585 41.8824C88.1808 40.62 88.7142 39.3893 89.2511 38.1991L87.3876 37.3586C86.8423 38.5676 86.3004 39.8178 85.7695 41.1007L87.6585 41.8824ZM90.9613 34.5599C91.5796 33.2963 92.1915 32.0995 92.7853 30.9829L90.9803 30.0231C90.3757 31.1601 89.7534 32.3774 89.1251 33.6614L90.9613 34.5599ZM94.7336 27.4866C95.0903 26.8782 95.4326 26.3129 95.757 25.7944L94.024 24.7101C93.6883 25.2467 93.3359 25.8288 92.9701 26.4526L94.7336 27.4866ZM95.757 25.7944C96.1123 25.2264 96.4682 24.6695 96.8251 24.1234L95.1138 23.0051C94.7492 23.563 94.3861 24.1313 94.024 24.7101L95.757 25.7944ZM99.0632 20.8641C99.8539 19.7718 100.653 18.7316 101.464 17.7429L99.8834 16.4463C99.0439 17.4696 98.22 18.5427 97.4073 19.6654L99.0632 20.8641ZM104.06 14.8022C104.979 13.8397 105.918 12.9383 106.881 12.0972L105.537 10.5573C104.524 11.4417 103.541 12.3863 102.582 13.3906L104.06 14.8022ZM109.941 9.69074C111.003 8.94292 112.1 8.25905 113.236 7.63858L112.257 5.84426C111.051 6.50263 109.889 7.22757 108.764 8.0189L109.941 9.69074ZM116.745 5.97812C117.924 5.50015 119.149 5.08003 120.424 4.71784L119.865 2.75137C118.521 3.13317 117.227 3.57707 115.977 4.08346L116.745 5.97812ZM124.226 3.8376C125.47 3.61058 126.76 3.43077 128.102 3.29841L127.901 1.26403C126.507 1.40157 125.161 1.58892 123.859 1.82655L124.226 3.8376ZM132.027 3.05098C132.673 3.03176 133.331 3.02214 134 3.02214V0.977865C133.311 0.977865 132.634 0.987768 131.966 1.00762L132.027 3.05098Z" fill="#2E096F" fill-opacity="0.3"/>
</svg>
