<svg width="110" height="163" viewBox="0 0 110 163" fill="none" xmlns="http://www.w3.org/2000/svg">
<path d="M88.9404 27.1168L87.9447 27.3478L88.9404 27.1168ZM93.4169 59.47L94.4342 59.3707L93.4169 59.47ZM75.5107 91.2128L76.0666 92.0705L75.5107 91.2128ZM51.9071 99.7589L51.7517 98.7487L51.9071 99.7589ZM37.0531 88.1606L38.0507 88.3833L37.0531 88.1606ZM108.881 128.246L109.898 128.35L108.881 128.246ZM67.575 159.785L67.3047 158.8L67.575 159.785ZM38.0705 157.14L37.7525 158.112L38.0705 157.14ZM0.426758 148.798L10.5547 154.858L10.739 143.057L0.426758 148.798ZM6.13743 150.082C7.40929 150.197 8.67234 150.348 9.9287 150.531L10.2227 148.508C8.93209 148.32 7.63245 148.165 6.32182 148.046L6.13743 150.082ZM13.6992 151.173C14.9517 151.416 16.1996 151.687 17.4451 151.982L17.9153 149.992C16.6457 149.692 15.3709 149.415 14.089 149.166L13.6992 151.173ZM21.167 152.928C22.4005 153.262 23.6335 153.615 24.8682 153.982L25.4512 152.023C24.203 151.651 22.9537 151.294 21.7015 150.955L21.167 152.928ZM28.5543 155.116C29.7762 155.502 31.0014 155.898 32.2323 156.299L32.8666 154.356C31.6322 153.953 30.4005 153.555 29.1703 153.166L28.5543 155.116ZM35.9104 157.507C36.5226 157.708 37.1366 157.91 37.7525 158.112L38.3884 156.169C37.7739 155.968 37.1609 155.766 36.5491 155.565L35.9104 157.507ZM37.7525 158.112C38.3577 158.31 38.9572 158.504 39.5517 158.694L40.1734 156.746C39.5847 156.558 38.9901 156.366 38.3884 156.169L37.7525 158.112ZM43.1793 159.804C44.4185 160.163 45.644 160.493 46.8631 160.786L47.3407 158.798C46.1581 158.514 44.9636 158.192 43.7481 157.84L43.1793 159.804ZM50.6169 161.563C51.8853 161.779 53.1563 161.944 54.4389 162.05L54.6067 160.013C53.3885 159.912 52.1763 159.754 50.9602 159.547L50.6169 161.563ZM58.303 162.177C59.5698 162.154 60.8539 162.066 62.1637 161.905L61.9139 159.876C60.6759 160.028 59.4629 160.111 58.2661 160.133L58.303 162.177ZM65.9721 161.239C66.5897 161.1 67.2139 160.944 67.8453 160.771L67.3047 158.8C66.7029 158.965 66.109 159.113 65.5222 159.245L65.9721 161.239ZM67.8453 160.771C68.4685 160.6 69.1054 160.425 69.7536 160.244L69.2047 158.275C68.5601 158.455 67.9263 158.629 67.3047 158.8L67.8453 160.771ZM73.5768 159.148C74.8245 158.778 76.0984 158.386 77.3867 157.969L76.7568 156.024C75.4875 156.435 74.2301 156.822 72.9958 157.188L73.5768 159.148ZM81.1649 156.679C82.4106 156.229 83.6597 155.753 84.902 155.246L84.1291 153.353C82.9158 153.848 81.6933 154.315 80.4711 154.756L81.1649 156.679ZM88.5779 153.637C89.7935 153.066 90.9931 152.461 92.1663 151.818L91.1832 150.025C90.0511 150.646 88.8899 151.232 87.7092 151.787L88.5779 153.637ZM95.6322 149.746C96.7707 149.002 97.8716 148.214 98.9233 147.377L97.6502 145.777C96.6529 146.571 95.6045 147.322 94.5145 148.034L95.6322 149.746ZM101.966 144.668C102.933 143.7 103.836 142.675 104.663 141.589L103.036 140.351C102.269 141.359 101.427 142.315 100.519 143.224L101.966 144.668ZM106.9 138.141C107.549 136.948 108.11 135.694 108.571 134.374L106.641 133.7C106.217 134.913 105.702 136.066 105.104 137.164L106.9 138.141ZM109.613 130.388C109.732 129.723 109.827 129.043 109.898 128.35L107.864 128.142C107.799 128.785 107.711 129.414 107.601 130.028L109.613 130.388ZM109.898 128.35C109.976 127.589 109.975 126.819 109.903 126.042L107.868 126.23C107.928 126.884 107.928 127.522 107.864 128.142L109.898 128.35ZM108.816 121.687C108.303 120.391 107.63 119.086 106.822 117.781L105.084 118.858C105.84 120.078 106.454 121.274 106.915 122.439L108.816 121.687ZM104.296 114.227C103.434 113.147 102.489 112.068 101.472 110.995L99.9882 112.401C100.969 113.437 101.876 114.472 102.698 115.503L104.296 114.227ZM98.4212 107.985C97.3963 107.034 96.3211 106.092 95.2036 105.161L93.8949 106.731C94.9868 107.641 96.0348 108.56 97.0316 109.484L98.4212 107.985ZM91.8592 102.501C90.7416 101.651 89.5927 100.814 88.419 99.992L87.2466 101.667C88.3993 102.474 89.5265 103.295 90.6219 104.128L91.8592 102.501ZM84.8881 97.6145C83.7005 96.845 82.4948 96.093 81.2767 95.3612L80.224 97.1136C81.4226 97.8337 82.6087 98.5734 83.7766 99.3301L84.8881 97.6145ZM77.5921 93.2299C76.3458 92.5363 75.0927 91.8659 73.8387 91.2218L72.9047 93.0402C74.1383 93.6739 75.3714 94.3335 76.5979 95.0162L77.5921 93.2299ZM70.0192 89.3425C68.7172 88.7301 67.4203 88.1492 66.1354 87.6032L65.3359 89.4846C66.5963 90.0202 67.8696 90.5906 69.1492 91.1924L70.0192 89.3425ZM62.176 86.0178C60.8015 85.5022 59.4489 85.0325 58.127 84.6131L57.5089 86.5617C58.7946 86.9696 60.1139 87.4277 61.458 87.9318L62.176 86.0178ZM54.0038 83.4465C52.5352 83.0854 51.119 82.8002 49.7706 82.5995L49.4697 84.6215C50.7464 84.8115 52.0996 85.0835 53.5157 85.4317L54.0038 83.4465ZM45.4309 82.2551C43.7832 82.2602 42.2704 82.4506 40.9524 82.8703L41.5725 84.8182C42.6384 84.4788 43.9328 84.304 45.4372 84.2994L45.4309 82.2551ZM37.0201 85.6469C36.5681 86.3207 36.2455 87.0864 36.0555 87.9379L38.0507 88.3833C38.1896 87.761 38.4173 87.2337 38.7177 86.7859L37.0201 85.6469ZM36.0555 87.9379C35.8948 88.6578 35.7761 89.3442 35.6976 89.9987L37.7274 90.242C37.797 89.6615 37.9035 89.0427 38.0507 88.3833L36.0555 87.9379ZM35.8288 94.2907C36.1857 95.9207 36.9169 97.2317 37.9348 98.2517L39.3818 96.8076C38.6519 96.0763 38.103 95.1197 37.8258 93.8534L35.8288 94.2907ZM41.7571 100.469C43.0634 100.879 44.4827 101.086 45.9239 101.155L46.0212 99.1132C44.7043 99.0505 43.4665 98.8629 42.3696 98.5185L41.7571 100.469ZM50.0393 101.027C50.7228 100.959 51.4 100.871 52.0625 100.769L51.7517 98.7487C51.1218 98.8456 50.481 98.9284 49.8372 98.9924L50.0393 101.027ZM52.0625 100.769C52.7709 100.66 53.4722 100.544 54.1669 100.421L53.8095 98.4083C53.1312 98.5288 52.4455 98.6419 51.7517 98.7487L52.0625 100.769ZM58.3535 99.5602C59.7528 99.2297 61.1297 98.8576 62.4905 98.4358L61.8852 96.4832C60.5723 96.8902 59.2407 97.2501 57.8835 97.5707L58.3535 99.5602ZM66.542 97.0081C67.86 96.4846 69.1673 95.9049 70.47 95.261L69.5642 93.4283C68.3117 94.0474 67.0549 94.6048 65.7874 95.1082L66.542 97.0081ZM74.2431 93.2053C74.8507 92.8428 75.4583 92.4648 76.0666 92.0705L74.9548 90.3551C74.3674 90.7358 73.7813 91.1004 73.1958 91.4497L74.2431 93.2053ZM76.0666 92.0705C76.6155 91.7148 77.1574 91.3506 77.6915 90.978L76.522 89.3014C76.0073 89.6604 75.4847 90.0116 74.9548 90.3551L76.0666 92.0705ZM80.8234 88.6207C81.846 87.7893 82.83 86.9227 83.7689 86.0212L82.353 84.5466C81.4566 85.4073 80.515 86.2368 79.5338 87.0346L80.8234 88.6207ZM86.4828 83.1665C87.349 82.1645 88.1605 81.1251 88.9098 80.0488L87.2321 78.8807C86.5255 79.8956 85.7582 80.8788 84.9363 81.8297L86.4828 83.1665ZM90.9838 76.6726C91.6087 75.5058 92.1619 74.3013 92.6358 73.0597L90.7259 72.3308C90.284 73.4885 89.7672 74.6142 89.1816 75.7075L90.9838 76.6726ZM93.804 69.2559C94.1036 67.9799 94.321 66.6706 94.4493 65.3286L92.4143 65.134C92.2948 66.3834 92.0926 67.6017 91.8139 68.7886L93.804 69.2559ZM94.5663 61.3548C94.5432 60.7001 94.4994 60.0387 94.4342 59.3707L92.3996 59.5692C92.4607 60.1956 92.5017 60.8148 92.5233 61.4269L94.5663 61.3548ZM94.4342 59.3707C94.3685 58.6973 94.3027 58.0199 94.2362 57.3378L92.2016 57.536C92.2679 58.2174 92.3339 58.8958 92.3996 59.5692L94.4342 59.3707ZM93.8349 53.2688C93.6994 51.9205 93.5594 50.5618 93.4125 49.1976L91.38 49.4165C91.5262 50.7747 91.6658 52.1283 91.8009 53.4732L93.8349 53.2688ZM92.9524 45.1264C92.791 43.7697 92.6203 42.4119 92.4382 41.0575L90.4122 41.33C90.5927 42.6727 90.7621 44.0201 90.9224 45.3679L92.9524 45.1264ZM91.8522 36.9936C91.6416 35.6324 91.4167 34.2791 91.1749 32.9386L89.1631 33.3015C89.4016 34.6235 89.6237 35.9599 89.832 37.3061L91.8522 36.9936ZM90.3832 28.8981C90.2394 28.2225 90.0905 27.5515 89.936 26.8858L87.9447 27.3478C88.0962 28.0008 88.2424 28.6595 88.3836 29.3235L90.3832 28.8981ZM89.936 26.8858C89.7935 26.2712 89.6341 25.6658 89.4601 25.0686L87.4975 25.6406C87.6614 26.2032 87.8111 26.7719 87.9447 27.3478L89.936 26.8858ZM88.2395 21.5353C87.7804 20.3778 87.2775 19.2472 86.7486 18.1369L84.903 19.0161C85.4168 20.0946 85.9004 21.1827 86.3393 22.2891L88.2395 21.5353ZM85.0947 14.8476C84.5283 13.7656 83.949 12.6894 83.3802 11.6237L81.5767 12.5863C82.15 13.6604 82.7223 14.7234 83.2837 15.7958L85.0947 14.8476ZM81.7027 8.41513C81.1594 7.34041 80.6403 6.26347 80.1606 5.17469L78.2899 5.99888C78.7881 7.12973 79.3238 8.24055 79.8783 9.33745L81.7027 8.41513ZM78.856 1.86604C78.6646 1.30903 78.4869 0.747409 78.3248 0.180135L76.3592 0.74174C76.5318 1.34581 76.7204 1.94176 76.9228 2.53049L78.856 1.86604Z" fill="#2E096F" fill-opacity="0.3"/>
</svg>
