<svg width="322" height="66" viewBox="0 0 322 66" fill="none" xmlns="http://www.w3.org/2000/svg">
<path d="M27.8428 27.3251C30.6401 27.326 33.4102 26.7614 35.9949 25.6633C38.5796 24.5653 40.9283 22.9554 42.9066 20.9255C44.885 18.8957 46.4544 16.4858 47.5251 13.8333C48.5958 11.1809 49.1469 8.33788 49.1469 5.4668H27.8428V27.3251Z" fill="#7557D3"/>
<path d="M4.25586 29.667C4.25586 32.5381 4.80698 35.3811 5.8777 38.0335C6.94842 40.686 8.51772 43.0959 10.4961 45.1257C12.4744 47.1556 14.8231 48.7655 17.4078 49.8635C19.9925 50.9616 22.7627 51.5262 25.56 51.5253V29.667H4.25586Z" fill="#7557D3"/>
<path d="M27.8428 29.667V51.5253H49.1469C49.1469 48.6542 48.5958 45.8112 47.5251 43.1588C46.4544 40.5063 44.885 38.0963 42.9066 36.0665C40.9283 34.0367 38.5796 32.4268 35.9949 31.3288C33.4102 30.2307 30.6401 29.666 27.8428 29.667Z" fill="#7557D3"/>
<path d="M4.25586 27.3251H25.56V5.4668C22.7627 5.46583 19.9925 6.03051 17.4078 7.12856C14.8231 8.22661 12.4744 9.83651 10.4961 11.8663C8.51772 13.8962 6.94842 16.3062 5.8777 18.9586C4.80698 21.611 4.25586 24.454 4.25586 27.3251Z" fill="#7557D3"/>
<path d="M51.4297 5.4668C51.4297 11.264 53.6743 16.8237 57.6696 20.9229C61.6649 25.0222 67.0836 27.3251 72.7338 27.3251V5.4668H51.4297Z" fill="#7557D3"/>
<path d="M51.4297 51.5253H72.7338V29.667C67.0836 29.667 61.6649 31.9699 57.6696 36.0691C53.6743 40.1683 51.4297 45.7281 51.4297 51.5253Z" fill="#7557D3"/>
<path d="M106.094 42.1494C111.459 42.1494 115.263 40.1995 118.987 36.459L123.5 40.9171C119.324 45.7738 114.074 49.1809 106.202 49.1809C93.4452 49.1809 84.9072 40.1994 84.9072 28.8839C84.9072 17.5683 93.7102 8.58691 105.464 8.58691C117.032 8.58691 125.233 17.3799 125.233 28.1155C125.229 29.2466 125.107 30.3741 124.868 31.479H93.4881C94.3047 37.6623 99.3328 42.1494 106.094 42.1494ZM93.7532 25.0129H116.48C115.413 19.5908 111.123 15.6619 105.428 15.6619C102.73 15.6787 100.115 16.6084 97.9997 18.3029C95.884 19.9974 94.3893 22.3594 93.7532 25.0129Z" fill="white"/>
<path d="M165.559 24.4032V48.4002H157.224V25.1303C157.224 19.8728 153.753 16.2005 148.725 16.2005C143.534 16.2005 138.931 20.6291 138.931 26.9701V48.4002H130.56V9.48861H138.931V14.6662C140.243 12.7899 141.971 11.2605 143.972 10.2036C145.973 9.14672 148.189 8.59264 150.439 8.58691C159.54 8.58691 165.559 14.8189 165.559 24.4032Z" fill="white"/>
<path d="M195.638 9.36914L185.683 37.3984L175.813 9.36914H167.081L181.466 48.2776L176.979 60.8922H185.335L204.363 9.36914H195.638Z" fill="white"/>
<path d="M222.202 8.589C224.742 8.54913 227.258 9.08235 229.571 10.1503C231.885 11.2183 233.936 12.7945 235.58 14.7656V9.48793H243.928V48.2801H235.58V43.0459C233.927 45.0033 231.873 46.5672 229.561 47.627C227.249 48.6868 224.737 49.2166 222.202 49.179C211.467 49.179 203.603 40.1968 203.603 28.8804C203.603 17.5639 211.467 8.589 222.202 8.589ZM223.854 41.5453C230.543 41.5453 235.58 35.9341 235.58 28.8658C235.58 21.7976 230.593 16.1865 223.854 16.1865C217.116 16.1865 212.094 21.8338 212.094 28.8658C212.094 35.8979 217.166 41.5453 223.854 41.5453Z" fill="white"/>
<path d="M309.232 9.48781V14.7573C307.556 12.788 305.463 11.2138 303.105 10.1473C300.748 9.08091 298.183 8.54874 295.595 8.58904C284.657 8.58904 276.645 17.6058 276.645 28.884C276.645 40.1621 284.628 49.1789 295.595 49.1789C298.18 49.2177 300.742 48.6878 303.098 47.6268C305.455 46.5658 307.549 44.9997 309.232 43.0397V48.2728H317.731V9.48781H309.232ZM297.286 41.5393C290.463 41.5393 285.296 35.9292 285.296 28.8622C285.296 21.7952 290.376 16.1851 297.286 16.1851C304.195 16.1851 309.232 21.8315 309.232 28.8622C309.232 35.8929 304.101 41.5393 297.286 41.5393Z" fill="white"/>
<path d="M274.362 42.6674V41.691H270.795C266.001 41.691 264.16 39.6218 264.16 35.3011V16.8382H273.884V9.3189H264.189V0H255.799V9.32619H248.493V16.8454H255.82V35.6873C255.82 44.7803 260.236 49.1811 268.263 49.1811C268.505 49.1811 268.755 49.1811 268.976 49.1811H274.355V42.6746L274.362 42.6674Z" fill="white"/>
</svg>
