<svg width="127" height="24" viewBox="0 0 127 24" fill="none" xmlns="http://www.w3.org/2000/svg">
<path d="M9.53906 10.7692C10.6703 10.7696 11.7905 10.547 12.8358 10.1142C13.881 9.68142 14.8308 9.04689 15.6309 8.24684C16.4309 7.44679 17.0656 6.49691 17.4986 5.45145C17.9316 4.406 18.1545 3.28544 18.1545 2.15381H9.53906V10.7692Z" fill="white"/>
<path d="M0 11.6924C-6.38222e-08 12.824 0.222872 13.9446 0.655871 14.99C1.08887 16.0355 1.72349 16.9854 2.52354 17.7854C3.32359 18.5855 4.27337 19.22 5.31862 19.6528C6.36387 20.0856 7.48414 20.3082 8.61539 20.3078V11.6924H0Z" fill="white"/>
<path d="M9.53906 11.6924V20.3078H18.1545C18.1545 19.1761 17.9316 18.0556 17.4986 17.0101C17.0656 15.9647 16.4309 15.0148 15.6309 14.2147C14.8308 13.4147 13.881 12.7802 12.8358 12.3474C11.7905 11.9146 10.6703 11.692 9.53906 11.6924Z" fill="white"/>
<path d="M0 10.7692H8.61539V2.15381C7.48414 2.15343 6.36387 2.37599 5.31862 2.80879C4.27337 3.24158 3.32359 3.87612 2.52354 4.67617C1.72349 5.47622 1.08887 6.42612 0.655871 7.47157C0.222872 8.51703 -6.38221e-08 9.63757 0 10.7692Z" fill="white"/>
<path d="M19.0771 2.15381C19.0771 4.43875 19.9849 6.63012 21.6006 8.24581C23.2162 9.86151 25.4076 10.7692 27.6925 10.7692V2.15381H19.0771Z" fill="white"/>
<path d="M19.0771 20.3078H27.6925V11.6924C25.4076 11.6924 23.2162 12.6001 21.6006 14.2158C19.9849 15.8315 19.0771 18.0228 19.0771 20.3078Z" fill="white"/>
<path d="M41.1833 16.6133C43.3528 16.6133 44.8909 15.8448 46.3971 14.3705L48.222 16.1276C46.5333 18.0419 44.4101 19.3848 41.2268 19.3848C36.068 19.3848 32.6152 15.8448 32.6152 11.3848C32.6152 6.92477 36.1751 3.38477 40.9284 3.38477C45.6064 3.38477 48.9229 6.85048 48.9229 11.0819C48.9214 11.5277 48.8718 11.9721 48.7752 12.4076H36.0854C36.4156 14.8448 38.4489 16.6133 41.1833 16.6133ZM36.1925 9.85905H45.3833C44.9517 7.7219 43.2167 6.17334 40.9139 6.17334C39.8228 6.17998 38.7654 6.5464 37.9098 7.21429C37.0543 7.88218 36.4498 8.81315 36.1925 9.85905Z" fill="white"/>
<path d="M65.231 9.6187V19.0771H61.8601V9.90532C61.8601 7.83307 60.4567 6.38564 58.4233 6.38564C56.324 6.38564 54.4624 8.13116 54.4624 10.6305V19.0771H51.0771V3.74017H54.4624V5.78088C54.9933 5.04137 55.692 4.43854 56.5011 4.02198C57.3102 3.60541 58.2065 3.38702 59.1164 3.38477C62.7966 3.38477 65.231 5.84108 65.231 9.6187Z" fill="white"/>
<path d="M77.3942 3.69238L73.3684 14.74L69.377 3.69238H65.8457L71.6631 19.0281L69.8486 24.0001H73.2275L80.9226 3.69238H77.3942Z" fill="white"/>
<path d="M88.1368 3.38559C89.1638 3.36987 90.1816 3.58004 91.117 4.00098C92.0525 4.42191 92.8822 5.04316 93.5467 5.82008V3.7399H96.9229V19.0297H93.5467V16.9667C92.8786 17.7382 92.0477 18.3546 91.1129 18.7723C90.178 19.1901 89.162 19.3989 88.1368 19.384C83.7956 19.384 80.6152 15.8437 80.6152 11.3834C80.6152 6.92302 83.7956 3.38559 88.1368 3.38559ZM88.8051 16.3752C91.5101 16.3752 93.5467 14.1636 93.5467 11.3777C93.5467 8.59172 91.5302 6.38011 88.8051 6.38011C86.0799 6.38011 84.049 8.606 84.049 11.3777C84.049 14.1493 86.1001 16.3752 88.8051 16.3752Z" fill="white"/>
<path d="M123.333 3.73985V5.81679C122.655 5.04063 121.809 4.42013 120.855 3.9998C119.902 3.57947 118.864 3.36972 117.818 3.3856C113.395 3.3856 110.154 6.93953 110.154 11.3848C110.154 15.8301 113.383 19.384 117.818 19.384C118.863 19.3993 119.899 19.1904 120.852 18.7723C121.805 18.3541 122.652 17.7368 123.333 16.9642V19.0269H126.77V3.73985H123.333ZM118.502 16.3729C115.743 16.3729 113.653 14.1617 113.653 11.3762C113.653 8.59078 115.707 6.37958 118.502 6.37958C121.296 6.37958 123.333 8.60507 123.333 11.3762C123.333 14.1474 121.258 16.3729 118.502 16.3729Z" fill="white"/>
<path d="M109.231 16.8172V16.4324H107.789C105.85 16.4324 105.105 15.6168 105.105 13.9139V6.63672H109.038V3.67302H105.117V0H101.724V3.6759H98.7695V6.63959H101.733V14.0661C101.733 17.6501 103.518 19.3846 106.764 19.3846C106.862 19.3846 106.963 19.3846 107.053 19.3846H109.228V16.8201L109.231 16.8172Z" fill="white"/>
</svg>
