<svg width="375" height="102" viewBox="0 0 375 102" fill="none" xmlns="http://www.w3.org/2000/svg">
<g clip-path="url(#clip0_187_36015)">
<path d="M154.544 97.7855V83.0693H150.997V88.6486H146.08V83.0693H142.532V97.7855H146.08V91.4584H150.997V97.7855H154.544Z" fill="black"/>
<path d="M193.815 97.7855V94.8162H188.167V91.6555H193.738V88.6862H188.167V86.0331H193.815V83.0693H184.597V97.7855H193.815Z" fill="black"/>
<path d="M230.186 91.9663H227.432L228.795 87.9644L230.186 91.9663ZM236.19 97.7848L230.203 82.873H227.508L221.384 97.7848H224.909L226.356 94.7932H231.233L232.603 97.7848H236.19Z" fill="black"/>
<path d="M273.418 97.7855V94.8162H268.064V83.0693H264.5V97.7855H273.418Z" fill="black"/>
<path d="M304.779 86.1323V83.1631H295.067V86.1323H298.121V97.7854H301.708V86.1323H304.779Z" fill="black"/>
<path d="M344.362 97.7855V83.0693H340.815V88.6486H335.898V83.0693H332.35V97.7855H335.898V91.4584H340.815V97.7855H344.362Z" fill="black"/>
<path d="M181.105 62.3186C174.463 68.5708 166.862 71.6971 158.31 71.6971C149.188 71.6971 141.415 68.5296 134.986 62.1996C128.557 55.8694 125.341 48.2167 125.341 39.2344C125.341 30.2846 128.557 22.626 134.986 16.2738C141.415 9.9155 149.188 6.73535 158.31 6.73535C166.833 6.73535 174.917 10.167 182.56 17.026L176.303 22.626C170.546 17.5975 164.548 15.0772 158.31 15.0772C151.556 15.0772 145.781 17.4372 140.979 22.1517C136.177 26.8663 133.777 32.5621 133.777 39.2344C133.777 45.9384 136.177 51.6437 140.979 56.3578C145.781 61.0722 151.556 63.4322 158.31 63.4322C164.117 63.4322 168.933 61.9216 172.752 58.9003V39.7132H181.105V62.3186Z" fill="black"/>
<path d="M229.643 52.5077V46.4696C229.157 43.9001 227.868 41.5684 225.768 39.4731C222.945 36.722 219.553 35.3433 215.599 35.3433C211.617 35.3433 208.225 36.722 205.411 39.4731C202.603 42.2307 201.193 45.5664 201.193 49.4872C201.193 53.3803 202.603 56.7114 205.411 59.4813C208.225 62.247 211.617 63.6303 215.599 63.6303C219.553 63.6303 222.945 62.2561 225.768 59.4999C227.868 57.4052 229.157 55.0781 229.643 52.5077ZM229.643 32.997V30.1404H238.032V71.0599H229.643V65.9355C225.605 70.0422 220.924 72.0964 215.599 72.0964C209.254 72.0964 203.841 69.887 199.358 65.4787C194.881 61.0705 192.642 55.7394 192.642 49.4872C192.642 43.2388 194.881 37.9077 199.358 33.4948C203.841 29.0866 209.254 26.8818 215.599 26.8818C220.924 26.8818 225.605 28.9219 229.643 32.997Z" fill="black"/>
<path d="M258.738 46.2696V52.6677C259.253 55.1551 260.541 57.4192 262.613 59.4593C265.436 62.2155 268.843 63.5941 272.823 63.5941C276.801 63.5941 280.198 62.2155 283.011 59.4593C285.821 56.7063 287.225 53.366 287.225 49.4497C287.225 45.5522 285.821 42.2164 283.011 39.437C280.198 36.653 276.801 35.266 272.823 35.266C268.843 35.266 265.436 36.653 262.613 39.437C260.541 41.4771 259.253 43.754 258.738 46.2696ZM258.738 65.9354V71.0237H250.386V7.45312H258.738V32.9608C262.776 28.8528 267.471 26.8 272.823 26.8C279.169 26.8 284.583 29.013 289.06 33.435C293.542 37.8574 295.781 43.1981 295.781 49.4452C295.781 55.6981 293.542 61.0374 289.06 65.4599C284.583 69.8833 279.169 72.0963 272.823 72.0963C267.471 72.0963 262.776 70.0421 258.738 65.9354Z" fill="black"/>
<path d="M315.221 46.2696V52.6677C315.73 55.1551 317.023 57.4192 319.095 59.4593C321.917 62.2155 325.319 63.5941 329.301 63.5941C333.282 63.5941 336.68 62.2155 339.489 59.4593C342.302 56.7063 343.707 53.366 343.707 49.4497C343.707 45.5522 342.302 42.2164 339.489 39.437C336.68 36.653 333.282 35.266 329.301 35.266C325.319 35.266 321.917 36.653 319.095 39.437C317.023 41.4771 315.73 43.754 315.221 46.2696ZM315.221 65.9354V71.0237H306.868V7.45312H315.221V32.9608C319.252 28.8528 323.948 26.8 329.301 26.8C335.651 26.8 341.065 29.013 345.542 33.435C350.02 37.8574 352.259 43.1981 352.259 49.4452C352.259 55.6981 350.02 61.0374 345.542 65.4599C341.065 69.8833 335.651 72.0963 329.301 72.0963C323.948 72.0963 319.252 70.0421 315.221 65.9354Z" fill="black"/>
<path d="M372.398 71.0248H364.046V30.1413H372.398V71.0248ZM368.203 13.332C369.817 13.332 371.202 13.8898 372.361 15.0029C373.516 16.1165 374.095 17.4811 374.095 19.0967C374.095 20.7128 373.516 22.0729 372.361 23.186C371.202 24.2995 369.817 24.8559 368.203 24.8559C366.618 24.8559 365.247 24.2995 364.087 23.186C362.934 22.0729 362.354 20.7128 362.354 19.0967C362.354 17.4811 362.934 16.1165 364.087 15.0029C365.247 13.8898 366.618 13.332 368.203 13.332Z" fill="black"/>
<path d="M0.32959 51.039C0.32959 23.3078 23.1563 0.831055 51.3192 0.831055C79.4808 0.831055 102.308 23.3078 102.308 51.039C102.308 78.7688 79.4808 101.245 51.3192 101.245C23.1563 101.245 0.32959 78.7688 0.32959 51.039ZM11.6208 53.1608H47.527L37.2289 93.8384L91.1517 48.0898H53.9602L64.255 7.92288L11.6208 53.1608ZM48.5568 48.0898H25.2615L55.12 22.3686L48.5568 48.0898ZM46.1091 79.6451L52.6718 53.1608H77.256L46.1091 79.6451Z" fill="black"/>
</g>
<defs>
<clipPath id="clip0_187_36015">
<rect width="375" height="102" fill="white"/>
</clipPath>
</defs>
</svg>
