<svg width="25" height="24" viewBox="0 0 25 24" fill="none" xmlns="http://www.w3.org/2000/svg">
<path d="M5.43945 5C5.74327 4.65617 6.11874 4.3831 6.53945 4.2C7.149 3.98004 7.79145 3.86508 8.43945 3.86C8.82088 3.86 9.11065 3.85127 9.46914 3.84047C10.0505 3.82296 10.8126 3.8 12.4395 3.8C15.0695 3.8 15.4395 3.8 16.4395 3.86M5.43945 5L5.09591 4.60854C5.08761 4.61582 5.07935 4.62314 5.07112 4.6305M5.43945 5C5.09572 5.30166 4.8255 5.67791 4.64945 6.1L5.43945 5ZM5.07112 4.6305C5.4214 4.24121 5.85121 3.93151 6.33161 3.72243L6.34694 3.71576L6.36267 3.71009C7.02763 3.47014 7.72847 3.34472 8.43537 3.33918L8.43945 3.33915C8.81241 3.33917 9.09264 3.33073 9.44896 3.32C9.56128 3.31662 9.68117 3.31301 9.81391 3.30936C10.3652 3.29423 11.1199 3.27917 12.4395 3.27917H12.4626C15.0572 3.27917 15.4519 3.27917 16.4583 3.33936M5.07112 4.6305C4.6795 4.98076 4.37112 5.41433 4.16876 5.89951L4.16497 5.90857L4.16154 5.91778C3.91478 6.57848 3.78526 7.27714 3.77875 7.98231C3.71862 8.98788 3.71862 9.38322 3.71862 11.9768V12C3.71862 13.3195 3.73368 14.0743 3.74882 14.6255C3.75246 14.7583 3.75607 14.8782 3.75945 14.9905C3.77018 15.3468 3.77862 15.627 3.77862 16V16.0082L3.77888 16.0163C3.80113 16.726 3.94791 17.4262 4.21249 18.085C4.39353 18.5888 4.68707 19.0447 5.0708 19.418C5.43051 19.7892 5.86235 20.0829 6.33979 20.281L6.35612 20.2878L6.37287 20.2935C7.04764 20.5213 7.75633 20.6321 8.46833 20.6211C9.4691 20.6808 9.86835 20.6808 12.4565 20.6808H12.4795C15.1023 20.6808 15.4892 20.6709 16.4957 20.6207C17.1859 20.6116 17.8697 20.486 18.5181 20.2492L18.5181 20.2493L18.5234 20.2473C19.0251 20.0579 19.4797 19.762 19.8561 19.38C20.2442 19.0047 20.5424 18.5464 20.7284 18.0394L20.7287 18.0387C20.9655 17.3902 21.0911 16.7064 21.1001 16.0162C21.1504 15.0098 21.1603 14.6228 21.1603 12C21.1603 9.37876 21.1504 8.99071 21.1002 7.98563C21.0959 7.28136 20.9702 6.58308 20.7287 5.92142L20.7261 5.91429L20.7233 5.90724C20.5312 5.42502 20.2366 4.99041 19.8599 4.63345M5.07112 4.6305L20.2395 6.1C20.0732 5.68273 19.8172 5.30718 19.4895 5M16.4583 3.33936C16.454 3.3393 16.4497 3.33925 16.4454 3.3392L16.4395 3.86M16.4583 3.33936C16.4624 3.33961 16.4665 3.33985 16.4706 3.3401L16.4395 3.86M16.4583 3.33936C17.1476 3.34872 17.8305 3.47427 18.4781 3.71077L18.4807 3.7117C19.0063 3.90679 19.4787 4.22255 19.8599 4.63345M16.4395 3.86C17.0742 3.86728 17.7032 3.98225 18.2995 4.2C18.7539 4.36865 19.1617 4.64285 19.4895 5M19.4895 5L19.8456 4.62001C19.8504 4.62448 19.8552 4.62896 19.8599 4.63345M19.4895 5L19.8732 4.64788C19.8688 4.64306 19.8644 4.63825 19.8599 4.63345M21.8588 7.8922L21.859 7.90083L21.8595 7.90943C21.9185 8.95205 21.9186 9.27682 21.9186 12C21.9186 13.3556 21.9037 14.1159 21.8888 14.6685C21.8854 14.7946 21.882 14.9108 21.8787 15.0215C21.8678 15.3922 21.8587 15.7012 21.8586 16.1138C21.8399 16.8836 21.6956 17.6453 21.4312 18.3686C21.2065 18.9642 20.8533 19.5029 20.3966 19.9463L20.3906 19.9521L20.3849 19.9581C19.9446 20.4139 19.4064 20.7636 18.811 20.9807L18.811 20.9807L18.8053 20.9828C18.0834 21.2557 17.3202 21.4033 16.5487 21.4193L16.5393 21.4195L16.53 21.42C15.4874 21.479 15.1626 21.4792 12.4395 21.4792C9.71628 21.4792 9.3915 21.479 8.34889 21.42L8.33957 21.4195L8.33024 21.4193C7.55867 21.4033 6.7955 21.2557 6.07362 20.9828L6.06978 20.9814C5.47428 20.7616 4.93543 20.4115 4.49264 19.9567L4.48707 19.951L4.48133 19.9454C4.02555 19.5051 3.67588 18.9669 3.45876 18.3716L3.4588 18.3715L3.45664 18.3658C3.18377 17.644 3.03616 16.8808 3.02017 16.1092L3.01998 16.0999L3.01945 16.0906C2.96044 15.048 2.96029 14.7232 2.96029 12C2.96029 9.27682 2.96044 8.95205 3.01945 7.90943L3.01998 7.90012L3.02017 7.89079C3.03616 7.11922 3.18377 6.35604 3.45664 5.63416L3.45668 5.63417L3.45876 5.62844C3.67588 5.03308 4.02555 4.49489 4.48133 4.05459L4.48707 4.04904L4.49264 4.04331C4.93543 3.58849 5.47428 3.23839 6.06978 3.01862L6.06979 3.01863L6.07361 3.01719C6.79549 2.74431 7.55867 2.5967 8.33024 2.58072L8.33957 2.58053L8.34889 2.58C9.3915 2.52099 9.71628 2.52083 12.4395 2.52083C15.1626 2.52083 15.4874 2.52099 16.53 2.58L16.5393 2.58053L16.5487 2.58072C17.3202 2.5967 18.0834 2.74431 18.8053 3.01719L18.8053 3.01722L18.811 3.01931C19.4064 3.23643 19.9446 3.5861 20.3849 4.04187L20.3899 4.04709L20.3951 4.05217C20.8505 4.498 21.2041 5.03705 21.4316 5.63233C21.6964 6.35724 21.8407 7.12063 21.8588 7.8922ZM12.4405 7.39083L12.4415 7.39083C13.0477 7.38846 13.6485 7.50597 14.2091 7.7366C14.7698 7.96723 15.2793 8.30643 15.7084 8.73469C16.1375 9.16295 16.4777 9.67182 16.7094 10.232C16.9411 10.7922 17.0598 11.3927 17.0586 11.999V12C17.0586 12.9112 16.7885 13.802 16.2825 14.5598C15.7764 15.3176 15.0571 15.9083 14.2154 16.2574C13.3737 16.6066 12.4474 16.6984 11.5535 16.5212C10.6597 16.3441 9.83841 15.906 9.19346 15.2623C8.5485 14.6186 8.10881 13.7982 7.92995 12.9047C7.75109 12.0112 7.84109 11.0847 8.18857 10.2424C8.53604 9.39999 9.12541 8.67952 9.88221 8.17198C10.639 7.66444 11.5292 7.39261 12.4405 7.39083ZM17.4021 6.09529C17.5138 6.02067 17.6451 5.98083 17.7795 5.98083C17.9596 5.98083 18.1323 6.05239 18.2597 6.17976C18.3871 6.30713 18.4586 6.47987 18.4586 6.66C18.4586 6.79432 18.4188 6.92563 18.3442 7.03733C18.2695 7.14901 18.1635 7.23606 18.0394 7.28747C17.9153 7.33887 17.7787 7.35232 17.647 7.32612C17.5152 7.29991 17.3942 7.23523 17.2992 7.14024C17.2042 7.04526 17.1395 6.92424 17.1133 6.7925C17.0871 6.66075 17.1006 6.5242 17.152 6.40009C17.2034 6.27599 17.2904 6.16992 17.4021 6.09529ZM10.3 15.2019C10.9333 15.625 11.6778 15.8508 12.4395 15.8508C12.9452 15.8508 13.4459 15.7512 13.9131 15.5577C14.3803 15.3642 14.8048 15.0805 15.1624 14.723C15.52 14.3654 15.8036 13.9409 15.9972 13.4736C16.1907 13.0064 16.2903 12.5057 16.2903 12C16.2903 11.2384 16.0644 10.4939 15.6413 9.86059C15.2182 9.22732 14.6168 8.73375 13.9131 8.44229C13.2095 8.15083 12.4352 8.07457 11.6882 8.22316C10.9412 8.37174 10.2551 8.7385 9.7165 9.27705C9.17795 9.8156 8.8112 10.5018 8.66261 11.2487C8.51403 11.9957 8.59029 12.77 8.88175 13.4736C9.17321 14.1773 9.66678 14.7787 10.3 15.2019Z" fill="white" stroke="white" stroke-width="1.04167"/>
</svg>
