<svg width="285" height="96" viewBox="0 0 285 96" fill="none" xmlns="http://www.w3.org/2000/svg">
<path d="M245.576 94.787C247.102 90.623 248.958 86.585 251.126 82.7105C252.449 80.3324 253.611 77.9544 253.366 75.0889C253.163 73.2402 252.644 71.4391 251.832 69.7621C247.969 61.2447 244.02 52.767 240.178 44.2418C238.282 40.0445 236.548 35.7799 234.604 31.226C238.303 31.226 241.793 31.0318 245.252 31.2894C247.973 31.4915 249.704 33.3187 250.698 35.8077C253.743 43.4253 256.802 51.0363 259.874 58.6408C260.29 59.4934 260.757 60.3206 261.273 61.1179C262.972 56.667 264.559 52.5887 266.081 48.4905C267.66 44.2576 269.175 40.0009 270.738 35.7641C270.95 35.1814 271.315 34.6583 271.579 34.0955C272.521 32.1138 274.12 31.1784 276.336 31.1824C279.101 31.1824 281.866 31.1507 284.631 31.1309V34.9119C284.414 35.0863 284.101 35.2132 283.997 35.4351C282.294 39.1884 280.575 42.9378 278.945 46.7228C275.399 54.9376 271.88 63.167 268.385 71.4108C265.882 77.2767 263.388 83.1478 260.904 89.024C259.874 91.458 258.763 93.84 256.467 95.421H252.629C252.349 95.207 252.076 94.815 251.792 94.811C249.724 94.759 247.635 94.787 245.576 94.787Z" fill="#040404"/>
<path d="M256.472 95.421C258.768 93.836 259.878 91.458 260.908 89.024C263.4 83.1532 265.894 77.2821 268.389 71.411C271.9 63.1751 275.419 54.9457 278.948 46.723C280.579 42.938 282.299 39.1926 284.002 35.4353C284.106 35.2133 284.402 35.0865 284.635 34.9121V95.421H256.472Z" fill="#FCFCFC"/>
<path d="M245.576 94.7874C247.648 94.7874 249.724 94.7604 251.796 94.8114C252.08 94.8114 252.353 95.2074 252.633 95.4214H244.951L245.576 94.7874Z" fill="#282828"/>
<path d="M23.8843 46.8771C26.617 45.6881 29.026 44.5268 31.538 43.6311C35.024 42.3906 37.549 43.1793 39.697 46.0805C42.394 49.7387 45.002 53.4603 47.623 57.178C49.466 59.7859 51.274 62.4216 53.085 65.0334C54.351 64.7481 54.055 63.6066 54.411 62.8417C58.787 53.496 63.003 44.075 67.956 35.0028C72.764 26.1763 78.154 17.6709 83.832 9.35174C85.033 7.53404 86.364 5.80414 87.816 4.17554C89.687 2.15424 91.883 0.63624 94.936 0.86214C98.164 1.14744 101.334 1.89374 104.345 3.07774C101.472 7.34234 98.619 11.3731 95.986 15.5425C92.809 20.5681 89.751 25.6928 86.766 30.8452C83.941 35.7202 81.156 40.6308 78.587 45.6445C76.455 49.814 74.656 54.146 72.748 58.4225C70.877 62.6039 68.97 66.7773 67.226 71.0102C65.563 75.045 64.081 79.155 62.542 83.2413C61.412 86.2375 59.821 88.7905 56.459 89.7845C53.678 90.6135 50.753 89.7455 49.138 87.3435C47.479 84.8782 45.956 82.3178 44.381 79.7931C40.628 73.782 36.876 67.7682 33.125 61.7517C30.136 56.9362 27.154 52.1366 23.8843 46.8771Z" fill="#038BFE"/>
<path d="M133.875 72.5479C130.384 76.3884 126.217 78.5604 121.408 79.6344C117.984 80.3393 114.475 80.5489 110.989 80.2567C102.907 79.7097 96.5998 76.1704 92.4918 69.1592C89.4098 63.9065 88.1648 57.7952 88.9498 51.7718C89.6388 45.9535 91.7188 40.6148 96.3908 36.588C100.562 32.9221 105.863 30.7585 111.434 30.4487C114.382 30.2148 117.347 30.587 120.142 31.542C122.937 32.4969 125.502 34.0139 127.676 35.9975C131.134 39.0651 133.408 43.2262 134.107 47.7688C134.488 50.1468 135.398 52.5446 134.316 55.0693C133.462 57.051 133.161 57.5504 130.97 57.5583C122.554 57.5861 114.115 57.5583 105.688 57.5583H102.542C102.318 63.662 105.568 69.0522 111.919 70.3561C115.526 71.0894 118.663 70.1183 121.841 68.85C123.38 68.2357 124.915 67.6016 126.381 66.8684C127.848 66.1351 128.986 66.5592 130.044 67.661C131.426 69.0522 132.909 70.3997 133.875 72.5479ZM122.138 49.4056C122.138 48.5694 122.138 48.0462 122.138 47.527C122.094 44.0471 119.333 40.9597 116.311 40.2423C113.29 39.5249 110.252 39.6597 107.439 41.1816C105.947 41.9421 104.73 43.1412 103.955 44.6139C103.18 46.0865 102.885 47.7606 103.111 49.4056H122.138Z" fill="#050505"/>
<path d="M233.29 31.6657V40.4764C229.611 40.6785 225.917 40.4764 222.29 40.5873C222.188 40.6682 222.093 40.757 222.006 40.8529C221.941 40.9263 221.897 41.0151 221.877 41.1105C221.857 41.3199 221.848 41.5303 221.852 41.7407V79.1987C221.77 79.2897 221.681 79.3757 221.588 79.4563C221.515 79.5255 221.424 79.5723 221.325 79.5911C217.173 79.5911 213.022 79.5911 208.618 79.5911C208.574 78.3347 208.497 77.11 208.497 75.8853C208.497 65.4933 208.497 55.1 208.497 44.7053C208.497 43.9681 208.497 43.2349 208.497 42.4977C208.497 41.4038 207.996 40.7379 206.894 40.516C205.973 40.3578 205.06 40.1514 204.161 39.8977C202.558 39.4181 201.472 38.7602 201.408 36.6279C201.359 35.0782 201.408 33.5246 201.408 31.8401H208.153C208.746 30.338 208.42 28.8676 208.528 27.4447C208.746 23.8269 209.9 20.3251 211.878 17.2746C213.481 14.8451 215.79 13.4262 218.23 12.3402C221.384 10.8877 224.856 10.2339 228.329 10.4378C229.251 10.5012 230.16 10.7588 231.078 10.9134C233.995 11.4049 233.994 11.4049 233.998 14.3576C233.998 14.9878 234.054 15.6219 233.998 16.2442C233.814 18.2259 232.757 19.3792 230.717 19.8112C229.595 20.0609 228.444 20.1759 227.326 20.4335C223.872 21.2262 221.457 22.9383 221.316 27.2941C221.16 32.3871 221.136 31.6538 225.42 31.6538C227.936 31.6776 230.489 31.6657 233.29 31.6657Z" fill="#050505"/>
<path d="M155.894 79.5124H142.646V34.1989C142.646 33.7788 142.646 33.3587 142.646 32.9385C142.582 31.7495 143.151 31.2303 144.33 31.2264C146.67 31.2264 149.014 31.1312 151.354 31.2264C153.446 31.2937 154.235 32.0626 154.712 34.0681C154.985 35.2135 155.309 36.351 155.658 37.6629C157.261 36.03 158.655 34.516 160.142 33.0931C163.091 30.2791 166.75 30.0809 170.461 30.7944C172.793 31.2422 173.338 32.5977 172.905 34.8965C172.641 36.3233 172.677 37.8016 172.532 39.2562C172.451 39.9577 172.328 40.6539 172.164 41.3409C171.859 42.6568 171.042 43.2275 169.639 43.1284C168.237 43.0294 166.87 43.0412 165.488 43.0531C159.942 43.0928 155.995 46.9016 155.95 52.379C155.886 60.3454 155.914 68.3158 155.902 76.2822L155.894 79.5124Z" fill="#090909"/>
<path d="M180.375 79.6549V31.7969H192.913V79.5003C188.87 79.8055 184.754 79.5518 180.375 79.6549Z" fill="#040404"/>
<path d="M14.4153 79.5962H2.68211C2.19721 77.2617 2.01691 40.1643 2.47771 34.4333C6.02411 34.4095 9.60261 34.3461 13.177 34.4333C13.6058 34.4333 14.0787 35.1507 14.4153 35.6223C14.5635 35.8284 14.4153 36.2327 14.4153 36.5497V79.5962Z" fill="#070707"/>
<path d="M178.415 17.4058C178.323 13.6128 182.458 9.52264 186.694 9.70094C191.547 9.90314 194.989 14.1241 194.809 17.6872C194.564 22.4433 191.282 25.2692 186.349 25.4198C182.062 25.5506 178.066 21.2186 178.415 17.4058Z" fill="#050505"/>
<path d="M15.7776 21.3336C15.9138 26.4028 11.6261 28.9315 8.05972 29.0979C4.25282 29.2763 0.554121 25.4912 0.502021 21.7775C0.449921 18.0638 4.06852 14.2471 7.77112 14.2075C11.9707 14.1639 15.7375 17.5169 15.7776 21.3336Z" fill="#070707"/>
<path d="M122.138 49.4061H103.107C102.881 47.761 103.176 46.087 103.951 44.6143C104.726 43.1416 105.943 41.9425 107.435 41.182C110.24 39.6601 113.246 39.5095 116.307 40.2427C119.369 40.9759 122.09 44.0476 122.134 47.5274C122.142 48.0466 122.138 48.5698 122.138 49.4061Z" fill="#FBFBFB"/>
</svg>
