<svg width="319" height="99" viewBox="0 0 319 99" fill="none" xmlns="http://www.w3.org/2000/svg">
<g clip-path="url(#clip0_187_36119)">
<path d="M296.881 81.0298C293.408 81.0298 290.542 80.4511 288.282 79.2936C286.022 78.1361 284.341 76.6203 283.239 74.7463C282.137 72.8171 281.585 70.7226 281.585 68.4627C281.585 64.4942 283.129 61.3524 286.215 59.0374C289.302 56.7224 293.711 55.5649 299.444 55.5649H310.192V54.8208C310.192 51.6239 309.31 49.2262 307.546 47.6278C305.838 46.0293 303.605 45.2301 300.849 45.2301C298.424 45.2301 296.302 45.8364 294.483 47.049C292.719 48.2065 291.645 49.9428 291.259 52.2578H282.495C282.77 49.2814 283.763 46.7459 285.471 44.6514C287.235 42.5017 289.44 40.8757 292.085 39.7734C294.786 38.6159 297.735 38.0371 300.932 38.0371C306.664 38.0371 311.101 39.5529 314.243 42.5844C317.385 45.5608 318.956 49.6396 318.956 54.8208V80.0377H311.35L310.605 73.01C309.448 75.2699 307.767 77.1715 305.562 78.7148C303.357 80.2582 300.464 81.0298 296.881 81.0298ZM298.617 73.9195C300.987 73.9195 302.971 73.3683 304.57 72.2659C306.223 71.1084 307.491 69.5927 308.373 67.7186C309.31 65.8446 309.889 63.7776 310.109 61.5178H300.353C296.881 61.5178 294.4 62.1241 292.912 63.3367C291.479 64.5493 290.763 66.0651 290.763 67.884C290.763 69.758 291.452 71.2462 292.83 72.3486C294.263 73.3959 296.192 73.9195 298.617 73.9195Z" fill="#23273B"/>
<path d="M235.479 98.2269V39.0292H243.334L244.243 45.3955C245.566 43.4663 247.385 41.7576 249.7 40.2694C252.015 38.7812 254.992 38.0371 258.629 38.0371C262.598 38.0371 266.098 38.9741 269.13 40.8482C272.161 42.7222 274.531 45.2852 276.24 48.5373C278.004 51.7893 278.886 55.4822 278.886 59.6162C278.886 63.7501 278.004 67.443 276.24 70.6951C274.531 73.892 272.161 76.4274 269.13 78.3015C266.098 80.1204 262.57 81.0298 258.547 81.0298C255.35 81.0298 252.511 80.396 250.031 79.1282C247.606 77.8605 245.676 76.0691 244.243 73.7542V98.2269H235.479ZM257.059 73.4234C260.807 73.4234 263.893 72.1557 266.319 69.6202C268.744 67.0296 269.956 63.6674 269.956 59.5335C269.956 56.8326 269.405 54.435 268.303 52.3405C267.2 50.2459 265.685 48.6199 263.755 47.4624C261.826 46.2498 259.594 45.6435 257.059 45.6435C253.31 45.6435 250.224 46.9388 247.799 49.5294C245.428 52.12 244.243 55.4547 244.243 59.5335C244.243 63.6674 245.428 67.0296 247.799 69.6202C250.224 72.1557 253.31 73.4234 257.059 73.4234Z" fill="#23273B"/>
<path d="M187.968 98.2269V39.0292H195.823L196.732 45.3955C198.055 43.4663 199.874 41.7576 202.189 40.2694C204.504 38.7812 207.48 38.0371 211.118 38.0371C215.087 38.0371 218.587 38.9741 221.618 40.8482C224.65 42.7222 227.02 45.2852 228.729 48.5373C230.492 51.7893 231.374 55.4822 231.374 59.6162C231.374 63.7501 230.492 67.443 228.729 70.6951C227.02 73.892 224.65 76.4274 221.618 78.3015C218.587 80.1204 215.059 81.0298 211.036 81.0298C207.839 81.0298 205 80.396 202.52 79.1282C200.094 77.8605 198.165 76.0691 196.732 73.7542V98.2269H187.968ZM209.547 73.4234C213.295 73.4234 216.382 72.1557 218.807 69.6202C221.233 67.0296 222.445 63.6674 222.445 59.5335C222.445 56.8326 221.894 54.435 220.792 52.3405C219.689 50.2459 218.173 48.6199 216.244 47.4624C214.315 46.2498 212.083 45.6435 209.547 45.6435C205.799 45.6435 202.713 46.9388 200.287 49.5294C197.917 52.12 196.732 55.4547 196.732 59.5335C196.732 63.6674 197.917 67.0296 200.287 69.6202C202.713 72.1557 205.799 73.4234 209.547 73.4234Z" fill="#23273B"/>
<path d="M161.049 81.0298C157.576 81.0298 154.71 80.4511 152.45 79.2936C150.19 78.1361 148.509 76.6203 147.407 74.7463C146.304 72.8171 145.753 70.7226 145.753 68.4627C145.753 64.4942 147.297 61.3524 150.383 59.0374C153.47 56.7224 157.879 55.5649 163.612 55.5649H174.36V54.8208C174.36 51.6239 173.478 49.2262 171.714 47.6278C170.006 46.0293 167.773 45.2301 165.017 45.2301C162.592 45.2301 160.47 45.8364 158.651 47.049C156.887 48.2065 155.812 49.9428 155.427 52.2578H146.663C146.938 49.2814 147.93 46.7459 149.639 44.6514C151.403 42.5017 153.608 40.8757 156.253 39.7734C158.954 38.6159 161.903 38.0371 165.1 38.0371C170.832 38.0371 175.269 39.5529 178.411 42.5844C181.553 45.5608 183.124 49.6396 183.124 54.8208V80.0377H175.517L174.773 73.01C173.616 75.2699 171.935 77.1715 169.73 78.7148C167.525 80.2582 164.632 81.0298 161.049 81.0298ZM162.785 73.9195C165.155 73.9195 167.139 73.3683 168.738 72.2659C170.391 71.1084 171.659 69.5927 172.541 67.7186C173.478 65.8446 174.057 63.7776 174.277 61.5178H164.521C161.049 61.5178 158.568 62.1241 157.08 63.3367C155.647 64.5493 154.931 66.0651 154.931 67.884C154.931 69.758 155.62 71.2462 156.998 72.3486C158.431 73.3959 160.36 73.9195 162.785 73.9195Z" fill="#23273B"/>
<path d="M104.662 80.0379V22.1631H113.426V46.9666L136.245 22.1631H147.076L125.662 45.2304L147.572 80.0379H136.906L119.378 51.9273L113.426 58.3762V80.0379H104.662Z" fill="#23273B"/>
<path d="M86.4089 0.916992H8.55808C4.01612 0.916992 0.270996 4.58243 0.270996 9.20407V87.0548C0.270996 91.5968 3.93643 95.3419 8.55808 95.3419H86.4089C90.9508 95.3419 94.6959 91.6764 94.6959 87.0548V9.20407C94.6959 4.66211 91.0305 0.916992 86.4089 0.916992ZM61.4679 79.1661L47.7624 59.8031L42.5033 52.3128L42.3439 52.0738H36.1286L36.288 52.3128L37.5629 54.0659L45.6906 65.62L49.9935 71.6759L55.2526 79.1661H38.9175L37.5629 77.2537L29.4352 65.6996L25.1323 59.6437L24.9729 59.4046L19.9529 52.3128L19.7935 52.0738L16.9249 48.0099L20.0325 43.5476L25.0526 36.3761L29.2758 30.3202L32.5428 25.6189L37.4035 18.6067L38.5191 17.013H54.3761L49.4357 24.1049L48.3998 25.6189L45.3719 29.9218L37.2442 41.5556L35.8895 43.468H42.583L47.6827 36.1371L55.0136 25.5392L60.9898 16.9334H77.3249L71.3487 25.5392L58.9181 43.468L55.8901 47.7709L58.8384 51.9144L58.9977 52.1534L77.9624 79.0068H61.4679V79.1661Z" fill="#23273B"/>
</g>
<defs>
<clipPath id="clip0_187_36119">
<rect width="319" height="99" fill="white"/>
</clipPath>
</defs>
</svg>
