<svg width="375" height="86" viewBox="0 0 375 86" fill="none" xmlns="http://www.w3.org/2000/svg">
<g clip-path="url(#clip0_187_36107)">
<path d="M0.730957 71.4192C9.48048 65.4831 18.23 59.3272 27.1983 53.3911C28.0732 52.7316 29.8231 52.5117 30.9168 52.9514C50.3845 59.1074 70.0709 65.2633 89.5386 72.2986C60.2277 72.2986 30.6981 72.2986 1.38717 72.2986C0.949693 72.0788 0.949695 71.6391 0.730957 71.4192Z" fill="#FBD105"/>
<path d="M0.946777 67.0241C18.6646 44.5989 35.7262 22.6134 53.0065 0.62793C53.4439 0.62793 54.1002 0.62793 54.5376 0.62793C55.4126 7.22357 56.2875 14.0391 56.9438 20.6347C56.9438 21.5141 55.6313 22.8333 54.7564 23.4928C37.6948 38.2231 20.1958 52.7335 2.91542 67.0241C2.69668 67.2439 2.25921 67.0241 0.946777 67.0241Z" fill="#FBD105"/>
<path d="M59.1337 4.58398C71.1643 26.5695 83.4137 48.3351 95.4443 70.3205C95.2255 70.7602 95.0068 70.9801 94.5693 71.4198C87.1322 67.9021 79.6951 64.3845 72.4768 60.6469C71.3831 60.2072 70.7269 58.2285 70.5081 56.9094C66.3521 40.4203 62.1961 23.9312 58.2588 7.44209C58.04 6.56267 58.2588 5.68326 58.04 5.02369C58.4775 4.80384 58.6963 4.58398 59.1337 4.58398Z" fill="#FBD105"/>
<path d="M139.606 63.8745L138.511 72.8175H110.586L116.746 22.7021H127.902L122.838 63.8745H139.606Z" fill="#2F2E80"/>
<path d="M161.185 43.8558C159.428 43.8558 157.888 44.5667 156.565 45.9884C155.241 47.3872 154.26 49.3134 153.622 51.767C155.812 51.423 157.591 51.0561 158.96 50.6663C160.329 50.2765 161.39 49.8637 162.143 49.428C162.896 48.9694 163.398 48.4879 163.648 47.9834C163.922 47.4789 164.059 46.9286 164.059 46.3324C164.059 45.7362 163.831 45.1744 163.375 44.6469C162.918 44.1195 162.188 43.8558 161.185 43.8558ZM172.888 66.2134C171.634 67.4517 170.402 68.5294 169.192 69.4467C168.006 70.341 166.774 71.0862 165.496 71.6824C164.242 72.2557 162.896 72.6799 161.458 72.9551C160.044 73.2302 158.492 73.3678 156.804 73.3678C154.705 73.3678 152.777 73.0124 151.021 72.3015C149.264 71.5678 147.747 70.5473 146.469 69.2403C145.214 67.9103 144.233 66.3166 143.526 64.4592C142.842 62.6018 142.5 60.538 142.5 58.2679C142.5 56.3646 142.705 54.5072 143.116 52.6957C143.549 50.8841 144.154 49.1873 144.929 47.605C145.728 45.9999 146.697 44.5323 147.838 43.2023C148.979 41.8494 150.256 40.6914 151.671 39.7283C153.108 38.7652 154.671 38.0199 156.359 37.4925C158.07 36.9422 159.884 36.667 161.801 36.667C163.694 36.667 165.371 36.9422 166.831 37.4925C168.314 38.0429 169.557 38.7652 170.561 39.6595C171.565 40.5309 172.329 41.5169 172.854 42.6176C173.379 43.7182 173.641 44.8189 173.641 45.9196C173.641 47.5477 173.322 49.0382 172.683 50.3911C172.044 51.7211 170.926 52.9135 169.329 53.9683C167.755 55.0232 165.622 55.9175 162.93 56.6512C160.261 57.385 156.895 57.9583 152.834 58.3711C152.88 60.8017 153.405 62.5789 154.409 63.7025C155.435 64.8261 156.941 65.3879 158.926 65.3879C159.861 65.3879 160.671 65.3076 161.356 65.1471C162.04 64.9866 162.633 64.7802 163.135 64.528C163.66 64.2758 164.128 64.012 164.538 63.7369C164.949 63.4617 165.337 63.198 165.702 62.9458C166.09 62.6935 166.489 62.4871 166.9 62.3266C167.31 62.1661 167.778 62.0859 168.303 62.0859C168.645 62.0859 168.976 62.1776 169.295 62.361C169.614 62.5215 169.9 62.7394 170.151 63.0146L172.888 66.2134Z" fill="#2F2E80"/>
<path d="M179.752 65.1123C179.752 64.9518 179.752 64.7569 179.752 64.5276C179.752 64.2983 179.763 63.9772 179.786 63.5645C179.832 63.1288 179.889 62.567 179.957 61.8791C180.048 61.1682 180.163 60.2395 180.299 59.093L182.113 44.509H179.273C178.794 44.509 178.394 44.337 178.075 43.993C177.756 43.6261 177.653 43.0987 177.767 42.4108L178.246 38.2488L183.619 37.1482L186.596 28.4459C186.984 27.3452 187.76 26.7949 188.923 26.7949H194.672L193.372 37.2169H201.311L200.422 44.509H192.482L190.771 58.5082C190.657 59.4484 190.566 60.1937 190.497 60.744C190.429 61.2714 190.372 61.6842 190.326 61.9823C190.304 62.2574 190.292 62.4524 190.292 62.567C190.292 62.6587 190.292 62.7161 190.292 62.739C190.292 63.404 190.44 63.9658 190.737 64.4244C191.056 64.8601 191.547 65.0779 192.209 65.0779C192.574 65.0779 192.87 65.0435 193.098 64.9747C193.349 64.883 193.566 64.7913 193.749 64.6996C193.931 64.5849 194.102 64.4932 194.262 64.4244C194.422 64.3327 194.604 64.2868 194.809 64.2868C195.129 64.2868 195.357 64.3671 195.494 64.5276C195.654 64.6652 195.813 64.8945 195.973 65.2155L198.3 70.2718C196.885 71.3037 195.368 72.0833 193.749 72.6107C192.129 73.1152 190.497 73.3674 188.855 73.3674C187.486 73.3674 186.254 73.184 185.159 72.8171C184.064 72.4273 183.117 71.8769 182.318 71.1661C181.543 70.4323 180.927 69.5609 180.471 68.552C180.037 67.543 179.798 66.3965 179.752 65.1123Z" fill="#2F2E80"/>
<path d="M227.524 44.6464C227.204 45.0592 226.908 45.3573 226.634 45.5407C226.36 45.7242 225.995 45.8159 225.539 45.8159C225.082 45.8159 224.626 45.7127 224.17 45.5064C223.736 45.3 223.257 45.0707 222.733 44.8184C222.231 44.5433 221.649 44.3025 220.987 44.0961C220.348 43.8897 219.607 43.7865 218.763 43.7865C217.189 43.7865 216.059 44.0961 215.375 44.7152C214.713 45.3114 214.383 46.0911 214.383 47.0542C214.383 47.6733 214.565 48.2007 214.93 48.6364C215.318 49.0721 215.82 49.4619 216.436 49.8059C217.052 50.1499 217.748 50.4709 218.523 50.769C219.322 51.0442 220.132 51.3652 220.953 51.7321C221.774 52.076 222.573 52.4773 223.349 52.9359C224.147 53.3946 224.854 53.9564 225.47 54.6214C226.086 55.2864 226.577 56.0775 226.942 56.9947C227.33 57.9119 227.524 59.0012 227.524 60.2624C227.524 62.051 227.17 63.7478 226.463 65.353C225.755 66.9352 224.74 68.3225 223.417 69.515C222.094 70.6844 220.485 71.6246 218.592 72.3354C216.721 73.0234 214.611 73.3673 212.261 73.3673C211.143 73.3673 210.036 73.2527 208.941 73.0234C207.846 72.7941 206.808 72.4845 205.827 72.0947C204.869 71.7048 203.991 71.2462 203.192 70.7188C202.394 70.1685 201.743 69.5837 201.241 68.9646L203.842 65.0434C204.162 64.5848 204.527 64.2294 204.937 63.9772C205.371 63.702 205.896 63.5644 206.512 63.5644C207.082 63.5644 207.572 63.702 207.983 63.9772C208.394 64.2523 208.839 64.5504 209.318 64.8715C209.797 65.1925 210.367 65.4906 211.029 65.7658C211.69 66.0409 212.557 66.1785 213.63 66.1785C215.135 66.1785 216.253 65.846 216.983 65.181C217.713 64.4931 218.078 63.6905 218.078 62.7733C218.078 62.0624 217.885 61.4777 217.497 61.0191C217.132 60.5605 216.641 60.1706 216.025 59.8496C215.409 59.5056 214.713 59.2075 213.938 58.9553C213.162 58.6801 212.363 58.382 211.542 58.061C210.721 57.74 209.922 57.3731 209.147 56.9603C208.371 56.5246 207.675 55.9858 207.059 55.3437C206.443 54.7016 205.941 53.9105 205.553 52.9703C205.188 52.0302 205.006 50.8951 205.006 49.5651C205.006 47.9141 205.302 46.3089 205.896 44.7496C206.512 43.1903 207.413 41.8145 208.599 40.6221C209.808 39.4067 211.303 38.4322 213.082 37.6984C214.862 36.9646 216.938 36.5977 219.31 36.5977C221.683 36.5977 223.793 37.0105 225.641 37.836C227.512 38.6615 229.052 39.6705 230.261 40.8629L227.524 44.6464Z" fill="#2F2E80"/>
<path d="M246.459 41.8264C248.056 40.0377 249.756 38.7192 251.558 37.8708C253.36 37.0223 255.22 36.5981 257.136 36.5981C258.619 36.5981 259.965 36.8962 261.174 37.4924C262.406 38.0886 263.433 38.96 264.254 40.1065C265.075 41.2531 265.657 42.6748 265.999 44.3717C266.342 46.0456 266.376 47.9718 266.102 50.1503L263.433 72.8174H252.824L255.493 50.1503C255.607 49.1872 255.642 48.3731 255.596 47.7081C255.55 47.0431 255.425 46.5042 255.22 46.0915C255.014 45.6787 254.729 45.3921 254.364 45.2316C253.999 45.0481 253.554 44.9564 253.029 44.9564C252.322 44.9564 251.581 45.1743 250.805 45.6099C250.029 46.0227 249.276 46.6189 248.546 47.3985C247.839 48.1782 247.166 49.1298 246.527 50.2534C245.911 51.3541 245.398 52.5809 244.987 53.9338L242.694 72.8174H232.086L238.314 21.3262H248.923L246.459 41.8264Z" fill="#2F2E80"/>
<path d="M289.596 43.8558C287.839 43.8558 286.299 44.5667 284.976 45.9884C283.653 47.3872 282.672 49.3134 282.033 51.767C284.223 51.423 286.002 51.0561 287.371 50.6663C288.74 50.2765 289.801 49.8637 290.554 49.428C291.307 48.9694 291.809 48.4879 292.06 47.9834C292.333 47.4789 292.47 46.9286 292.47 46.3324C292.47 45.7362 292.242 45.1744 291.786 44.6469C291.33 44.1195 290.6 43.8558 289.596 43.8558ZM301.299 66.2134C300.045 67.4517 298.813 68.5294 297.604 69.4467C296.417 70.341 295.185 71.0862 293.908 71.6824C292.653 72.2557 291.307 72.6799 289.869 72.9551C288.455 73.2302 286.904 73.3678 285.215 73.3678C283.116 73.3678 281.189 73.0124 279.432 72.3015C277.675 71.5678 276.158 70.5473 274.88 69.2403C273.626 67.9103 272.645 66.3166 271.937 64.4592C271.253 62.6018 270.911 60.538 270.911 58.2679C270.911 56.3646 271.116 54.5072 271.527 52.6957C271.96 50.8841 272.565 49.1873 273.34 47.605C274.139 45.9999 275.109 44.5323 276.249 43.2023C277.39 41.8494 278.668 40.6914 280.082 39.7283C281.519 38.7652 283.082 38.0199 284.77 37.4925C286.482 36.9422 288.295 36.667 290.212 36.667C292.105 36.667 293.782 36.9422 295.242 37.4925C296.725 38.0429 297.969 38.7652 298.972 39.6595C299.976 40.5309 300.741 41.5169 301.265 42.6176C301.79 43.7182 302.052 44.8189 302.052 45.9196C302.052 47.5477 301.733 49.0382 301.094 50.3911C300.455 51.7211 299.337 52.9135 297.74 53.9683C296.166 55.0232 294.033 55.9175 291.341 56.6512C288.672 57.385 285.307 57.9583 281.246 58.3711C281.291 60.8017 281.816 62.5789 282.82 63.7025C283.846 64.8261 285.352 65.3879 287.337 65.3879C288.272 65.3879 289.082 65.3076 289.767 65.1471C290.451 64.9866 291.044 64.7802 291.546 64.528C292.071 64.2758 292.539 64.012 292.949 63.7369C293.36 63.4617 293.748 63.198 294.113 62.9458C294.501 62.6935 294.9 62.4871 295.311 62.3266C295.721 62.1661 296.189 62.0859 296.714 62.0859C297.056 62.0859 297.387 62.1776 297.706 62.361C298.026 62.5215 298.311 62.7394 298.562 63.0146L301.299 66.2134Z" fill="#2F2E80"/>
<path d="M317.872 77.9764C318.922 77.9764 319.891 77.8389 320.781 77.5637C321.671 77.2885 322.424 76.8987 323.04 76.3942C323.679 75.9127 324.169 75.3279 324.511 74.64C324.876 73.9521 325.059 73.1839 325.059 72.3354C325.059 72.1979 325.059 72.0603 325.059 71.9227C325.059 71.7851 325.047 71.659 325.025 71.5443C322.698 71.1545 320.713 70.9711 319.07 70.994C317.45 71.0169 316.138 71.1889 315.135 71.5099C314.131 71.808 313.401 72.2208 312.944 72.7482C312.488 73.2527 312.26 73.8145 312.26 74.4336C312.26 75.6031 312.682 76.4859 313.526 77.0821C314.393 77.6783 315.842 77.9764 317.872 77.9764ZM320.815 55.5845C321.66 55.5845 322.39 55.3666 323.006 54.9309C323.644 54.4952 324.169 53.9334 324.58 53.2455C324.99 52.5347 325.298 51.7435 325.504 50.8722C325.732 50.0008 325.857 49.118 325.88 48.2237C325.88 46.7332 325.572 45.5751 324.956 44.7496C324.34 43.9241 323.393 43.5114 322.116 43.5114C321.272 43.5114 320.53 43.7177 319.891 44.1305C319.275 44.5203 318.762 45.0477 318.351 45.7127C317.941 46.3777 317.633 47.1459 317.427 48.0173C317.222 48.8887 317.119 49.7944 317.119 50.7346C317.119 52.248 317.427 53.4404 318.043 54.3118C318.659 55.1602 319.583 55.5845 320.815 55.5845ZM340.869 38.4551L340.39 41.7916C340.185 43.0986 339.523 43.9815 338.405 44.4401L335.394 45.472C335.531 46.2057 335.599 46.9854 335.599 47.8109C335.599 49.2785 335.394 50.5282 334.983 51.5601C334.595 52.592 334.162 53.5665 333.683 54.4838C333.204 55.401 332.759 56.3412 332.348 57.3043C331.96 58.2674 331.766 59.4024 331.766 60.7095C331.766 61.6497 331.915 62.521 332.211 63.3236C332.531 64.1033 332.873 64.9059 333.238 65.7314C333.603 66.5569 333.934 67.4282 334.23 68.3455C334.55 69.2627 334.709 70.3175 334.709 71.5099C334.687 73.3444 334.276 75.0757 333.477 76.7038C332.679 78.3548 331.527 79.788 330.021 81.0033C328.515 82.2416 326.667 83.2161 324.477 83.927C322.287 84.6608 319.789 85.0277 316.983 85.0277C314.678 85.0277 312.614 84.7869 310.788 84.3053C308.963 83.8238 307.412 83.1703 306.134 82.3448C304.88 81.5192 303.91 80.5332 303.226 79.3867C302.541 78.2631 302.199 77.0477 302.199 75.7407C302.199 74.0209 302.575 72.5418 303.328 71.3036C304.081 70.0653 305.073 69.0449 306.305 68.2423C307.537 67.4168 308.941 66.7862 310.515 66.3505C312.089 65.8919 313.697 65.5823 315.34 65.4218C316.983 65.2383 318.58 65.1925 320.131 65.2842C321.682 65.353 323.063 65.5021 324.272 65.7314C324.203 65.181 324.169 64.6077 324.169 64.0115C324.169 62.7503 324.477 61.363 325.093 59.8496C324.226 60.4458 323.211 60.9159 322.047 61.2598C320.884 61.6038 319.447 61.7758 317.735 61.7758C316.389 61.7758 315.1 61.5579 313.868 61.1223C312.636 60.6636 311.541 59.9757 310.583 59.0585C309.648 58.1413 308.895 56.9947 308.325 55.6189C307.754 54.2201 307.469 52.5691 307.469 50.6658C307.469 48.9001 307.8 47.1803 308.461 45.5064C309.146 43.8095 310.15 42.3075 311.473 41.0004C312.819 39.6705 314.473 38.6042 316.435 37.8016C318.42 36.999 320.724 36.5977 323.348 36.5977C324.717 36.5977 326.017 36.7582 327.249 37.0793C328.481 37.3774 329.622 37.836 330.671 38.4551H340.869Z" fill="#2F2E80"/>
<path d="M356.29 65.4562C357.477 65.4562 358.538 65.1008 359.473 64.3899C360.408 63.6561 361.195 62.6701 361.834 61.4318C362.496 60.1706 362.998 58.7145 363.34 57.0635C363.705 55.3895 363.888 53.6124 363.888 51.7321C363.888 49.1409 363.534 47.295 362.827 46.1943C362.142 45.0707 361.013 44.5089 359.439 44.5089C358.252 44.5089 357.192 44.8758 356.256 45.6095C355.321 46.3204 354.522 47.295 353.861 48.5332C353.222 49.7715 352.72 51.2276 352.355 52.9015C352.013 54.5755 351.842 56.3526 351.842 58.233C351.842 60.7783 352.184 62.6242 352.868 63.7708C353.575 64.8944 354.716 65.4562 356.29 65.4562ZM355.332 73.3673C353.347 73.3673 351.488 73.0348 349.754 72.3698C348.043 71.7048 346.549 70.7418 345.271 69.4806C344.016 68.1964 343.024 66.6257 342.294 64.7683C341.586 62.8879 341.233 60.7324 341.233 58.3018C341.233 55.1373 341.746 52.2366 342.773 49.5995C343.822 46.9395 345.225 44.6464 346.982 42.7203C348.739 40.7941 350.769 39.2921 353.074 38.2143C355.401 37.1366 357.842 36.5977 360.397 36.5977C362.382 36.5977 364.23 36.9302 365.941 37.5952C367.652 38.2602 369.135 39.2348 370.39 40.5189C371.667 41.7801 372.671 43.3509 373.401 45.2312C374.131 47.0886 374.496 49.2326 374.496 51.6633C374.496 54.7819 373.972 57.6712 372.922 60.3311C371.895 62.9682 370.504 65.2613 368.747 67.2104C366.99 69.1366 364.948 70.65 362.621 71.7507C360.317 72.8285 357.887 73.3673 355.332 73.3673Z" fill="#2F2E80"/>
</g>
<defs>
<clipPath id="clip0_187_36107">
<rect width="375" height="86" fill="white"/>
</clipPath>
</defs>
</svg>
