<svg width="24" height="24" viewBox="0 0 24 24" fill="none" xmlns="http://www.w3.org/2000/svg">
<path d="M21.958 13.7194V21.0984H17.68V14.2134C17.68 12.4834 17.061 11.3034 15.513 11.3034C14.331 11.3034 13.627 12.0994 13.318 12.8684C13.205 13.1434 13.176 13.5264 13.176 13.9114V21.0984H8.89602C8.89602 21.0984 8.95402 9.43837 8.89602 8.22937H13.176V10.0534L13.148 10.0954H13.176V10.0534C13.744 9.17837 14.759 7.92737 17.032 7.92737C19.847 7.92737 21.958 9.76737 21.958 13.7194ZM4.42002 2.02637C2.95702 2.02637 1.99902 2.98637 1.99902 4.24937C1.99902 5.48437 2.92902 6.47337 4.36402 6.47337H4.39202C5.88502 6.47337 6.81202 5.48437 6.81202 4.24937C6.78602 2.98637 5.88502 2.02637 4.42002 2.02637ZM2.25302 21.0984H6.53102V8.22937H2.25302V21.0984Z" fill="white"/>
</svg>
