<svg width="422" height="84" viewBox="0 0 422 84" fill="none" xmlns="http://www.w3.org/2000/svg">
<path d="M43.6011 35.9339L90.8136 8.67578V63.192L43.6011 35.9339Z" fill="#EA5542"/>
<path d="M86.7796 78.7567L39.8672 51.6718L86.7796 24.5869V78.7567Z" stroke="black" stroke-width="0.2"/>
<path d="M101.537 47.3936V25.5755H105.614V29.1266H105.884C106.339 27.9239 107.082 26.9864 108.114 26.3141C109.146 25.6323 110.382 25.2914 111.822 25.2914C113.28 25.2914 114.502 25.6323 115.486 26.3141C116.481 26.9959 117.215 27.9334 117.688 29.1266H117.915C118.436 27.9618 119.265 27.0338 120.401 26.3425C121.537 25.6417 122.892 25.2914 124.464 25.2914C126.443 25.2914 128.057 25.9116 129.307 27.1522C130.567 28.3927 131.197 30.263 131.197 32.763V47.3936H126.949V33.1607C126.949 31.6834 126.547 30.6133 125.742 29.9505C124.937 29.2876 123.976 28.9561 122.859 28.9561C121.476 28.9561 120.401 29.3823 119.634 30.2346C118.867 31.0774 118.484 32.1616 118.484 33.4874V47.3936H114.251V32.8908C114.251 31.7071 113.881 30.7554 113.143 30.0357C112.404 29.316 111.443 28.9561 110.259 28.9561C109.454 28.9561 108.711 29.1692 108.029 29.5953C107.357 30.012 106.812 30.5944 106.395 31.3425C105.988 32.0906 105.785 32.9571 105.785 33.9419V47.3936H101.537ZM145.057 47.8198C143.295 47.8198 141.723 47.37 140.341 46.4703C138.968 45.5613 137.888 44.2686 137.102 42.5925C136.326 40.9069 135.937 38.8851 135.937 36.5272C135.937 34.1692 136.33 32.1522 137.116 30.476C137.912 28.7999 139.001 27.5167 140.383 26.6266C141.766 25.7364 143.333 25.2914 145.085 25.2914C146.439 25.2914 147.528 25.5186 148.352 25.9732C149.185 26.4183 149.829 26.9391 150.284 27.5357C150.748 28.1323 151.108 28.6578 151.363 29.1124H151.619V18.3027H155.866V47.3936H151.719V43.9988H151.363C151.108 44.4628 150.738 44.9931 150.256 45.5897C149.782 46.1863 149.129 46.7071 148.295 47.1522C147.462 47.5972 146.382 47.8198 145.057 47.8198ZM145.994 44.1976C147.216 44.1976 148.248 43.8757 149.091 43.2317C149.943 42.5783 150.587 41.6739 151.023 40.5186C151.468 39.3633 151.69 38.0186 151.69 36.4846C151.69 34.9694 151.472 33.6436 151.037 32.5073C150.601 31.3709 149.962 30.4855 149.119 29.851C148.276 29.2166 147.235 28.8993 145.994 28.8993C144.716 28.8993 143.65 29.2308 142.798 29.8936C141.946 30.5565 141.302 31.4609 140.866 32.6067C140.44 33.7525 140.227 35.0452 140.227 36.4846C140.227 37.9429 140.445 39.2544 140.881 40.4192C141.316 41.584 141.96 42.5073 142.812 43.1891C143.674 43.8614 144.735 44.1976 145.994 44.1976ZM168.278 47.8766C166.895 47.8766 165.645 47.6209 164.528 47.1096C163.41 46.5887 162.525 45.8359 161.871 44.851C161.227 43.8662 160.905 42.6588 160.905 41.2289C160.905 39.9978 161.142 38.9846 161.616 38.1891C162.089 37.3936 162.728 36.7639 163.533 36.2999C164.338 35.8359 165.238 35.4855 166.232 35.2488C167.226 35.012 168.24 34.8321 169.272 34.709C170.579 34.5575 171.639 34.4344 172.454 34.3397C173.268 34.2355 173.86 34.0698 174.229 33.8425C174.599 33.6152 174.783 33.2459 174.783 32.7346V32.6351C174.783 31.3946 174.433 30.4334 173.732 29.7516C173.041 29.0698 172.009 28.7289 170.635 28.7289C169.206 28.7289 168.079 29.0461 167.255 29.6806C166.44 30.3056 165.877 31.0016 165.564 31.7686L161.573 30.8596C162.046 29.5338 162.738 28.4637 163.647 27.6493C164.565 26.8255 165.621 26.2289 166.814 25.8596C168.008 25.4808 169.262 25.2914 170.579 25.2914C171.45 25.2914 172.373 25.3955 173.349 25.6039C174.333 25.8027 175.252 26.1721 176.104 26.7118C176.966 27.2516 177.671 28.0234 178.221 29.0272C178.77 30.0215 179.045 31.3141 179.045 32.905V47.3936H174.897V44.4107H174.726C174.452 44.9599 174.04 45.4997 173.491 46.03C172.941 46.5603 172.236 47.0007 171.374 47.351C170.512 47.7014 169.48 47.8766 168.278 47.8766ZM169.201 44.4675C170.375 44.4675 171.379 44.2355 172.212 43.7715C173.055 43.3075 173.694 42.7014 174.13 41.9533C174.575 41.1957 174.797 40.3861 174.797 39.5243V36.7118C174.646 36.8633 174.352 37.0054 173.917 37.138C173.491 37.2611 173.003 37.37 172.454 37.4647C171.904 37.5499 171.369 37.6304 170.849 37.7061C170.328 37.7724 169.892 37.8292 169.542 37.8766C168.718 37.9808 167.965 38.156 167.283 38.4022C166.611 38.6484 166.071 39.0035 165.664 39.4675C165.266 39.9221 165.067 40.5281 165.067 41.2857C165.067 42.3368 165.456 43.1323 166.232 43.6721C167.009 44.2024 167.998 44.4675 169.201 44.4675ZM191.051 47.8766C189.668 47.8766 188.418 47.6209 187.301 47.1096C186.184 46.5887 185.298 45.8359 184.645 44.851C184.001 43.8662 183.679 42.6588 183.679 41.2289C183.679 39.9978 183.916 38.9846 184.389 38.1891C184.863 37.3936 185.502 36.7639 186.307 36.2999C187.112 35.8359 188.011 35.4855 189.006 35.2488C190 35.012 191.013 34.8321 192.045 34.709C193.352 34.5575 194.413 34.4344 195.227 34.3397C196.042 34.2355 196.633 34.0698 197.003 33.8425C197.372 33.6152 197.557 33.2459 197.557 32.7346V32.6351C197.557 31.3946 197.206 30.4334 196.506 29.7516C195.814 29.0698 194.782 28.7289 193.409 28.7289C191.979 28.7289 190.852 29.0461 190.028 29.6806C189.214 30.3056 188.65 31.0016 188.338 31.7686L184.346 30.8596C184.82 29.5338 185.511 28.4637 186.42 27.6493C187.339 26.8255 188.395 26.2289 189.588 25.8596C190.781 25.4808 192.036 25.2914 193.352 25.2914C194.223 25.2914 195.147 25.3955 196.122 25.6039C197.107 25.8027 198.025 26.1721 198.878 26.7118C199.739 27.2516 200.445 28.0234 200.994 29.0272C201.543 30.0215 201.818 31.3141 201.818 32.905V47.3936H197.67V44.4107H197.5C197.225 44.9599 196.813 45.4997 196.264 46.03C195.715 46.5603 195.009 47.0007 194.148 47.351C193.286 47.7014 192.254 47.8766 191.051 47.8766ZM191.974 44.4675C193.149 44.4675 194.152 44.2355 194.986 43.7715C195.828 43.3075 196.468 42.7014 196.903 41.9533C197.348 41.1957 197.571 40.3861 197.571 39.5243V36.7118C197.419 36.8633 197.126 37.0054 196.69 37.138C196.264 37.2611 195.776 37.37 195.227 37.4647C194.678 37.5499 194.143 37.6304 193.622 37.7061C193.101 37.7724 192.666 37.8292 192.315 37.8766C191.491 37.9808 190.738 38.156 190.057 38.4022C189.384 38.6484 188.845 39.0035 188.437 39.4675C188.04 39.9221 187.841 40.5281 187.841 41.2857C187.841 42.3368 188.229 43.1323 189.006 43.6721C189.782 44.2024 190.772 44.4675 191.974 44.4675ZM223.824 30.9022L219.975 31.584C219.814 31.0916 219.558 30.6228 219.208 30.1777C218.867 29.7327 218.403 29.3681 217.816 29.084C217.229 28.7999 216.495 28.6578 215.614 28.6578C214.412 28.6578 213.408 28.9277 212.603 29.4675C211.798 29.9978 211.395 30.6844 211.395 31.5272C211.395 32.2563 211.665 32.8435 212.205 33.2885C212.745 33.7336 213.616 34.0982 214.819 34.3823L218.285 35.1777C220.292 35.6417 221.788 36.3567 222.773 37.3226C223.758 38.2885 224.251 39.5433 224.251 41.0868C224.251 42.3936 223.872 43.5584 223.114 44.5811C222.366 45.5944 221.32 46.3899 219.975 46.9675C218.64 47.5452 217.091 47.834 215.33 47.834C212.887 47.834 210.894 47.3132 209.35 46.2715C207.806 45.2203 206.859 43.7289 206.509 41.7971L210.614 41.1721C210.87 42.2421 211.395 43.0518 212.191 43.601C212.986 44.1408 214.023 44.4107 215.302 44.4107C216.694 44.4107 217.806 44.1219 218.64 43.5442C219.473 42.9571 219.89 42.2421 219.89 41.3993C219.89 40.7175 219.634 40.1446 219.123 39.6806C218.621 39.2166 217.849 38.8662 216.807 38.6294L213.114 37.8198C211.078 37.3558 209.573 36.6171 208.597 35.6039C207.631 34.5906 207.148 33.3075 207.148 31.7544C207.148 30.4666 207.508 29.3397 208.228 28.3738C208.948 27.4078 209.942 26.655 211.211 26.1152C212.48 25.566 213.933 25.2914 215.572 25.2914C217.93 25.2914 219.786 25.8027 221.14 26.8255C222.494 27.8387 223.389 29.1976 223.824 30.9022ZM237.528 56.03C236.174 56.03 234.957 55.8501 233.878 55.4902C232.798 55.1399 231.88 54.638 231.122 53.9846C230.374 53.3311 229.801 52.5546 229.403 51.655L230.852 50.8027C231.174 51.5035 231.633 52.1285 232.23 52.6777C232.827 53.227 233.565 53.6578 234.446 53.9703C235.336 54.2828 236.363 54.4391 237.528 54.4391C239.631 54.4391 241.292 53.8946 242.514 52.8056C243.745 51.726 244.361 50.0688 244.361 47.834V42.4078H244.19C243.859 43.3548 243.366 44.1976 242.713 44.9363C242.069 45.6654 241.278 46.2383 240.341 46.655C239.403 47.0717 238.338 47.28 237.145 47.28C235.421 47.28 233.906 46.8349 232.599 45.9448C231.292 45.0546 230.274 43.8046 229.545 42.1948C228.816 40.5755 228.452 38.6721 228.452 36.4846C228.452 34.2971 228.807 32.3605 229.517 30.6749C230.237 28.9798 231.25 27.6541 232.557 26.6976C233.863 25.7317 235.398 25.2488 237.159 25.2488C238.418 25.2488 239.507 25.4902 240.426 25.9732C241.354 26.4467 242.131 27.0764 242.756 27.8624C243.381 28.6484 243.863 29.5101 244.204 30.4476H244.403V25.5755H246.079V47.905C246.079 49.7232 245.72 51.2336 245 52.4363C244.29 53.6389 243.291 54.5385 242.003 55.1351C240.724 55.7317 239.233 56.03 237.528 56.03ZM237.301 45.6749C238.759 45.6749 240.014 45.3056 241.065 44.5669C242.126 43.8188 242.94 42.7582 243.508 41.3851C244.086 40.0025 244.375 38.3643 244.375 36.4703C244.375 34.6332 244.095 32.9902 243.537 31.5414C242.978 30.0925 242.168 28.9514 241.108 28.1181C240.047 27.2847 238.778 26.8681 237.301 26.8681C235.795 26.8681 234.512 27.2942 233.452 28.1465C232.391 28.9893 231.577 30.1351 231.008 31.584C230.45 33.0328 230.17 34.6616 230.17 36.4703C230.17 38.2885 230.454 39.8889 231.023 41.2715C231.591 42.6446 232.405 43.7241 233.466 44.5101C234.526 45.2866 235.805 45.6749 237.301 45.6749ZM255.103 18.3027V47.3936H253.37V18.3027H255.103ZM270.387 47.8482C268.588 47.8482 266.987 47.3652 265.586 46.3993C264.184 45.4239 263.081 44.084 262.276 42.3794C261.471 40.6749 261.069 38.7336 261.069 36.5556C261.069 34.3681 261.471 32.4268 262.276 30.7317C263.081 29.0272 264.184 27.6872 265.586 26.7118C266.987 25.7364 268.588 25.2488 270.387 25.2488C272.186 25.2488 273.787 25.7364 275.188 26.7118C276.59 27.6872 277.693 29.0272 278.498 30.7317C279.303 32.4363 279.705 34.3775 279.705 36.5556C279.705 38.7336 279.303 40.6749 278.498 42.3794C277.693 44.084 276.59 45.4239 275.188 46.3993C273.787 47.3652 272.186 47.8482 270.387 47.8482ZM270.387 46.2431C271.912 46.2431 273.242 45.8122 274.378 44.9505C275.524 44.0887 276.41 42.9239 277.035 41.4561C277.669 39.9883 277.986 38.3548 277.986 36.5556C277.986 34.7563 277.669 33.1275 277.035 31.6692C276.4 30.2014 275.515 29.0366 274.378 28.1749C273.242 27.3037 271.912 26.8681 270.387 26.8681C268.862 26.8681 267.532 27.3037 266.395 28.1749C265.259 29.0366 264.374 30.2014 263.739 31.6692C263.105 33.1275 262.787 34.7563 262.787 36.5556C262.787 38.3548 263.1 39.9883 263.725 41.4561C264.359 42.9239 265.245 44.0887 266.381 44.9505C267.527 45.8122 268.862 46.2431 270.387 46.2431ZM286.285 47.3936V18.3027H288.004V30.4476H288.175C288.515 29.5101 288.998 28.6484 289.623 27.8624C290.248 27.0764 291.025 26.4467 291.953 25.9732C292.881 25.4902 293.965 25.2488 295.206 25.2488C296.958 25.2488 298.487 25.7364 299.794 26.7118C301.101 27.6777 302.114 29.013 302.834 30.7175C303.553 32.4126 303.913 34.3539 303.913 36.5414C303.913 38.7478 303.553 40.7033 302.834 42.4078C302.114 44.1029 301.105 45.4334 299.808 46.3993C298.511 47.3652 296.981 47.8482 295.22 47.8482C293.979 47.8482 292.895 47.6114 291.967 47.138C291.039 46.655 290.263 46.0205 289.638 45.2346C289.013 44.4391 288.525 43.5726 288.175 42.6351H287.976V47.3936H286.285ZM287.99 36.5272C287.99 38.3832 288.269 40.0452 288.828 41.513C289.396 42.9713 290.211 44.1266 291.271 44.9789C292.332 45.8217 293.601 46.2431 295.078 46.2431C296.574 46.2431 297.853 45.8169 298.913 44.9647C299.974 44.1029 300.783 42.9382 301.342 41.4703C301.91 40.0025 302.194 38.3548 302.194 36.5272C302.194 34.6995 301.91 33.0565 301.342 31.5982C300.783 30.1399 299.974 28.9893 298.913 28.1465C297.853 27.2942 296.574 26.8681 295.078 26.8681C293.601 26.8681 292.332 27.2895 291.271 28.1323C290.211 28.9656 289.396 30.1114 288.828 31.5698C288.269 33.0186 287.99 34.6711 287.99 36.5272ZM315.675 47.8624C314.415 47.8624 313.26 47.6114 312.209 47.1096C311.167 46.6077 310.329 45.8738 309.694 44.9078C309.069 43.9419 308.757 42.7677 308.757 41.3851C308.757 40.476 308.918 39.6758 309.24 38.9846C309.562 38.2933 310.059 37.6967 310.731 37.1948C311.404 36.6929 312.265 36.281 313.317 35.959C314.368 35.6275 315.622 35.3719 317.081 35.1919C318.189 35.0594 319.178 34.9315 320.05 34.8084C320.921 34.6758 321.603 34.4722 322.095 34.1976C322.597 33.923 322.848 33.5063 322.848 32.9476V32.0385C322.848 30.4476 322.346 29.1834 321.342 28.2459C320.338 27.3084 318.956 26.8397 317.194 26.8397C315.632 26.8397 314.316 27.1853 313.246 27.8766C312.185 28.5584 311.442 29.4391 311.015 30.5186L309.382 29.9078C309.799 28.8662 310.4 27.9997 311.186 27.3084C311.981 26.6171 312.89 26.101 313.913 25.7601C314.945 25.4192 316.025 25.2488 317.152 25.2488C318.127 25.2488 319.055 25.3861 319.936 25.6607C320.826 25.9353 321.617 26.352 322.308 26.9107C323.009 27.4694 323.563 28.1844 323.97 29.0556C324.377 29.9173 324.581 30.9495 324.581 32.1522V47.3936H322.848V43.459H322.72C322.341 44.2734 321.82 45.0167 321.158 45.6891C320.504 46.352 319.713 46.8823 318.785 47.28C317.867 47.6683 316.83 47.8624 315.675 47.8624ZM315.845 46.2573C317.209 46.2573 318.416 45.9258 319.467 45.263C320.528 44.5906 321.356 43.6721 321.953 42.5073C322.55 41.3425 322.848 40.0215 322.848 38.5442V35.334C322.63 35.5234 322.313 35.6938 321.896 35.8453C321.489 35.9874 321.025 36.1152 320.504 36.2289C319.993 36.333 319.453 36.4277 318.885 36.513C318.326 36.5887 317.782 36.6597 317.251 36.726C315.66 36.9154 314.363 37.209 313.359 37.6067C312.365 37.995 311.636 38.5063 311.172 39.1408C310.717 39.7753 310.49 40.5423 310.49 41.4419C310.49 42.9287 311.001 44.1029 312.024 44.9647C313.047 45.8264 314.32 46.2573 315.845 46.2573ZM333.579 18.3027V47.3936H331.846V18.3027H333.579Z" fill="black"/>
</svg>
