<svg width="295" height="47" viewBox="0 0 295 47" fill="none" xmlns="http://www.w3.org/2000/svg">
<g clip-path="url(#clip0_187_36028)">
<path d="M12.426 3.78618L12.6664 3.62125C11.3898 1.76042 10.2872 0.571738 8.77475 0.0960673H4.96722C4.79434 0.139287 4.62135 0.182527 4.42677 0.225768C2.90268 0.593295 1.9193 1.43626 1.29517 2.52242C0.670922 3.60877 0.405895 4.93869 0.319336 6.28007V9.80771C0.415829 16.1956 0.37466 22.6695 0.33392 29.0759C0.32897 29.8543 0.324026 30.6318 0.319336 31.4079V39.827C0.427556 41.2986 0.64394 42.5742 1.03279 43.3088C2.69766 46.2493 6.43836 47.3305 9.46561 45.8818C12.5355 44.4333 13.3795 40.9522 13.3795 37.8793C13.3759 37.2484 13.3593 36.2474 13.3386 35.0051C13.2969 32.4975 13.2388 29.0067 13.2388 25.5912C13.2388 23.0373 13.2713 20.5252 13.3674 18.4973C13.4154 17.4834 13.4793 16.5904 13.563 15.8738C13.6467 15.1574 13.7503 14.6165 13.8778 14.3072C14.9395 11.7287 17.9455 10.1962 20.7426 10.5645C22.1414 10.7487 23.4882 11.4082 24.5136 12.6499C25.539 13.8916 26.2427 15.7151 26.3564 18.2268C26.4749 20.892 26.4414 23.7295 26.4084 26.5242C26.3932 27.8148 26.378 29.0962 26.378 30.3474C26.3755 31.0326 26.3505 31.7987 26.3238 32.6148L26.3188 32.7678C26.2904 33.6412 26.2615 34.5688 26.2573 35.5138C26.2489 37.4037 26.3388 39.3626 26.7269 41.0947C27.115 42.8269 27.801 44.3316 28.9842 45.3141C30.1671 46.2965 31.848 46.7576 34.2275 46.4007C37.643 45.8819 39.2436 42.942 39.5248 39.7401L39.5311 39.7406C39.7467 37.1063 39.6992 34.0442 39.6539 31.1243C39.6356 29.942 39.6176 28.7831 39.6176 27.6852C39.6146 26.8677 39.5738 25.9401 39.5303 24.9498C39.2663 18.9403 38.9008 10.621 46.2405 10.5653C53.593 10.5285 53.2338 18.6248 52.9585 24.8315C52.9097 25.9331 52.8634 26.9752 52.8634 27.9017C52.8634 28.7005 52.8224 29.6575 52.7772 30.7099C52.52 36.7006 52.1299 45.7874 58.4258 46.4501C66.5668 47.309 66.2186 38.7285 65.9696 32.5901C65.9299 31.6132 65.8928 30.6982 65.8928 29.8929C65.8928 28.0426 65.9505 26.2101 66.0071 24.4125C66.304 14.9813 66.5706 6.51048 58.3176 1.47502C56.8675 0.587644 55.3524 0.219705 53.8157 0.0898438L12.426 3.78618ZM12.426 3.78618L12.6749 3.62293C13.2379 3.25377 13.6829 2.89244 14.1303 2.52914C14.2078 2.46623 14.2854 2.40327 14.3636 2.3402C14.8938 1.91282 15.4562 1.48018 16.2458 1.02591C17.349 0.376993 18.019 0.160926 18.8185 0.0960673H21.2856H21.4804C22.0864 0.0960673 22.6924 0.098472 23.2984 0.100877C24.5104 0.105687 25.7225 0.110497 26.9346 0.0960673H27.9084C28.9144 0.117706 29.4167 0.220458 29.9025 0.441803C30.1457 0.552564 30.3848 0.693068 30.6811 0.868278L30.7067 0.883397C30.9977 1.05549 31.344 1.26032 31.8014 1.50217C33.1423 2.19424 34.159 3.18919 35.1979 4.27134C35.6254 4.70969 35.9403 4.93273 36.1988 4.99812C36.3283 5.03087 36.4436 5.02408 36.5517 4.98509C36.6596 4.94614 36.7599 4.87518 36.8597 4.78016C37.0061 4.64069 37.1523 4.44844 37.3201 4.22767C37.3807 4.14801 37.444 4.06463 37.5113 3.97868C37.7651 3.65419 38.0746 3.29208 38.4961 2.95162C40.7243 1.11284 43.0388 0.269164 45.7213 0.0960673H53.8155L12.426 3.78618Z" fill="url(#paint0_linear_187_36028)"/>
<path d="M12.426 3.78618L12.6664 3.62125C11.3898 1.76042 10.2872 0.571738 8.77475 0.0960673H4.96722C4.79434 0.139287 4.62135 0.182527 4.42677 0.225768C2.90268 0.593295 1.9193 1.43626 1.29517 2.52242C0.670922 3.60877 0.405895 4.93869 0.319336 6.28007V9.80771C0.415829 16.1956 0.37466 22.6695 0.33392 29.0759C0.32897 29.8543 0.324026 30.6318 0.319336 31.4079V39.827C0.427556 41.2986 0.64394 42.5742 1.03279 43.3088C2.69766 46.2493 6.43836 47.3305 9.46561 45.8818C12.5355 44.4333 13.3795 40.9522 13.3795 37.8793C13.3759 37.2484 13.3593 36.2474 13.3386 35.0051C13.2969 32.4975 13.2388 29.0067 13.2388 25.5912C13.2388 23.0373 13.2713 20.5252 13.3674 18.4973C13.4154 17.4834 13.4793 16.5904 13.563 15.8738C13.6467 15.1574 13.7503 14.6165 13.8778 14.3072C14.9395 11.7287 17.9455 10.1962 20.7426 10.5645C22.1414 10.7487 23.4882 11.4082 24.5136 12.6499C25.539 13.8916 26.2427 15.7151 26.3564 18.2268C26.4749 20.892 26.4414 23.7295 26.4084 26.5242C26.3932 27.8148 26.378 29.0962 26.378 30.3474C26.3755 31.0326 26.3505 31.7987 26.3238 32.6148L26.3188 32.7678C26.2904 33.6412 26.2615 34.5688 26.2573 35.5138C26.2489 37.4037 26.3388 39.3626 26.7269 41.0947C27.115 42.8269 27.801 44.3316 28.9842 45.3141C30.1671 46.2965 31.848 46.7576 34.2275 46.4007C37.643 45.8819 39.2436 42.942 39.5248 39.7401L39.5311 39.7406C39.7467 37.1063 39.6992 34.0442 39.6539 31.1243C39.6356 29.942 39.6176 28.7831 39.6176 27.6852C39.6146 26.8677 39.5738 25.9401 39.5303 24.9498C39.2663 18.9403 38.9008 10.621 46.2405 10.5653C53.593 10.5285 53.2338 18.6248 52.9585 24.8315C52.9097 25.9331 52.8634 26.9752 52.8634 27.9017C52.8634 28.7005 52.8224 29.6575 52.7772 30.7099C52.52 36.7006 52.1299 45.7874 58.4258 46.4501C66.5668 47.309 66.2186 38.7285 65.9696 32.5901C65.9299 31.6132 65.8928 30.6982 65.8928 29.8929C65.8928 28.0426 65.9505 26.2101 66.0071 24.4125C66.304 14.9813 66.5706 6.51048 58.3176 1.47502C56.8675 0.587644 55.3524 0.219705 53.8157 0.0898438L12.426 3.78618ZM12.426 3.78618L12.6749 3.62293C13.2379 3.25377 13.6829 2.89244 14.1303 2.52914C14.2078 2.46623 14.2854 2.40327 14.3636 2.3402C14.8938 1.91282 15.4562 1.48018 16.2458 1.02591C17.349 0.376993 18.019 0.160926 18.8185 0.0960673H21.2856H21.4804C22.0864 0.0960673 22.6924 0.098472 23.2984 0.100877C24.5104 0.105687 25.7225 0.110497 26.9346 0.0960673H27.9084C28.9144 0.117706 29.4167 0.220458 29.9025 0.441803C30.1457 0.552564 30.3848 0.693068 30.6811 0.868278L30.7067 0.883397C30.9977 1.05549 31.344 1.26032 31.8014 1.50217C33.1423 2.19424 34.159 3.18919 35.1979 4.27134C35.6254 4.70969 35.9403 4.93273 36.1988 4.99812C36.3283 5.03087 36.4436 5.02408 36.5517 4.98509C36.6596 4.94614 36.7599 4.87518 36.8597 4.78016C37.0061 4.64069 37.1523 4.44844 37.3201 4.22767C37.3807 4.14801 37.444 4.06463 37.5113 3.97868C37.7651 3.65419 38.0746 3.29208 38.4961 2.95162C40.7243 1.11284 43.0388 0.269164 45.7213 0.0960673H53.8155L12.426 3.78618Z" stroke="url(#paint1_linear_187_36028)" stroke-width="0.0124472"/>
<path d="M294.618 23.8544C294.293 26.5165 292.951 27.8368 287.995 27.6852C284.79 27.6048 281.528 27.6323 278.274 27.6598C276.275 27.6766 274.28 27.6935 272.303 27.6852C272.056 27.6852 271.659 27.6739 271.171 27.66C269.05 27.5994 265.226 27.4901 264.663 28.0532L276.394 0.0898438M294.618 23.8544V17.924V23.8544ZM294.611 23.8536C294.611 23.8535 294.611 23.8537 294.611 23.8536V23.8536ZM294.618 17.924C294.271 14.6126 291.826 10.1324 289.878 7.70834C287.324 4.5484 284.64 2.62213 281.025 0.869009C280.246 0.479426 278.472 0.241348 276.394 0.0898438M294.611 17.924C294.611 17.9239 294.611 17.9241 294.611 17.924V17.924ZM276.394 0.0898438L276.393 0.0960509C276.393 0.0960564 276.393 0.0960618 276.394 0.0960673V0.0898438ZM256.719 6.71682C253.998 9.84917 251.942 13.5979 251.293 16.8215L251.287 16.8202L256.719 6.71682ZM256.719 6.71682C259.44 3.58444 262.826 1.06947 266.136 0.312354L256.719 6.71682ZM263.748 18.4225L263.693 18.4285L263.754 18.4281L281.458 18.2982L281.459 18.3149L281.464 18.2936C281.714 17.3821 281.339 16.2601 280.741 15.229C280.143 14.1976 279.32 13.2556 278.67 12.7032C276.759 11.1062 274.848 10.4549 273.061 10.4292C271.275 10.4035 269.614 11.0032 268.204 11.9073C266.793 12.8114 265.634 14.0201 264.849 15.2125C264.065 16.4046 263.656 17.5817 263.748 18.4225ZM267.802 0.0960673C267.802 0.0960588 267.802 0.0960758 267.802 0.0960673L267.801 0.0898438V0.0960673H267.802Z" fill="url(#paint2_linear_187_36028)"/>
<path d="M294.618 23.8544C294.293 26.5165 292.951 27.8368 287.995 27.6852C284.79 27.6048 281.528 27.6323 278.274 27.6598C276.275 27.6766 274.28 27.6935 272.303 27.6852C272.056 27.6852 271.659 27.6739 271.171 27.66C269.05 27.5994 265.226 27.4901 264.663 28.0532L276.394 0.0898438M294.618 23.8544V17.924M294.618 23.8544L294.611 23.8536M276.394 0.0898438C278.472 0.241348 280.246 0.479426 281.025 0.869009C284.64 2.62213 287.324 4.5484 289.878 7.70834C291.826 10.1324 294.271 14.6126 294.618 17.924M276.394 0.0898438L276.393 0.0960509C276.393 0.0960564 276.393 0.0960618 276.394 0.0960673V0.0898438ZM294.618 17.924H294.611M294.611 23.8536C294.611 23.8537 294.611 23.8535 294.611 23.8536ZM294.611 17.924C294.611 17.9241 294.611 17.9239 294.611 17.924ZM256.719 6.71682C253.998 9.84917 251.942 13.5979 251.293 16.8215L251.287 16.8202L256.719 6.71682ZM256.719 6.71682C259.44 3.58444 262.826 1.06947 266.136 0.312354L256.719 6.71682ZM267.802 0.0960673C267.802 0.0960588 267.802 0.0960758 267.802 0.0960673ZM267.802 0.0960673L267.801 0.0898438V0.0960673H267.802ZM267.019 32.755L267.022 32.7498M263.748 18.4225L263.693 18.4285L263.754 18.4281L281.458 18.2982L281.459 18.3149L281.464 18.2936C281.714 17.3821 281.339 16.2601 280.741 15.229C280.143 14.1976 279.32 13.2556 278.67 12.7032C276.759 11.1062 274.848 10.4549 273.061 10.4292C271.275 10.4035 269.614 11.0032 268.204 11.9073C266.793 12.8114 265.634 14.0201 264.849 15.2125C264.065 16.4046 263.656 17.5817 263.748 18.4225Z" stroke="url(#paint3_linear_187_36028)" stroke-width="0.0124472"/>
<path d="M213.698 0.219705L213.699 0.225844C213.786 0.211425 213.875 0.197002 213.964 0.182575C214.141 0.153744 214.319 0.124902 214.478 0.0960673H217.593C218.771 0.333901 219.625 0.906518 220.319 1.83587C221.014 2.76567 221.549 4.05262 222.09 5.71906C222.24 6.16955 222.596 7.28967 223.072 8.78989C223.763 10.9656 224.708 13.9409 225.648 16.833C226.442 19.276 227.232 21.6595 227.864 23.4513C228.179 24.3471 228.455 25.0951 228.672 25.6287C228.78 25.8954 228.874 26.1087 228.95 26.26C228.988 26.3357 229.022 26.396 229.052 26.4399C229.066 26.4618 229.08 26.4798 229.092 26.4934C229.105 26.5071 229.116 26.5169 229.127 26.5221L229.124 26.5294L221.496 39.4355M213.698 0.219705L213.699 0.225844C211.58 0.593397 210.192 1.87426 209.497 3.52815C208.802 5.18226 208.802 7.20972 209.462 9.0698C210.663 12.446 212.032 15.8277 213.417 19.2068C213.579 19.6023 213.742 19.9978 213.904 20.3932C215.129 23.3761 216.352 26.3562 217.47 29.328C218.069 30.9127 218.716 32.488 219.364 34.065C219.406 34.1678 219.449 34.2706 219.491 34.3734C220.181 36.0535 220.868 37.7364 221.496 39.4355M213.698 0.219705C213.785 0.205276 213.874 0.190847 213.963 0.176418C214.141 0.14756 214.319 0.118702 214.477 0.0898438M213.698 0.219705C209.456 0.955582 208.136 5.3492 209.456 9.07188C210.798 12.8434 212.349 16.6218 213.898 20.3955C215.123 23.3785 216.346 26.3585 217.464 29.3301C218.064 30.915 218.711 32.4904 219.358 34.0674L214.477 0.0898438M221.496 39.4355C221.561 39.6109 221.625 39.7845 221.689 39.956C222.35 41.7412 222.927 43.2998 223.865 44.4442C224.891 45.6978 226.35 46.4547 228.827 46.4655C230.617 46.471 231.939 46.1789 232.961 45.634C233.983 45.0892 234.706 44.2914 235.298 43.2843C235.891 42.2771 236.352 41.0609 236.85 39.6794C236.909 39.5151 236.969 39.3485 237.03 39.1797C237.479 37.9285 237.973 36.5534 238.626 35.0848C239.026 34.1869 239.307 33.2999 239.578 32.426C239.594 32.3728 239.611 32.3196 239.627 32.2665C239.88 31.4475 240.13 30.6402 240.465 29.8472C243.193 23.5707 246.201 16.0388 248.473 9.58925C249.057 7.95621 249.23 5.85808 248.741 4.04681C248.252 2.23578 247.101 0.712134 245.037 0.225788C244.82 0.182542 244.626 0.139297 244.431 0.0960673H240.84C238.614 0.658275 237.122 2.40903 236.235 5.28609C236.235 5.28608 236.235 5.2861 236.235 5.28609L236.229 5.28427M221.496 39.4355L229.13 26.5165C229.758 26.0187 235.515 7.62177 236.229 5.28427M236.229 5.28427C237.116 2.40569 238.61 0.652574 240.839 0.0898438L236.229 5.28427ZM236.229 5.28427L240.839 0.0898438L236.229 5.28427Z" fill="url(#paint4_linear_187_36028)"/>
<path d="M213.698 0.219705L213.699 0.225844M213.698 0.219705C213.785 0.205276 213.874 0.190847 213.963 0.176418C214.141 0.14756 214.319 0.118702 214.477 0.0898438M213.698 0.219705C209.456 0.955582 208.136 5.3492 209.456 9.07188C210.798 12.8434 212.349 16.6218 213.898 20.3955C215.123 23.3785 216.346 26.3585 217.464 29.3301C218.064 30.915 218.711 32.4904 219.358 34.0674L214.477 0.0898438M213.699 0.225844C213.786 0.211425 213.875 0.197002 213.964 0.182575C214.141 0.153744 214.319 0.124902 214.478 0.0960673H217.593C218.771 0.333901 219.625 0.906518 220.319 1.83587C221.014 2.76567 221.549 4.05262 222.09 5.71906C222.24 6.16955 222.596 7.28967 223.072 8.78989C223.763 10.9656 224.708 13.9409 225.648 16.833C226.442 19.276 227.232 21.6595 227.864 23.4513C228.179 24.3471 228.455 25.0951 228.672 25.6287C228.78 25.8954 228.874 26.1087 228.95 26.26C228.988 26.3357 229.022 26.396 229.052 26.4399C229.066 26.4618 229.08 26.4798 229.092 26.4934C229.105 26.5071 229.116 26.5169 229.127 26.5221L229.124 26.5294L221.496 39.4355M213.699 0.225844C211.58 0.593397 210.192 1.87426 209.497 3.52815C208.802 5.18226 208.802 7.20972 209.462 9.0698C210.663 12.446 212.032 15.8277 213.417 19.2068C213.579 19.6023 213.742 19.9978 213.904 20.3932C215.129 23.3761 216.352 26.3562 217.47 29.328C218.069 30.9127 218.716 32.488 219.364 34.065C219.406 34.1678 219.449 34.2706 219.491 34.3734C220.181 36.0535 220.868 37.7364 221.496 39.4355M221.496 39.4355C221.561 39.6109 221.625 39.7845 221.689 39.956C222.35 41.7412 222.927 43.2998 223.865 44.4442C224.891 45.6978 226.35 46.4547 228.827 46.4655C230.617 46.471 231.939 46.1789 232.961 45.634C233.983 45.0892 234.706 44.2914 235.298 43.2843C235.891 42.2771 236.352 41.0609 236.85 39.6794C236.909 39.5151 236.969 39.3485 237.03 39.1797C237.479 37.9285 237.973 36.5534 238.626 35.0848C239.026 34.1869 239.307 33.2999 239.578 32.426C239.594 32.3728 239.611 32.3196 239.627 32.2665C239.88 31.4475 240.13 30.6402 240.465 29.8472C243.193 23.5707 246.201 16.0388 248.473 9.58925C249.057 7.95621 249.23 5.85808 248.741 4.04681C248.252 2.23578 247.101 0.712134 245.037 0.225788C244.82 0.182542 244.626 0.139297 244.431 0.0960673H240.84C238.614 0.658275 237.122 2.40903 236.235 5.28609M221.496 39.4355L229.13 26.5165C229.758 26.0187 235.515 7.62177 236.229 5.28427M214.477 0.0898438H217.594M236.235 5.28609C236.235 5.2861 236.235 5.28608 236.235 5.28609ZM236.235 5.28609L236.229 5.28427M236.229 5.28427C237.116 2.40569 238.61 0.652574 240.839 0.0898438M236.229 5.28427L240.839 0.0898438M240.839 0.0898438H244.432" stroke="url(#paint5_linear_187_36028)" stroke-width="0.0124472"/>
<path d="M176.056 17.3245C176.998 16.7291 177.3 16.5567 177.602 16.4812C177.721 16.4514 177.841 16.4367 178 16.4171C178.042 16.4119 178.087 16.4064 178.135 16.4002C178.367 16.3704 178.678 16.3244 179.149 16.2215C181.604 15.6701 183.696 16.308 185.339 17.6217C186.983 18.9356 188.178 20.9256 188.838 23.0783C189.13 24.0396 188.968 25.1906 188.603 26.3048C188.238 27.4188 187.67 28.4951 187.151 29.3064C183.712 34.6692 174.348 33.9566 172.249 25.7587C171.882 24.3429 172.201 22.64 172.928 21.0879C173.656 19.5358 174.791 18.1354 176.056 17.3245ZM176.053 17.3193C173.52 18.9425 171.508 22.9249 172.243 25.7602L188.844 23.0764C187.524 18.7694 184.061 15.1116 179.148 16.2155C178.579 16.3397 178.243 16.381 177.999 16.4109C177.437 16.48 177.367 16.4886 176.053 17.3193Z" fill="url(#paint6_linear_187_36028)"/>
<path d="M176.053 17.3193L176.056 17.3245M176.053 17.3193C173.52 18.9425 171.508 22.9249 172.243 25.7602L188.844 23.0764C187.524 18.7694 184.061 15.1116 179.148 16.2155C178.579 16.3397 178.243 16.381 177.999 16.4109C177.437 16.48 177.367 16.4886 176.053 17.3193ZM176.056 17.3245C176.998 16.7291 177.3 16.5567 177.602 16.4812C177.721 16.4514 177.841 16.4367 178 16.4171C178.042 16.4119 178.087 16.4064 178.135 16.4002C178.367 16.3704 178.678 16.3244 179.149 16.2215C181.604 15.6701 183.696 16.308 185.339 17.6217C186.983 18.9356 188.178 20.9256 188.838 23.0783C189.13 24.0396 188.968 25.1906 188.603 26.3048C188.238 27.4188 187.67 28.4951 187.151 29.3064C183.712 34.6692 174.348 33.9566 172.249 25.7587C171.882 24.3429 172.201 22.64 172.928 21.0879C173.656 19.5358 174.791 18.1354 176.056 17.3245Z" stroke="url(#paint7_linear_187_36028)" stroke-width="0.0124472"/>
<path d="M94.3539 16.2199C96.787 15.6576 98.9063 16.1658 100.588 17.3741C102.269 18.5825 103.513 20.4912 104.194 22.7303C104.767 24.6543 104.195 26.9087 102.975 28.7772C101.756 30.6456 99.89 32.1269 97.8793 32.5053C95.3592 32.992 93.2399 32.5593 91.5803 31.4187C89.9206 30.278 88.7201 28.4288 88.0386 26.0815C87.3252 23.6817 88.1681 21.6492 89.3583 19.5934C89.8366 18.7763 90.5353 18.2165 91.2523 17.642C91.313 17.5934 91.3738 17.5446 91.4346 17.4957C91.465 17.471 91.4947 17.4469 91.5237 17.4235C91.9012 17.1175 92.1539 16.9128 92.3444 16.7728C92.5495 16.6221 92.6821 16.5468 92.8205 16.5011C92.9429 16.4607 93.07 16.4434 93.2562 16.418C93.281 16.4146 93.3068 16.4111 93.3338 16.4074C93.5635 16.3756 93.8776 16.3282 94.3539 16.2199Z" fill="url(#paint8_linear_187_36028)" stroke="url(#paint9_linear_187_36028)" stroke-width="0.0124472"/>
<path d="M181.446 3.94043H99.201C86.0763 3.94043 75.4365 12.71 75.4365 23.5278C75.4365 34.3455 86.0763 43.1151 99.201 43.1151H181.446C194.571 43.1151 205.211 34.3455 205.211 23.5278C205.211 12.71 194.571 3.94043 181.446 3.94043Z" stroke="url(#paint10_linear_187_36028)" stroke-width="3"/>
</g>
<defs>
<linearGradient id="paint0_linear_187_36028" x1="0.313112" y1="23.4396" x2="66.115" y2="23.4396" gradientUnits="userSpaceOnUse">
<stop stop-color="#E53012"/>
<stop offset="0.447917" stop-color="#FF0200"/>
<stop offset="0.96212" stop-color="#EB6408"/>
</linearGradient>
<linearGradient id="paint1_linear_187_36028" x1="0.313112" y1="23.4396" x2="66.115" y2="23.4396" gradientUnits="userSpaceOnUse">
<stop stop-color="#E53012"/>
<stop offset="0.447917" stop-color="#FF0200"/>
<stop offset="0.96212" stop-color="#EB6408"/>
</linearGradient>
<linearGradient id="paint2_linear_187_36028" x1="250.602" y1="23.6638" x2="294.618" y2="23.6638" gradientUnits="userSpaceOnUse">
<stop stop-color="#E53012"/>
<stop offset="0.447917" stop-color="#FF0200"/>
<stop offset="0.96212" stop-color="#EB6408"/>
</linearGradient>
<linearGradient id="paint3_linear_187_36028" x1="250.602" y1="23.6638" x2="294.618" y2="23.6638" gradientUnits="userSpaceOnUse">
<stop stop-color="#E53012"/>
<stop offset="0.447917" stop-color="#FF0200"/>
<stop offset="0.96212" stop-color="#EB6408"/>
</linearGradient>
<linearGradient id="paint4_linear_187_36028" x1="208.965" y1="23.4119" x2="249.033" y2="23.4119" gradientUnits="userSpaceOnUse">
<stop stop-color="#E53012"/>
<stop offset="0.447917" stop-color="#FF0200"/>
<stop offset="0.96212" stop-color="#EB6408"/>
</linearGradient>
<linearGradient id="paint5_linear_187_36028" x1="208.965" y1="23.4119" x2="249.033" y2="23.4119" gradientUnits="userSpaceOnUse">
<stop stop-color="#E53012"/>
<stop offset="0.447917" stop-color="#FF0200"/>
<stop offset="0.96212" stop-color="#EB6408"/>
</linearGradient>
<linearGradient id="paint6_linear_187_36028" x1="172.09" y1="24.4307" x2="188.995" y2="24.4307" gradientUnits="userSpaceOnUse">
<stop stop-color="#E53012"/>
<stop offset="0.447917" stop-color="#FF0200"/>
<stop offset="0.96212" stop-color="#EB6408"/>
</linearGradient>
<linearGradient id="paint7_linear_187_36028" x1="172.09" y1="24.4307" x2="188.995" y2="24.4307" gradientUnits="userSpaceOnUse">
<stop stop-color="#E53012"/>
<stop offset="0.447917" stop-color="#FF0200"/>
<stop offset="0.96212" stop-color="#EB6408"/>
</linearGradient>
<linearGradient id="paint8_linear_187_36028" x1="87.7702" y1="24.3941" x2="104.424" y2="24.3941" gradientUnits="userSpaceOnUse">
<stop stop-color="#E53012"/>
<stop offset="0.447917" stop-color="#FF0200"/>
<stop offset="0.96212" stop-color="#EB6408"/>
</linearGradient>
<linearGradient id="paint9_linear_187_36028" x1="87.7702" y1="24.3941" x2="104.424" y2="24.3941" gradientUnits="userSpaceOnUse">
<stop stop-color="#E53012"/>
<stop offset="0.447917" stop-color="#FF0200"/>
<stop offset="0.96212" stop-color="#EB6408"/>
</linearGradient>
<linearGradient id="paint10_linear_187_36028" x1="75.4365" y1="23.6384" x2="205.211" y2="23.6384" gradientUnits="userSpaceOnUse">
<stop stop-color="#E53012"/>
<stop offset="0.447917" stop-color="#FF0200"/>
<stop offset="0.96212" stop-color="#EB6408"/>
</linearGradient>
<clipPath id="clip0_187_36028">
<rect width="295" height="47" fill="white"/>
</clipPath>
</defs>
</svg>
