<svg width="257" height="146" viewBox="0 0 257 146" fill="none" xmlns="http://www.w3.org/2000/svg">
<path d="M70.4468 132.347C72.8758 131.387 75.5858 131.387 78.0148 132.347H70.4468Z" fill="#99B57F"/>
<path d="M57.473 43.8828H69.598C71.085 49.3375 72.578 54.8105 74.129 60.4795L76.739 60.6445C78.915 55.0695 81.066 49.5905 83.255 43.9839H96.401C90.281 58.3565 84.276 72.5075 78.194 86.7155H65.552C64.984 81.5395 64.416 76.3625 63.822 70.9715L61.55 70.6745L54.333 86.7155H15.5127V78.4545H43.669C48.321 66.8125 52.897 55.3415 57.473 43.8828Z" fill="#9D7C0A"/>
<path d="M125.674 43.825H139.21C142.796 43.825 146.396 44.0273 149.963 43.7808C155.036 43.4268 159.81 47.1685 157.972 54.3485C156.983 58.2225 154.232 60.7065 150.952 62.7475C150.186 63.2285 149.382 63.6515 148.202 64.3215C149.216 64.9535 149.746 65.2695 150.295 65.5855C152.79 66.9885 153.786 69.2325 153.275 72.0825C152.554 76.1535 150.288 79.2375 147.136 81.8165C142.898 85.2735 138.303 87.2515 132.554 86.9545C125.304 86.5755 118.022 86.8595 110.754 86.8595H107.563L125.674 43.825ZM128.278 68.6135L124.015 77.7395C127.116 77.7395 129.822 77.7395 132.528 77.7395C136.995 77.7395 139.548 75.6725 140.665 71.1985C139.51 68.8215 139.305 68.6705 137.085 68.6195C134.187 68.6135 131.296 68.6135 128.278 68.6135ZM134.876 52.1045C133.645 54.9615 132.503 57.6095 131.36 60.2705C131.615 60.4105 131.888 60.5175 132.171 60.5865C134.487 60.5865 136.817 60.4595 139.114 60.6625C141.737 60.8965 144.468 58.3935 145.209 56.2385C146 53.8865 144.979 52.2565 142.452 52.1485C140.046 52.0415 137.64 52.1235 134.876 52.1235V52.1045Z" fill="#9D7C09"/>
<path d="M217.016 43.9268H243.372C242.096 46.8661 240.858 49.6151 239.652 52.3071H226.001C220.296 63.7471 214.552 75.2351 208.771 86.7721H182.688L187.188 77.8161H200.391C205.937 66.5151 211.438 55.3031 217.016 43.9268Z" fill="#9D7D0B"/>
<path d="M193.295 52.3135L176.16 86.6965H150.633C151.38 83.5365 153.096 80.9065 154.207 77.8475H167.685L184.348 43.9648H210.615C209.339 46.7715 208.062 49.4575 206.786 52.3075L193.295 52.3135Z" fill="#9D7D0B"/>
<path d="M99.9238 86.753H87.6328C93.4718 72.336 99.2148 58.166 104.978 43.958H117.882L99.9238 86.753Z" fill="#9D7C0A"/>
<path d="M140.697 91.2656L139.42 93.0976H14.1723L14 91.2656H140.697Z" fill="#67903F"/>
<path d="M14.0508 96.5052L14.1912 94.6602H137.799C137.812 94.9092 137.771 95.1582 137.678 95.3912C137.586 95.6232 137.444 95.8332 137.262 96.0072C137.081 96.1802 136.864 96.3142 136.627 96.3972C136.389 96.4812 136.136 96.5142 135.885 96.4932C135.208 96.4932 134.526 96.4932 133.849 96.4932H14.0508V96.5052Z" fill="#4E7F20"/>
<path d="M29.7627 38.5105L29.6797 37.1895H171.52V38.5105H29.7627Z" fill="#3D730B"/>
<path d="M30.2476 35.1163L30.3816 33.6689H171.329C171.425 34.0797 171.52 34.5095 171.661 35.1163H30.2476Z" fill="#356D00"/>
<path d="M30.8027 31.7665L31.4857 30.2559H170.946L171.118 31.7665H30.8027Z" fill="#3D730B"/>
<path d="M169.753 26.8359L170.391 27.8661C170.065 28.6119 36.598 28.8078 32.124 28.2011L32.762 26.8359H169.753Z" fill="#467915"/>
<path d="M14.319 99.7287L14.1914 98.1367H135.381C135.387 98.3487 135.349 98.5597 135.269 98.7567C135.189 98.9537 135.069 99.1327 134.917 99.2817C134.764 99.4307 134.582 99.5467 134.381 99.6227C134.181 99.6987 133.967 99.7327 133.753 99.7227C133.268 99.7227 132.783 99.7227 132.298 99.7227H14.319V99.7287Z" fill="#477A17"/>
<path d="M14.4785 102.997L14.5614 101.6H117.697C117.135 102.134 116.467 102.547 115.735 102.813C115.004 103.078 114.224 103.191 113.447 103.142C81.0777 103.117 48.7147 103.117 16.3547 103.142C15.7931 103.117 15.2315 103.047 14.4785 102.997Z" fill="#467916"/>
<path d="M14.1274 89.6158C16.3035 88.4908 139.695 88.4908 141.858 89.1988C141.874 89.2928 141.874 89.3888 141.858 89.4828C141.826 89.5588 141.724 89.6598 141.66 89.6598C99.5026 89.7268 57.3446 89.7858 15.1867 89.8368C14.8268 89.7998 14.4717 89.7258 14.1274 89.6158Z" fill="#99B57F"/>
<path d="M111.858 105.524C111.356 105.997 110.743 106.339 110.075 106.52C109.407 106.701 108.704 106.715 108.029 106.561C85.6537 106.561 63.2837 106.561 40.9177 106.561C39.3927 106.456 37.8757 106.245 36.3807 105.929C35.1597 105.68 33.9227 105.511 32.6787 105.423C27.6437 105.366 22.6087 105.423 17.5736 105.423H14.7656V105.006H111.641L111.858 105.524Z" fill="#3F740D"/>
<path d="M90.1527 21.6918H35.8257L37.2807 19.8842H41.3777C55.2387 19.8842 69.1017 19.8842 82.9667 19.8842C85.4857 19.8143 87.9737 20.4402 90.1527 21.6918Z" fill="#4E7F20"/>
<path d="M109.567 108.393L108.705 109.955H106.912C86.7447 109.955 66.5807 109.955 46.4187 109.955C44.8237 109.955 43.3557 109.86 42.1367 108.381L109.567 108.393Z" fill="#366D01"/>
<path d="M166.97 21.7929H119.579C121.035 20.6363 122.349 19.8968 124.104 19.8968C137.45 19.9221 150.797 19.9221 164.143 19.8968C165.426 19.8589 166.383 20.137 166.97 21.7929Z" fill="#4F7F21"/>
<path d="M96.624 24.9024C95.756 24.9593 94.889 25.0604 94.021 25.0604H33.79L34.575 23.2844H36.859C54.792 23.2844 72.731 23.2465 90.664 23.335C92.629 23.335 94.589 24.0934 96.548 24.4979C96.553 24.6358 96.579 24.7721 96.624 24.9024Z" fill="#467915"/>
<path d="M107.486 111.794C107.049 112.353 106.543 112.857 105.98 113.292C105.515 113.424 105.027 113.45 104.551 113.368C86.358 113.368 68.16 113.368 49.955 113.368C48.627 113.368 47.479 113.222 46.687 111.775L107.486 111.794Z" fill="#3E730B"/>
<path d="M108.335 24.4797C115.572 22.71 122.949 23.3421 130.282 23.3041C142.19 23.2473 154.105 23.3041 166.019 23.3041C167.104 23.3041 168.425 22.9502 168.834 24.8084C168.417 24.9307 167.99 25.0153 167.557 25.0612C148.284 25.0612 129.012 25.0612 109.739 25.0612C109.26 25.0612 108.775 24.9917 108.29 24.9537C108.29 24.7894 108.316 24.6377 108.335 24.4797Z" fill="#467915"/>
<path d="M98.7749 121.805C97.9579 123.701 96.5159 123.651 95.0419 123.651C85.4689 123.651 75.8969 123.651 66.3239 123.651H56.8339L55.3789 121.818L98.7749 121.805Z" fill="#4E7F20"/>
<path d="M104.589 115.245C104.251 116.749 103.229 116.812 102.094 116.799C99.471 116.761 96.854 116.799 94.238 116.799H53.809C52.488 116.799 51.021 117.128 50.293 115.264L104.589 115.245Z" fill="#457815"/>
<path d="M101.864 119.075C101.212 119.498 100.529 119.874 99.8216 120.2C99.3456 120.293 98.8576 120.304 98.3786 120.231C84.4366 120.231 70.4926 120.231 56.5466 120.231C55.3856 120.231 53.9236 120.699 53.4966 118.917C55.7426 118.304 93.6376 118.07 101.864 119.075Z" fill="#457815"/>
<path d="M94.8496 125.338C94.4716 125.898 93.9526 126.35 93.3436 126.65C92.7346 126.951 92.0576 127.089 91.3786 127.051C81.3076 127.051 71.2376 127.051 61.1676 127.051C59.8906 127.051 58.8636 126.874 58.2886 125.635C60.1146 124.959 88.7936 124.706 94.8496 125.338Z" fill="#558429"/>
<path d="M39.3286 18.4371C40.1716 16.9076 41.0966 16.4336 42.3536 16.4336C50.2676 16.4336 58.1806 16.4336 66.0936 16.4336C67.6696 16.4336 68.9786 17.2173 70.2676 18.4118L39.3286 18.4371Z" fill="#679140"/>
<path d="M89.2656 128.523C87.4466 129.892 85.2136 130.612 82.9286 130.565C77.4146 130.464 71.9016 130.514 66.3806 130.565C64.7916 130.565 63.3496 130.356 62.3286 129.054C62.3516 128.934 62.3856 128.815 62.4306 128.7C62.4756 128.631 62.5646 128.549 62.6346 128.549C71.4356 128.517 80.2356 128.523 89.2656 128.523Z" fill="#689141"/>
<path d="M50.4589 47.1748L49.8209 48.8748H29.3549L29.1699 47.1748H50.4589Z" fill="#4E7F20"/>
<path d="M29.3667 52.3825V50.5625H48.7167C49.2017 51.6175 48.6077 52.0545 47.8227 52.3195C47.4477 52.4015 47.0627 52.4225 46.6807 52.3825H29.3667Z" fill="#57852C"/>
<path d="M29.3608 55.8023L29.8588 53.9062H47.8228L46.9998 55.8023H29.3608Z" fill="#679140"/>
<path d="M28.2188 59.07L28.8187 57.332H46.3107L45.7878 59.07H28.2188Z" fill="#4E7F20"/>
<path d="M53.101 40.5762L52.565 41.973H29.291V40.5762H53.101Z" fill="#477917"/>
<path d="M163.747 18.2409C157.478 18.648 151.189 18.686 144.915 18.3546C144.915 16.6229 145.84 16.4586 146.995 16.4586C149.995 16.4586 153.001 16.4586 156 16.4586C157.551 16.4586 159.102 16.5091 160.646 16.4586C161.954 16.3574 162.822 16.9326 163.747 18.2409Z" fill="#679140"/>
<path d="M51.8819 43.9648L51.0589 45.4943H29.2399L29.1499 43.9648H51.8819Z" fill="#467915"/>
<path d="M40.8546 70.9006L40.3376 72.4806H21.5366C21.6006 71.2616 22.2256 70.8886 23.2656 70.8946C29.0606 70.9076 34.8616 70.9006 40.8546 70.9006Z" fill="#366D01"/>
<path d="M45.124 14.3732C47.81 13.3686 50.673 12.9069 53.542 13.0155C56.412 13.124 59.23 13.8006 61.831 15.0053H45.188L45.124 14.3732Z" fill="#608C37"/>
<path d="M42.1366 67.5703L41.7416 69.0743H23.3486L24.0956 67.5703H42.1366Z" fill="#3F740D"/>
<path d="M25.1489 65.062C25.7429 64.733 26.3229 64.12 26.9169 64.107C32.4239 64.038 37.9249 64.063 43.4259 64.063C43.5729 65.422 42.9799 65.801 41.9269 65.795H25.3979L25.1489 65.062Z" fill="#477A17"/>
<path d="M44.849 60.7568L44.639 62.3938H26.77L27.555 60.7568H44.849Z" fill="#477A17"/>
<path d="M127.295 18.5008C132.834 16.276 138.374 16.7311 143.919 18.5008H127.295Z" fill="#759B52"/>
<path d="M158.202 14.9485H147.851C149.957 12.3635 154.526 12.3635 158.202 14.9485Z" fill="#608C37"/>
<path d="M108.335 24.4785C108.335 24.6365 108.29 24.7882 108.265 24.9462C107.952 25.1105 107.626 25.4139 107.327 25.4139C104.059 25.4518 100.794 25.4518 97.5309 25.4139C97.2239 25.4139 96.9238 25.0789 96.6238 24.9019C96.5788 24.7736 96.5539 24.6395 96.5479 24.5038C98.8009 24.6807 101.047 24.9841 103.3 25.0031C104.987 24.9284 106.669 24.7532 108.335 24.4785Z" fill="#99B57F"/>
</svg>
