<svg width="304" height="72" viewBox="0 0 304 72" fill="none" xmlns="http://www.w3.org/2000/svg">
<mask id="mask0_187_36139" style="mask-type:luminance" maskUnits="userSpaceOnUse" x="0" y="0" width="304" height="72">
<path d="M303.017 0.375977H0.0698242V71.1947H303.017V0.375977Z" fill="white"/>
</mask>
<g mask="url(#mask0_187_36139)">
<path d="M86.6069 45.7052C81.205 56.2787 68.0804 60.5185 57.1779 55.2248C46.2753 49.9312 41.8383 37.1674 47.2437 26.5939C52.6105 16.0924 65.7316 11.8527 76.6341 17.1463C87.5366 22.44 91.9737 35.2037 86.6069 45.7052Z" fill="#5034C4"/>
<path d="M90.0759 14.9761C91.015 13.1382 87.3536 9.50046 81.8979 6.85102C76.4421 4.20157 71.258 3.54371 70.3188 5.38163C69.3797 7.21956 73.0411 10.8573 78.4968 13.5067C83.9526 16.1561 89.1367 16.814 90.0759 14.9761Z" fill="#4431B5"/>
<path d="M127.019 56.4262H121.628V49.1929C117.356 54.7269 112.176 57.4938 106.08 57.4938C102.957 57.4938 100.143 56.6699 97.643 55.0187C95.1427 53.3708 93.3714 51.2115 92.3326 48.5441C91.2902 45.8801 90.769 41.9562 90.769 36.7793V15.9893H96.0795V35.2551C96.0795 39.9754 96.3013 43.1749 96.745 44.8502C97.1852 46.5255 97.8648 47.9468 98.7769 49.114C99.689 50.2812 100.848 51.1703 102.253 51.7779C103.658 52.3856 105.362 52.6911 107.369 52.6911C109.377 52.6911 111.342 52.2105 113.268 51.2458C115.194 50.2812 116.835 48.9354 118.191 47.2087C119.543 45.4819 120.455 43.707 120.924 41.8773C121.392 40.0475 121.628 36.3708 121.628 30.8334V15.9893H127.019V56.4262Z" fill="#5034C4"/>
<path d="M173.577 24.3655L169.358 26.9539C165.713 22.2336 160.713 19.8717 154.36 19.8717C149.36 19.8717 145.169 21.4337 141.781 24.5543C138.394 27.6748 136.703 31.5472 136.703 36.168C136.703 40.7888 138.369 44.747 141.704 48.0495C145.035 51.352 149.254 52.9998 154.36 52.9998C160.452 52.9998 165.453 50.638 169.358 45.9176L173.577 48.6606C171.492 51.6061 168.693 53.8649 165.178 55.4372C161.664 57.013 157.875 57.7991 153.811 57.7991C147.405 57.7991 142.053 55.7428 137.756 51.6301C133.46 47.5174 131.312 42.4915 131.312 36.5525C131.312 30.6135 133.485 25.5224 137.834 21.2827C142.183 17.0429 147.768 14.9248 154.589 14.9248C158.6 14.9248 162.308 15.7624 165.72 17.4377C169.129 19.113 171.749 21.4234 173.57 24.3689L173.577 24.3655Z" fill="#5034C4"/>
<path d="M177.715 0.375977H183.106V23.2224C187.374 17.6884 192.558 14.9215 198.653 14.9215C201.777 14.9215 204.591 15.7488 207.091 17.3966C209.591 19.0479 211.359 21.2038 212.401 23.8712C213.444 26.5352 213.965 30.4591 213.965 35.636V56.426H208.573V37.1602C208.573 32.9995 208.443 30.1295 208.183 28.5538C207.922 26.9815 207.348 25.4813 206.464 24.06C205.577 22.6388 204.393 21.5608 202.911 20.8227C201.425 20.0881 199.629 19.7173 197.519 19.7173C195.41 19.7173 193.392 20.2014 191.466 21.1626C189.54 22.1273 187.899 23.473 186.543 25.1998C185.187 26.9265 184.279 28.7014 183.81 30.5312C183.342 32.3609 183.106 36.0411 183.106 41.575V56.426H177.715V0.375977Z" fill="#5034C4"/>
<path d="M254.427 43.3297L258.959 45.616C254.479 53.7384 247.866 57.7997 239.115 57.7997C232.865 57.7997 227.709 55.7055 223.649 51.5173C219.585 47.3291 217.557 42.2895 217.557 36.3985C217.557 30.5076 219.599 25.4577 223.688 21.242C227.776 17.0297 232.829 14.9219 238.844 14.9219C244.859 14.9219 249.909 16.8752 254.001 20.7854C258.089 24.6955 260.212 30.0269 260.367 36.7796H223.026C223.18 41.6544 224.758 45.5749 227.751 48.5444C230.745 51.5139 234.379 53.0004 238.65 53.0004C245.679 53.0004 250.94 49.7768 254.43 43.3297H254.427ZM254.427 32.2858C253.698 28.4272 251.874 25.4062 248.958 23.2228C246.042 21.0394 242.682 19.9478 238.879 19.9478C231.069 19.9478 225.962 24.0604 223.568 32.2858H254.423H254.427Z" fill="#5034C4"/>
<path d="M262.396 15.9895H267.865V21.853C269.323 19.4671 270.742 17.7163 272.122 16.5972C273.503 15.4815 275.038 14.9219 276.732 14.9219C278.426 14.9219 280.13 15.3785 281.848 16.2916L279.035 20.7099C278.253 20.2533 277.447 20.0233 276.612 20.0233C274.996 20.0233 273.474 20.8369 272.041 22.4607C270.608 24.0845 269.555 26.1786 268.879 28.743C268.203 31.3074 267.865 35.966 267.865 42.7186V56.4265H262.396V15.9895Z" fill="#5034C4"/>
<path d="M302.939 20.4043L299.502 23.8304C296.639 21.1389 293.85 19.7932 291.142 19.7932C289.37 19.7932 287.888 20.339 286.69 21.4307C285.493 22.5224 284.895 23.8681 284.895 25.4679C284.895 27.0677 285.532 28.4374 286.807 29.5806C288.081 30.7238 290.282 32.0935 293.409 33.6933C296.533 35.293 298.917 37.0198 300.558 38.8702C302.199 40.724 303.02 42.9966 303.02 45.6846C303.02 49.0867 301.808 51.9567 299.385 54.2911C296.963 56.6255 293.984 57.7927 290.441 57.7927C288.099 57.7927 285.845 57.2846 283.683 56.2685C281.521 55.2523 279.686 53.8311 278.176 52.0047L281.535 48.3486C284.296 51.3456 287.184 52.8424 290.205 52.8424C292.339 52.8424 294.163 52.1558 295.674 50.786C297.185 49.4163 297.938 47.8028 297.938 45.949C297.938 44.0952 297.273 42.5744 295.945 41.3797C294.617 40.1885 292.402 38.829 289.303 37.3048C286.205 35.7805 283.887 34.119 282.352 32.3167C280.817 30.5144 280.049 28.1799 280.049 25.31C280.049 22.44 281.13 19.9923 283.292 17.96C285.454 15.9311 288.317 14.915 291.885 14.915C295.452 14.915 299.135 16.7413 302.939 20.3974V20.4043Z" fill="#5034C4"/>
<path d="M0.0698242 16.0232H5.3767V23.4041C9.59193 17.774 15.0819 14.959 21.8467 14.959C27.6747 14.959 32.6964 17.0531 36.9116 21.2379C41.1268 25.4227 43.2362 30.4588 43.2362 36.3429C43.2362 42.227 41.155 47.2769 36.9926 51.4858C32.8302 55.698 27.8332 57.8024 22.0051 57.8024C15.6559 57.8024 10.1131 55.0389 5.38022 49.5084V71.1944H0.0698242V16.0232ZM37.9293 36.4185C37.9293 31.9041 36.3305 28.0352 33.1295 24.815C29.9285 21.5949 26.0126 19.9814 21.3818 19.9814C16.7511 19.9814 12.8598 21.5674 9.71166 24.7361C6.56344 27.9081 4.98934 31.8252 4.98934 36.494C4.98934 41.1628 6.60218 45.0798 9.82786 48.2519C13.0535 51.424 16.9166 53.0066 21.4206 53.0066C25.9245 53.0066 29.7982 51.3965 33.052 48.1729C36.3024 44.9528 37.9293 41.0324 37.9293 36.415V36.4185Z" fill="#5034C4"/>
</g>
</svg>
