<svg width="34" height="34" viewBox="0 0 34 34" fill="none" xmlns="http://www.w3.org/2000/svg">
<path d="M1.771 27.6257C1.771 25.0828 3.83235 23.0215 6.37516 23.0215C8.91797 23.0215 10.9793 25.0828 10.9793 27.6257C10.9793 30.1685 8.91797 32.2298 6.37516 32.2298C3.83235 32.2298 1.771 30.1685 1.771 27.6257Z" fill="#95D5E9"/>
<path d="M23.021 27.6257C23.021 25.0828 25.0824 23.0215 27.6252 23.0215C30.168 23.0215 32.2293 25.0828 32.2293 27.6257C32.2293 30.1685 30.168 32.2298 27.6252 32.2298C25.0824 32.2298 23.021 30.1685 23.021 27.6257Z" fill="#95D5E9"/>
<path opacity="0.4" d="M9.5625 9.20898C9.5625 5.10137 12.8924 1.77148 17 1.77148C21.1076 1.77148 24.4375 5.10137 24.4375 9.20898C24.4375 13.3166 21.1076 16.6465 17 16.6465C12.8924 16.6465 9.5625 13.3166 9.5625 9.20898Z" fill="#95D5E9"/>
<path fill-rule="evenodd" clip-rule="evenodd" d="M19.2028 5.90507C19.8538 6.33907 20.0297 7.21864 19.5957 7.86963L18.1791 9.99463C17.7451 10.6456 16.8655 10.8215 16.2145 10.3875C15.5635 9.95355 15.3876 9.07398 15.8216 8.42298L17.2382 6.29798C17.6722 5.64699 18.5518 5.47107 19.2028 5.90507Z" fill="#95D5E9"/>
<path d="M12.4287 18.417C10.2197 18.417 8.33866 18.5806 7.01097 19.4845C5.73686 20.3519 5.23306 21.6866 5.03613 23.2189C5.4599 23.0903 5.90953 23.0212 6.37531 23.0212C6.90648 23.0212 7.41665 23.1111 7.89141 23.2766C8.04942 22.3579 8.32157 22.0198 8.60547 21.8266C9.12299 21.4742 10.1498 21.2503 12.4287 21.2503H21.572C23.851 21.2503 24.8777 21.4742 25.3953 21.8266C25.6792 22.0198 25.9513 22.3578 26.1093 23.2766C26.584 23.1111 27.0942 23.0212 27.6253 23.0212C28.0911 23.0212 28.5408 23.0903 28.9646 23.219C28.7677 21.6866 28.2639 20.3519 26.9898 19.4845C25.6621 18.5806 23.7811 18.417 21.572 18.417H12.4287Z" fill="#95D5E9"/>
</svg>
