<svg width="77" height="65" viewBox="0 0 77 65" fill="none" xmlns="http://www.w3.org/2000/svg">
<path fill-rule="evenodd" clip-rule="evenodd" d="M8.58166 54.4344L8.56286 54.4122C5.42577 50.7047 4 45.9286 4 40.3898C4 33.346 6.06039 26.7584 10.1082 20.6866C14.1079 14.6871 19.1094 10.1634 25.1216 7.2213L27.6173 6L32.0951 13.6123L30.0657 15.2359C27.9866 16.8992 26.0872 18.9456 24.3754 21.3996C23.2638 23.1114 22.2853 25.1342 21.4567 27.4894L22.2209 27.7077L22.2561 27.7187C26.3663 29.0032 29.7834 30.9926 32.3211 33.7996C35.0797 36.7178 36.4457 40.3203 36.4457 44.418C36.4457 48.8813 34.9481 52.7345 31.8368 55.6976L31.809 55.724L31.7806 55.7498C28.7626 58.4803 25.1211 59.8528 21.011 59.8528C16.0243 59.8528 11.7892 58.0793 8.60088 54.4562L8.58166 54.4344ZM30.1181 35.8363C28.0165 33.5011 25.0975 31.7497 21.3613 30.5822L17.6834 29.5313C17.7851 29.1585 17.89 28.7912 17.9982 28.4293C18.1788 27.8256 18.3685 27.2371 18.5673 26.6638C19.481 24.0292 20.5875 21.7158 21.8867 19.7236C23.7548 17.0382 25.8565 14.7614 28.1916 12.8933L26.4402 9.91595C20.9526 12.6014 16.3407 16.7463 12.6044 22.3507C8.86813 27.9551 7 33.9681 7 40.3898C7 45.4105 8.28434 49.4386 10.853 52.4743C13.4217 55.3933 16.8077 56.8528 21.011 56.8528C24.397 56.8528 27.3159 55.7436 29.7679 53.5252C32.2198 51.19 33.4457 48.1543 33.4457 44.418C33.4457 41.032 32.3365 38.1714 30.1181 35.8363ZM45.3605 54.4344L45.3417 54.4122C42.2046 50.7047 40.7788 45.9286 40.7788 40.3898C40.7788 33.346 42.8392 26.7584 46.8871 20.6866C50.8868 14.6871 55.8882 10.1634 61.9004 7.2213L64.3961 6L68.874 13.6123L66.8446 15.2359C64.7654 16.8992 62.866 18.9457 61.1541 21.3997C60.0426 23.1116 59.0641 25.1343 58.2355 27.4894L58.9997 27.7077L59.0349 27.7187C63.1451 29.0032 66.5622 30.9925 69.0999 33.7995C71.8585 36.7178 73.2246 40.3203 73.2246 44.418C73.2246 48.8813 71.7269 52.7345 68.6157 55.6976L68.5879 55.724L68.5594 55.7498C65.5415 58.4803 61.8999 59.8528 57.7898 59.8528C52.8032 59.8528 48.568 58.0793 45.3797 54.4562L45.3605 54.4344ZM66.897 35.8363C64.7953 33.5011 61.8764 31.7497 58.1401 30.5822L54.4622 29.5313C54.5639 29.1585 54.6689 28.7911 54.7771 28.4292C54.9577 27.8255 55.1474 27.2371 55.3461 26.6638C56.2598 24.0292 57.3663 21.7158 58.6655 19.7236C60.5337 17.0382 62.6353 14.7614 64.9705 12.8933L63.2191 9.91595C57.7315 12.6014 53.1195 16.7463 49.3832 22.3507C45.647 27.9551 43.7788 33.9681 43.7788 40.3898C43.7788 45.4105 45.0632 49.4386 47.6319 52.4743C50.2006 55.3933 53.5865 56.8528 57.7898 56.8528C61.1758 56.8528 64.0948 55.7436 66.5467 53.5252C68.9986 51.19 70.2246 48.1543 70.2246 44.418C70.2246 41.032 69.1154 38.1714 66.897 35.8363Z" fill="#2E096F"/>
</svg>
