<svg width="352" height="70" viewBox="0 0 352 70" fill="none" xmlns="http://www.w3.org/2000/svg">
<g clip-path="url(#clip0_1040_48246)">
<path d="M35.4361 0.597656C36.0242 0.673282 36.6124 0.774119 37.2006 0.811932C45.7872 1.52016 53.7904 5.47217 59.605 11.8753C65.4196 18.2784 68.6155 26.6591 68.5518 35.3364C68.4879 44.0136 65.1691 52.3457 59.2611 58.6614C53.353 64.977 45.2925 68.8092 36.6964 69.3893C28.1003 69.9694 19.6043 67.2544 12.9126 61.789C6.22082 56.3236 1.82818 48.5118 0.615736 39.9207C-0.596715 31.3295 1.46068 22.5944 6.37527 15.4673C11.2899 8.34014 18.6982 3.34814 27.1142 1.49256C28.9663 1.07661 30.8685 0.975789 32.7581 0.723702C32.8883 0.698844 33.0145 0.656446 33.1335 0.597656H35.4361ZM28.2656 61.4386L29.0414 60.9344L50.3153 45.9479C52.0893 44.6832 53.4622 42.9286 54.2682 40.8956C55.0742 38.8626 55.279 36.6382 54.8579 34.4906C54.5279 32.6145 53.7421 30.8497 52.5705 29.3538C51.3989 27.8579 49.8779 26.6772 48.1432 25.9172C46.4085 25.1572 44.514 24.8414 42.6287 24.998C40.7434 25.1545 38.9259 25.7786 37.3382 26.8146C34.5351 28.554 31.8946 30.5959 29.2041 32.4613C28.7793 32.8158 28.4193 33.2423 28.1404 33.7217C27.9082 34.1184 27.5547 34.4285 27.1328 34.6057C26.711 34.7829 26.2434 34.8178 25.8003 34.7049C25.307 34.5802 24.8632 34.3072 24.5279 33.9222C24.1925 33.5371 23.9816 33.0584 23.9232 32.5495C23.8843 32.151 23.9774 31.7508 24.1879 31.4111C24.3983 31.0714 24.7144 30.8114 25.087 30.6715C25.4624 30.4698 25.8629 30.3312 26.2382 30.1296C26.8095 29.8715 27.3615 29.5724 27.8901 29.2346C31.3189 26.865 34.7395 24.4786 38.1516 22.0754C38.6772 21.7098 39.1903 21.3065 39.6908 20.9032C39.9154 20.7368 40.0934 20.5147 40.2075 20.2584C40.3215 20.0023 40.3677 19.7206 40.3416 19.4411C40.3416 16.0253 40.3416 12.6096 40.3416 9.19375V8.50055L39.766 8.86611C35.1858 12.0676 30.5973 15.2691 26.0005 18.4705C23.2474 20.399 20.4443 22.2518 17.8163 24.3568C16.0963 25.6254 14.7941 27.3848 14.0778 29.4072C13.3617 31.4297 13.2646 33.622 13.7993 35.7006C14.1782 37.5741 15.0107 39.3245 16.2229 40.7959C17.4351 42.2675 18.9894 43.4145 20.7476 44.1354C22.5059 44.8563 24.4137 45.1285 26.3016 44.928C28.1895 44.7275 29.9989 44.0603 31.5692 42.9859C32.6204 42.2926 33.6591 41.5868 34.6602 40.818C36.7501 39.2298 39.1778 38.0576 40.8422 35.8771C41.1567 35.5411 41.5726 35.3194 42.0254 35.2464C42.4781 35.1734 42.9421 35.2534 43.3449 35.4737C43.7643 35.7063 44.1023 36.0635 44.3128 36.4966C44.5233 36.9296 44.5961 37.4175 44.5213 37.8937C44.4454 38.3364 44.2408 38.7463 43.9333 39.0716C43.6259 39.397 43.2295 39.6231 42.7943 39.7213C42.3252 39.8326 41.8772 40.0199 41.4678 40.276C37.1505 43.2884 32.8582 46.326 28.5533 49.3763C28.392 49.5077 28.2885 49.6979 28.2656 49.9057C28.2656 53.6743 28.2656 57.506 28.2656 61.4386Z" fill="black"/>
<path d="M116.177 8.81543H125.187V24.1549C126.119 23.2814 127.106 22.4688 128.14 21.7222C130.373 20.1832 132.983 19.2926 135.685 19.148C138.387 19.0035 141.076 19.6107 143.458 20.903C145.012 21.728 146.352 22.9117 147.365 24.3575C148.378 25.8033 149.038 27.4702 149.289 29.2218C149.608 30.8366 149.772 32.4785 149.777 34.1249C149.777 41.2842 149.777 48.456 149.777 55.5522V55.9933H140.868V55.3631C140.868 49.603 140.868 43.8428 140.868 38.0826C140.939 36.0883 140.707 34.0946 140.179 32.1712C139.875 30.8031 139.103 29.5863 137.998 28.7338C136.893 27.8811 135.525 27.4471 134.135 27.5077C133.024 27.4836 131.915 27.5936 130.831 27.8354C129.404 28.1789 128.117 28.9575 127.144 30.065C126.172 31.1725 125.563 32.5551 125.4 34.0241C125.158 35.3205 125.041 36.6374 125.049 37.9566C125.049 43.7167 125.049 49.4769 125.049 55.237V55.9556H116.177V8.81543Z" fill="black"/>
<path d="M293.877 40.2756H267.46C267.545 41.182 267.683 42.0826 267.873 42.9729C268.325 44.7283 269.312 46.2969 270.694 47.4588C272.077 48.6207 273.786 49.3175 275.581 49.4515C277.393 49.6652 279.229 49.5022 280.975 48.9725C282.005 48.7015 282.959 48.1958 283.764 47.4943C284.569 46.7928 285.204 45.9142 285.618 44.9266C285.679 44.7087 285.817 44.5208 286.006 44.3979C286.195 44.275 286.421 44.2255 286.644 44.2585C289.147 44.2585 291.537 44.2585 294.027 44.2585C293.978 45.3894 293.705 46.4991 293.226 47.523C292.334 49.5663 291.004 51.3854 289.332 52.8498C287.66 54.3143 285.686 55.3877 283.553 55.9931C276.683 58.0476 270.338 57.0897 264.782 52.3757C261.594 49.6611 259.565 45.8163 259.113 41.6368C258.392 37.1219 259.124 32.4932 261.203 28.4275C264.556 22.0372 269.963 19.1886 277.096 19.2642C280.805 19.214 284.428 20.3918 287.407 22.6169C289.088 23.881 290.496 25.4757 291.545 27.3044C292.595 29.1331 293.265 31.1576 293.514 33.2549C293.827 35.4355 293.815 37.6665 293.952 39.8848C293.941 40.0174 293.916 40.1484 293.877 40.2756ZM267.81 33.7213H285.005C284.642 30.8349 283.428 28.5031 280.625 27.4192C279.333 26.8735 277.946 26.5925 276.545 26.5925C275.144 26.5925 273.757 26.8735 272.465 27.4192C269.775 28.5536 268.574 30.9105 267.848 33.7213H267.81Z" fill="#010101"/>
<path d="M111.297 28.4267H102.136C102.049 28.0737 101.986 27.7082 101.886 27.3427C101.751 26.6118 101.469 25.9163 101.058 25.2983C100.648 24.6804 100.117 24.1527 99.4978 23.7473C98.8789 23.342 98.1848 23.0674 97.4575 22.9401C96.7302 22.8127 95.985 22.8355 95.2662 23.0068C94.3733 23.1492 93.5025 23.4076 92.6762 23.7757C91.9813 24.0716 91.3914 24.5714 90.9825 25.2099C90.5745 25.8484 90.3662 26.596 90.3858 27.3552C90.35 28.0629 90.5216 28.7655 90.8801 29.3752C91.2386 29.985 91.767 30.4748 92.4005 30.7836C94.0096 31.5931 95.7314 32.1539 97.5062 32.4474C100.291 32.9437 103.029 33.6773 105.69 34.6405C107.075 35.1071 108.334 35.8905 109.367 36.9293C110.401 37.968 111.181 39.2339 111.647 40.6276C112.361 42.9312 112.352 45.4003 111.622 47.6987C110.892 49.997 109.476 52.0128 107.567 53.4714C104.936 55.4564 101.807 56.6652 98.5323 56.9628C94.5798 57.5106 90.5548 56.8474 86.9823 55.0595C85.2229 54.2556 83.6848 53.032 82.5007 51.4947C81.3168 49.9573 80.5226 48.1526 80.1868 46.2365C80.0492 45.518 80.0116 44.787 79.9365 44.0181H89.422C89.2248 44.9882 89.4144 45.9974 89.9479 46.8289C90.5523 47.731 91.4298 48.412 92.4508 48.7699C94.9469 49.8099 97.7503 49.8099 100.246 48.7699C100.898 48.5329 101.479 48.1353 101.938 47.6134C102.398 47.0916 102.719 46.4622 102.875 45.7827C103.145 45.0662 103.13 44.2718 102.831 43.5666C102.533 42.8614 101.974 42.3004 101.273 42.0015C99.8768 41.3723 98.4281 40.8704 96.9428 40.5016C94.2273 39.7579 91.4495 39.2411 88.7468 38.3714C86.4846 37.7401 84.4863 36.3867 83.0525 34.5145C81.3531 32.1121 80.6627 29.1316 81.1313 26.2198C81.5999 23.3079 83.1895 20.6996 85.555 18.9608C87.9085 17.2853 90.6402 16.2281 93.5017 15.8854C96.9513 15.3031 100.494 15.7094 103.726 17.0576C105.581 17.7753 107.232 18.9436 108.53 20.4587C109.83 21.9738 110.737 23.7886 111.172 25.7419C111.253 26.0981 111.303 26.4609 111.322 26.8259C111.322 27.3427 111.297 27.8469 111.297 28.4267Z" fill="#010101"/>
<path d="M154.495 20.3355H163.255V21.054C163.255 26.8898 163.255 32.7382 163.355 38.574C163.361 40.2995 163.525 42.0209 163.843 43.7165C164.01 45.0679 164.648 46.3159 165.642 47.2389C166.636 48.1618 167.923 48.7001 169.274 48.7582C170.8 48.9841 172.357 48.8591 173.829 48.3927C174.988 48.0327 176.019 47.3445 176.8 46.4104C177.581 45.4761 178.079 44.3354 178.234 43.124C178.544 41.4615 178.704 39.774 178.709 38.0823C178.709 32.9524 178.709 27.8225 178.634 22.7051C178.634 21.8984 178.747 21.0918 178.809 20.2725H187.57C187.882 32.1457 187.657 44.0064 187.632 55.8418C187.57 55.8418 187.532 55.9174 187.507 55.9174C185.254 55.9174 183.014 56.0183 180.774 56.0183C179.523 56.0183 179.247 55.6906 179.085 54.4805C178.972 53.5856 178.91 52.6781 178.809 51.7706L178.647 51.6194C178.522 51.7959 178.422 51.9723 178.296 52.1361C176.353 54.3879 173.704 55.9041 170.788 56.4342C168.176 57.0493 165.45 56.9667 162.879 56.1948C160.922 55.607 159.16 54.4943 157.783 52.9757C156.405 51.457 155.463 49.5897 155.058 47.5734C154.583 45.5715 154.356 43.5183 154.382 41.4604C154.307 35.9228 154.253 30.3895 154.22 24.8604C154.295 23.3984 154.419 21.9615 154.495 20.3355Z" fill="#010101"/>
<path d="M350.565 30.8855H350.24H343.57C343.307 30.8855 343.044 30.8855 342.781 30.8855C342.281 30.8855 342.068 30.5829 342.005 30.1166C341.966 29.7952 341.895 29.4785 341.793 29.1713C341.575 28.4141 341.151 27.7334 340.569 27.2057C339.988 26.6779 339.272 26.3241 338.502 26.184C336.885 25.7524 335.172 25.8766 333.633 26.537C332.969 26.8016 332.401 27.2647 332.005 27.8639C331.609 28.4632 331.404 29.17 331.419 29.8898C331.387 30.5449 331.547 31.1949 331.878 31.7594C332.209 32.324 332.698 32.7783 333.283 33.066C334.849 33.8214 336.507 34.3639 338.214 34.6794C340.642 35.297 343.094 35.839 345.447 36.6582C346.724 37.0448 347.885 37.7464 348.825 38.6995C349.765 39.6525 350.453 40.8269 350.828 42.1159C351.423 44.1696 351.396 46.355 350.752 48.3935C350.107 50.4319 348.875 52.2309 347.212 53.5606C344.808 55.419 341.932 56.5551 338.915 56.8377C335.308 57.3538 331.631 56.7745 328.353 55.1739C326.834 54.5135 325.49 53.5036 324.43 52.2251C323.369 50.9468 322.621 49.4356 322.246 47.813C322.033 46.9181 321.984 45.9854 321.845 45.0401H322.321H328.941C329.283 45.0314 329.625 45.074 329.954 45.1661C330.056 45.1975 330.149 45.2511 330.226 45.3231C330.304 45.395 330.366 45.4835 330.405 45.5821C330.818 48.8592 333.146 49.7793 335.924 50.0944C337.65 50.3209 339.402 49.9898 340.93 49.1491C341.531 48.8239 342.032 48.34 342.38 47.7492C342.728 47.1585 342.911 46.4834 342.907 45.7963C342.933 45.2435 342.779 44.6971 342.467 44.2415C342.155 43.7859 341.702 43.4465 341.18 43.2755C339.854 42.7465 338.501 42.292 337.125 41.9142C334.622 41.2336 332.195 40.6538 329.754 39.9354C328.932 39.6584 328.144 39.2907 327.402 38.8387C326.141 38.1382 325.077 37.1265 324.311 35.8984C323.545 34.6703 323.102 33.2663 323.022 31.8182C322.718 29.6066 323.151 27.356 324.254 25.4194C325.357 23.4828 327.067 21.9696 329.116 21.1171C331.386 20.0002 333.866 19.3841 336.391 19.3103C338.916 19.2364 341.427 19.7063 343.758 20.6886C347.837 22.3902 349.914 25.7303 350.465 30.0536C350.515 30.2174 350.527 30.5326 350.565 30.8855Z" fill="#010101"/>
<path d="M214 20.2858V27.8484H207.217V28.466L207.141 44.7634C207.141 47.3725 207.905 48.2044 210.495 48.2799C211.872 48.2799 213.249 48.2799 214.662 48.2799V55.9938C212.585 55.9938 210.533 55.9938 208.468 55.9938C207.058 55.9382 205.657 55.7354 204.289 55.3888C202.605 55.0356 201.097 54.1048 200.019 52.7553C198.942 51.4058 198.363 49.7216 198.382 47.9901C198.281 43.3643 198.382 38.7511 198.382 34.1253C198.382 32.1464 198.294 30.1802 198.244 28.2139C198.254 28.0796 198.254 27.9448 198.244 27.8105H191.587V20.248H198.294V9.28223H207.217V20.2858H214Z" fill="#010101"/>
<path d="M223.498 27.7837H216.766V20.3345H223.386C223.638 16.668 223.684 12.9901 223.523 9.31836H232.446V20.2841H239.166C239.487 22.7946 239.487 25.3362 239.166 27.8467H232.408V28.4769C232.408 33.8043 232.408 39.136 232.408 44.4718C232.408 44.7364 232.408 45.0011 232.408 45.2658C232.366 45.6608 232.411 46.0604 232.541 46.4358C232.67 46.811 232.881 47.1528 233.158 47.4361C233.434 47.7194 233.77 47.9374 234.14 48.0744C234.511 48.2113 234.906 48.2637 235.299 48.2279C236.551 48.2909 237.714 48.2279 238.928 48.2279L240.042 48.2909C240.042 49.5513 239.942 50.8117 239.93 52.0721C239.917 53.3326 239.93 54.593 239.93 55.8534C237.802 55.8534 235.625 55.9164 233.447 55.8534C232.135 55.838 230.829 55.6688 229.555 55.3493C227.861 54.965 226.352 54.0015 225.284 52.6227C224.216 51.2438 223.656 49.5348 223.699 47.7867C223.611 43.3752 223.699 38.9637 223.699 34.5522C223.699 32.5733 223.699 30.607 223.636 28.6281C223.598 28.4643 223.536 28.1744 223.498 27.7837Z" fill="#010101"/>
<path d="M298.444 20.4251H306.854C306.992 21.8871 307.129 23.3619 307.28 24.8996C310.646 20.0343 315.464 19.5175 320.707 20.173V28.5674C319.13 28.5674 317.566 28.5674 316.027 28.5674C314.565 28.6142 313.134 29.0025 311.847 29.7019C310.606 30.3453 309.556 31.3058 308.801 32.4871C308.045 33.6684 307.611 35.029 307.543 36.4325C307.267 40.0122 307.254 43.6296 307.217 47.2218C307.217 49.8435 307.304 52.4652 307.355 55.0995C307.355 55.3137 307.355 55.5406 307.355 55.8557H298.444V20.4251Z" fill="#010101"/>
<path d="M245.359 8.82715H254.12V55.8412C251.206 56.109 248.276 56.1301 245.359 55.9042V8.82715Z" fill="#010101"/>
<path d="M28.2661 61.4376C28.2661 57.5051 28.2661 53.6735 28.2661 49.8544C28.2891 49.6466 28.3925 49.4564 28.5539 49.3249C32.8588 46.2747 37.151 43.237 41.4684 40.2247C41.8777 39.9686 42.3257 39.7813 42.7949 39.67C43.23 39.5718 43.6264 39.3457 43.9339 39.0203C44.2413 38.695 44.4459 38.2851 44.5218 37.8424C44.5966 37.3662 44.5238 36.8782 44.3133 36.4452C44.1028 36.0121 43.7648 35.655 43.3455 35.4224C42.9426 35.2021 42.4786 35.1221 42.0259 35.1951C41.5732 35.2681 41.1572 35.4898 40.8427 35.8258C39.1783 38.0063 36.7506 39.1785 34.6607 40.7666C33.6597 41.5355 32.6209 42.2413 31.5698 42.9346C29.9995 44.009 28.19 44.6761 26.3021 44.8767C24.4143 45.0772 22.5064 44.805 20.7482 44.084C18.9899 43.3632 17.4356 42.2161 16.2234 40.7446C15.0113 39.2732 14.1787 37.5228 13.7998 35.6493C13.2652 33.5707 13.3622 31.3784 14.0784 29.3559C14.7946 27.3335 16.0969 25.5741 17.8169 24.3055C20.4448 22.2257 23.2479 20.3476 26.0011 18.4192C30.5728 15.2093 35.1613 12.0078 39.7665 8.81471L40.3421 8.44922V9.14243C40.3421 12.5583 40.3421 15.974 40.3421 19.3898C40.3652 19.6641 40.3188 19.9398 40.2071 20.1912C40.0956 20.4425 39.9223 20.6611 39.7039 20.8266C39.2033 21.23 38.6903 21.6333 38.1647 21.9989C34.7525 24.3936 31.332 26.78 27.9032 29.1581C27.3745 29.4959 26.8225 29.7949 26.2513 30.053C25.8759 30.2547 25.4755 30.3933 25.1 30.595C24.7275 30.7349 24.4114 30.9949 24.201 31.3346C23.9904 31.6742 23.8974 32.0745 23.9362 32.473C23.9946 32.9818 24.2056 33.4606 24.541 33.8456C24.8763 34.2307 25.3201 34.5037 25.8133 34.6283C26.2565 34.7412 26.724 34.7064 27.1459 34.5291C27.5678 34.3519 27.9213 34.0418 28.1535 33.6452C28.4324 33.1658 28.7924 32.7393 29.2171 32.3847C31.9077 30.469 34.5481 28.4775 37.3513 26.738C38.9389 25.7021 40.7565 25.078 42.6418 24.9214C44.5271 24.7648 46.4215 25.0807 48.1562 25.8407C49.8909 26.6007 51.4119 27.7813 52.5836 29.2773C53.7551 30.7732 54.541 32.5379 54.8709 34.4141C55.2972 36.5698 55.0924 38.8039 54.2815 40.8447C53.4706 42.8853 52.0885 44.6449 50.3033 45.9092L29.0294 60.8957L28.2661 61.4376Z" fill="#20E582"/>
</g>
<defs>
<clipPath id="clip0_1040_48246">
<rect width="351.707" height="70" fill="white"/>
</clipPath>
</defs>
</svg>
