<svg width="371" height="138" viewBox="0 0 371 138" fill="none" xmlns="http://www.w3.org/2000/svg">
<path d="M77.9722 21.4629C78.0772 20.289 78.5972 19.7554 79.842 19.4607C89.651 17.1435 99.425 14.7144 109.214 12.3159L130.027 7.19865L131.301 6.88867C131.131 9.08903 131.021 11.1522 130.801 13.2001C129.973 21.216 128.114 29.0869 125.272 36.6113C122.927 42.7751 119.971 48.68 116.448 54.2346C116.223 54.5954 116.048 54.9917 115.848 55.3728C115.553 55.7336 115.248 56.0843 114.963 56.4552C111.963 60.3427 108.994 64.2759 105.904 68.1024C104.239 70.1656 102.354 72.0458 100.57 74.0073C98.5001 75.8824 96.4403 77.7728 94.3555 79.6378C88.4288 84.8829 82.1012 89.6408 75.4325 93.8665C66.7284 99.4356 57.6003 104.289 48.1354 108.38C45.4857 109.533 42.766 110.514 40.0762 111.576C40.2012 110.524 40.3062 109.462 40.4662 108.415C40.5712 107.765 40.8312 107.135 40.9012 106.484C40.9487 105.764 40.9587 105.041 40.9312 104.319C41.558 104.191 42.1759 104.022 42.781 103.811C46.6156 102.221 50.4502 100.635 54.2797 98.9837C61.7581 95.7131 68.9499 91.8031 75.7775 87.2959C81.6113 83.505 87.1292 79.234 92.2757 74.5257C97.8051 69.5357 102.762 63.9273 107.054 57.807C113.188 48.8785 116.978 38.9082 119.628 28.4451C119.943 27.2052 120.128 25.9348 120.393 24.4966C118.628 24.9133 117.173 24.7863 116.053 23.5159C114.933 22.2455 115.053 20.7362 115.343 19.1406C110.129 20.0451 105.044 20.9192 99.9599 21.8084C95.1854 22.6368 90.4109 23.4854 85.6364 24.3086C84.8715 24.4407 84.3016 24.6593 83.9716 25.5181C83.6478 26.3904 83.1106 27.1645 82.4108 27.7673C81.7111 28.3701 80.8717 28.7817 79.972 28.9634C79.7611 29.0227 79.5639 29.1242 79.3922 29.2621C79.2205 29.4 79.0777 29.5715 78.9721 29.7663C78.6693 30.5386 78.4203 31.3316 78.2272 32.1395C78.0126 31.7013 77.8675 31.2313 77.7973 30.7471C77.7973 30.2796 78.2272 29.8171 78.2272 29.3496C78.237 28.1598 78.1601 26.9708 77.9972 25.7925C77.9672 25.5435 77.4573 25.3605 77.1623 25.1522L77.3973 24.2832C78.2072 24.3747 78.5222 23.9021 78.4522 23.1805C78.356 22.6609 78.2155 22.1508 78.0322 21.656L77.9722 21.4629Z" fill="#5BBB47"/>
<path d="M77.4224 24.3183C77.3424 24.6079 77.2674 24.8976 77.1874 25.1873C76.9924 25.6497 76.7875 26.107 76.5975 26.5695C75.2876 29.8065 74.0977 33.1096 72.6429 36.2602C70.0982 41.6976 66.5835 46.5048 62.7839 51.1038C61.949 52.0083 61.1241 52.9281 60.2842 53.8174C59.1243 55.0268 57.9445 56.2159 56.7846 57.4101C55.7847 58.2435 54.7848 59.0769 53.8149 59.9001C47.6173 65.0306 40.7534 69.2679 33.417 72.4925C33.497 65.9541 33.5704 59.4292 33.637 52.9179C33.637 52.6384 33.637 52.2471 33.812 52.1048C34.7819 51.2969 34.7169 50.1789 34.6819 49.1168C34.6519 48.2174 34.3319 47.3077 35.5118 46.8961C35.6118 46.8606 35.6868 46.6725 35.7318 46.5404C35.9018 46.0323 36.0568 45.5546 36.2317 45.0566L37.2016 46.2406L37.4816 46.2914C37.5392 45.5337 37.5392 44.7726 37.4816 44.0148C37.2616 42.5564 36.3017 41.0573 37.9816 39.8123C38.1515 39.6802 38.1665 39.3041 38.1815 39.0043C38.2665 37.6272 38.4265 37.4798 39.7264 37.8406C39.9314 37.8965 40.2263 38.049 40.2663 38.1963C40.3063 38.3437 40.0863 38.6181 39.9314 38.7858C39.6764 39.0704 39.1664 39.294 39.1364 39.5836C39.0315 40.4627 39.1064 41.3622 37.7366 41.6976C39.3464 42.1346 39.7814 41.8602 39.9164 40.6813C39.9464 40.4068 40.0063 39.98 40.1713 39.9038C41.0062 39.543 41.0062 38.8519 41.0162 38.1201C41.0475 37.905 41.1298 37.7009 41.2562 37.5255C41.8462 36.5092 42.4461 35.4929 43.041 34.4765L42.8661 34.3088L41.7712 34.939C41.4812 34.0243 41.1612 33.2468 42.4261 32.8453C42.6861 32.764 42.961 32.0119 42.871 31.6613C42.5661 30.4315 42.7311 29.7201 44.0609 29.1814C44.9808 28.8054 45.4308 28.3735 45.5608 29.7404C45.5608 29.903 45.9657 30.1114 46.2057 30.147C46.3657 30.147 46.7056 29.9183 46.7056 29.7862C46.6644 29.53 46.5536 29.2906 46.3857 29.0951C46.2185 28.9085 46.0344 28.7383 45.8357 28.5869C46.7867 28.3898 47.7237 28.1284 48.6404 27.8043C48.8833 27.6993 49.1034 27.5464 49.2878 27.3546C49.4723 27.1627 49.6176 26.9356 49.7153 26.6863C49.9203 25.9902 50.2803 25.7513 50.8652 25.8987C51.6951 26.102 51.9951 25.6751 52.1151 24.984C52.355 23.5865 52.85 23.1851 54.1149 23.739C55.1148 24.176 55.9247 24.4911 56.8146 23.6119C56.9796 23.4442 57.3545 23.4544 57.6345 23.4442C59.3493 23.3629 59.4643 23.2156 59.0743 21.5234C59.0412 21.3453 59.0178 21.1655 59.0043 20.9847C61.6291 20.7256 64.2488 20.2987 66.8735 20.258C70.628 20.1697 74.3782 20.571 78.0323 21.4522L78.1173 21.6911C77.8473 22.5753 77.6324 23.4442 77.4224 24.3183Z" fill="#F78E31"/>
<path d="M176.802 54.9917C175.914 54.961 175.025 54.9916 174.142 55.0832C173.228 55.2066 172.339 55.4813 171.512 55.8963C169.587 56.9634 169.542 59.0977 171.512 60.0429C173.284 60.8163 175.126 61.4136 177.012 61.8266C180.841 62.7972 184.601 63.8592 187.895 66.2273C194.52 70.9278 193.845 80.8676 188.17 85.3598C184.871 87.9717 181.051 89.1913 176.967 89.5674C170.572 90.1569 164.493 89.0592 158.968 85.5376C156.729 84.0995 156.744 84.0639 157.864 81.6298C158.863 79.465 159.863 77.3053 160.788 75.3032C162.968 76.3856 164.993 77.6458 167.183 78.4284C170.852 79.7395 174.647 80.1307 178.431 78.7841C179.741 78.3166 181.021 77.6255 181.051 75.979C181.081 74.3326 179.771 73.611 178.456 73.1841C175.567 72.2542 172.607 71.5224 169.737 70.5366C167.771 69.8787 165.868 69.0384 164.053 68.0262C156.759 63.8694 157.314 54.7072 161.853 50.1184C164.295 47.6925 167.416 46.0949 170.787 45.5449C170.852 45.9616 170.787 46.5104 170.997 46.7798C172.322 48.3043 173.722 49.7678 175.087 51.2567C175.512 51.7191 175.922 52.1917 176.307 52.6897C176.683 53.394 176.854 54.1923 176.802 54.9917Z" fill="#F99133"/>
<path d="M112.283 98.2106C110.969 100.244 109.689 102.246 108.334 104.223C104.389 109.98 99.2345 114.386 93.3351 117.943C84.9048 123.05 75.2001 125.567 65.3931 125.19C59.0185 125.037 52.7347 123.62 46.895 121.018C46.8888 120.731 46.8486 120.446 46.775 120.169C46.4451 119.3 46.3501 118.497 47.105 117.77C47.7099 117.186 48.2599 116.546 48.8548 115.946C48.9348 115.87 49.1348 115.946 49.2698 115.885C49.9111 115.727 50.5383 115.515 51.1446 115.25C52.5244 114.538 53.8393 113.69 55.2292 112.999C56.3696 112.45 57.5378 111.963 58.7288 111.54C60.3536 110.946 62.0534 110.524 63.6333 109.838C65.5081 109.015 67.2679 107.912 69.1327 107.048C70.5425 106.387 72.0374 105.925 73.4772 105.346C75.977 104.329 78.4767 103.374 80.9414 102.256C83.1062 101.24 85.196 100.096 87.3108 98.9881C89.2656 97.9718 91.1854 96.864 93.1751 95.9391C93.9101 95.5935 94.81 95.6037 95.6349 95.4309C96.1883 95.2131 96.7247 94.9532 97.2397 94.6534C99.8244 92.8952 102.464 91.203 104.944 89.2974C108.829 86.3144 112.598 83.1994 116.443 80.0995L116.658 79.9014L118.468 78.6309L117.528 84.2614H117.203C115.338 84.2614 115.203 84.4139 114.703 86.2941C114.623 86.6193 114.203 86.9293 113.843 87.0868C112.913 87.5035 111.923 87.783 111.004 88.2099C109.894 88.718 108.869 89.4346 107.734 89.8767C106.734 90.2629 105.704 90.4407 105.234 91.6095C105.119 91.8941 104.699 92.077 104.384 92.2498C102.1 93.5151 99.8194 94.7906 97.5147 96.0255C96.1898 96.7318 94.81 97.3467 93.4701 98.0327C91.9003 98.8407 90.3454 99.6995 88.7756 100.518C87.9857 100.925 87.1708 101.28 86.3709 101.677C85.186 102.266 84.0261 102.906 82.8262 103.465C81.8263 103.928 80.7715 104.273 79.7616 104.716C78.5967 105.224 77.4518 105.778 76.2919 106.296C75.0271 106.86 73.6372 107.226 72.5073 107.993C70.8125 109.137 68.8927 109.721 67.1229 110.666C65.3531 111.611 63.4633 112.43 61.6935 113.42C60.7514 114.045 59.8527 114.734 59.0038 115.484C59.0867 115.816 59.1353 116.157 59.1487 116.5C59.1487 117.191 59.3287 117.613 60.0736 117.674C60.3259 117.707 60.5573 117.834 60.7236 118.029C61.2235 118.675 61.9134 118.731 62.6534 118.7C66.598 118.548 70.5425 118.411 74.4871 118.258C75.339 118.274 76.1906 118.213 77.0319 118.075C78.2717 117.796 79.4566 117.267 80.6915 116.988C82.2563 116.632 83.8261 116.383 85.146 115.316C86.1859 114.472 87.4707 114.762 88.6456 114.772C88.9952 114.809 89.348 114.748 89.6655 114.594C89.983 114.441 90.2528 114.202 90.4454 113.903C91.0504 113.049 91.7453 112.287 93.0452 112.282C93.7251 112.282 94.405 111.535 95.0799 111.124C95.3449 110.961 95.5799 110.661 95.8699 110.646C96.3156 110.6 96.7461 110.456 97.1313 110.223C97.5164 109.991 97.8469 109.675 98.0996 109.299C99.3495 107.739 100.74 106.459 102.754 105.93C103.329 105.778 103.754 104.99 104.254 104.502C104.484 104.268 104.709 103.862 104.964 103.841C106.029 103.755 106.674 103.039 107.374 102.378C108.074 101.717 109.129 101.057 109.644 100.173C109.916 99.6694 110.294 99.2333 110.75 98.8945C111.206 98.5556 111.729 98.3222 112.283 98.2106Z" fill="#E47420"/>
<path d="M58.9439 21.0156C58.965 21.1865 58.9951 21.3561 59.0339 21.5238C59.4239 23.216 59.3088 23.3634 57.594 23.4447C57.314 23.4447 56.9391 23.4447 56.7741 23.6124C55.8842 24.4915 55.0644 24.1764 54.0744 23.7394C52.8345 23.1855 52.3395 23.5869 52.0746 24.9844C51.9546 25.6755 51.6547 26.1024 50.8248 25.8991C50.2399 25.7517 49.8798 25.9906 49.6748 26.6868C49.5771 26.936 49.4319 27.1631 49.2474 27.355C49.063 27.5468 48.8429 27.6997 48.6 27.8047C47.6833 28.1288 46.7462 28.3902 45.7952 28.5873C45.9939 28.7387 46.1781 28.9089 46.3453 29.0955C46.5132 29.291 46.624 29.5304 46.6651 29.7866C46.6651 29.9187 46.3153 30.1677 46.1653 30.1474C45.9253 30.1118 45.5353 29.9035 45.5203 29.7408C45.3853 28.3739 44.9353 28.8058 44.0204 29.1819C42.6906 29.7205 42.5206 30.432 42.8305 31.6617C42.9205 32.0124 42.6456 32.7644 42.3856 32.8457C41.1207 33.2472 41.4407 34.0247 41.7307 34.9394L42.8255 34.3093L43.0006 34.477C42.4057 35.4933 41.8057 36.5096 41.2157 37.526C41.0893 37.7014 41.007 37.9054 40.9757 38.1205C40.9757 38.8523 40.9757 39.5434 40.1308 39.9042C39.9658 39.9804 39.9059 40.4123 39.8759 40.6817C39.7409 41.8505 39.306 42.1249 37.6961 41.698C39.0659 41.3626 38.991 40.4632 39.0959 39.584C39.1259 39.2944 39.636 39.0759 39.891 38.7862C40.0459 38.6185 40.2509 38.3746 40.2259 38.1967C40.2009 38.0189 39.8909 37.8969 39.6859 37.841C38.386 37.4904 38.2261 37.6276 38.1411 39.0047C38.1411 39.2842 38.111 39.6806 37.9411 39.8127C36.2812 41.0577 37.2411 42.5568 37.4411 44.0152C37.4987 44.773 37.4987 45.5341 37.4411 46.2918L37.1611 46.241L36.1912 45.057C36.0263 45.5652 35.8714 46.0733 35.6914 46.5408C35.6464 46.673 35.5714 46.861 35.4713 46.8966C34.2914 47.3082 34.6115 48.2178 34.6415 49.1172C34.6765 50.1793 34.7415 51.2973 33.7716 52.1053C33.6066 52.2475 33.6015 52.6134 33.5965 52.9183C33.5565 59.4296 33.4965 65.9545 33.4165 72.4929C33.1866 72.7775 32.7766 73.0468 32.7466 73.3568C32.4366 76.2483 32.1967 79.1499 31.9317 82.0515C31.7967 83.5303 31.6467 85.004 31.5017 86.4827C31.4168 85.9746 31.5017 85.2987 31.2168 85.0548C30.1469 84.1401 30.3669 82.8087 30.0269 81.6806C29.8019 80.9386 29.6019 80.3288 28.877 79.9934C28.6684 79.9303 28.4758 79.8217 28.3126 79.6752C28.1494 79.5288 28.0195 79.348 27.932 79.1454C27.8444 78.9428 27.8014 78.7232 27.8058 78.502C27.8101 78.2807 27.8617 78.0631 27.9571 77.8642C28.0358 77.6239 28.0631 77.3692 28.0371 77.1172C27.8721 75.5927 27.7371 74.0682 26.9022 72.6809C26.6715 72.2788 26.5539 71.82 26.5623 71.3546C26.5923 69.4388 26.7422 67.523 26.7422 65.6072C26.7422 64.1285 26.5673 62.6497 26.5173 61.1709C26.4873 60.3579 26.5423 59.5397 26.5873 58.7267C26.6523 57.5223 26.7922 56.3129 26.7972 55.1085C26.7972 53.8127 26.4973 52.4915 27.5922 51.4294C27.7821 51.2414 27.7471 50.8247 27.8321 50.5198C27.9721 50.0116 28.1221 49.5034 28.2771 48.9953C28.6942 47.865 29.0285 46.7049 29.2771 45.5245C29.597 43.4207 29.542 41.2305 31.3518 39.6755C31.429 39.5983 31.4876 39.504 31.5231 39.4C31.5588 39.296 31.5703 39.1851 31.5567 39.0759C31.0118 37.3735 32.6417 36.6113 33.2017 35.4171C33.6366 34.4871 34.0065 33.8011 33.5265 32.8762C35.6013 31.3009 37.5611 29.5223 39.7859 28.2011C42.6151 26.4849 45.58 25.0112 48.65 23.7953C51.5896 22.6672 54.7393 22.0828 57.7941 21.2545C58.1889 21.163 58.569 21.0817 58.9439 21.0156ZM41.5357 35.91C41.2357 35.7016 41.0707 35.5085 40.8958 35.4933C40.7208 35.478 40.5358 35.7525 40.5358 35.8744C40.5708 36.0726 40.7608 36.2454 40.8857 36.4283L41.5357 35.91Z" fill="#F4872D"/>
<path d="M33.5369 32.8809C34.0369 33.8261 33.6469 34.5122 33.212 35.4218C32.652 36.616 31.0222 37.3782 31.5671 39.0806C31.5806 39.1898 31.5691 39.3007 31.5335 39.4047C31.498 39.5087 31.4394 39.603 31.3622 39.6802C29.5524 41.2352 29.6073 43.4254 29.2874 45.5292C29.0388 46.7096 28.7046 47.8697 28.2875 49C28.1325 49.5082 27.9825 50.0163 27.8425 50.5245C27.7575 50.8294 27.7925 51.2461 27.6026 51.4341C26.5077 52.4962 26.8176 53.8174 26.8076 55.1132C26.8076 56.3176 26.6627 57.527 26.5977 58.7314C26.5527 59.5444 26.4977 60.3626 26.5277 61.1757C26.5777 62.6544 26.7526 64.1332 26.7526 65.612C26.7526 67.5277 26.6027 69.4435 26.5727 71.3593C26.5643 71.8247 26.6819 72.2835 26.9126 72.6856C27.7475 74.0577 27.8825 75.5873 28.0475 77.1219C28.0719 77.3742 28.0429 77.6289 27.9625 77.8689C27.8671 78.0678 27.8154 78.2855 27.8111 78.5067C27.8067 78.7279 27.8498 78.9475 27.9374 79.1501C28.0249 79.3527 28.1548 79.5335 28.318 79.6799C28.4812 79.8264 28.6738 79.935 28.8824 79.9982C29.6073 80.3335 29.8073 80.9433 30.0323 81.6853C30.3723 82.8134 30.1523 84.1448 31.2222 85.0595C31.5121 85.3034 31.4222 85.9996 31.5071 86.4874C31.5071 86.9092 31.5071 87.331 31.5071 87.7528L31.1672 88.0221L31.5021 88.1949L31.5571 89.5466C31.516 89.5245 31.4723 89.5074 31.4272 89.4958L31.3922 90.1259L31.4971 90.5934C31.4813 90.6258 31.473 90.6614 31.473 90.6976C31.473 90.7338 31.4813 90.7694 31.4971 90.8018V91.2744L31.2922 92.1027L31.1172 92.3568L30.8472 96.8998C30.2473 96.8998 30.1273 96.5745 30.0023 96.0308C29.8909 95.4497 29.6064 94.9175 29.1874 94.5063C28.0325 93.5814 26.7826 92.7989 26.7476 91.0559C26.7105 90.9189 26.6417 90.7931 26.5469 90.6887C26.4521 90.5844 26.334 90.5047 26.2027 90.4562C25.5478 90.2479 25.6078 89.882 25.6628 89.2925C25.7328 88.5049 26.2027 87.453 25.0678 87.0312C24.7908 86.9677 24.5484 86.7981 24.3911 86.5578C24.2338 86.3174 24.1735 86.0247 24.2229 85.7404C24.223 85.611 24.1978 85.4829 24.1489 85.3634C24.1 85.2439 24.0283 85.1354 23.9379 85.0443C22.7781 83.9466 22.8081 82.4272 22.7331 81.045C22.7365 80.3826 22.5984 79.7274 22.3282 79.1246C22.058 78.5218 21.6622 77.9859 21.1682 77.5539C20.9583 77.3709 20.9383 76.9441 20.8783 76.6239C20.8383 76.3851 20.9833 76.004 20.8783 75.9074C20.0834 75.2468 20.1633 74.3169 20.0234 73.4377C19.8947 72.5799 19.7127 71.7313 19.4784 70.8969C18.9085 68.915 18.2335 66.9738 18.3835 64.8395C18.4935 63.315 18.4185 61.7905 18.3835 60.266C18.3835 59.5699 18.3835 58.955 19.3284 58.9194C19.5384 58.9194 19.8284 58.5383 19.9134 58.274C20.4133 56.7495 19.4134 55.5553 18.9885 54.2087C18.9885 54.163 18.7885 54.1731 18.6835 54.1579C20.7577 48.421 23.873 43.1308 27.8675 38.5623C29.6423 36.5601 31.6521 34.7662 33.5369 32.8809Z" fill="#F2812A"/>
<path d="M95.6647 95.4061C94.8398 95.5636 93.9399 95.5534 93.205 95.9142C91.2052 96.8594 89.2954 97.9469 87.3406 98.9632C85.2258 100.071 83.136 101.24 80.9713 102.231C78.5315 103.339 76.0318 104.314 73.532 105.325C72.0922 105.905 70.5973 106.367 69.1875 107.028C67.3277 107.892 65.5679 108.994 63.6881 109.818C62.1082 110.509 60.4084 110.925 58.7836 111.52C57.5926 111.943 56.4244 112.43 55.284 112.978C53.8941 113.67 52.5793 114.503 51.1994 115.23C50.5931 115.494 49.9659 115.707 49.3246 115.865C49.1896 115.906 48.9896 115.865 48.9096 115.926C48.3147 116.525 47.7648 117.166 47.1598 117.75C46.4049 118.477 46.4999 119.275 46.8299 120.149C46.9034 120.426 46.9437 120.711 46.9498 120.997C42.5869 119.216 38.5249 116.752 34.9111 113.695L38.4108 112.409C38.5907 112.78 38.6957 113.385 38.9707 113.476C40.4405 113.985 41.9704 114.462 43.5302 113.985C45.455 113.421 47.3848 112.846 49.2546 112.12C52.0243 111.042 54.754 109.808 57.4837 108.674C58.8836 108.095 60.3134 107.617 61.7183 107.058C62.9382 106.55 64.103 105.879 65.3629 105.574C67.0127 105.183 68.3626 103.842 70.1774 104.014C70.3374 104.014 70.5224 103.781 70.6773 103.664C71.6772 103.003 72.6221 102.088 73.732 101.733C75.6518 101.113 77.3366 99.8932 79.5164 99.8017C80.6663 99.7509 81.7662 98.5466 82.8911 97.8605L86.0307 95.7161C87.0306 95.4162 87.0306 95.4061 86.8706 94.8217V94.776C87.4156 94.6032 88.0605 94.5676 88.4855 94.2373C91.6751 91.7879 94.8698 89.3437 97.9845 86.7622C100.845 84.3687 103.724 81.96 106.329 79.2972C110.479 75.0489 114.413 70.5821 118.438 66.2119C118.594 68.9967 118.746 71.7814 118.893 74.5662C118.428 75.0743 117.978 75.5825 117.498 76.0907C111.081 82.5943 104.002 88.386 96.3796 93.3683C95.4947 93.9019 95.2647 94.5117 95.6647 95.4061Z" fill="#DD6F1D"/>
<path d="M112.283 98.2117C111.728 98.3262 111.205 98.5631 110.75 98.9055C110.295 99.2479 109.919 99.6876 109.649 100.193C109.149 101.077 108.149 101.672 107.379 102.398C106.609 103.125 106.034 103.776 104.969 103.862C104.714 103.862 104.469 104.289 104.259 104.523C103.759 105.031 103.359 105.798 102.759 105.951C100.76 106.459 99.3546 107.76 98.1047 109.32C97.852 109.696 97.5215 110.011 97.1364 110.244C96.7512 110.476 96.3207 110.621 95.8749 110.666C95.605 110.666 95.35 110.981 95.085 111.144C94.4101 111.556 93.7302 112.298 93.0502 112.303C91.7504 112.303 91.0504 113.07 90.4505 113.924C90.2579 114.222 89.988 114.462 89.6706 114.615C89.3531 114.768 89.0003 114.83 88.6507 114.793C87.4558 114.793 86.151 114.493 85.1511 115.336C83.8312 116.404 82.2614 116.653 80.6965 117.008C79.4617 117.288 78.2768 117.816 77.0369 118.096C76.1953 118.228 75.3437 118.285 74.4922 118.263C70.5476 118.416 66.603 118.553 62.6584 118.706C61.9185 118.736 61.2436 118.68 60.7287 118.035C60.5624 117.839 60.331 117.712 60.0787 117.679C59.3338 117.618 59.1388 117.196 59.1538 116.505C59.1404 116.162 59.0918 115.822 59.0088 115.489C59.8578 114.739 60.7565 114.05 61.6986 113.426C63.4684 112.435 65.3382 111.627 67.128 110.671C68.9178 109.716 70.8176 109.147 72.5124 107.998C73.6423 107.231 75.0121 106.865 76.297 106.301C77.4569 105.793 78.6018 105.224 79.7666 104.721C80.7665 104.279 81.8314 103.933 82.8313 103.471C84.0312 102.912 85.1911 102.271 86.3759 101.682C87.1759 101.286 87.9908 100.93 88.7807 100.523C90.3505 99.7057 91.9054 98.8469 93.4752 98.0389C94.8151 97.3529 96.1949 96.738 97.5198 96.0316C99.8245 94.8019 102.104 93.5213 104.389 92.256C104.704 92.0832 105.124 91.9002 105.239 91.6157C105.739 90.4469 106.739 90.269 107.739 89.8828C108.874 89.4407 109.899 88.7344 111.009 88.216C111.928 87.7892 112.918 87.5097 113.848 87.093C114.193 86.9355 114.628 86.6255 114.708 86.3003C115.208 84.4353 115.333 84.2676 117.208 84.2676H117.528C116.67 88.4676 115.251 92.5284 113.308 96.3365C113.028 96.9768 112.628 97.5866 112.283 98.2117ZM73.1973 115.402C73.6023 115.255 74.0522 114.94 74.2372 115.057C74.8672 115.448 75.2371 115.245 75.8321 114.899C76.6201 114.453 77.4719 114.134 78.3568 113.954C80.1166 113.578 81.9164 113.405 83.6662 112.994C84.6915 112.673 85.6938 112.281 86.6659 111.82C87.3408 111.556 88.0208 111.312 88.7107 111.078C88.9407 111.002 89.4006 111.047 89.4106 110.976C89.6306 109.696 90.9455 110.173 91.5704 109.569C91.8954 109.249 92.2453 108.954 92.5703 108.664C92.8403 108.441 93.1252 108.085 93.4152 108.07C94.5551 108.004 95.735 108.126 96.1149 106.621C96.1149 106.571 96.2249 106.54 96.2899 106.504C96.9407 106.154 97.5111 105.668 97.9635 105.078C98.4159 104.488 98.7401 103.806 98.9146 103.079C98.9543 102.967 99.0207 102.865 99.1079 102.785C99.195 102.704 99.3004 102.647 99.4146 102.617C101.09 102.617 101.79 101.092 102.914 100.229C103.106 100 103.243 99.729 103.313 99.437C103.384 99.1449 103.386 98.8401 103.319 98.5471C102.854 96.8905 103.859 96.0469 104.849 95.122C105.013 94.8948 105.137 94.6403 105.214 94.3699C104.964 94.3699 104.679 94.2226 104.469 94.3039C103.369 94.7307 102.619 96.0164 101.195 95.681C101.11 95.681 100.945 95.8233 100.88 95.9402C100.095 97.3376 98.7296 97.795 97.3348 97.9169C96.147 98.0857 95.0055 98.499 93.9801 99.1315C91.9204 100.213 90.0905 101.707 87.7458 102.327C86.4259 102.678 85.626 104.208 83.9662 104.411C82.7063 104.563 81.5515 105.519 80.3216 106.042C79.0917 106.565 77.7719 106.931 76.552 107.495C75.4571 108.004 74.4472 108.695 73.3823 109.269C72.3174 109.843 71.1875 110.372 70.1027 110.951C69.5477 111.251 69.0628 111.794 68.4878 111.906C66.943 112.211 65.9881 114.051 66.773 115.423C66.9463 115.648 67.1992 115.796 67.4779 115.834C68.021 115.923 68.576 115.899 69.1095 115.763C69.6431 115.628 70.1442 115.384 70.5826 115.047C71.6175 114.284 72.4224 114.351 73.1973 115.402Z" fill="#E67A22"/>
<path d="M256.658 45.6868C258.697 45.0031 260.868 44.8288 262.987 45.1786C264.825 45.4599 266.633 45.9159 268.387 46.5405C270.379 47.2671 272.16 48.4902 273.566 50.0977C273.801 50.3569 273.986 50.6618 274.346 51.1445C274.426 50.5347 274.456 50.2908 274.486 50.0469C274.761 50.1805 275.017 50.3514 275.246 50.555C275.981 51.4901 276.646 52.4556 278.031 52.4861C278.341 52.4861 278.656 52.9942 278.946 53.2991C279.376 53.7463 279.766 54.2342 280.206 54.6661C280.486 54.9405 280.866 55.1082 281.125 55.3928C282.155 56.526 283.125 57.7253 284.19 58.8229C284.505 59.1431 285.07 59.2142 285.515 59.3971C285.515 62.751 285.575 66.1049 285.585 69.4538C285.585 70.8969 285.54 72.3401 285.52 73.7783C284.585 73.0312 283.595 72.3452 282.735 71.522C281.61 70.4498 280.601 69.2454 279.511 68.1325C277.976 66.5572 276.431 64.9971 274.841 63.4828C274.452 63.2422 274.027 63.0704 273.581 62.9746C272.206 59.4175 269.937 56.7953 266.082 55.8959C266.162 54.9253 265.467 54.5391 264.817 54.0766C264.394 53.7411 264.004 53.365 263.652 52.9536C263.247 52.5216 262.887 52.049 262.472 51.6273C262.058 51.2055 261.653 50.9514 261.303 50.5601C260.268 49.4066 259.303 48.2226 258.243 47.0741C258.088 46.9064 257.743 46.9318 257.573 46.7743C257.248 46.4236 256.968 46.0476 256.658 45.6868Z" fill="#90AC41"/>
<path d="M332.835 61.1097L341.504 50.3162C342.504 49.0509 343.504 47.7754 344.589 46.5456C344.88 46.2074 345.285 45.9918 345.724 45.9409C350.013 45.9003 354.308 45.9409 358.892 45.9409L342.459 64.5805C346.554 70.0179 351.618 73.6462 358.457 74.2712C358.65 74.2803 358.838 74.3302 359.01 74.4178C359.182 74.5053 359.335 74.6285 359.457 74.7794C361.622 79.5561 363.737 84.3532 366.007 89.4705L361.192 89.5823C360.992 88.9369 361.692 87.8545 360.332 87.7783C360.137 86.7162 360.567 86.0505 361.582 85.8472C361.598 85.7088 361.598 85.5689 361.582 85.4305C360.657 82.7271 359.877 79.9576 358.727 77.3609C358.452 76.835 358.077 76.3704 357.623 75.9943C357.168 75.6181 356.645 75.3381 356.083 75.1707C351.358 74.0391 347.07 71.5063 343.764 67.8937C342.404 66.4404 341.114 65.3529 339.074 65.485L339.529 64.367C338.688 64.0376 337.82 63.7859 336.935 63.615C336.07 63.5184 335.605 63.2592 335.64 62.3242C335.675 61.4959 335.23 61.1656 334.45 61.1758C333.915 61.1605 333.375 61.1249 332.835 61.1097Z" fill="#5BBB47"/>
<path d="M270.627 87.133C268.623 88.4523 266.335 89.2579 263.957 89.4807C263.919 89.3012 263.851 89.1294 263.757 88.9725C262.928 88.007 262.093 87.0415 261.228 86.1116C259.935 84.726 258.625 83.3539 257.298 81.9954C256.328 80.9791 255.298 80.0542 254.328 79.0633C252.529 77.2441 250.744 75.4096 248.954 73.5802C247.539 72.1268 246.134 70.6633 244.719 69.215C243.855 68.3308 242.97 67.4669 242.1 66.5929C242.23 61.7805 243.31 57.2629 246.064 53.2637C247.064 53.7718 247.949 54.3918 248.439 55.4793C248.616 55.8332 248.857 56.1503 249.149 56.4143C250.324 57.5628 251.509 58.7061 252.714 59.8241C253.369 60.4339 254.073 60.998 254.753 61.5824C254.005 63.5825 253.617 65.7032 253.609 67.843C253.688 72.6807 256.568 78.5856 263.742 79.0785C264.067 79.4292 264.337 79.8916 264.742 80.0949C265.242 80.3388 265.697 80.4201 265.742 81.1417C265.732 81.2999 265.753 81.4586 265.803 81.6087C265.853 81.7588 265.932 81.8973 266.036 82.0163C266.139 82.1353 266.264 82.2324 266.404 82.302C266.544 82.3717 266.696 82.4126 266.852 82.4223C267.322 82.5137 267.677 83.2607 268.067 83.7283C268.317 84.0281 268.467 84.5362 268.772 84.643C270.197 85.1816 270.512 85.5119 270.627 87.133Z" fill="#BDA03B"/>
<path d="M207.018 84.2262C207.018 90.4868 207.018 96.7542 207.018 103.028C207.006 103.171 206.981 103.312 206.943 103.45H195.715C195.69 103.161 195.645 102.876 195.645 102.586C195.645 93.0632 195.645 83.5402 195.645 74.0172C195.645 73.8037 195.67 73.5852 195.685 73.3667C196.684 73.1279 198.109 74.4186 198.224 75.5925C198.539 75.6382 198.939 75.5925 199.119 75.7449C200.004 76.5834 200.849 77.4625 201.674 78.3569C202.674 79.4647 203.674 80.603 204.674 81.7159C205.439 82.5594 206.228 83.3877 207.018 84.2262Z" fill="#F99133"/>
<path d="M18.6885 54.1836C18.7935 54.1836 18.9785 54.1836 18.9935 54.2344C19.4134 55.5607 20.3983 56.7752 19.9184 58.2997C19.8384 58.564 19.5434 58.94 19.3334 58.9451C18.3785 58.9807 18.3785 59.5956 18.3885 60.2918C18.3885 61.8163 18.4785 63.3408 18.3885 64.8653C18.2386 66.9996 18.9135 68.9306 19.4834 70.9226C19.7177 71.757 19.8997 72.6056 20.0284 73.4634C20.1683 74.3426 20.0884 75.2725 20.8833 75.9331C21.0033 76.0297 20.8833 76.4108 20.8833 76.6496C20.9433 76.9698 20.9633 77.3966 21.1732 77.5796C21.6672 78.0116 22.063 78.5475 22.3332 79.1503C22.6034 79.7531 22.7415 80.4083 22.7381 81.0707C22.8131 82.4529 22.7831 83.9723 23.9429 85.07C24.106 85.2609 24.1902 85.5085 24.1779 85.7611C24.1401 86.0412 24.2076 86.3255 24.367 86.5573C24.5265 86.789 24.766 86.9511 25.0378 87.0112C26.1727 87.4329 25.7028 88.4848 25.6328 89.2725C25.5778 89.862 25.5178 90.2279 26.1727 90.4362C26.3041 90.4847 26.4221 90.5644 26.5169 90.6687C26.6117 90.773 26.6805 90.8989 26.7177 91.0358C26.7527 92.7788 28.0025 93.5767 29.1574 94.4863C29.5764 94.8975 29.8609 95.4297 29.9723 96.0108C30.0973 96.5545 30.2173 96.9052 30.8172 96.8797C30.6722 99.6797 30.5473 102.47 30.3673 105.285C30.2873 106.565 30.0923 107.826 29.9523 109.121C25.6987 104.801 22.2784 99.7099 19.8684 94.1102C16.2275 85.945 14.7356 76.9586 15.5388 68.0311C15.9223 63.2844 16.9833 58.6197 18.6885 54.1836Z" fill="#ED7B26"/>
<path d="M213.723 46.1089C220.617 43.5986 229.681 45.3162 234.835 52.7557C237.448 56.5486 238.913 61.0351 239.05 65.6632C239.13 67.4977 238.89 69.3423 238.8 71.1819C237.912 70.5952 237.061 69.9537 236.25 69.261C235.11 68.1684 234.081 66.959 233.016 65.7902C231.661 64.3064 229.896 63.1935 229.046 61.2167C228.931 60.9474 228.426 60.7949 228.076 60.7086C227.491 60.5561 227.036 60.424 226.976 59.6414C226.986 59.4388 226.95 59.2366 226.871 59.0506C226.792 58.8645 226.671 58.6996 226.518 58.5687C226.366 58.4379 226.186 58.3446 225.992 58.2962C225.798 58.2478 225.596 58.2456 225.401 58.2897C225.107 58.2918 224.818 58.2109 224.567 58.0559C224.731 56.5314 223.842 56.1198 222.637 55.5456C221.602 55.0374 220.932 53.7772 220.087 52.8625C218.897 51.5819 217.687 50.3216 216.492 49.0512C215.567 48.0857 214.648 47.0948 213.723 46.1089Z" fill="#C59E3A"/>
<path d="M360.342 87.7528C361.702 87.829 361.002 88.9114 361.202 89.5568C358.021 89.5392 354.877 88.8686 351.958 87.5851C346.024 85.1357 341.229 81.0958 337.195 76.1564C334.635 73.021 332.395 69.6062 329.985 66.2777V71.6236C329.585 71.5016 329.08 71.4965 328.805 71.2374C328.166 70.6276 327.661 69.8806 327.056 69.2047C325.966 68.0308 324.851 66.8722 323.731 65.7288C322.93 64.8765 322.087 64.0658 321.206 63.2998C320.426 62.6544 319.536 62.1463 318.707 61.5771V44.8076C319.461 44.8076 319.571 45.3463 319.546 45.9154C319.516 46.7082 319.831 47.074 320.616 46.9877C321.401 46.9013 321.801 47.3078 321.706 48.1361C321.596 49.0661 321.961 49.5082 322.911 49.3862C323.861 49.2642 324.176 49.6809 324.066 50.5702C323.946 51.5459 324.406 51.8915 325.311 51.7847C326.131 51.6882 326.536 52.049 326.426 52.9027C326.301 53.919 326.736 54.3053 327.711 54.1833C328.465 54.0918 328.88 54.412 328.785 55.2301C328.68 56.1804 329.16 56.4599 329.995 56.3582V64.0925L330.26 64.1688L332.845 61.1198C333.385 61.1198 333.925 61.1706 334.465 61.1604C335.245 61.1604 335.69 61.4806 335.655 62.3089C335.62 63.2439 336.085 63.5031 336.95 63.5996C337.835 63.7706 338.703 64.0223 339.544 64.3517L339.089 65.4697H334.09L332.915 67.5023C335.135 71.629 337.896 75.4294 341.124 78.7989C343.598 81.4809 346.53 83.6847 349.778 85.3034C353.093 86.8432 356.583 87.9662 360.342 87.7528Z" fill="#67B848"/>
<path d="M330.005 56.3583C329.17 56.46 328.691 56.1805 328.796 55.2302C328.89 54.4121 328.476 54.0919 327.721 54.1834C326.746 54.3053 326.311 53.9141 326.436 52.9028C326.546 52.0491 326.141 51.6883 325.321 51.7848C324.416 51.8916 323.956 51.546 324.076 50.5703C324.186 49.681 323.806 49.2745 322.921 49.3863C322.036 49.4981 321.606 49.0662 321.716 48.1362C321.811 47.3079 321.476 46.8963 320.626 46.9877C319.776 47.0792 319.526 46.7083 319.556 45.9155C319.581 45.3464 319.471 44.8026 318.717 44.8077V28.4092H329.99C329.99 28.6785 330.05 28.9173 330.05 29.1663C330.05 38.0559 330.05 46.9403 330.05 55.8197C330.03 56.0026 330.005 56.1805 330.005 56.3583Z" fill="#5BBB47"/>
<path d="M289.41 77.0657C289.41 76.2323 289.34 75.404 289.34 74.5757C289.34 68.8639 289.34 63.1521 289.34 57.4403C289.34 57.0084 289.385 56.5765 289.41 56.1445C290.11 56.7086 290.82 57.2625 291.51 57.8367C291.829 58.101 292.084 58.599 292.419 58.6549C293.359 58.8022 293.549 59.4578 293.819 60.1794C293.904 60.3924 294.033 60.5846 294.197 60.7431C294.361 60.9017 294.556 61.0231 294.769 61.0991C295.142 61.1514 295.487 61.3305 295.748 61.6073C296.008 61.884 296.169 62.2422 296.204 62.6236C296.276 62.8395 296.399 63.0339 296.563 63.1892C296.727 63.3444 296.927 63.4557 297.144 63.5129C298.254 63.5129 298.564 64.0516 298.549 65.0781C298.579 65.2538 298.647 65.4206 298.748 65.5665C298.849 65.7123 298.981 65.8336 299.134 65.9216C299.838 66.2613 300.559 66.5649 301.293 66.8313C300.459 71.0948 300.794 75.4142 300.729 79.7133C300.694 82.2541 300.699 84.795 300.684 87.3358C300.345 87.16 300.026 86.947 299.734 86.7006C299.189 86.1416 298.734 85.4861 298.174 84.9322C296.394 83.1637 294.564 81.4411 292.804 79.6523C292.384 79.2254 292.199 78.5648 291.804 78.077C291.555 77.7533 291.225 77.5025 290.85 77.3503C290.38 77.2091 289.897 77.1138 289.41 77.0657Z" fill="#90AC41"/>
<path d="M207.018 84.227C206.243 83.3885 205.454 82.5602 204.689 81.7116C203.689 80.5987 202.714 79.4604 201.689 78.3526C200.864 77.4582 200.019 76.5791 199.134 75.7406C198.954 75.5729 198.554 75.6339 198.239 75.5882C198.124 74.4143 196.684 73.1236 195.7 73.3624V62.0303C195.815 62.1014 196.035 62.1624 196.04 62.2386C196.095 63.3261 196.699 63.6513 197.684 63.565C198.369 63.5091 198.529 63.9816 198.489 64.5813C198.424 65.5214 198.784 66.055 199.774 65.9686C200.544 65.9076 200.909 66.2176 200.859 67.0306C200.809 67.8437 201.194 68.1893 202.024 68.174C202.194 68.1437 202.369 68.157 202.533 68.2126C202.696 68.2682 202.844 68.3644 202.962 68.4924C203.08 68.6205 203.165 68.7765 203.209 68.9462C203.253 69.116 203.255 69.2942 203.214 69.4648C203.134 70.2524 203.469 70.6335 204.264 70.5522C204.43 70.5063 204.606 70.5038 204.774 70.5448C204.942 70.5859 205.097 70.6692 205.225 70.7871C205.353 70.905 205.449 71.0538 205.506 71.2196C205.563 71.3855 205.577 71.5631 205.549 71.7363C205.514 72.7526 206.048 72.9914 206.878 72.9508C207.233 72.9508 207.588 72.9508 207.948 72.9508L208.013 73.2455C207.866 73.6777 207.784 74.13 207.768 74.5871C207.853 75.329 208.373 75.4306 209.013 74.9072L212.443 77.9918C212.443 79.7297 212.443 79.6942 214.193 80.1922C214.463 80.2684 214.743 80.7918 214.778 81.1373C214.848 81.8945 215.033 82.4027 215.917 82.3265C216.802 82.2502 217.237 82.733 217.162 83.6375C217.097 84.4353 217.427 84.7707 218.217 84.7301C219.007 84.6894 219.347 84.9893 219.327 85.8176C219.327 86.4579 219.487 87.1693 220.297 87.088C221.637 86.9559 221.797 87.7029 221.677 88.7395C221.652 89.0292 221.677 89.3188 221.677 89.6085C216.422 90.1167 211.783 88.7446 207.903 85.0045C207.608 84.7148 207.298 84.4811 207.018 84.227Z" fill="#F09334"/>
<path d="M213.723 46.1094C214.648 47.0952 215.567 48.0862 216.492 49.0669C217.687 50.3373 218.897 51.6077 220.087 52.8782C220.932 53.7929 221.587 55.0684 222.637 55.5613C223.842 56.1355 224.732 56.5776 224.567 58.0716C224.818 58.2266 225.107 58.3075 225.401 58.3054C225.596 58.2613 225.798 58.2635 225.992 58.3119C226.186 58.3603 226.366 58.4536 226.519 58.5844C226.671 58.7153 226.792 58.8802 226.871 59.0663C226.95 59.2523 226.986 59.4546 226.976 59.6571C227.036 60.4397 227.476 60.5718 228.076 60.7243C228.426 60.8157 228.931 60.9682 229.046 61.2324C229.896 63.1889 231.661 64.2814 233.016 65.8059C234.081 66.9747 235.11 68.1841 236.25 69.2767C237.061 69.9694 237.912 70.6109 238.8 71.1976C238.497 74.5364 237.408 77.7522 235.625 80.5732C235.318 80.4928 235.025 80.3606 234.76 80.182C232.871 78.2967 230.996 76.386 229.136 74.4702C228.951 74.2771 228.936 73.9112 228.756 73.713C228.493 73.4028 228.172 73.1489 227.811 72.966C227.405 72.8337 226.986 72.7484 226.561 72.7119C227.296 70.6591 227.602 68.4734 227.461 66.2938C227.161 62.9602 226.011 60.0332 223.332 57.909C220.277 55.4952 216.892 55.2157 213.298 56.3845C213.111 56.0524 212.895 55.7377 212.653 55.4444C212.218 54.9972 211.653 54.6669 211.273 54.1842C210.408 53.0916 209.623 51.9431 208.103 51.6992C207.943 51.6992 207.813 51.2622 207.728 51.0132C207.623 50.6797 207.536 50.3403 207.468 49.9969C209.168 48.1489 211.33 46.8052 213.723 46.1094Z" fill="#D39A38"/>
<path d="M270.627 87.1334C270.492 85.5123 270.197 85.182 268.757 84.6586C268.452 84.5519 268.302 84.0437 268.052 83.7439C267.662 83.2764 267.307 82.5294 266.837 82.4379C266.681 82.4282 266.529 82.3874 266.389 82.3177C266.249 82.248 266.124 82.1509 266.02 82.032C265.917 81.913 265.838 81.7745 265.788 81.6244C265.738 81.4743 265.717 81.3156 265.727 81.1574C265.692 80.4358 265.227 80.3545 264.727 80.1105C264.327 79.9073 264.057 79.4448 263.727 79.0942C266.662 79.0942 269.337 78.2354 271.192 75.8369C272.262 74.4496 272.926 72.737 273.771 71.1719C274.216 71.365 274.886 71.4361 275.071 71.7766C276.291 73.9668 278.726 75.1102 279.751 77.463C279.859 77.6275 279.998 77.7685 280.16 77.8776C280.322 77.9866 280.504 78.0617 280.696 78.0982C280.976 78.135 281.236 78.2628 281.439 78.4624C281.642 78.662 281.775 78.9228 281.821 79.206C281.94 79.6278 282.365 80.2223 282.715 80.263C283.69 80.3951 284.065 80.9846 284.275 81.7875C284.294 81.9324 284.34 82.0721 284.413 82.1982C284.485 82.3243 284.582 82.4343 284.697 82.5215C284.813 82.6088 284.944 82.6716 285.084 82.7061C285.223 82.7406 285.368 82.7462 285.51 82.7225V88.7443H274.511V84.0793L270.627 87.1334Z" fill="#A7A740"/>
<path d="M242.1 66.6084C242.97 67.4824 243.855 68.3463 244.719 69.2305C246.134 70.6788 247.539 72.1423 248.954 73.5957C250.744 75.4251 252.529 77.2596 254.328 79.0788C255.328 80.0951 256.328 81.0149 257.298 82.0109C258.631 83.366 259.941 84.7381 261.228 86.1271C262.093 87.057 262.927 88.0225 263.757 88.9881C263.851 89.145 263.919 89.3167 263.957 89.4962C257.298 90.4211 251.639 88.4799 247.289 83.2204C243.335 78.4385 241.935 72.7521 242.1 66.6084Z" fill="#C59E3A"/>
<path d="M207.468 49.9805C207.536 50.324 207.623 50.6633 207.728 50.9968C207.813 51.2458 207.943 51.6575 208.103 51.6829C209.603 51.9268 210.408 53.0752 211.273 54.1678C211.658 54.676 212.218 54.9809 212.653 55.4281C212.895 55.7214 213.111 56.036 213.298 56.3682C210.428 57.6843 208.638 59.9812 207.533 62.9032C206.433 61.8868 205.319 60.8705 204.244 59.8542C204.094 59.7068 204.179 59.346 204.044 59.1529C203.769 58.7769 203.454 58.223 203.094 58.1671C202.778 58.1284 202.48 57.998 202.235 57.7916C201.991 57.5853 201.81 57.3116 201.714 57.0034C201.547 56.6556 201.285 56.3644 200.959 56.1649C200.109 55.6567 199.274 55.1791 199.294 53.9899C199.294 53.8781 199.154 53.6647 199.064 53.6596C197.814 53.5529 197.184 52.6433 196.565 51.7286C196.415 51.505 196 51.4644 195.71 51.3424V45.9863H206.403V50.9409L207.468 49.9805Z" fill="#DE9737"/>
<path d="M301.288 66.8266C300.554 66.5603 299.833 66.2567 299.129 65.917C298.976 65.829 298.844 65.7077 298.743 65.5618C298.642 65.416 298.574 65.2492 298.544 65.0735C298.544 64.0571 298.249 63.549 297.139 63.5083C296.922 63.4511 296.722 63.3398 296.558 63.1845C296.394 63.0293 296.271 62.8349 296.199 62.619C296.164 62.2376 296.003 61.8794 295.743 61.6026C295.482 61.3259 295.137 61.1468 294.764 61.0945C294.551 61.0184 294.356 60.8971 294.192 60.7385C294.028 60.5799 293.899 60.3877 293.814 60.1747C293.544 59.4328 293.354 58.7773 292.414 58.6502C292.079 58.5943 291.824 58.0963 291.504 57.8321C290.815 57.2579 290.105 56.704 289.405 56.1399V45.9766H291.644C292.039 47.4045 293.569 47.9076 294.174 49.2187C294.524 49.9708 295.384 50.4789 296.029 51.0786C296.394 51.4139 296.799 51.7036 297.159 52.039C297.551 52.3956 297.924 52.7722 298.279 53.1671C298.439 53.345 298.509 53.6143 298.674 53.7871C299.403 54.6081 300.174 55.3901 300.983 56.1297C301.818 56.8513 302.773 57.329 303.303 58.4876C303.638 59.2295 304.738 59.6107 305.493 60.1493C303.422 61.8581 301.948 64.1995 301.288 66.8266Z" fill="#7BB243"/>
<path d="M176.802 54.9915C176.855 54.1881 176.681 53.386 176.302 52.6793C175.917 52.1711 175.507 51.7087 175.082 51.2463C173.717 49.7573 172.317 48.2989 170.992 46.7693C170.762 46.5 170.847 45.9512 170.782 45.5345C176.537 44.4063 182.061 45.2397 187.39 47.5671C188.5 48.0753 189.555 48.6597 190.765 49.2746C189.49 52.161 188.24 54.9762 186.946 57.9134C183.769 56.3167 180.33 55.3263 176.802 54.9915Z" fill="#F09334"/>
<path d="M318.692 61.5928C319.536 62.1619 320.426 62.6701 321.191 63.3155C322.073 64.0815 322.915 64.8922 323.716 65.7445C324.836 66.8879 325.951 68.0465 327.041 69.2204C327.646 69.8759 328.151 70.6229 328.791 71.253C329.065 71.5122 329.57 71.5173 329.97 71.6392V84.7144C329.29 84.7804 328.756 84.6737 328.711 83.8047C328.72 83.6149 328.69 83.4253 328.623 83.2479C328.556 83.0704 328.453 82.9092 328.322 82.7743C328.19 82.6395 328.032 82.534 327.858 82.4647C327.684 82.3954 327.497 82.3637 327.311 82.3717C327.176 82.3857 327.041 82.3669 326.915 82.3169C326.789 82.267 326.677 82.1873 326.588 82.0845C326.498 81.9817 326.434 81.8587 326.401 81.7257C326.367 81.5927 326.366 81.4536 326.396 81.3198C326.446 80.5474 326.161 80.1002 325.286 80.1256C324.516 80.1256 323.986 79.8055 324.036 78.8857C324.081 78.0421 323.611 77.6813 322.831 77.7525C321.926 77.8338 321.606 77.4222 321.671 76.543C321.709 76.3812 321.707 76.2121 321.663 76.0516C321.62 75.891 321.537 75.7443 321.423 75.6251C321.308 75.5059 321.166 75.418 321.01 75.3697C320.853 75.3214 320.687 75.3142 320.526 75.3488C319.596 75.3946 319.217 74.9626 319.317 74.0327C319.367 73.5703 319.317 73.1332 318.682 73.1637L318.692 61.5928Z" fill="#72B545"/>
<path d="M100.58 74.0075C102.364 72.0459 104.249 70.1657 105.914 68.1025C109.004 64.276 111.958 60.3428 114.973 56.4554C115.258 56.0844 115.563 55.7338 115.858 55.373L117.858 62.6194C115.623 65.4804 113.508 68.4532 111.119 71.1719C107.944 74.7849 104.554 78.2049 101.255 81.7112C101.255 80.6441 101.255 79.577 101.28 78.5149C101.28 78.3524 101.565 78.2201 101.67 78.0423C101.931 77.6633 102.139 77.2495 102.289 76.8125C102.694 75.2931 101.175 74.9375 100.58 74.0075Z" fill="#DD6F1D"/>
<path d="M29.9324 109.147C30.0724 107.866 30.2674 106.606 30.3474 105.31C30.5274 102.51 30.6524 99.7211 30.7973 96.9058L31.0673 92.3628L31.2423 92.1087C31.3073 91.8343 31.3773 91.5548 31.4473 91.2804C32.3922 91.1839 32.8021 90.4928 33.1771 89.7204C33.4248 89.2669 33.7091 88.8352 34.027 88.4296C34.187 88.2009 34.527 88.018 34.527 87.7842C34.6369 86.8746 34.8769 86.1632 35.9268 85.965C36.1318 85.9294 36.3918 85.3755 36.3718 85.0808C36.2918 83.7646 37.4216 83.4089 38.1266 82.7483C38.3166 82.5654 38.8215 82.7483 39.1815 82.7483C38.7182 86.3258 38.2516 89.9033 37.7816 93.4808C37.4616 95.9454 37.1517 98.4151 36.8317 100.879C35.8318 102.714 34.8319 104.563 33.777 106.372C33.1621 107.419 32.1972 108.314 31.8222 109.421C31.2273 111.2 30.9873 113.106 30.6024 114.955L29.6025 115.179C29.7425 113.09 29.8374 111.119 29.9324 109.147Z" fill="#44A734"/>
<path d="M119.878 60.0531C123.248 55.1047 126.27 49.9203 128.922 44.5387C132.921 36.2048 135.776 27.5152 136.956 18.297C136.981 18.0836 137.036 17.8702 137.101 17.5195L139.561 17.8346C139.281 19.6742 139.031 21.4934 138.716 23.2923C137.384 30.8607 135.017 38.2022 131.681 45.1028C129.187 50.2719 126.293 55.2319 123.027 59.9362C122.887 60.1395 122.717 60.3275 122.557 60.5206L119.878 60.0531Z" fill="#178A42"/>
<path d="M305.508 60.1443C304.753 59.6056 303.653 59.2245 303.318 58.4826C302.788 57.3239 301.818 56.8463 300.998 56.1247C300.189 55.385 299.418 54.6031 298.689 53.782C298.524 53.6092 298.454 53.3399 298.294 53.1621C297.935 52.7598 297.556 52.3765 297.159 52.0136C296.799 51.6782 296.394 51.3886 296.029 51.0532C295.384 50.4535 294.529 49.9454 294.174 49.1933C293.569 47.8822 292.039 47.3791 291.644 45.9512H300.539V53.2688L304.238 48.9189C304.954 49.1936 305.689 49.4128 306.438 49.5744C307.173 49.6862 307.553 49.986 307.528 50.7381C307.503 51.4902 307.748 51.9221 308.528 52.0288C308.701 52.0618 308.86 52.1489 308.983 52.2778C310.123 53.4365 311.287 54.5748 312.377 55.7842C312.821 56.3649 313.218 56.9819 313.562 57.6288C310.677 57.8728 307.948 58.5385 305.508 60.1443Z" fill="#72B545"/>
<path d="M195.695 51.3477C195.985 51.4697 196.399 51.5104 196.549 51.7339C197.184 52.669 197.814 53.5583 199.049 53.665C199.139 53.665 199.279 53.8835 199.279 53.9953C199.279 55.1844 200.094 55.6621 200.944 56.1702C201.27 56.3697 201.532 56.661 201.699 57.0087C201.795 57.3169 201.976 57.5906 202.22 57.797C202.465 58.0034 202.763 58.1337 203.079 58.1724C203.439 58.2283 203.754 58.7822 204.029 59.1583C204.164 59.3412 204.079 59.7122 204.229 59.8595C205.304 60.8759 206.418 61.8922 207.518 62.9085C206.569 66.2041 206.713 69.7255 207.928 72.9296C207.568 72.9296 207.213 72.9296 206.858 72.9296C206.013 72.9702 205.494 72.7314 205.529 71.7151C205.557 71.5419 205.543 71.3643 205.486 71.1984C205.429 71.0325 205.333 70.8838 205.205 70.7659C205.077 70.648 204.922 70.5647 204.754 70.5236C204.586 70.4826 204.41 70.4851 204.244 70.531C203.449 70.6123 203.114 70.2312 203.194 69.4436C203.235 69.273 203.233 69.0948 203.189 68.925C203.145 68.7553 203.06 68.5993 202.942 68.4712C202.824 68.3431 202.676 68.247 202.513 68.1914C202.349 68.1358 202.174 68.1225 202.004 68.1528C201.174 68.1528 200.789 67.8276 200.839 67.0094C200.889 66.1913 200.524 65.8864 199.754 65.9474C198.754 66.0338 198.404 65.5002 198.469 64.5601C198.509 63.9808 198.349 63.5082 197.664 63.5437C196.664 63.6301 196.075 63.3049 196.02 62.2174C196.02 62.1412 195.795 62.0802 195.68 62.0091L195.695 51.3477Z" fill="#E99435"/>
<path d="M318.697 73.1431C319.337 73.1126 319.382 73.5496 319.332 74.0121C319.232 74.942 319.611 75.374 320.541 75.3282C320.702 75.2936 320.868 75.3008 321.025 75.3491C321.181 75.3974 321.323 75.4853 321.438 75.6045C321.552 75.7237 321.635 75.8704 321.678 76.0309C321.722 76.1914 321.724 76.3605 321.686 76.5224C321.621 77.4015 321.941 77.8132 322.846 77.7319C323.626 77.6607 324.096 78.0215 324.051 78.8651C324.001 79.7848 324.551 80.1253 325.301 80.105C326.176 80.0796 326.461 80.5268 326.411 81.2992C326.381 81.433 326.382 81.5721 326.416 81.7051C326.449 81.8381 326.513 81.961 326.603 82.0639C326.692 82.1667 326.804 82.2464 326.93 82.2963C327.056 82.3463 327.191 82.365 327.326 82.3511C327.512 82.3431 327.699 82.3748 327.873 82.4441C328.047 82.5134 328.205 82.6189 328.337 82.7537C328.468 82.8885 328.571 83.0498 328.638 83.2272C328.705 83.4047 328.735 83.5943 328.726 83.7841C328.771 84.6531 329.305 84.7598 329.985 84.6937V88.7591H318.697V73.1431Z" fill="#7BB243"/>
<path d="M221.662 89.5868C221.662 89.2971 221.662 89.0075 221.662 88.7178C221.762 87.7015 221.622 86.9341 220.282 87.0663C219.472 87.1476 219.282 86.4361 219.312 85.7959C219.312 84.9675 218.922 84.6677 218.202 84.7084C217.482 84.749 217.082 84.4136 217.147 83.6158C217.222 82.7113 216.822 82.2285 215.902 82.3047C214.983 82.381 214.833 81.8728 214.763 81.1156C214.728 80.7701 214.448 80.2467 214.178 80.1705C212.438 79.6623 212.433 79.708 212.428 77.9701C215.763 79.5606 219.047 79.3675 222.302 77.7109C222.347 78.8238 222.802 79.5403 223.982 79.7436C224.134 79.794 224.272 79.8808 224.384 79.9966C224.496 80.1125 224.579 80.254 224.627 80.4093C224.732 81.3291 225.286 81.7712 226.026 82.1726C226.431 82.3911 226.701 82.8536 227.026 83.189C227.351 83.5244 227.886 83.936 228.326 84.3018C228.661 84.5762 229.121 84.7744 229.326 85.1251C229.555 85.6437 229.722 86.1878 229.826 86.7461C227.416 88.4423 224.589 89.4257 221.662 89.5868Z" fill="#E99435"/>
<path d="M285.51 59.4123C285.065 59.2293 284.51 59.1582 284.185 58.838C283.12 57.7404 282.15 56.5411 281.121 55.4079C280.861 55.1234 280.481 54.9557 280.201 54.6812C279.761 54.2493 279.371 53.7615 278.941 53.3143C278.651 53.0145 278.336 52.5114 278.026 52.5012C276.641 52.4707 275.976 51.4849 275.241 50.5702C275.012 50.3666 274.756 50.1956 274.481 50.062C274.481 48.756 274.481 47.445 274.481 46.139L274.666 45.9814H285.51V59.4123Z" fill="#7BB243"/>
<path d="M285.51 82.7377C285.368 82.7614 285.223 82.7559 285.084 82.7214C284.944 82.6869 284.813 82.6241 284.697 82.5368C284.582 82.4496 284.485 82.3395 284.413 82.2134C284.34 82.0873 284.294 81.9476 284.275 81.8027C284.065 80.9846 283.69 80.3952 282.715 80.2783C282.365 80.2325 281.941 79.6431 281.821 79.2213C281.775 78.9381 281.642 78.6773 281.439 78.4777C281.236 78.2781 280.976 78.1502 280.696 78.1134C280.504 78.0768 280.322 78.0019 280.16 77.8928C279.998 77.7838 279.859 77.6427 279.751 77.4782C278.751 75.1254 276.291 73.982 275.071 71.7918C274.886 71.4513 274.216 71.3802 273.771 71.1871C274.359 68.4767 274.289 65.6619 273.566 62.9854C274.012 63.0811 274.438 63.253 274.826 63.4935C276.416 65.018 277.961 66.5678 279.496 68.1432C280.586 69.256 281.596 70.4605 282.72 71.5327C283.58 72.356 284.57 73.0571 285.505 73.7889C285.508 76.7735 285.51 79.7565 285.51 82.7377Z" fill="#9CA93F"/>
<path d="M229.846 86.711C229.742 86.1527 229.575 85.6086 229.346 85.09C229.151 84.7393 228.691 84.5411 228.346 84.2667C227.906 83.9008 227.466 83.54 227.046 83.1538C226.626 82.7676 226.426 82.3662 226.046 82.1375C225.306 81.7361 224.752 81.294 224.647 80.3742C224.599 80.2189 224.516 80.0773 224.404 79.9615C224.292 79.8456 224.154 79.7589 224.002 79.7085C222.837 79.5306 222.367 78.8141 222.322 77.7063C224.155 76.4495 225.622 74.7155 226.571 72.6855C226.996 72.7221 227.415 72.8074 227.821 72.9397C228.182 73.1226 228.503 73.3765 228.766 73.6867C228.946 73.8849 228.961 74.2507 229.146 74.4438C231.006 76.3596 232.881 78.2703 234.77 80.1556C235.035 80.3342 235.328 80.4666 235.635 80.547C234.425 82.7028 232.793 84.5842 230.841 86.0758C230.516 86.3147 230.176 86.5027 229.846 86.711Z" fill="#DE9737"/>
<path d="M119.878 60.0527L122.537 60.5202L119.068 65.2564C118.838 65.5714 118.623 65.9017 118.398 66.2219C114.373 70.5921 110.439 75.0589 106.289 79.3072C103.684 81.97 100.79 84.3888 97.9449 86.7721C94.8553 89.3536 91.6606 91.7979 88.4459 94.2473C88.021 94.5776 87.3761 94.6131 86.8311 94.7554C88.061 93.6629 89.2959 92.5856 90.5107 91.4778C94.097 88.2221 97.675 84.958 101.245 81.6854C104.544 78.179 107.934 74.7591 111.109 71.146C113.498 68.4273 115.608 65.4545 117.848 62.5936L119.878 60.0527Z" fill="#32A757"/>
<path d="M30.6221 114.945C31.007 113.095 31.247 111.19 31.8419 109.411C32.2169 108.298 33.1818 107.404 33.7967 106.362C34.8516 104.553 35.8365 102.703 36.8514 100.869L38.0863 100.584C38.4242 100.481 38.7814 100.462 39.1282 100.527C39.475 100.593 39.8014 100.742 40.0802 100.961C40.3589 101.181 40.582 101.465 40.7309 101.79C40.8798 102.116 40.9501 102.472 40.936 102.83C40.936 103.339 40.936 103.847 40.936 104.329C40.9636 105.051 40.9535 105.774 40.906 106.494C40.836 107.145 40.576 107.775 40.471 108.425C40.311 109.472 40.2061 110.534 40.0811 111.586L39.3911 111.896L38.5662 112.303L38.3513 112.43L34.8516 113.715L30.6221 114.945Z" fill="#55B441"/>
<path d="M256.658 45.6865C256.968 46.0473 257.248 46.4386 257.593 46.7689C257.763 46.9264 258.093 46.901 258.263 47.0687C259.298 48.2172 260.263 49.4012 261.323 50.5547C261.673 50.946 262.123 51.2459 262.493 51.6219C262.863 51.9979 263.267 52.5163 263.672 52.9482C264.024 53.3597 264.414 53.7357 264.837 54.0713C265.487 54.5337 266.182 54.9199 266.102 55.8905C263.353 55.3756 260.514 55.9542 258.173 57.5065C258.124 57.2236 258.022 56.9529 257.873 56.7086C256.373 55.1181 254.963 53.4665 253.374 52.003C252.209 50.9359 251.229 49.8382 250.874 48.2629C252.579 46.9595 254.559 46.0775 256.658 45.6865Z" fill="#9CA93F"/>
<path d="M95.6656 95.4059C95.2656 94.5115 95.4956 93.8814 96.3405 93.3427C103.962 88.3604 111.041 82.5687 117.458 76.0651C117.958 75.5569 118.388 75.0487 118.853 74.5406L124.122 68.6306C124.427 68.2901 124.732 67.9446 125.042 67.6143C125.447 68.4934 126.202 68.6306 127.042 68.5544L119.183 77.3558C118.993 77.5692 118.783 77.7623 118.583 77.9656L116.673 79.8306L116.458 80.0288C112.638 83.1032 108.869 86.2436 104.959 89.2266C102.459 91.1322 99.8401 92.8244 97.2554 94.5827C96.7466 94.8974 96.2152 95.1726 95.6656 95.4059Z" fill="#32A757"/>
<path d="M313.542 57.6334C313.198 56.9865 312.801 56.3695 312.357 55.7887C311.267 54.5793 310.103 53.441 308.963 52.2824C308.843 52.1459 308.684 52.0516 308.508 52.0131C307.748 51.9064 307.508 51.4439 307.508 50.7223C307.508 50.0007 307.153 49.6704 306.418 49.5586C305.669 49.397 304.934 49.1778 304.218 48.9031C307.358 46.0319 311.142 45.102 315.322 45.0156V57.6131L313.542 57.6334Z" fill="#67B848"/>
<path d="M289.41 77.0664C289.902 77.1052 290.389 77.192 290.865 77.3256C291.24 77.4778 291.57 77.7285 291.819 78.0523C292.194 78.5604 292.379 79.2007 292.819 79.6276C294.579 81.4163 296.409 83.139 298.189 84.9074C298.744 85.4613 299.189 86.1169 299.749 86.6758C300.041 86.9222 300.36 87.1352 300.698 87.311C300.738 87.7684 300.778 88.2257 300.823 88.7644H289.41V77.0664Z" fill="#9CA93F"/>
<path d="M127.027 68.5797C126.187 68.6458 125.432 68.5187 125.027 67.6396C127.562 63.7826 130.327 60.0577 132.561 56.028C134.611 52.3336 136.111 48.3242 137.816 44.4367C138.231 43.4864 138.491 42.465 138.846 41.3877L141.32 42.1804C140.255 44.9652 139.321 47.694 138.181 50.3416C135.375 56.785 131.731 62.8165 127.347 68.2748C127.248 68.3848 127.141 68.4868 127.027 68.5797Z" fill="#178A42"/>
<path d="M250.849 48.2637C251.219 49.839 252.199 50.9366 253.349 52.0038C254.948 53.4673 256.378 55.1188 257.848 56.7094C257.997 56.9537 258.099 57.2244 258.148 57.5072L254.728 61.5726C254.048 60.9882 253.344 60.4241 252.689 59.8143C251.484 58.6963 250.299 57.553 249.124 56.4045C248.832 56.1405 248.591 55.8234 248.414 55.4695C247.914 54.382 247.024 53.7773 246.039 53.2539C247.265 51.2534 248.906 49.5501 250.849 48.2637Z" fill="#A7A740"/>
<path d="M342.849 84.3379C343.194 84.5615 343.544 84.78 343.884 85.0138C348.228 88.0373 352.843 90.4461 358.102 91.3252C359.542 91.564 361.017 91.5437 362.477 91.686C362.776 91.7589 363.062 91.8771 363.327 92.0366C363.052 92.1789 362.777 92.4381 362.497 92.4482C357.407 92.6718 352.748 91.1829 348.393 88.6471C346.664 87.6308 345.049 86.4265 343.394 85.2932C343.122 85.0809 342.865 84.85 342.624 84.6021L342.849 84.3379Z" fill="#72B545"/>
<path d="M339.334 83.4189C339.594 83.6679 339.859 83.927 340.109 84.1659C343.724 87.8602 347.719 90.9804 352.688 92.576C353.773 92.9216 354.913 93.0842 356.013 93.3891C356.253 93.4551 356.443 93.7092 356.658 93.8972C356.403 93.9938 356.128 94.2072 355.893 94.1717C352.678 93.6506 349.61 92.4379 346.894 90.6145C344.105 88.7765 341.581 86.5532 339.394 84.0083C339.308 83.8786 339.235 83.7408 339.174 83.5967L339.334 83.4189Z" fill="#72B545"/>
<path d="M195.725 103.445H206.953C206.773 103.535 206.581 103.599 206.383 103.633C203.024 103.633 199.663 103.633 196.3 103.633C196.101 103.597 195.907 103.533 195.725 103.445Z" fill="#F09334"/>
<path d="M341.879 84.0277L339.739 81.873L342.149 83.8194L341.879 84.0277Z" fill="#7BB243"/>
<path d="M116.673 79.8562L118.583 77.9912C118.548 78.1894 118.513 78.3876 118.483 78.5858L116.673 79.8562Z" fill="#C59E3A"/>
<path d="M339.739 81.8486L339.404 81.7673L339.444 81.6758L339.724 81.8689L339.739 81.8486Z" fill="#7BB243"/>
<path d="M338.859 81.2233L339.034 81.2588L338.874 81.208L338.859 81.2233Z" fill="#7BB243"/>
<path d="M338.876 81.2083C338.847 81.1961 338.82 81.1808 338.794 81.1626C338.794 81.1626 338.794 81.1219 338.794 81.1016L338.866 81.2235L338.876 81.2083Z" fill="#7BB243"/>
<path d="M38.3564 112.409L38.5714 112.282L39.3963 111.876L40.0862 111.566C42.7759 110.504 45.4956 109.533 48.1454 108.369C57.6103 104.279 66.7384 99.4254 75.4425 93.8562C82.1111 89.6305 88.4387 84.8726 94.3655 79.6276C96.4503 77.7626 98.51 75.8722 100.58 73.9971C101.175 74.927 102.694 75.2827 102.304 76.8022C102.154 77.2391 101.946 77.6529 101.684 78.0319C101.58 78.2098 101.3 78.3419 101.295 78.5045C101.26 79.5666 101.295 80.6337 101.27 81.7009C97.6968 84.9633 94.1188 88.2274 90.5359 91.4933C89.321 92.6011 88.0861 93.6784 86.8563 94.7709V94.8217L85.9714 95.3299L82.8517 97.8707C81.7268 98.5568 80.6269 99.7611 79.4771 99.8119C77.2973 99.9034 75.6125 101.123 73.6927 101.743C72.5828 102.099 71.6529 103.013 70.638 103.674C70.463 103.791 70.278 104.04 70.138 104.025C68.3132 103.852 66.9734 105.193 65.3235 105.585C64.0637 105.89 62.8988 106.601 61.6789 107.069C60.2741 107.628 58.8442 108.085 57.4444 108.685C54.6947 109.818 51.985 111.053 49.2153 112.13C47.3455 112.857 45.4157 113.431 43.4909 113.995C41.921 114.452 40.4012 113.959 38.9313 113.487C38.6414 113.385 38.5364 112.78 38.3564 112.409Z" fill="#DB6419"/>
<path d="M40.941 104.309C40.941 103.801 40.941 103.293 40.941 102.81C40.9526 102.453 40.8805 102.098 40.7306 101.775C40.5806 101.452 40.3572 101.17 40.0788 100.952C39.8004 100.734 39.4749 100.586 39.1293 100.522C38.7837 100.457 38.4279 100.477 38.0913 100.579L36.8564 100.864C37.1764 98.3995 37.4863 95.9298 37.8063 93.4652C38.2696 89.8877 38.7362 86.3102 39.2061 82.7327C39.4961 81.0456 39.7561 79.3483 40.091 77.651C40.1833 77.2217 40.395 76.8283 40.701 76.5178C41.5209 75.7098 42.3358 74.9527 42.6558 73.7483C42.8333 73.1816 43.1834 72.6869 43.6557 72.3356C47.3153 69.6627 51.0049 67.0405 54.6895 64.4031L54.8945 64.1948C55.6394 63.5901 56.4343 63.0412 57.1242 62.3755C59.039 60.5258 60.9138 58.6253 62.8036 56.7451C69.5119 49.6644 74.7683 41.2987 78.267 32.1346C78.4601 31.3267 78.7091 30.5337 79.0119 29.7614C79.1175 29.5665 79.2603 29.3951 79.432 29.2572C79.6037 29.1193 79.8009 29.0178 80.0118 28.9585C80.9115 28.7768 81.7509 28.3652 82.4506 27.7624C83.1504 27.1595 83.6876 26.3855 84.0114 25.5131C84.3414 24.6543 84.9113 24.4358 85.6762 24.3037C90.4507 23.4805 95.2253 22.6318 99.9997 21.8035C105.084 20.9142 110.169 20.0402 115.383 19.1357C115.118 20.7313 114.988 22.2609 116.093 23.511C117.198 24.7611 118.668 24.9084 120.433 24.4917C120.158 25.9298 119.983 27.2003 119.668 28.4402C117.018 38.9033 113.228 48.8736 107.094 57.8021C102.802 63.9224 97.8449 69.5308 92.3155 74.5207C87.169 79.229 81.6511 83.5001 75.8173 87.291C68.9896 91.7982 61.7979 95.7082 54.3195 98.9788C50.5099 100.63 46.6753 102.215 42.8208 103.806C42.2058 104.016 41.5778 104.184 40.941 104.309ZM39.1911 95.1625C38.9962 96.2093 38.7812 97.2561 38.6212 98.3131C38.6355 98.4207 38.6753 98.5231 38.7371 98.6116C38.7989 98.7001 38.881 98.7721 38.9762 98.8213C40.836 99.177 41.9758 100.305 42.5958 102.256L49.3201 99.3447C50.08 99.0449 50.8549 98.7755 51.6098 98.4452C61.0324 94.4251 70.0293 89.4433 78.462 83.5763C84.2536 79.5879 89.6815 75.0793 94.6803 70.1048C96.8001 67.9552 98.8398 65.7193 100.82 63.4325C104.485 59.2146 107.648 54.5717 110.244 49.6002C113.546 43.1216 116.117 36.2839 117.908 29.2177C118.148 28.303 118.278 27.3578 118.458 26.4177C115.693 25.9095 114.158 24.3393 113.693 21.7273C113.588 21.1429 113.333 21.0667 112.803 21.1632C104.034 22.7284 95.2619 24.2783 86.4861 25.813C86.1904 25.8389 85.9065 25.943 85.6626 26.1151C85.4188 26.2872 85.2235 26.5211 85.0963 26.7937C84.2864 28.4379 82.8789 29.6972 81.1717 30.3052C80.7334 30.4912 80.3849 30.8455 80.2018 31.291C78.3829 36.4178 76.0085 41.3229 73.1226 45.916C72.2026 47.3745 71.2478 48.8126 70.3079 50.2609L62.1687 59.8652C60.5289 61.3541 58.9191 62.8837 57.2442 64.3371C53.8188 67.3975 50.1387 70.1502 46.2454 72.5643C45.1155 73.2452 44.0106 73.916 43.6307 75.3999C43.4557 76.0808 42.7558 76.6093 42.3508 77.2445C41.9288 77.7862 41.61 78.4031 41.4109 79.0637C40.9959 81.4064 40.691 83.7694 40.376 86.1323C39.9611 89.1102 39.5811 92.1592 39.1911 95.1472V95.1625Z" fill="#178A42"/>
<path d="M78.2522 32.1494C74.7524 41.3145 69.4962 49.6816 62.7888 56.765C62.0839 55.9367 62.4439 55.1693 62.9238 54.4172C63.1821 53.8992 63.305 53.3223 63.2804 52.742C63.2559 52.1617 63.0849 51.5976 62.7838 51.104C66.5834 46.5305 70.0981 41.6978 72.6428 36.2605C74.1176 33.1098 75.2875 29.8067 76.5974 26.5697C76.7873 26.1073 76.9923 25.6499 77.1873 25.1875C77.4823 25.3958 77.9922 25.5788 78.0222 25.8278C78.1851 27.0061 78.262 28.1951 78.2522 29.385C78.2522 29.8525 77.8272 30.3149 77.8222 30.7824C77.895 31.258 78.0401 31.7191 78.2522 32.1494Z" fill="#55B441"/>
<path d="M77.4219 24.3191C77.6319 23.4451 77.8469 22.5761 78.0569 21.7021C78.2401 22.1969 78.3806 22.707 78.4768 23.2266C78.5318 23.938 78.2318 24.4106 77.4219 24.3191Z" fill="#55B441"/>
<path d="M54.6742 64.4181C50.9896 67.0555 47.3 69.6777 43.6404 72.3506C43.1682 72.7019 42.818 73.1966 42.6405 73.7633C42.3205 74.9677 41.5056 75.7248 40.6857 76.5328C40.3797 76.8433 40.168 77.2367 40.0758 77.666C39.7408 79.3481 39.4808 81.0453 39.1908 82.7477C38.8309 82.7477 38.3259 82.58 38.136 82.7477C37.431 83.4083 36.3012 83.764 36.3811 85.0802C36.3811 85.3749 36.1412 85.9288 35.9362 85.9644C34.8863 86.1626 34.6463 86.874 34.5363 87.7836C34.5363 88.0174 34.1764 88.2003 34.0364 88.429C33.7184 88.8346 33.4342 89.2663 33.1865 89.7198C32.8115 90.4922 32.4016 91.1833 31.4567 91.2798V90.8072C31.4408 90.7749 31.4326 90.7392 31.4326 90.7031C31.4326 90.6669 31.4408 90.6312 31.4567 90.5989C31.4567 90.2533 31.5017 89.9078 31.5217 89.5825C31.5217 89.1303 31.4867 88.678 31.4667 88.2308C31.4667 88.0835 31.4667 87.9361 31.4667 87.7887C31.4667 87.3669 31.4667 86.9452 31.4667 86.5234C31.6116 85.0446 31.7616 83.5709 31.8966 82.0922C32.1616 79.1905 32.3966 76.2889 32.7115 73.3974C32.7415 73.0875 33.1515 72.8181 33.3815 72.5336C40.7091 69.3069 47.5645 65.0696 53.7543 59.9412C54.7542 59.118 55.7541 58.2846 56.724 57.4512C56.724 57.6341 56.864 57.9034 56.789 57.9593C55.0642 59.7074 55.5191 62.1466 54.8442 64.2301L54.6742 64.4181Z" fill="#369725"/>
<path d="M54.8799 64.2093C55.5548 62.1258 55.0998 59.6866 56.8246 57.9385C56.8996 57.8623 56.7847 57.593 56.7597 57.4304C57.9295 56.2362 59.1094 55.0471 60.2593 53.8376C61.1142 52.9483 61.9391 52.0285 62.759 51.124C63.0601 51.6177 63.2311 52.1817 63.2556 52.762C63.2801 53.3423 63.1573 53.9192 62.899 54.4373C62.3991 55.1893 62.0591 55.9618 62.764 56.785C60.8742 58.6601 58.9994 60.5607 57.0846 62.4104C56.4197 63.0558 55.6248 63.6046 54.8799 64.2093Z" fill="#44A734"/>
<path d="M41.5359 35.9103L40.891 36.4185C40.766 36.2356 40.576 36.0628 40.541 35.8646C40.541 35.7528 40.776 35.4784 40.896 35.4835C41.016 35.4886 41.2459 35.702 41.5359 35.9103Z" fill="#F78E31"/>
<path d="M31.5652 89.5418C31.5652 89.8874 31.5192 90.233 31.4988 90.5582L31.3916 90.0907C31.3916 89.8823 31.4222 89.6791 31.4324 89.4707C31.4795 89.4887 31.5241 89.5126 31.5652 89.5418Z" fill="#44A734"/>
<path d="M31.537 87.748C31.537 87.8954 31.537 88.0428 31.537 88.1901L31.2021 88.0174L31.537 87.748Z" fill="#F4872D"/>
<path d="M31.4324 89.4902C31.4324 89.6986 31.4324 89.9018 31.3916 90.1102C31.4069 89.9018 31.4222 89.6986 31.4324 89.4902Z" fill="#F4872D"/>
<path d="M82.8564 97.8807L85.9761 95.3398L86.0211 95.7362L82.8564 97.8807Z" fill="#55B441"/>
<path d="M86.0313 95.7161L85.9863 95.3197L86.8712 94.8115C87.0312 95.4162 87.0312 95.4264 86.0313 95.7161Z" fill="#32A757"/>
<path d="M73.1972 115.403C72.4223 114.351 71.6174 114.285 70.5925 115.047C70.1541 115.384 69.653 115.628 69.1194 115.763C68.5859 115.899 68.0309 115.923 67.4878 115.834C67.2091 115.796 66.9562 115.648 66.7829 115.423C65.983 114.051 66.9529 112.211 68.4977 111.906C69.0727 111.795 69.5576 111.251 70.1126 110.951C71.1975 110.372 72.3123 109.853 73.3922 109.269C74.4721 108.685 75.467 107.999 76.5619 107.495C77.7818 106.931 79.0916 106.571 80.3315 106.042C81.5714 105.514 82.7162 104.563 83.9761 104.411C85.6359 104.208 86.4358 102.678 87.7557 102.327C90.1005 101.707 91.9303 100.213 93.99 99.1305C95.0154 98.498 96.1569 98.0848 97.3447 97.916C98.7395 97.7941 100.105 97.3367 100.89 95.9392C100.955 95.8224 101.12 95.6598 101.205 95.6802C102.629 96.0156 103.379 94.7298 104.479 94.3029C104.689 94.2216 104.979 94.3436 105.224 94.369C105.147 94.6394 105.023 94.8939 104.859 95.1211C103.859 96.046 102.859 96.8895 103.329 98.5461C103.396 98.8392 103.394 99.1439 103.323 99.436C103.253 99.7281 103.116 99.9994 102.924 100.229C101.815 101.082 101.115 102.597 99.4245 102.617C99.3103 102.647 99.205 102.704 99.1178 102.785C99.0306 102.866 98.9642 102.967 98.9245 103.079C98.75 103.806 98.4258 104.488 97.9734 105.078C97.521 105.668 96.9506 106.155 96.2998 106.505C96.2348 106.54 96.1398 106.571 96.1248 106.621C95.7449 108.146 94.565 108.004 93.4251 108.07C93.1351 108.07 92.8502 108.441 92.5802 108.664C92.2302 108.954 91.8803 109.249 91.5803 109.569C90.9554 110.173 89.6405 109.696 89.4205 110.976C89.4205 111.048 88.9506 111.002 88.7206 111.078C88.0307 111.307 87.3507 111.556 86.6758 111.82C85.7037 112.281 84.7014 112.673 83.6761 112.994C81.9263 113.405 80.1265 113.578 78.3667 113.954C77.4818 114.134 76.63 114.453 75.842 114.899C75.267 115.245 74.8771 115.448 74.2471 115.057C74.0322 114.94 73.6022 115.255 73.1972 115.403Z" fill="#ED7B26"/>
<path d="M360.342 87.7526C356.583 87.966 353.093 86.8429 349.768 85.2778C346.521 83.6591 343.588 81.4553 341.114 78.7733C337.886 75.4037 335.125 71.6033 332.905 67.4767L334.08 65.444H339.079C341.119 65.3018 342.409 66.3994 343.769 67.8528C347.075 71.4654 351.363 73.9982 356.088 75.1297C356.65 75.2972 357.173 75.5772 357.628 75.9533C358.082 76.3294 358.457 76.7941 358.732 77.3199C359.882 79.9166 360.662 82.6861 361.587 85.3896C361.603 85.528 361.603 85.6679 361.587 85.8063C360.577 86.0248 360.147 86.6905 360.342 87.7526ZM360.887 85.166C360.077 82.7827 359.332 80.1606 358.272 77.6756C358.041 77.195 357.716 76.7671 357.317 76.4178C356.919 76.0684 356.454 75.8048 355.953 75.643C350.633 74.3878 346.299 71.5776 342.689 67.5123C342.26 66.9869 341.715 66.5725 341.098 66.3031C340.481 66.0336 339.81 65.9169 339.139 65.9624C337.89 66.0183 336.64 65.9624 335.385 65.9878C335.111 65.9881 334.841 66.0617 334.604 66.2012C334.366 66.3407 334.169 66.5412 334.032 66.7826C333.894 67.024 333.822 67.2978 333.822 67.5766C333.821 67.8554 333.893 68.1294 334.03 68.3711C336.259 72.2261 338.958 75.7793 342.064 78.946C346.749 83.6466 352.228 86.6194 358.837 87.2596C358.997 87.2602 359.155 87.2275 359.302 87.1638C359.449 87.1 359.582 87.0064 359.692 86.8887C360.122 86.3378 360.521 85.7627 360.887 85.166Z" fill="#369725"/>
<path d="M208.018 73.2246C208.348 73.7785 208.683 74.3324 209.018 74.8863C208.378 75.3945 207.858 75.3081 207.773 74.5662C207.789 74.109 207.871 73.6568 208.018 73.2246Z" fill="#E99435"/>
<path d="M70.3081 50.245C71.248 48.7968 72.2029 47.3586 73.1228 45.9002C76.0078 41.3119 78.3821 36.4119 80.202 31.2904C80.3851 30.8449 80.7336 30.4906 81.1719 30.3046C82.8792 29.6966 84.2866 28.4373 85.0965 26.7931C85.2238 26.5205 85.419 26.2866 85.6629 26.1145C85.9067 25.9424 86.1906 25.8383 86.4864 25.8124C95.2621 24.2811 104.034 22.7312 112.803 21.1627C113.333 21.0661 113.588 21.1627 113.693 21.7267C114.158 24.3387 115.693 25.8937 118.458 26.4171C118.278 27.3572 118.148 28.3024 117.908 29.2171C116.118 36.2833 113.546 43.121 110.244 49.5997C107.649 54.5711 104.485 59.214 100.82 63.432C98.8201 65.7187 96.8203 67.9546 94.6805 70.1042C89.6819 75.0805 84.2541 79.5908 78.4622 83.5808C70.0295 89.4478 61.0327 94.4296 51.6101 98.4497C50.8551 98.78 50.0802 99.0493 49.3203 99.3492C48.4454 98.3023 48.4604 98.3328 49.6253 97.474C49.9918 97.1858 50.3137 96.8432 50.5802 96.4577C51.6267 95.1026 52.6583 93.7288 53.6748 92.3365C53.93 92.0441 54.1163 91.6965 54.2198 91.3201C54.2881 90.9075 54.4629 90.5208 54.7264 90.1994C54.9899 89.8779 55.3327 89.6334 55.7196 89.4907C56.0396 89.3383 56.5445 88.9826 56.5245 88.7691C56.4195 87.5902 57.1195 87.0871 57.9794 86.6247C58.1852 86.4747 58.3559 86.2803 58.4793 86.0555C58.842 85.414 59.2675 84.8113 59.7492 84.2566C60.9141 83.1641 61.999 82.0867 62.054 80.3132C62.054 79.9728 62.4389 79.6475 62.6489 79.2969C63.7988 77.4624 65.4986 75.9735 66.0535 73.763C70.1981 79.1292 76.7974 79.5916 82.0518 76.3394C87.6163 72.8838 90.366 67.6142 90.336 60.9623C90.336 55.5655 85.6615 51.3071 80.642 51.0683C76.9274 50.8802 73.7227 52.1811 70.808 54.3967C69.9231 53.3804 69.9581 52.2624 70.4381 51.0683C70.4981 50.8701 70.3481 50.5347 70.3081 50.245Z" fill="#5ABB47"/>
<path d="M66.0337 73.7994C65.4788 76.0099 63.7789 77.4988 62.6291 79.3333C62.4191 79.6687 62.0441 79.9939 62.0341 80.3497C61.9791 82.1232 60.8942 83.2005 59.7294 84.293C59.2476 84.8477 58.8222 85.4504 58.4595 86.0919C58.3361 86.3168 58.1654 86.5111 57.9595 86.6611C57.0996 87.1235 56.3997 87.6266 56.5047 88.8056C56.5047 89.0241 56.0048 89.3747 55.6998 89.5272C55.3128 89.6698 54.9701 89.9144 54.7066 90.2358C54.4431 90.5572 54.2682 90.944 54.1999 91.3566C54.0965 91.733 53.9101 92.0805 53.655 92.3729C52.6351 93.7585 51.6036 95.1322 50.5603 96.4941C50.2939 96.8796 49.972 97.2222 49.6054 97.5104C48.4406 98.3591 48.4256 98.3388 49.3005 99.3856L42.5762 102.297C41.9762 100.346 40.8164 99.2179 38.9566 98.8622C38.8614 98.813 38.7793 98.741 38.7175 98.6525C38.6557 98.564 38.6159 98.4616 38.6016 98.354C38.7616 97.297 38.9766 96.2502 39.1715 95.2034C39.8615 95.4981 40.3164 95.4066 40.7114 94.6291C40.9863 94.121 41.6413 93.7805 42.0712 93.3181C42.5012 92.8556 43.0211 92.4542 43.0011 92.0426C42.9361 90.6553 44.081 90.2081 44.7309 89.3899C45.2709 88.709 45.8908 88.0992 46.4308 87.4233C46.6457 87.1489 46.6757 86.7272 46.8907 86.4527C48.3906 84.5319 49.7504 82.4331 51.5052 80.7765C52.9201 79.4502 53.1051 77.3159 54.8549 76.2691C55.2798 76.015 55.2598 75.08 55.5848 74.5464C56.3097 73.3624 57.4146 72.3257 57.8246 71.0553C58.2945 69.5918 59.1644 68.4891 59.9343 67.2593C60.6017 66.0898 61.1977 64.8798 61.7192 63.6361C61.9858 62.9027 62.3033 62.1895 62.6691 61.5018C63.449 60.3228 63.484 60.2974 62.1691 59.9061L70.3082 50.3018C70.3482 50.5914 70.4982 50.9268 70.4032 51.1606C69.9033 52.3548 69.9033 53.4677 70.7732 54.4891C70.5832 54.7025 70.4082 54.9312 70.1983 55.1243C66.8786 58.1733 64.6988 61.8168 64.1989 66.4157C63.9439 68.9007 64.0939 71.2687 65.8637 73.2404C66.0337 73.3217 65.9937 73.591 66.0337 73.7994Z" fill="#55B441"/>
<path d="M62.1685 59.8496C63.5034 60.2409 63.4684 60.2663 62.6685 61.4453C62.3027 62.133 61.9852 62.8462 61.7186 63.5796C61.1971 64.8233 60.6011 66.0333 59.9337 67.2028C59.1638 68.4325 58.2939 69.5353 57.824 70.9988C57.414 72.2692 56.3241 73.3059 55.5842 74.4899C55.2592 75.0235 55.2792 75.9585 54.8543 76.2126C53.1045 77.2594 52.9195 79.3937 51.5046 80.72C49.7498 82.3766 48.395 84.4754 46.8901 86.3962C46.6751 86.6706 46.6452 87.0924 46.4302 87.3668C45.8902 88.0427 45.2703 88.6525 44.7304 89.3334C44.0804 90.1516 42.9355 90.5988 43.0005 91.9861C43.0005 92.3977 42.4356 92.8703 42.0706 93.2616C41.7057 93.6529 40.9858 94.0441 40.7108 94.5726C40.3158 95.3501 39.8609 95.4416 39.1709 95.1469C39.5609 92.1334 39.9409 89.1251 40.3508 86.1167C40.6658 83.7538 40.9708 81.3908 41.3857 79.0481C41.5849 78.3875 41.9036 77.7706 42.3256 77.2289C42.7306 76.5937 43.4305 76.0652 43.6055 75.3843C43.9854 73.9004 45.1053 73.2296 46.2202 72.5487C50.1135 70.1346 53.7936 67.3819 57.219 64.3215C58.9189 62.8681 60.5337 61.3385 62.1685 59.8496Z" fill="#44A734"/>
<path d="M360.887 85.1665C360.521 85.7563 360.122 86.3246 359.692 86.8689C359.582 86.9866 359.449 87.0802 359.302 87.144C359.155 87.2078 358.997 87.2404 358.837 87.2399C352.228 86.5996 346.749 83.6268 342.064 78.9263C338.959 75.7642 336.26 72.2162 334.03 68.3665C333.893 68.1248 333.821 67.8509 333.822 67.5721C333.822 67.2933 333.894 67.0194 334.032 66.778C334.169 66.5366 334.366 66.3361 334.604 66.1967C334.841 66.0572 335.111 65.9836 335.385 65.9833C336.635 65.9833 337.885 66.0137 339.139 65.9578C339.81 65.9123 340.481 66.0291 341.098 66.2985C341.715 66.568 342.26 66.9824 342.689 67.5078C346.299 71.5731 350.633 74.3934 355.953 75.6384C356.454 75.8003 356.919 76.0639 357.317 76.4132C357.716 76.7626 358.041 77.1905 358.272 77.6711C359.332 80.1611 360.077 82.7832 360.887 85.1665ZM350.503 77.1528C350.948 75.0388 347.799 72.4217 345.504 72.3811C344.956 72.3815 344.417 72.5162 343.931 72.7737C343.446 73.0312 343.029 73.4039 342.715 73.8603C342.402 74.3166 342.201 74.8431 342.13 75.395C342.06 75.947 342.121 76.5081 342.309 77.0308C342.715 78.0402 343.415 78.8994 344.315 79.4934C345.214 80.0873 346.271 80.3877 347.344 80.3542C347.762 80.369 348.178 80.2964 348.567 80.1409C348.957 79.9854 349.31 79.7503 349.607 79.4502C349.903 79.15 350.135 78.7912 350.29 78.396C350.444 78.0009 350.517 77.5777 350.503 77.1528Z" fill="#67B848"/>
<path d="M66.0328 73.7986C65.9878 73.5903 66.0328 73.3209 65.8828 73.1837C64.113 71.212 63.963 68.844 64.218 66.359C64.7179 61.7856 66.8727 58.1064 70.2173 55.0676C70.4273 54.8745 70.6023 54.6458 70.7923 54.4324C73.707 52.2168 76.9116 50.9159 80.6263 51.1039C85.6257 51.3681 90.2952 55.6012 90.3202 60.9979C90.3502 67.6498 87.6005 72.9195 82.0361 76.375C76.7817 79.6273 70.1824 79.1648 66.0328 73.7986ZM75.0318 76.4055C75.6008 76.4539 76.1727 76.4539 76.7417 76.4055C77.5501 76.2674 78.3448 76.0566 79.1164 75.7754C84.7558 73.6614 89.1153 66.8062 88.5504 60.7235C88.0505 55.2099 82.926 52.4759 78.8614 52.9892C74.2619 53.5736 70.9623 56.2415 68.4175 60.0019C66.5009 62.6751 65.6767 65.9987 66.1178 69.2759C66.7277 73.4785 70.7523 76.5732 75.0318 76.4055Z" fill="#178A42"/>
<path d="M350.503 77.1525C350.516 77.5766 350.444 77.9989 350.29 78.3934C350.137 78.7878 349.905 79.1461 349.61 79.4461C349.315 79.7461 348.962 79.9815 348.574 80.1376C348.186 80.2938 347.771 80.3674 347.354 80.354C346.281 80.3875 345.224 80.0871 344.325 79.4931C343.425 78.8992 342.725 78.04 342.319 77.0306C342.131 76.5079 342.07 75.9468 342.14 75.3948C342.211 74.8429 342.412 74.3164 342.725 73.8601C343.039 73.4037 343.456 73.031 343.941 72.7735C344.427 72.516 344.966 72.3813 345.514 72.3809C347.774 72.4215 350.923 75.0386 350.503 77.1525ZM347.134 79.6934C349.353 79.6934 350.568 77.8081 349.633 75.7754C349.276 74.9968 348.724 74.3276 348.031 73.8351C347.339 73.3427 346.531 73.0444 345.689 72.9703C345.332 72.9341 344.971 72.9718 344.629 73.0813C344.286 73.1907 343.969 73.3696 343.697 73.6071C343.424 73.8446 343.202 74.1358 343.043 74.463C342.885 74.7903 342.793 75.1469 342.774 75.5112C342.589 77.7878 344.559 79.6731 347.109 79.6883L347.134 79.6934Z" fill="#369725"/>
<path d="M75.0323 76.4059C70.7527 76.599 66.7282 73.5042 66.1182 69.256C65.6772 65.9787 66.5013 62.6551 68.418 59.9819C70.9627 56.2215 74.2624 53.5536 78.8619 52.9692C82.9264 52.4611 88.0309 55.1899 88.5508 60.7035C89.1258 66.8015 84.7562 73.6415 79.1168 75.7554C78.3452 76.0366 77.5505 76.2475 76.7421 76.3856C76.1737 76.4407 75.6018 76.4475 75.0323 76.4059ZM75.3173 57.2582C73.6474 58.9249 72.0526 60.3376 70.6977 61.9638C70.2328 62.5228 70.1378 63.6509 70.2778 64.4436C70.8977 67.95 74.4773 69.1594 77.1271 66.8269C77.827 66.2121 78.4969 65.5616 79.2018 64.9467C79.4276 64.7135 79.7055 64.5392 80.0118 64.4386C80.3406 64.3364 80.695 64.3614 81.0069 64.5086C81.3188 64.6559 81.5662 64.9151 81.7016 65.2364C82.1065 66.1104 81.6716 66.6999 81.1016 67.2335C79.7768 68.4836 78.4319 69.7082 76.9821 71.0498C77.6396 71.2541 78.3071 71.4238 78.9819 71.558C79.4368 71.6291 80.0667 71.7358 80.3617 71.497C81.4815 70.5983 82.5327 69.6147 83.5064 68.5547C84.1858 67.7437 84.5369 66.7006 84.4887 65.6365C84.4404 64.5724 83.9964 63.5666 83.2464 62.8226C82.8976 62.4426 82.4783 62.1364 82.0126 61.9216C81.547 61.7069 81.0442 61.5878 80.5331 61.5713C80.022 61.5548 79.5128 61.6411 79.0346 61.8253C78.5565 62.0095 78.1189 62.288 77.747 62.6447C76.9421 63.3562 76.1672 64.1082 75.3622 64.8248C75.227 64.9732 75.063 65.0915 74.8806 65.1725C74.6983 65.2535 74.5014 65.2953 74.3024 65.2953C74.1033 65.2953 73.9065 65.2535 73.7241 65.1725C73.5417 65.0915 73.3777 64.9732 73.2425 64.8248C72.6825 64.3166 72.7425 63.3714 73.3825 62.7006C73.8249 62.177 74.3136 61.6956 74.8423 61.2625C75.7422 60.5968 75.8072 59.738 75.6422 58.7522C75.5922 58.3812 75.4872 58.0052 75.3173 57.2327V57.2582Z" fill="#5ABB47"/>
<path d="M347.109 79.6878C344.559 79.6878 342.609 77.7872 342.739 75.5005C342.758 75.1362 342.85 74.7796 343.008 74.4523C343.167 74.1251 343.389 73.8339 343.662 73.5964C343.934 73.3589 344.251 73.18 344.594 73.0706C344.936 72.9611 345.297 72.9234 345.654 72.9596C346.496 73.0337 347.304 73.332 347.996 73.8244C348.689 74.3169 349.241 74.9861 349.598 75.7647C350.543 77.8025 349.328 79.6979 347.109 79.6878ZM344.559 76.9284C344.239 77.8431 344.919 78.1582 345.484 78.4529C345.619 78.5436 345.77 78.6059 345.929 78.6361C346.088 78.6663 346.251 78.6638 346.409 78.6287C346.567 78.5937 346.717 78.5268 346.849 78.432C346.981 78.3372 347.093 78.2164 347.179 78.0769C347.609 77.4518 347.404 76.9182 346.944 76.4253L345.944 75.3734L346.149 75.1244L348.088 75.5767C347.204 74.1996 346.319 73.8184 345.664 74.4384C344.094 75.9629 346.164 76.4711 346.414 77.7516L344.559 76.9284Z" fill="#5BBB47"/>
<path d="M75.3173 57.2324C75.4873 58.0048 75.5923 58.3809 75.6573 58.7569C75.8222 59.7275 75.7572 60.6016 74.8573 61.2673C74.3286 61.7004 73.8399 62.1818 73.3975 62.7054C72.7676 63.3762 72.6976 64.3112 73.2575 64.8295C73.3928 64.9779 73.5567 65.0963 73.7391 65.1773C73.9215 65.2582 74.1184 65.3 74.3174 65.3C74.5164 65.3 74.7133 65.2582 74.8957 65.1773C75.0781 65.0963 75.242 64.9779 75.3773 64.8295C76.1822 64.113 76.9571 63.3609 77.762 62.6495C78.1339 62.2928 78.5715 62.0143 79.0497 61.8301C79.5278 61.6458 80.0371 61.5595 80.5481 61.576C81.0592 61.5926 81.562 61.7116 82.0277 61.9264C82.4933 62.1411 82.9126 62.4473 83.2615 62.8273C84.0115 63.5714 84.4555 64.5772 84.5037 65.6413C84.552 66.7054 84.2009 67.7484 83.5214 68.5595C82.5477 69.6194 81.4965 70.603 80.3768 71.5017C80.0818 71.7406 79.4519 71.6339 78.9969 71.5627C78.3221 71.4285 77.6546 71.2589 76.9971 71.0546C78.447 69.713 79.7918 68.4883 81.1167 67.2382C81.6866 66.7301 82.1166 66.1152 81.7166 65.2411C81.5813 64.9198 81.3339 64.6606 81.022 64.5134C80.7101 64.3661 80.3557 64.3412 80.0268 64.4433C79.7205 64.544 79.4427 64.7183 79.2169 64.9515C78.512 65.5664 77.842 66.2168 77.1421 66.8317C74.4924 69.1642 70.9128 67.9547 70.2928 64.4484C70.1528 63.6557 70.2478 62.5275 70.7128 61.9685C72.0326 60.3119 73.6475 58.8992 75.3173 57.2324Z" fill="#178A42"/>
<path d="M344.559 76.9139L346.419 77.7371C346.179 76.4616 344.099 75.9229 345.669 74.4238C346.324 73.8039 347.209 74.185 348.093 75.5621L346.154 75.1099L345.949 75.3589L346.949 76.4108C347.409 76.9189 347.613 77.4271 347.184 78.0623C347.098 78.1998 346.987 78.3187 346.856 78.4121C346.725 78.5055 346.577 78.5717 346.421 78.6066C346.265 78.6416 346.103 78.6447 345.946 78.6158C345.788 78.587 345.638 78.5266 345.504 78.4384C344.919 78.1589 344.239 77.8438 344.559 76.9139Z" fill="#369725"/>
</svg>
