<svg width="34" height="34" viewBox="0 0 34 34" fill="none" xmlns="http://www.w3.org/2000/svg">
<mask id="mask0_732_20163" style="mask-type:alpha" maskUnits="userSpaceOnUse" x="0" y="0" width="34" height="34">
<rect y="0.474121" width="33.0517" height="33.0517" fill="#D9D9D9"/>
</mask>
<g mask="url(#mask0_732_20163)">
<path d="M6.42683 29.3943C5.79563 29.3943 5.25529 29.1696 4.80581 28.7201C4.35633 28.2706 4.13159 27.7303 4.13159 27.0991V6.90077C4.13159 6.26957 4.35633 5.72923 4.80581 5.27975C5.25529 4.83027 5.79563 4.60553 6.42683 4.60553H19.9459V6.90077H6.42683V27.0991H26.6252V13.6029H28.9204V27.0991C28.9204 27.7303 28.6956 28.2706 28.2462 28.7201C27.7967 29.1696 27.2563 29.3943 26.6252 29.3943H6.42683ZM23.8708 12.4553V9.67804H21.0936V7.3828H23.8708V4.60553H26.1661V7.3828H28.9434V9.67804H26.1661V12.4553H23.8708ZM8.26306 23.8398H24.7889L19.7623 17.1376L15.4702 22.8069L12.2798 18.5837L8.26306 23.8398Z" fill="#1C1C1C"/>
</g>
</svg>
