<svg width="115" height="116" viewBox="0 0 115 116" fill="none" xmlns="http://www.w3.org/2000/svg">
<path d="M57.5 13.0781C48.6153 13.0781 39.9301 15.7127 32.5427 20.6488C25.1554 25.5849 19.3976 32.6007 15.9976 40.8091C12.5976 49.0175 11.708 58.0498 13.4413 66.7638C15.1746 75.4777 19.453 83.482 25.7354 89.7645C32.0179 96.0469 40.0222 100.325 48.7362 102.059C57.4501 103.792 66.4824 102.902 74.6908 99.5023C82.8992 96.1023 89.915 90.3445 94.8511 82.9572C99.7872 75.5698 102.422 66.8846 102.422 57.9999C102.409 46.09 97.6717 34.6715 89.25 26.2499C80.8284 17.8282 69.41 13.0912 57.5 13.0781ZM57.5 99.328C49.326 99.328 41.3357 96.9042 34.5393 92.363C27.7429 87.8218 22.4458 81.3672 19.3178 73.8155C16.1898 66.2638 15.3713 57.9541 16.966 49.9372C18.5607 41.9204 22.4968 34.5564 28.2766 28.7766C34.0564 22.9967 41.4204 19.0606 49.4373 17.466C57.4541 15.8713 65.7638 16.6898 73.3155 19.8178C80.8673 22.9458 87.3218 28.2429 91.863 35.0393C96.4042 41.8357 98.828 49.826 98.828 57.9999C98.8162 68.9572 94.4581 79.4622 86.7102 87.2102C78.9623 94.9581 68.4572 99.3161 57.5 99.328ZM76.74 56.7287C76.9071 56.8955 77.0396 57.0937 77.13 57.3119C77.2204 57.53 77.267 57.7638 77.267 57.9999C77.267 58.2361 77.2204 58.4699 77.13 58.688C77.0396 58.9062 76.9071 59.1044 76.74 59.2712L62.365 73.6462C62.0278 73.9834 61.5705 74.1728 61.0937 74.1728C60.6169 74.1728 60.1596 73.9834 59.8224 73.6462C59.4853 73.3091 59.2958 72.8518 59.2958 72.3749C59.2958 71.8981 59.4853 71.4408 59.8224 71.1036L71.1292 59.7968H39.5312C39.0547 59.7968 38.5976 59.6075 38.2607 59.2705C37.9237 58.9335 37.7344 58.4765 37.7344 57.9999C37.7344 57.5234 37.9237 57.0663 38.2607 56.7294C38.5976 56.3924 39.0547 56.2031 39.5312 56.2031H71.1292L59.8224 44.8963C59.4853 44.5591 59.2958 44.1018 59.2958 43.625C59.2958 43.1481 59.4853 42.6908 59.8224 42.3537C60.1596 42.0165 60.6169 41.8271 61.0937 41.8271C61.5705 41.8271 62.0278 42.0165 62.365 42.3537L76.74 56.7287Z" fill="#070808"/>
</svg>
