<svg width="304" height="72" viewBox="0 0 304 72" fill="none" xmlns="http://www.w3.org/2000/svg">
<g clip-path="url(#clip0_1040_48260)">
<path fill-rule="evenodd" clip-rule="evenodd" d="M174.334 22.3739C174.334 41.6144 174.364 44.2854 174.595 45.6459C175.738 52.3787 179.963 55.5784 187.708 55.5784C189.912 55.5784 192.16 55.3477 192.679 55.0686C192.949 54.9228 192.966 54.5762 192.926 49.9062C192.888 45.5519 192.851 44.9082 192.64 44.9615C192.506 44.9952 191.7 45.0593 190.847 45.1041C188.157 45.2453 186.752 44.556 186.059 42.7551C185.768 42.0003 185.753 41.0596 185.711 21.3022L185.667 0.638672H180H174.334V22.3739ZM196.69 21.5702C196.69 34.8221 196.752 43.1048 196.858 44.1452C197.479 50.2353 200.208 53.7544 205.357 55.1051C207.555 55.6815 213.629 55.7076 215.081 55.1468C215.285 55.0681 215.32 54.3019 215.32 49.9584V44.8625L214.632 44.9965C213.531 45.2107 211.721 45.1651 210.836 44.9005C209.761 44.5793 209.248 44.1514 208.713 43.1315L208.273 42.2918L208.23 21.4652L208.186 0.638672H202.438H196.69V21.5702ZM144.687 14.5955C140.488 15.3612 137.781 16.4272 134.977 18.4191C128.127 23.2861 125.054 31.1405 126.724 39.5203C127.444 43.1372 129.128 46.2901 131.855 49.1284C135.353 52.7684 139.599 54.916 144.635 55.5919C146.428 55.8325 150.818 55.6881 152.382 55.3372C156.688 54.3713 160.12 52.4706 163.251 49.3177C166.619 45.9263 168.433 42.3027 168.97 37.8901C169.765 31.3601 167.884 25.6196 163.486 21.1613C160.231 17.8609 156.712 15.8723 152.382 14.8858C151.282 14.6351 145.638 14.4222 144.687 14.5955ZM235.247 14.7466C227.959 15.9062 222.03 20.5986 219.676 27.0702C218.799 29.4802 218.547 30.9378 218.447 34.1643C218.312 38.5648 218.83 41.4399 220.323 44.5741C223.701 51.6653 231.348 55.7697 240.431 55.3672C246.105 55.1157 251.685 52.7455 255.245 49.0744L256.045 48.2489L253.544 45.835C252.168 44.5074 250.671 43.0764 250.218 42.6551L249.394 41.8891L248.76 42.4277C247.137 43.8068 245.411 44.7166 243.428 45.2394C241.843 45.6574 238.239 45.6659 236.502 45.2557C232.786 44.3785 230.361 41.9859 229.823 38.6644L229.71 37.9716H244.295H258.879L258.992 37.2169C259.196 35.8462 258.948 31.003 258.596 29.4942C257.713 25.7091 256.086 22.7595 253.377 20.0335C250.481 17.1194 247.162 15.4349 242.942 14.738C241.142 14.4408 237.14 14.4453 235.247 14.7466ZM82.996 16.1649C83.1246 16.3677 88.1021 25.6123 94.0572 36.7081C100.012 47.8041 104.934 56.8826 104.994 56.8826C105.079 56.8826 126.774 16.52 127.002 15.9356C127.033 15.8588 124.387 15.8152 121.123 15.8389L115.188 15.8816L110.175 25.4995C107.418 30.7893 105.106 35.1361 105.038 35.1591C104.969 35.1822 102.644 30.854 99.8718 25.5414L94.8308 15.8816L88.7965 15.8389L82.7622 15.796L82.996 16.1649ZM260.122 16.1522C260.183 16.3461 263.867 25.5278 268.308 36.5564L276.383 56.608L275.869 58.0903C275.228 59.9401 274.336 60.9496 272.984 61.3535C271.903 61.6765 269.476 61.6811 267.728 61.3633C267.015 61.2337 266.378 61.1261 266.311 61.1245C266.244 61.1227 266.189 63.3504 266.189 66.0751V71.029L267.283 71.2512C267.996 71.3959 269.42 71.4673 271.373 71.4562C274.064 71.4408 274.535 71.3951 275.982 71.0091C280.24 69.8731 282.874 67.6322 284.953 63.3772C285.534 62.1869 298.924 27.2052 303.085 16.0039C303.145 15.8433 301.93 15.8001 297.344 15.8001H291.527L286.847 29.1682C284.272 36.5206 282.118 42.5363 282.059 42.5363C282 42.5363 279.626 36.5211 276.784 29.1695L271.616 15.8025L265.814 15.8014L260.011 15.8001L260.122 16.1522ZM241.369 24.2078C244.682 24.8883 247.233 27.1827 247.519 29.7412L247.601 30.4724H238.738H229.875L229.984 29.9426C230.82 25.8606 236.207 23.1476 241.369 24.2078ZM151.025 25.4532C152.654 26.0588 153.567 26.6586 154.817 27.9434C156.045 29.2058 156.991 30.8441 157.408 32.4287C157.687 33.4905 157.722 36.2883 157.471 37.5153C157.374 37.9903 156.999 39.0027 156.638 39.7649C155.533 42.0981 153.207 44.125 150.729 44.9142C149.453 45.3208 146.889 45.3982 145.441 45.0741C142.07 44.3193 139.274 41.7603 138.193 38.4404C137.856 37.4044 137.803 36.9334 137.808 35.0371C137.812 33.1643 137.869 32.6783 138.186 31.7766C139.395 28.3459 142.393 25.6966 145.821 25.0317C146.044 24.9884 147.065 24.976 148.089 25.0039C149.578 25.0445 150.168 25.1348 151.025 25.4532Z" fill="#040301"/>
<path d="M67.0249 34.0808C67.0249 52.5504 52.0523 67.523 33.5827 67.523C15.1131 67.523 0.140625 52.5504 0.140625 34.0808C0.140625 15.6112 15.1131 0.638672 33.5827 0.638672C52.0523 0.638672 67.0249 15.6112 67.0249 34.0808Z" fill="#FBD105"/>
<path d="M30.4983 53.2017C29.8845 53.2017 29.4124 53.0129 29.0819 52.6352C28.7514 52.2575 28.4917 51.8561 28.3029 51.4312L14.21 18.5714C14.1628 18.4297 14.1392 18.2645 14.1392 18.0756C14.1392 17.6035 14.3044 17.2022 14.6349 16.8717C14.9654 16.5412 15.3667 16.376 15.8388 16.376H18.4591C19.1673 16.376 19.6866 16.5648 20.0171 16.9425C20.3948 17.3202 20.6545 17.6979 20.7961 18.0756L31.773 43.7828L42.7499 18.0756C42.8915 17.6979 43.1276 17.3202 43.4581 16.9425C43.7886 16.5648 44.2371 16.376 44.8036 16.376H47.7072C48.1793 16.376 48.5806 16.5412 48.9111 16.8717C49.2416 17.2022 49.4069 17.6035 49.4069 18.0756C49.4069 18.2645 49.3833 18.4297 49.336 18.5714L35.2431 51.4312C35.0543 51.8561 34.7946 52.2575 34.4641 52.6352C34.1808 53.0129 33.7323 53.2017 33.1186 53.2017H30.4983Z" fill="white"/>
</g>
<defs>
<clipPath id="clip0_1040_48260">
<rect width="304" height="72" fill="white"/>
</clipPath>
</defs>
</svg>
