<svg width="396" height="169" viewBox="0 0 396 169" fill="none" xmlns="http://www.w3.org/2000/svg">
<path d="M14 91.7478C14.114 86.0198 13.886 80.4448 14.38 74.8318C15.423 65.6848 18.377 56.8628 23.048 48.9418C24.759 47.6818 25.976 48.1978 27.364 49.7058C29.949 52.4548 32.819 54.9558 35.557 57.5528L34.682 59.8628L33.827 62.2498C33.409 63.8348 32.971 65.4188 32.553 67.0038L32.382 67.9588C30.305 78.9238 31.117 90.2448 34.739 100.798C36.64 107.041 33.846 112.254 28.238 113.781C26.871 114.208 25.414 114.256 24.022 113.92C22.63 113.584 21.355 112.876 20.33 111.872C21.274 112.243 22.266 112.474 23.276 112.559C25.711 112.552 28.137 112.25 30.5 111.662C32.401 111.051 33.029 109.39 31.356 107.595C29.683 105.8 27.858 103.777 26.09 101.867C22.953 98.5258 19.874 95.1468 16.585 91.9198C16.148 91.5188 14.893 91.8248 14 91.7478Z" fill="#D01B70"/>
<path d="M311.542 102.421C311.542 106.239 311.408 109.714 311.542 113.17C311.656 115.499 310.458 115.576 308.785 115.442C307.112 115.308 305.477 116.129 305.515 113.227C305.63 101.772 305.515 90.3162 305.515 78.7462C305.564 77.7182 305.872 76.7202 306.409 75.8442C308.31 76.0162 310.762 74.4312 311.827 77.3522C320.894 71.8152 328.004 72.2932 333.593 78.7842C336.071 81.6402 337.51 85.2572 337.672 89.0422C337.834 92.8272 336.711 96.5552 334.486 99.6142C328.631 107.08 321.56 108.015 311.542 102.421ZM321.636 99.9392C323.675 99.9342 325.665 99.3152 327.349 98.1602C329.033 97.0052 330.332 95.3692 331.079 93.4632C331.825 91.5572 331.984 89.4702 331.534 87.4732C331.085 85.4752 330.048 83.6602 328.558 82.2612C327.069 80.8632 325.195 79.9472 323.18 79.6322C321.166 79.3162 319.103 79.6162 317.261 80.4932C315.418 81.3692 313.88 82.7822 312.847 84.5472C311.813 86.3132 311.332 88.3492 311.466 90.3922C311.612 92.9922 312.751 95.4352 314.645 97.2132C316.539 98.9912 319.043 99.9682 321.636 99.9392Z" fill="#343189"/>
<path d="M205.999 86.9937C205.999 89.9337 205.999 92.8737 205.999 95.8147C205.809 103.986 198.091 108.263 191.019 104.177C190.635 103.998 190.216 103.905 189.793 103.905C189.369 103.905 188.951 103.998 188.567 104.177C181.894 107.996 174.214 104.177 173.853 96.5397C173.549 90.1247 173.72 83.6907 173.853 77.2757C173.853 74.2967 176.286 75.9197 177.655 75.6147C179.024 75.3087 180.012 75.6147 179.993 77.5237C179.905 83.5567 179.905 89.5897 179.993 95.6237C179.993 98.8497 182.693 100.702 184.936 99.0407C185.5 98.5357 185.959 97.9227 186.285 97.2377C186.612 96.5527 186.799 95.8087 186.837 95.0507C187.027 89.3227 187.065 83.5947 186.837 77.8667C186.742 75.1367 188.301 75.4807 189.992 75.4617C191.684 75.4427 193.015 75.3087 192.939 77.8097C192.768 83.5377 192.939 89.2657 192.939 94.9937C192.939 97.4567 193.775 99.3087 196.418 99.4797C199.345 99.6517 199.935 97.5707 199.954 95.1647C199.954 89.4377 200.106 83.5757 199.954 77.7907C199.954 75.1937 201.341 75.4617 202.938 75.5187C204.535 75.5757 206.398 74.9647 206.208 77.8097C206.018 80.6547 205.999 83.9767 205.999 86.9937Z" fill="#36338A"/>
<path d="M119.086 134.037C122.584 130.333 126.348 126.839 129.522 122.868C134.927 115.924 138.538 107.745 140.035 99.0601C140.187 98.2001 140.453 97.3791 140.662 96.5391C141.16 96.7141 141.629 96.9651 142.05 97.2841C145.338 100.682 148.57 104.138 151.878 107.518C152.586 108.095 153.357 108.588 154.178 108.988C151.352 117.864 146.525 125.966 140.073 132.663C135.796 137.054 130.891 140.815 126.196 144.787C125.216 145.43 124.171 145.968 123.078 146.39C124.803 145.214 126.459 143.939 128.04 142.572C128.952 141.694 130.207 139.689 129.94 139.326C128.04 136.914 125.85 134.746 123.42 132.873C122.793 132.415 120.892 133.656 119.618 134.114C119.437 134.127 119.256 134.101 119.086 134.037Z" fill="#CE4083"/>
<path d="M374.882 102.477C374.008 102.954 373.589 103.126 373.209 103.374C370.895 105.151 368.092 106.171 365.181 106.294C362.27 106.417 359.392 105.637 356.937 104.061C354.361 102.587 352.231 100.439 350.773 97.846C349.316 95.253 348.585 92.311 348.659 89.334C348.733 86.357 349.609 83.456 351.194 80.939C352.779 78.422 355.013 76.384 357.659 75.041C360.088 73.648 362.875 73.013 365.665 73.217C368.454 73.421 371.12 74.455 373.323 76.186C373.703 76.473 374.521 76.186 375.224 76.186C376.965 75.98 378.72 75.916 380.471 75.995C380.775 75.995 381.041 77.904 381.041 78.955C381.041 86.725 381.041 94.477 381.041 102.248C381.041 103.355 382.163 105.589 379.653 105.398C377.733 105.226 374.578 107.193 374.882 102.477ZM374.996 89.799C375.044 88.452 374.815 87.108 374.322 85.854C373.829 84.6 373.084 83.461 372.133 82.509C371.182 81.557 370.045 80.813 368.794 80.323C367.544 79.833 366.205 79.608 364.864 79.661C363.541 79.658 362.23 79.918 361.007 80.424C359.783 80.93 358.671 81.673 357.734 82.611C356.797 83.549 356.052 84.663 355.544 85.89C355.035 87.117 354.772 88.432 354.77 89.761C354.777 91.108 355.049 92.441 355.571 93.682C356.092 94.923 356.852 96.049 357.808 96.994C358.763 97.94 359.895 98.686 361.139 99.191C362.382 99.697 363.713 99.95 365.054 99.937C366.377 99.953 367.689 99.701 368.913 99.195C370.136 98.689 371.245 97.941 372.174 96.994C373.102 96.047 373.831 94.922 374.316 93.686C374.801 92.449 375.032 91.128 374.996 89.799Z" fill="#343189"/>
<path d="M225.56 78.0393C228.754 73.8963 232.517 73.0943 236.605 74.9083C241.11 76.8173 242.745 80.9223 242.859 85.5623C242.992 91.5003 242.859 97.4573 242.954 103.414C242.954 106.01 241.357 105.323 239.969 105.323C238.582 105.323 236.89 105.972 236.947 103.414C237.08 97.6863 237.042 91.8433 236.947 86.0583C237.052 84.8423 236.729 83.6283 236.034 82.6273C235.34 81.6253 234.317 80.9003 233.145 80.5793C231.919 80.0723 230.556 80.0113 229.289 80.4053C228.023 80.7983 226.933 81.6233 226.206 82.7363C225.594 83.7333 225.283 84.8873 225.313 86.0583C225.218 91.7863 225.142 97.5143 225.313 103.242C225.313 105.896 223.792 105.495 222.233 105.457C220.674 105.418 219.078 106.029 219.097 103.318C219.198 89.3173 219.198 75.3603 219.097 61.4483C219.097 58.7943 220.674 59.2713 222.214 59.2523C223.754 59.2333 225.408 58.8513 225.313 61.4863C225.142 66.0683 225.313 70.6703 225.313 75.2713C225.37 75.9773 225.465 76.7033 225.56 78.0393Z" fill="#343189"/>
<path d="M115.018 26.1833C110.607 24.9613 106.292 23.3766 101.825 22.5747C83.9369 19.4245 67.6069 22.9184 53.1979 34.4118C52.5969 34.8188 51.9599 35.1698 51.2969 35.4628C51.8219 34.9038 52.2469 34.2578 52.5509 33.5528C52.7989 32.6175 53.1029 31.1856 52.5509 30.651C50.9429 28.6794 49.0149 26.9946 46.8479 25.6678C45.7269 25.095 43.7499 26.1833 42.1719 26.5078C44.7379 24.7322 47.1909 22.6893 49.9089 21.2192C65.3719 12.1731 83.7769 9.65976 101.083 14.2312C102.497 14.6842 103.882 15.2262 105.228 15.8541L90.6849 13.2193C86.7119 13.2193 82.7389 13.2193 78.7659 13.2193C78.0629 13.2193 77.3779 14.0212 76.6939 14.4603C78.9749 16.5605 80.9329 19.7872 83.5749 20.5127C87.3769 21.5437 91.7689 20.7609 95.9129 20.7609C102.589 21.2025 109.099 23.0499 115.018 26.1833Z" fill="#CE4083"/>
<path d="M42.3049 26.5078C43.8829 26.1832 45.8599 25.0949 46.9819 25.6677C49.1479 26.9946 51.0759 28.6793 52.6849 30.6509C53.1599 31.1855 52.8559 32.5602 52.6849 33.5528C52.3799 34.2578 51.9549 34.9038 51.4299 35.4618L50.3269 36.5318L46.7539 39.9868L45.2519 41.7628L44.3579 42.7938L40.9179 47.4718L39.6439 49.5528L35.5759 57.5528C32.8379 54.9558 29.8729 52.4548 27.3829 49.7058C25.9949 48.1968 24.7779 47.6818 23.0669 48.9418C25.3099 45.6008 27.4779 42.2018 29.8159 38.9178C31.0319 37.2188 32.5529 35.7488 33.9409 34.1638L38.7119 29.4672L41.5069 27.1379L42.3049 26.5078Z" fill="#D02B79"/>
<path d="M284.547 74.2012C286.297 74.6642 287.969 75.3852 289.509 76.3392C290.696 77.5092 291.543 78.9812 291.961 80.5972C292.151 81.3422 287.38 81.8952 286.049 81.4752C285.27 81.2082 284.243 81.6662 283.331 81.8002C283.54 82.7742 283.426 84.1672 284.015 84.6642C285.916 86.1722 287.988 87.2412 289.908 88.6542C290.918 89.4062 291.77 90.3512 292.416 91.4342C293.063 92.5172 293.49 93.7172 293.675 94.9662C293.859 96.2152 293.797 97.4892 293.492 98.7132C293.186 99.9382 292.643 101.091 291.894 102.105C291.146 103.119 290.205 103.975 289.127 104.624C288.048 105.274 286.853 105.703 285.61 105.888C284.366 106.074 283.098 106.011 281.879 105.704C280.659 105.397 279.512 104.852 278.502 104.1C277.892 103.738 277.376 103.234 277 102.63C276.335 101.332 275.898 99.9192 275.365 98.5632C277 98.1052 278.616 97.5702 280.27 97.2272C280.574 97.2272 281.106 97.8002 281.392 98.2202C281.616 98.6692 281.943 99.0592 282.344 99.3592C282.746 99.6592 283.212 99.8612 283.705 99.9482C284.198 100.035 284.705 100.006 285.184 99.8612C285.664 99.7172 286.103 99.4622 286.467 99.1172C286.884 98.8062 287.223 98.4022 287.456 97.9362C287.689 97.4702 287.811 96.9562 287.811 96.4342C287.811 95.9132 287.689 95.3992 287.456 94.9332C287.223 94.4672 286.884 94.0632 286.467 93.7522C284.737 92.3772 282.665 91.3842 280.935 90.0862C276.259 86.7072 275.327 81.1322 279.034 77.4282C280.727 76.1202 282.58 75.0352 284.547 74.2012Z" fill="#36338A"/>
<path d="M158.721 82.7353L157.467 97.5703C156.885 97.3843 156.339 97.1003 155.851 96.7303C151.821 92.5873 147.848 88.3873 143.837 84.2443C142.899 83.3403 141.908 82.4923 140.871 81.7043C139.636 76.5683 138.305 71.4513 137.202 66.2963C137.032 64.7673 137.032 63.2243 137.202 61.6953C137.835 61.9653 138.43 62.3183 138.97 62.7453C144.464 68.4733 149.882 74.3343 155.395 80.0813C156.441 81.0423 157.553 81.9293 158.721 82.7353Z" fill="#B83B76"/>
<path d="M158.721 82.736C157.581 81.952 156.495 81.091 155.471 80.159C149.958 74.431 144.54 68.589 139.046 62.823C138.506 62.395 137.911 62.042 137.278 61.773C137.786 59.874 138.853 58.173 140.338 56.892C141.823 55.612 143.659 54.811 145.605 54.594C148.836 54.46 153.817 55.987 155.109 59.978C156.509 65 157.613 70.1 158.417 75.252C158.67 77.738 158.772 80.238 158.721 82.736Z" fill="#AC376E"/>
<path d="M50.612 145.074C46.81 142 43.008 138.964 39.416 135.776C38.693 135.146 38.541 133.867 38.123 132.893C39.207 132.98 40.264 133.271 41.241 133.752C47.409 138.683 54.481 142.348 62.056 144.539C64.794 145.379 67.626 145.876 70.402 146.449C71.213 146.866 72.076 147.174 72.968 147.365C76.7701 147.632 80.743 147.766 84.621 147.938C85.158 148.476 85.666 149.044 86.142 149.637C87.568 151.546 88.936 153.456 90.324 155.365C82.067 155.888 73.789 154.786 65.953 152.119C64.433 151.566 62.836 151.184 61.277 150.725L60.916 150.439L60.364 150.229L59.965 150.019L59.452 149.733L58.007 149.007L55.327 147.766L54.262 147.193L53.711 146.888L52.837 146.2L50.612 145.074Z" fill="#D00969"/>
<path d="M90.3236 155.536C88.9356 153.626 87.5676 151.717 86.1416 149.808C85.6656 149.214 85.1576 148.647 84.6206 148.109L91.7876 146.409L92.7376 146.238C93.4626 146.343 94.1986 146.343 94.9236 146.238C100.38 144.328 105.798 142.419 111.216 140.414C111.713 140.788 112.177 141.203 112.603 141.655C114.295 143.87 117.679 144.901 117.394 148.51C109.006 152.852 99.7556 155.253 90.3236 155.536Z" fill="#D01B70"/>
<path d="M106.939 86.0579C108.003 79.4649 109.074 72.8779 110.151 66.2969C110.931 66.8509 111.634 67.7479 112.471 67.8819C115.892 68.3779 119.352 68.6259 122.793 68.9699C121.576 75.1559 120.379 81.3229 119.162 87.5089L106.939 86.0579Z" fill="#0F65CB"/>
<path d="M85.5907 75.9768C84.9437 78.2298 84.2977 80.5018 83.6897 82.7548V83.6138L83.3857 85.5238L83.1187 86.9178L82.8907 88.3688L81.5417 89.9338L73.3477 69.3518L73.4997 67.4428L73.8427 66.0108L74.0327 64.5788L74.4127 63.1848C75.2277 60.9478 76.1737 58.7618 77.2447 56.6368C77.6257 55.9678 79.0127 55.8728 79.9447 55.5098C81.6677 60.6008 83.3917 65.6928 85.1147 70.7838L85.5907 75.9768Z" fill="#052668"/>
<path d="M85.5906 75.9767C85.4186 74.2587 85.2476 72.5397 85.0576 70.8217L97.7756 69.8857C98.5166 75.0217 99.2586 80.1387 99.9806 85.2747C100.133 86.3247 100.266 87.3747 100.399 88.4257H88.0236L85.5906 75.9767Z" fill="#104BA3"/>
<path d="M77.626 114.01C76.504 118.058 74.451 119.967 70.459 120.139C67.436 120.272 64.395 120.005 61.353 119.91C62.798 117.046 64.236 114.175 65.668 111.299L67.056 103.223C67.683 100.951 68.349 98.6978 68.957 96.4068C69.223 95.3558 69.375 94.2868 69.565 93.2178C70.288 93.9438 71.257 94.5348 71.638 95.4138C73.539 99.5378 74.926 103.795 76.827 107.881C77.392 108.785 77.755 109.8 77.893 110.858C78.031 111.916 77.94 112.991 77.626 114.01Z" fill="#076CD6"/>
<path d="M115.018 26.1826C109.123 23.082 102.648 21.2545 96.0077 20.8176C94.8857 19.462 93.6697 18.1637 92.6617 16.7318C91.9537 15.6032 91.3187 14.4297 90.7607 13.2188L105.304 15.8536L109.258 17.4L110.36 17.8773C118.694 21.335 126.137 26.6493 132.127 33.4193C132.564 33.8773 132.412 34.9273 132.526 35.6913C131.784 35.6913 130.872 35.8432 130.283 35.4812C125.207 32.4451 120.112 29.2948 115.018 26.1826Z" fill="#AC376E"/>
<path d="M88.0239 88.4453H100.399C101.141 92.5503 101.844 96.6363 102.623 100.722C102.88 101.754 103.204 102.768 103.593 103.757V106.545L90.9699 106.068L88.0239 88.4453Z" fill="#0F65CB"/>
<path d="M140.871 81.7051C141.906 82.4681 142.896 83.2911 143.837 84.1681C147.848 88.3111 151.821 92.5121 155.851 96.6551C156.338 97.0241 156.885 97.3081 157.467 97.4951C156.364 101.314 155.281 105.132 154.178 108.951C153.358 108.551 152.586 108.058 151.878 107.48C148.57 104.101 145.338 100.645 142.05 97.2471C141.629 96.9281 141.16 96.6761 140.662 96.5021C140.725 91.6021 140.795 86.6691 140.871 81.7051Z" fill="#C33E7D"/>
<path d="M51.791 88.9022L51.5439 87.4512C53.2549 84.6062 56.22 85.5422 58.692 85.1792C60.478 84.9122 62.9119 83.2702 63.8619 86.5542L64.1279 88.0242L64.528 89.3992L66.657 101.79C65.536 101.629 64.4049 101.552 63.2729 101.561C60.2689 101.866 57.285 102.324 54.3 102.725C53.616 98.6972 52.9129 94.6682 52.2279 90.6402C52.0189 90.0672 52.019 89.4752 51.791 88.9022Z" fill="#104BA3"/>
<path d="M63.8617 86.5536C62.9117 83.3087 60.4787 84.9126 58.6917 85.1796C56.2197 85.5426 53.2547 84.6066 51.5437 87.4516L48.4067 70.4016L61.2197 68.9316L63.8617 86.5536Z" fill="#0F65CB"/>
<path d="M14 91.7481C14.912 91.7481 16.167 91.5191 16.661 92.0151C19.893 95.2421 22.972 98.6211 26.166 101.962C27.934 103.872 29.683 105.781 31.432 107.69C33.181 109.6 32.553 111.146 30.576 111.757C28.213 112.345 25.788 112.647 23.353 112.654C22.342 112.569 21.35 112.338 20.406 111.967L18.657 110.058L17.859 108.912L16.794 106.526L16.49 105.571L16.319 104.635L15.996 103.681L15.901 102.707L15.52 101.294L14 91.7481Z" fill="#D00969"/>
<path d="M97.7757 69.9062L85.0577 70.8413C83.3467 65.7503 81.6237 60.6593 79.8877 55.5673C83.6897 55.5673 87.6247 55.3193 91.4647 55.5673C92.1247 55.7193 92.7407 56.0253 93.2617 56.4593C93.7837 56.8933 94.1967 57.4453 94.4677 58.0683C95.7417 61.9633 96.7107 65.9542 97.7757 69.9062Z" fill="#0C3B8A"/>
<path d="M61.2197 68.9318L48.4067 70.4018C47.4377 67.5758 46.5057 64.6738 45.4797 61.9248C44.5947 59.9628 43.6047 58.0508 42.5137 56.1968C47.1527 56.1968 51.5437 56.0438 55.9157 56.3118C56.8097 56.3118 58.0257 57.8388 58.4067 58.8888C59.6227 62.2298 60.3077 65.5908 61.2197 68.9318Z" fill="#076CD6"/>
<path d="M90.9126 106.068L103.536 106.545L104.6 110.364C105.722 114.182 106.273 118.153 110.113 120.387C104.904 123.423 95.4376 120.597 93.2886 115.137C92.3016 112.169 91.5076 109.139 90.9126 106.068Z" fill="#076CD6"/>
<path d="M256.451 90.5254C256.451 86.2484 256.451 81.9714 256.451 77.6954C256.451 75.6134 257.496 75.4613 258.941 75.7853C260.386 76.1103 262.458 74.6404 262.439 77.6954C262.439 86.3254 262.439 94.8783 262.439 103.584C262.439 106.677 260.196 105.169 258.884 105.494C257.572 105.818 256.394 105.494 256.451 103.451C256.546 99.0784 256.451 94.8024 256.451 90.5254Z" fill="#343189"/>
<path d="M117.394 148.53C117.679 144.921 114.295 143.89 112.603 141.676C112.177 141.223 111.713 140.808 111.216 140.434C111.843 139.976 112.47 139.518 113.117 139.041L117.489 135.222C117.511 135.162 117.553 135.111 117.609 135.079C117.665 135.048 117.73 135.037 117.793 135.05L118.896 134.248C118.909 134.188 118.943 134.134 118.991 134.095C119.04 134.057 119.1 134.037 119.162 134.038C119.313 134.066 119.467 134.066 119.618 134.038C120.949 133.58 122.85 132.339 123.42 132.797C125.849 134.671 128.039 136.838 129.94 139.251C130.226 139.614 128.971 141.618 128.039 142.497C126.459 143.863 124.803 145.138 123.078 146.315C123.035 146.379 122.974 146.43 122.904 146.46C122.833 146.491 122.755 146.5 122.679 146.487L117.394 148.53Z" fill="#D02B79"/>
<path d="M122.793 68.9696C119.352 68.6256 115.892 68.3776 112.471 67.8816C111.634 67.7476 110.931 66.8506 110.151 66.2966C110.779 64.0436 111.273 61.7336 112.052 59.5376C112.373 58.6386 112.998 57.8806 113.817 57.3956C114.637 56.9106 115.6 56.7296 116.539 56.8836C120.341 57.0556 124.028 56.8836 127.564 56.8836L122.793 68.9696Z" fill="#076CD6"/>
<path d="M104.6 110.344L103.536 106.526V103.738C103.878 102.115 104.239 100.512 104.581 98.8887V97.9907L104.695 97.0176C105.37 96.9316 106.05 96.8937 106.729 96.9027C110.17 97.2277 113.592 97.6087 117.033 97.9717L116.881 98.8887L116.653 100.798L114.581 111.891L104.6 110.344Z" fill="#0C3B8A"/>
<path d="M117.147 97.9906C113.706 97.6286 110.284 97.2466 106.844 96.9216C106.164 96.9126 105.484 96.9506 104.81 97.0366L106.939 86.0576L119.162 87.5086L117.147 97.9906Z" fill="#104BA3"/>
<path d="M81.6369 95.5848L80.1729 104.616C79.5069 104.044 78.4999 103.624 78.2719 102.917C75.8009 97.0168 73.4429 91.0798 71.0669 85.1418L71.4089 82.7358L71.5419 81.8198L72.3599 76.5498C72.9419 77.0108 73.4429 77.5658 73.8419 78.1918C75.2869 81.5908 76.5419 85.0848 78.0249 88.4638C79.0509 90.9078 80.4009 93.1608 81.6369 95.5848Z" fill="#104BA3"/>
<path d="M54.2998 102.707C57.2848 102.306 60.2698 101.848 63.2728 101.542C64.4048 101.534 65.5358 101.61 66.6568 101.772L67.0558 103.203C66.5998 105.896 66.1248 108.588 65.6678 111.28L56.1628 111.872L55.8208 110.344L55.5738 109.428L55.3838 108.435L55.0228 107.06L54.8518 105.59L54.5098 104.196L54.2998 102.707Z" fill="#0C3B8A"/>
<path d="M71.0288 85.1416C73.4048 91.0796 75.7619 97.0176 78.2339 102.917C78.5189 103.624 79.5259 104.044 80.1349 104.616C79.2859 107.748 78.4369 110.879 77.5869 114.01C77.9019 112.991 77.9929 111.916 77.8549 110.858C77.7169 109.8 77.3538 108.785 76.7888 107.881C74.8878 103.795 73.4048 99.5376 71.5988 95.4136C71.2188 94.5346 70.2499 93.9436 69.5269 93.2176L71.0288 85.1416Z" fill="#0F65CB"/>
<path d="M81.6357 95.5852C80.4007 93.2172 79.0507 90.9072 77.9677 88.4632C76.4847 85.0842 75.2297 81.5902 73.7847 78.1912C73.3857 77.5652 72.8837 77.0102 72.3027 76.5492L73.2907 69.4082C75.9907 76.1672 78.6707 82.9452 81.4837 89.9902L82.8337 88.4252L81.6357 95.5852Z" fill="#0C3B8A"/>
<path d="M117.394 148.529L122.679 146.619C116.893 150.443 110.445 153.143 103.669 154.581C90.77 157.756 77.229 157.093 64.699 152.672C63.55 152.181 62.433 151.62 61.353 150.992C62.912 151.45 64.509 151.832 66.03 152.385C83.014 157.916 101.48 156.545 117.47 148.567L117.394 148.529Z" fill="#CE4083"/>
<path d="M104.601 110.344L114.543 111.776L114.353 112.692L113.269 115.404C112.223 117.065 111.178 118.726 110.113 120.368C106.273 118.153 105.722 114.163 104.601 110.344Z" fill="#052668"/>
<path d="M259.53 72.0249C258.685 72.0709 257.845 71.8619 257.118 71.4249C256.392 70.9889 255.811 70.3439 255.451 69.5749C255.09 68.8049 254.966 67.9449 255.095 67.1049C255.224 66.2639 255.599 65.4809 256.173 64.8559C256.747 64.2309 257.493 63.7909 258.317 63.5939C259.14 63.3969 260.004 63.4509 260.797 63.7489C261.59 64.0479 262.276 64.5759 262.769 65.2679C263.261 65.9599 263.536 66.7839 263.56 67.6339C263.587 68.7479 263.181 69.8289 262.429 70.6479C261.677 71.4669 260.638 71.9609 259.53 72.0249Z" fill="#36338A"/>
<path d="M56.2578 111.89L65.7628 111.299C64.3438 114.188 62.9058 117.058 61.4478 119.909C60.0218 118.229 58.4828 116.606 57.2088 114.812C56.7368 113.896 56.4158 112.909 56.2578 111.89Z" fill="#052668"/>
<path d="M117.413 135.164L113.041 138.982C112.471 139.46 111.843 139.918 111.14 140.376C105.722 142.285 100.304 144.309 94.8476 146.199C94.1236 146.305 93.3866 146.305 92.6616 146.199C98.6876 143.908 104.753 141.751 110.703 139.288C113.04 138.086 115.284 136.708 117.413 135.164Z" fill="#CE4083"/>
<path d="M91.7878 146.334L84.6208 148.033C80.8188 147.861 76.8459 147.728 72.9679 147.46C72.0759 147.269 71.2129 146.961 70.4019 146.544C73.0629 146.544 75.7058 146.811 78.3478 146.754C82.8338 146.62 87.3208 146.486 91.7878 146.334Z" fill="#CE4083"/>
<path d="M51.791 88.9023C51.924 89.4753 52.076 90.0673 52.228 90.6403C52.019 90.0673 52.019 89.4943 51.791 88.9023Z" fill="#0F65CB"/>
<path d="M90.8177 13.2194C91.3757 14.4304 92.0107 15.6039 92.7187 16.7324C93.7267 18.1644 94.9427 19.4627 96.0647 20.8183C91.9207 20.8183 87.5867 21.6011 83.7277 20.5701C81.0847 19.8445 79.1267 16.6179 76.8457 14.5177C77.5297 14.0785 78.2147 13.2957 78.9177 13.2766C82.8717 13.1621 86.8447 13.2194 90.8177 13.2194Z" fill="#B83B76"/>
</svg>
